0
SECTION
2
HEADER
9
$INSUNITS
70
4
9
$ACADVER
1
AC1014
9
$HANDSEED
5
FFFF
0
ENDSEC
0
SECTION
2
TABLES
0
TABLE
2
VPORT
5
8
100
AcDbSymbolTable
0
ENDTAB
0
TABLE
2
LTYPE
5
5
100
AcDbSymbolTable
0
LTYPE
5
14
100
AcDbSymbolTableRecord
100
AcDbLinetypeTableRecord
2
BYBLOCK
70
0
0
LTYPE
5
15
100
AcDbSymbolTableRecord
100
AcDbLinetypeTableRecord
2
BYLAYER
70
0
0
ENDTAB
0
TABLE
2
LAYER
5
2
100
AcDbSymbolTable
70
2
0
LAYER
5
50
100
AcDbSymbolTableRecord
100
AcDbLayerTableRecord
2
0
70
0
6
CONTINUOUS
0
ENDTAB
0
TABLE
2
STYLE
5
3
100
AcDbSymbolTable
70
1
0
STYLE
5
11
100
AcDbSymbolTableRecord
100
AcDbTextStyleTableRecord
2
STANDARD
70
0
0
ENDTAB
0
TABLE
2
VIEW
5
6
100
AcDbSymbolTable
70
0
0
ENDTAB
0
TABLE
2
UCS
5
7
100
AcDbSymbolTable
70
0
0
ENDTAB
0
TABLE
2
APPID
5
9
100
AcDbSymbolTable
70
2
0
APPID
5
12
100
AcDbSymbolTableRecord
100
AcDbRegAppTableRecord
2
ACAD
70
0
0
ENDTAB
0
TABLE
2
DIMSTYLE
5
A
100
AcDbSymbolTable
70
1
0
ENDTAB
0
TABLE
2
BLOCK_RECORD
5
1
100
AcDbSymbolTable
70
1
0
BLOCK_RECORD
5
1F
100
AcDbSymbolTableRecord
100
AcDbBlockTableRecord
2
*MODEL_SPACE
0
BLOCK_RECORD
5
1B
100
AcDbSymbolTableRecord
100
AcDbBlockTableRecord
2
*PAPER_SPACE
0
ENDTAB
0
ENDSEC
0
SECTION
2
BLOCKS
0
BLOCK
5
20
100
AcDbEntity
100
AcDbBlockBegin
2
*MODEL_SPACE
0
ENDBLK
5
21
100
AcDbEntity
100
AcDbBlockEnd
0
BLOCK
5
1C
100
AcDbEntity
100
AcDbBlockBegin
2
*PAPER_SPACE
0
ENDBLK
5
1D
100
AcDbEntity
100
AcDbBlockEnd
0
ENDSEC
0
SECTION
2
ENTITIES
0
LWPOLYLINE
5
100
100
AcDbEntity
8
0
100
AcDbPolyline
90
20
70
1
43
0.0
10
307.83591468000009
20
63.775706839999998
10
307.03691450000008
20
63.775706839999998
10
307.03691450000008
20
69.575707939999972
10
307.83591468000009
20
69.575707939999972
10
307.83591468000009
20
72.674906719999981
10
307.03691450000008
20
72.674906719999981
10
307.03691450000008
20
73.675407640000003
10
293.03691456000001
20
73.675407640000003
10
293.03691456000001
20
72.674906719999981
10
292.23591540000001
20
72.674906719999981
10
292.23591540000001
20
69.575707939999972
10
293.03691456000001
20
69.575707939999972
10
293.03691456000001
20
63.775706839999998
10
292.23591540000001
20
63.775706839999998
10
292.23591540000001
20
60.675105979999991
10
293.03691456000001
20
60.675105979999991
10
293.03691456000001
20
59.676106200000021
10
307.03691450000008
20
59.676106200000021
10
307.03691450000008
20
60.675105979999991
10
307.83591468000009
20
60.675105979999991
0
LWPOLYLINE
5
101
100
AcDbEntity
8
0
100
AcDbPolyline
90
20
70
1
43
0.0
10
93.012115220000013
20
41.625105979999965
10
93.012115220000013
20
40.626106200000009
10
107.01191450000003
20
40.626106200000009
10
107.01191450000003
20
41.625105979999965
10
107.81091468
20
41.625105979999965
10
107.81091468
20
44.725706840000008
10
107.01191450000003
20
44.725706840000008
10
107.01191450000003
20
50.525707940000004
10
107.81091468
20
50.525707940000004
10
107.81091468
20
53.624906719999998
10
107.01191450000003
20
53.624906719999998
10
107.01191450000003
20
54.625407639999999
10
93.012115220000013
20
54.625407639999999
10
93.012115220000013
20
53.624906719999998
10
92.211314180000002
20
53.624906719999998
10
92.211314180000002
20
50.525707940000004
10
93.012115220000013
20
50.525707940000004
10
93.012115220000013
20
44.725706840000008
10
92.211314180000002
20
44.725706840000008
10
92.211314180000002
20
41.625105979999965
0
LWPOLYLINE
5
102
100
AcDbEntity
8
0
100
AcDbPolyline
90
20
70
1
43
0.0
10
216.83691456000005
20
31.47580700000001
10
216.83691456000005
20
25.675607780000011
10
216.03591539999999
20
25.675607780000011
10
216.03591539999999
20
22.575006919999968
10
216.83691456000005
20
22.575006919999968
10
216.83691456000005
20
21.575908080000001
10
230.83691450000003
20
21.575908080000001
10
230.83691450000003
20
22.575006919999968
10
231.63591468000007
20
22.575006919999968
10
231.63591468000007
20
25.675607780000011
10
230.83691450000003
20
25.675607780000011
10
230.83691450000003
20
31.47580700000001
10
231.63591468000007
20
31.47580700000001
10
231.63591468000007
20
34.575005779999977
10
230.83691450000003
20
34.575005779999977
10
230.83691450000003
20
35.575306039999965
10
216.83691456000005
20
35.575306039999965
10
216.83691456000005
20
34.575005779999977
10
216.03591539999999
20
34.575005779999977
10
216.03591539999999
20
31.47580700000001
0
LWPOLYLINE
5
103
100
AcDbEntity
8
0
100
AcDbPolyline
90
20
70
1
43
0.0
10
79.235815619999954
20
31.47580700000001
10
79.235815619999954
20
34.575005779999977
10
78.436414119999966
20
34.575005779999977
10
78.436414119999966
20
35.575306039999965
10
64.43711522000001
20
35.575306039999965
10
64.43711522000001
20
34.575005779999977
10
63.636314180000007
20
34.575005779999977
10
63.636314180000007
20
31.47580700000001
10
64.43711522000001
20
31.47580700000001
10
64.43711522000001
20
25.675607780000011
10
63.636314180000007
20
25.675607780000011
10
63.636314180000007
20
22.575006919999968
10
64.43711522000001
20
22.575006919999968
10
64.43711522000001
20
21.575908080000001
10
78.436414119999966
20
21.575908080000001
10
78.436414119999966
20
22.575006919999968
10
79.235815619999954
20
22.575006919999968
10
79.235815619999954
20
25.675607780000011
10
78.436414119999966
20
25.675607780000011
10
78.436414119999966
20
31.47580700000001
0
LWPOLYLINE
5
104
100
AcDbEntity
8
0
100
AcDbPolyline
90
20
70
1
43
0.0
10
158.88591539999999
20
31.47580700000001
10
159.68691455999999
20
31.47580700000001
10
159.68691455999999
20
25.675607780000011
10
158.88591539999999
20
25.675607780000011
10
158.88591539999999
20
22.575006919999968
10
159.68691455999999
20
22.575006919999968
10
159.68691455999999
20
21.575908080000001
10
173.6869145
20
21.575908080000001
10
173.6869145
20
22.575006919999968
10
174.48591468000001
20
22.575006919999968
10
174.48591468000001
20
25.675607780000011
10
173.6869145
20
25.675607780000011
10
173.6869145
20
31.47580700000001
10
174.48591468000001
20
31.47580700000001
10
174.48591468000001
20
34.575005779999977
10
173.6869145
20
34.575005779999977
10
173.6869145
20
35.575306039999965
10
159.68691455999999
20
35.575306039999965
10
159.68691455999999
20
34.575005779999977
10
158.88591539999999
20
34.575005779999977
0
LWPOLYLINE
5
105
100
AcDbEntity
8
0
100
AcDbPolyline
90
20
70
1
43
0.0
10
45.387115219999998
20
34.575005779999977
10
44.586314180000002
20
34.575005779999977
10
44.586314180000002
20
31.47580700000001
10
45.387115219999998
20
31.47580700000001
10
45.387115219999998
20
25.675607780000011
10
44.586314180000002
20
25.675607780000011
10
44.586314180000002
20
22.575006919999968
10
45.387115219999998
20
22.575006919999968
10
45.387115219999998
20
21.575908080000001
10
59.386414119999991
20
21.575908080000001
10
59.386414119999991
20
22.575006919999968
10
60.185815620000021
20
22.575006919999968
10
60.185815620000021
20
25.675607780000011
10
59.386414119999991
20
25.675607780000011
10
59.386414119999991
20
31.47580700000001
10
60.185815620000021
20
31.47580700000001
10
60.185815620000021
20
34.575005779999977
10
59.386414119999991
20
34.575005779999977
10
59.386414119999991
20
35.575306039999965
10
45.387115219999998
20
35.575306039999965
0
LWPOLYLINE
5
106
100
AcDbEntity
8
0
100
AcDbPolyline
90
20
70
1
43
0.0
10
116.82291596
20
78.726106199999975
10
130.82391411999998
20
78.726106199999975
10
130.82391411999998
20
79.725105979999981
10
131.62491582000001
20
79.725105979999981
10
131.62491582000001
20
82.825706839999981
10
130.82391411999998
20
82.825706839999981
10
130.82391411999998
20
88.625707939999984
10
131.62491582000001
20
88.625707939999984
10
131.62491582000001
20
91.724906720000007
10
130.82391411999998
20
91.724906720000007
10
130.82391411999998
20
92.72540764
10
116.82291596
20
92.72540764
10
116.82291596
20
91.724906720000007
10
116.02391577999998
20
91.724906720000007
10
116.02391577999998
20
88.625707939999984
10
116.82291596
20
88.625707939999984
10
116.82291596
20
82.825706839999981
10
116.02391577999998
20
82.825706839999981
10
116.02391577999998
20
79.725105979999981
10
116.82291596
20
79.725105979999981
0
LWPOLYLINE
5
107
100
AcDbEntity
8
0
100
AcDbPolyline
90
20
70
1
43
0.0
10
168.92391412000001
20
82.825706839999981
10
168.92391412000001
20
88.625707939999984
10
169.72491582000001
20
88.625707939999984
10
169.72491582000001
20
91.724906720000007
10
168.92391412000001
20
91.724906720000007
10
168.92391412000001
20
92.72540764
10
154.92491494000001
20
92.72540764
10
154.92491494000001
20
91.724906720000007
10
154.12391578
20
91.724906720000007
10
154.12391578
20
88.625707939999984
10
154.92491494000001
20
88.625707939999984
10
154.92491494000001
20
82.825706839999981
10
154.12391578
20
82.825706839999981
10
154.12391578
20
79.725105979999981
10
154.92491494000001
20
79.725105979999981
10
154.92491494000001
20
78.726106199999975
10
168.92391412000001
20
78.726106199999975
10
168.92391412000001
20
79.725105979999981
10
169.72491582000001
20
79.725105979999981
10
169.72491582000001
20
82.825706839999981
0
LWPOLYLINE
5
108
100
AcDbEntity
8
0
100
AcDbPolyline
90
20
70
1
43
0.0
10
93.523315620000034
20
120.30030804
10
92.723914120000018
20
120.30030804
10
92.723914120000018
20
121.30030604
10
78.724615220000032
20
121.30030604
10
78.724615220000032
20
120.30030804
10
77.92381417999998
20
120.30030804
10
77.92381417999998
20
117.20030662000001
10
78.724615220000032
20
117.20030662000001
10
78.724615220000032
20
111.40030806
10
77.92381417999998
20
111.40030806
10
77.92381417999998
20
108.30030664
10
78.724615220000032
20
108.30030664
10
78.724615220000032
20
107.30130686000001
10
92.723914120000018
20
107.30130686000001
10
92.723914120000018
20
108.30030664
10
93.523315620000034
20
108.30030664
10
93.523315620000034
20
111.40030806
10
92.723914120000018
20
111.40030806
10
92.723914120000018
20
117.20030662000001
10
93.523315620000034
20
117.20030662000001
0
LWPOLYLINE
5
109
100
AcDbEntity
8
0
100
AcDbPolyline
90
20
70
1
43
0.0
10
195.40591602000006
20
6.6255976200000077
10
194.60491432000001
20
6.6255976200000077
10
194.60491432000001
20
3.5250373999999951
10
195.40591602000006
20
3.5250373999999951
10
195.40591602000006
20
2.5259461799999983
10
209.4049152
20
2.5259461799999983
10
209.4049152
20
3.5250373999999951
10
210.20591436000004
20
3.5250373999999951
10
210.20591436000004
20
6.6255976200000077
10
209.4049152
20
6.6255976200000077
10
209.4049152
20
12.427107479999986
10
210.20591436000004
20
12.427107479999986
10
210.20591436000004
20
15.525005780000001
10
209.4049152
20
15.525005780000001
10
209.4049152
20
16.525407640000012
10
195.40591602000006
20
16.525407640000012
10
195.40591602000006
20
15.525005780000001
10
194.60491432000001
20
15.525005780000001
10
194.60491432000001
20
12.427107479999986
10
195.40591602000006
20
12.427107479999986
0
LWPOLYLINE
5
110
100
AcDbEntity
8
0
100
AcDbPolyline
90
20
70
1
43
0.0
10
98.285815619999994
20
31.47580700000001
10
98.285815619999994
20
34.575005779999977
10
97.486414120000006
20
34.575005779999977
10
97.486414120000006
20
35.575306039999965
10
83.48711521999995
20
35.575306039999965
10
83.48711521999995
20
34.575005779999977
10
82.686314179999982
20
34.575005779999977
10
82.686314179999982
20
31.47580700000001
10
83.48711521999995
20
31.47580700000001
10
83.48711521999995
20
25.675607780000011
10
82.686314179999982
20
25.675607780000011
10
82.686314179999982
20
22.575006919999968
10
83.48711521999995
20
22.575006919999968
10
83.48711521999995
20
21.575908080000001
10
97.486414120000006
20
21.575908080000001
10
97.486414120000006
20
22.575006919999968
10
98.285815619999994
20
22.575006919999968
10
98.285815619999994
20
25.675607780000011
10
97.486414120000006
20
25.675607780000011
10
97.486414120000006
20
31.47580700000001
0
LWPOLYLINE
5
111
100
AcDbEntity
8
0
100
AcDbPolyline
90
20
70
1
43
0.0
10
307.03691450000008
20
16.525407640000012
10
293.03691456000001
20
16.525407640000012
10
293.03691456000001
20
15.525005780000001
10
292.23591540000001
20
15.525005780000001
10
292.23591540000001
20
12.427107479999986
10
293.03691456000001
20
12.427107479999986
10
293.03691456000001
20
6.6255976200000077
10
292.23591540000001
20
6.6255976200000077
10
292.23591540000001
20
3.5250373999999951
10
293.03691456000001
20
3.5250373999999951
10
293.03691456000001
20
2.5259461799999983
10
307.03691450000008
20
2.5259461799999983
10
307.03691450000008
20
3.5250373999999951
10
307.83591468000009
20
3.5250373999999951
10
307.83591468000009
20
6.6255976200000077
10
307.03691450000008
20
6.6255976200000077
10
307.03691450000008
20
12.427107479999986
10
307.83591468000009
20
12.427107479999986
10
307.83591468000009
20
15.525005780000001
10
307.03691450000008
20
15.525005780000001
0
LWPOLYLINE
5
112
100
AcDbEntity
8
0
100
AcDbPolyline
90
20
70
1
43
0.0
10
126.0619145
20
53.624906719999998
10
126.0619145
20
54.625407639999999
10
112.06191456000001
20
54.625407639999999
10
112.06191456000001
20
53.624906719999998
10
111.26091540000004
20
53.624906719999998
10
111.26091540000004
20
50.525707940000004
10
112.06191456000001
20
50.525707940000004
10
112.06191456000001
20
44.725706840000008
10
111.26091540000004
20
44.725706840000008
10
111.26091540000004
20
41.625105979999965
10
112.06191456000001
20
41.625105979999965
10
112.06191456000001
20
40.626106200000009
10
126.0619145
20
40.626106200000009
10
126.0619145
20
41.625105979999965
10
126.86091468000001
20
41.625105979999965
10
126.86091468000001
20
44.725706840000008
10
126.0619145
20
44.725706840000008
10
126.0619145
20
50.525707940000004
10
126.86091468000001
20
50.525707940000004
10
126.86091468000001
20
53.624906719999998
0
LWPOLYLINE
5
113
100
AcDbEntity
8
0
100
AcDbPolyline
90
20
70
1
43
0.0
10
266.84191488000005
20
16.525407640000012
10
266.84191488000005
20
15.525005780000001
10
266.04291469999998
20
15.525005780000001
10
266.04291469999998
20
12.427107479999986
10
266.84191488000005
20
12.427107479999986
10
266.84191488000005
20
6.6255976200000077
10
266.04291469999998
20
6.6255976200000077
10
266.04291469999998
20
3.5250373999999951
10
266.84191488000005
20
3.5250373999999951
10
266.84191488000005
20
2.5259461799999983
10
280.84291558000007
20
2.5259461799999983
10
280.84291558000007
20
3.5250373999999951
10
281.64191576000002
20
3.5250373999999951
10
281.64191576000002
20
6.6255976200000077
10
280.84291558000007
20
6.6255976200000077
10
280.84291558000007
20
12.427107479999986
10
281.64191576000002
20
12.427107479999986
10
281.64191576000002
20
15.525005780000001
10
280.84291558000007
20
15.525005780000001
10
280.84291558000007
20
16.525407640000012
0
LWPOLYLINE
5
114
100
AcDbEntity
8
0
100
AcDbPolyline
90
20
70
1
43
0.0
10
1.7239259400000151
20
91.724906720000007
10
1.7239259400000151
20
88.625707939999984
10
2.5245644199999973
20
88.625707939999984
10
2.5245644199999973
20
82.825706839999981
10
1.7239259400000151
20
82.825706839999981
10
1.7239259400000151
20
79.725105979999981
10
2.5245644199999973
20
79.725105979999981
10
2.5245644199999973
20
78.726106199999975
10
16.524114780000012
20
78.726106199999975
10
16.524114780000012
20
79.725105979999981
10
17.324715160000004
20
79.725105979999981
10
17.324715160000004
20
82.825706839999981
10
16.524114780000012
20
82.825706839999981
10
16.524114780000012
20
88.625707939999984
10
17.324715160000004
20
88.625707939999984
10
17.324715160000004
20
91.724906720000007
10
16.524114780000012
20
91.724906720000007
10
16.524114780000012
20
92.72540764
10
2.5245644199999973
20
92.72540764
10
2.5245644199999973
20
91.724906720000007
0
LWPOLYLINE
5
115
100
AcDbEntity
8
0
100
AcDbPolyline
90
20
70
1
43
0.0
10
311.28591540000002
20
3.5250373999999951
10
312.08691456000008
20
3.5250373999999951
10
312.08691456000008
20
2.5259461799999983
10
326.08691450000009
20
2.5259461799999983
10
326.08691450000009
20
3.5250373999999951
10
326.88591467999998
20
3.5250373999999951
10
326.88591467999998
20
6.6255976200000077
10
326.08691450000009
20
6.6255976200000077
10
326.08691450000009
20
12.427107479999986
10
326.88591467999998
20
12.427107479999986
10
326.88591467999998
20
15.525005780000001
10
326.08691450000009
20
15.525005780000001
10
326.08691450000009
20
16.525407640000012
10
312.08691456000008
20
16.525407640000012
10
312.08691456000008
20
15.525005780000001
10
311.28591540000002
20
15.525005780000001
10
311.28591540000002
20
12.427107479999986
10
312.08691456000008
20
12.427107479999986
10
312.08691456000008
20
6.6255976200000077
10
311.28591540000002
20
6.6255976200000077
0
LWPOLYLINE
5
116
100
AcDbEntity
8
0
100
AcDbPolyline
90
20
70
1
43
0.0
10
226.07391412000001
20
79.725105979999981
10
226.87491582000007
20
79.725105979999981
10
226.87491582000007
20
82.825706839999981
10
226.07391412000001
20
82.825706839999981
10
226.07391412000001
20
88.625707939999984
10
226.87491582000007
20
88.625707939999984
10
226.87491582000007
20
91.724906720000007
10
226.07391412000001
20
91.724906720000007
10
226.07391412000001
20
92.72540764
10
212.0749149400001
20
92.72540764
10
212.0749149400001
20
91.724906720000007
10
211.27391578000001
20
91.724906720000007
10
211.27391578000001
20
88.625707939999984
10
212.0749149400001
20
88.625707939999984
10
212.0749149400001
20
82.825706839999981
10
211.27391578000001
20
82.825706839999981
10
211.27391578000001
20
79.725105979999981
10
212.0749149400001
20
79.725105979999981
10
212.0749149400001
20
78.726106199999975
10
226.07391412000001
20
78.726106199999975
0
LWPOLYLINE
5
117
100
AcDbEntity
8
0
100
AcDbPolyline
90
20
70
1
43
0.0
10
193.02491494000009
20
79.725105979999981
10
193.02491494000009
20
78.726106199999975
10
207.02391412
20
78.726106199999975
10
207.02391412
20
79.725105979999981
10
207.82491582000009
20
79.725105979999981
10
207.82491582000009
20
82.825706839999981
10
207.02391412
20
82.825706839999981
10
207.02391412
20
88.625707939999984
10
207.82491582000009
20
88.625707939999984
10
207.82491582000009
20
91.724906720000007
10
207.02391412
20
91.724906720000007
10
207.02391412
20
92.72540764
10
193.02491494000009
20
92.72540764
10
193.02491494000009
20
91.724906720000007
10
192.22391578
20
91.724906720000007
10
192.22391578
20
88.625707939999984
10
193.02491494000009
20
88.625707939999984
10
193.02491494000009
20
82.825706839999981
10
192.22391578
20
82.825706839999981
10
192.22391578
20
79.725105979999981
0
LWPOLYLINE
5
118
100
AcDbEntity
8
0
100
AcDbPolyline
90
20
70
1
43
0.0
10
345.13691450000016
20
15.525005780000001
10
345.13691450000016
20
16.525407640000012
10
331.13691455999998
20
16.525407640000012
10
331.13691455999998
20
15.525005780000001
10
330.33591540000009
20
15.525005780000001
10
330.33591540000009
20
12.427107479999986
10
331.13691455999998
20
12.427107479999986
10
331.13691455999998
20
6.6255976200000077
10
330.33591540000009
20
6.6255976200000077
10
330.33591540000009
20
3.5250373999999951
10
331.13691455999998
20
3.5250373999999951
10
331.13691455999998
20
2.5259461799999983
10
345.13691450000016
20
2.5259461799999983
10
345.13691450000016
20
3.5250373999999951
10
345.93591468
20
3.5250373999999951
10
345.93591468
20
6.6255976200000077
10
345.13691450000016
20
6.6255976200000077
10
345.13691450000016
20
12.427107479999986
10
345.93591468
20
12.427107479999986
10
345.93591468
20
15.525005780000001
0
LWPOLYLINE
5
119
100
AcDbEntity
8
0
100
AcDbPolyline
90
77
70
1
43
0.0
10
177.59191558000001
20
15.055105779999993
10
177.59191558000001
20
11.824906500000001
10
137.96791557999998
20
11.824906500000001
10
137.96791557999998
20
12.427107479999986
10
138.76691575999999
20
12.427107479999986
10
138.76691575999999
20
15.525005780000001
10
137.96791557999998
20
15.525005780000001
10
137.96791557999998
20
16.525407640000012
10
123.96691488000002
20
16.525407640000012
10
123.96691488000002
20
15.525005780000001
10
123.16791470000001
20
15.525005780000001
10
123.16791470000001
20
12.427107479999986
10
123.96691488000002
20
12.427107479999986
10
123.96691488000002
20
11.824906500000001
10
84.343013939999992
20
11.824906500000001
10
84.343013939999992
20
15.055105779999993
10
82.617515740000016
20
15.055105779999993
10
82.617515740000016
20
15.975606859999996
10
79.316915280000032
20
15.975606859999996
10
79.316915280000032
20
15.055105779999993
10
77.591914919999979
20
15.055105779999993
10
77.591914919999979
20
11.824906500000001
10
76.767814459999954
20
11.824906500000001
10
76.767814459999954
20
9.0261465400000063
10
77.591914919999979
20
9.0261465400000063
10
77.591914919999979
20
2.7560777999999964
10
79.316915280000032
20
2.7560777999999964
10
79.316915280000032
20
1.7749164399999984
10
82.617515740000016
20
1.7749164399999984
10
82.617515740000016
20
2.7560777999999964
10
84.343013939999992
20
2.7560777999999964
10
84.343013939999992
20
7.2250376200000055
10
123.96691488000002
20
7.2250376200000055
10
123.96691488000002
20
6.6255976200000077
10
123.16791470000001
20
6.6255976200000077
10
123.16791470000001
20
3.5250373999999951
10
123.96691488000002
20
3.5250373999999951
10
123.96691488000002
20
2.5259461799999983
10
137.96791557999998
20
2.5259461799999983
10
137.96791557999998
20
3.5250373999999951
10
138.76691575999999
20
3.5250373999999951
10
138.76691575999999
20
6.6255976200000077
10
137.96791557999998
20
6.6255976200000077
10
137.96791557999998
20
7.2250376200000055
10
142.79451419200879
20
7.2250376200000055
42
0.63309172010803583
10
143.09238762019518
20
2.7755575615628914e-16
10
0
20
0
10
0
20
123.82530733999999
10
16.652900086875341
20
123.82530734000001
42
0.64077647442727215
10
37.091174348568572
20
123.82530733999999
10
321.64776782235884
20
123.82530733999999
10
321.64776782235884
20
120.24428584556995
10
310.37860976720526
20
120.24428584556995
10
310.37860976720526
20
106.70875461954573
10
324.33258879419964
20
106.70875461954573
10
324.33258879419964
20
119.34151740130504
10
324.33258879419964
20
123.82530733999999
10
347.66291402000002
20
123.82530733999999
10
347.66291402000002
20
0
10
146.21361237980483
20
0
42
0.63309172010803427
10
146.51148580799119
20
7.2250376200000055
10
177.59191558000001
20
7.2250376200000055
10
177.59191558000001
20
2.7560777999999964
10
179.31691594
20
2.7560777999999964
10
179.31691594
20
1.7749164399999984
10
182.61791518000001
20
1.7749164399999984
10
182.61791518000001
20
2.7560777999999964
10
184.34291554000001
20
2.7560777999999964
10
184.34291554000001
20
9.0261465400000063
10
185.1669144
20
9.0261465400000063
10
185.1669144
20
11.824906500000001
10
184.34291554000001
20
11.824906500000001
10
184.34291554000001
20
15.055105779999993
10
182.61791518000001
20
15.055105779999993
10
182.61791518000001
20
15.975606859999996
10
179.31691594
20
15.975606859999996
10
179.31691594
20
15.055105779999993
0
LWPOLYLINE
5
120
100
AcDbEntity
8
0
100
AcDbPolyline
90
20
70
1
43
0.0
10
183.49991494
20
73.675407640000003
10
183.49991494
20
72.674906719999981
10
182.69891577999999
20
72.674906719999981
10
182.69891577999999
20
69.575707939999972
10
183.49991494
20
69.575707939999972
10
183.49991494
20
63.775706839999998
10
182.69891577999999
20
63.775706839999998
10
182.69891577999999
20
60.675105979999991
10
183.49991494
20
60.675105979999991
10
183.49991494
20
59.676106200000021
10
197.49891411999999
20
59.676106200000021
10
197.49891411999999
20
60.675105979999991
10
198.29991582000002
20
60.675105979999991
10
198.29991582000002
20
63.775706839999998
10
197.49891411999999
20
63.775706839999998
10
197.49891411999999
20
69.575707939999972
10
198.29991582000002
20
69.575707939999972
10
198.29991582000002
20
72.674906719999981
10
197.49891411999999
20
72.674906719999981
10
197.49891411999999
20
73.675407640000003
0
LWPOLYLINE
5
121
100
AcDbEntity
8
0
100
AcDbPolyline
90
44
70
1
43
0.0
10
251.42491498000001
20
78.95610573999997
10
253.14791636000001
20
78.95610573999997
10
253.14791636000001
20
77.975007879999978
10
256.44891560000008
20
77.975007879999978
10
256.44891560000008
20
78.95610573999997
10
258.17391595999999
20
78.95610573999997
10
258.17391595999999
20
79.725105979999981
10
259.69991494000004
20
79.725105979999981
10
259.69991494000004
20
78.726106199999975
10
273.69891412000004
20
78.726106199999975
10
273.69891412000004
20
79.725105979999981
10
275.22491564000001
20
79.725105979999981
10
275.22491564000001
20
78.95610573999997
10
276.94991600000003
20
78.95610573999997
10
276.94991600000003
20
77.975007879999978
10
280.24891625999999
20
77.975007879999978
10
280.24891625999999
20
78.95610573999997
10
281.97391407999999
20
78.95610573999997
10
281.97391407999999
20
85.226006839999982
10
282.79991446000014
20
85.226006839999982
10
282.79991446000014
20
88.024906500000043
10
281.97391407999999
20
88.024906500000043
10
281.97391407999999
20
91.255006719999997
10
280.24891625999999
20
91.255006719999997
10
280.24891625999999
20
92.175705919999999
10
276.94991600000003
20
92.175705919999999
10
276.94991600000003
20
91.255006719999997
10
274.49991582000013
20
91.255006719999997
10
274.49991582000013
20
91.724906720000007
10
273.69891412000004
20
91.724906720000007
10
273.69891412000004
20
92.72540764
10
259.69991494000004
20
92.72540764
10
259.69991494000004
20
91.724906720000007
10
258.89891577999998
20
91.724906720000007
10
258.89891577999998
20
91.255006719999997
10
256.44891560000008
20
91.255006719999997
10
256.44891560000008
20
92.175705919999999
10
253.14791636000001
20
92.175705919999999
10
253.14791636000001
20
91.255006719999997
10
251.42491498000001
20
91.255006719999997
10
251.42491498000001
20
88.024906500000043
10
250.5989146
20
88.024906500000043
10
250.5989146
20
85.226006839999982
10
251.42491498000001
20
85.226006839999982
0
LWPOLYLINE
5
122
100
AcDbEntity
8
0
100
AcDbPolyline
90
20
70
1
43
0.0
10
201.74891578
20
72.674906719999981
10
201.74891578
20
69.575707939999972
10
202.54991494000001
20
69.575707939999972
10
202.54991494000001
20
63.775706839999998
10
201.74891578
20
63.775706839999998
10
201.74891578
20
60.675105979999991
10
202.54991494000001
20
60.675105979999991
10
202.54991494000001
20
59.676106200000021
10
216.54891412000001
20
59.676106200000021
10
216.54891412000001
20
60.675105979999991
10
217.34991582000006
20
60.675105979999991
10
217.34991582000006
20
63.775706839999998
10
216.54891412000001
20
63.775706839999998
10
216.54891412000001
20
69.575707939999972
10
217.34991582000006
20
69.575707939999972
10
217.34991582000006
20
72.674906719999981
10
216.54891412000001
20
72.674906719999981
10
216.54891412000001
20
73.675407640000003
10
202.54991494000001
20
73.675407640000003
10
202.54991494000001
20
72.674906719999981
0
LWPOLYLINE
5
123
100
AcDbEntity
8
0
100
AcDbPolyline
90
20
70
1
43
0.0
10
239.84891578000003
20
72.674906719999981
10
239.84891578000003
20
69.575707939999972
10
240.64991494
20
69.575707939999972
10
240.64991494
20
63.775706839999998
10
239.84891578000003
20
63.775706839999998
10
239.84891578000003
20
60.675105979999991
10
240.64991494
20
60.675105979999991
10
240.64991494
20
59.676106200000021
10
254.64891412
20
59.676106200000021
10
254.64891412
20
60.675105979999991
10
255.44991582
20
60.675105979999991
10
255.44991582
20
63.775706839999998
10
254.64891412
20
63.775706839999998
10
254.64891412
20
69.575707939999972
10
255.44991582
20
69.575707939999972
10
255.44991582
20
72.674906719999981
10
254.64891412
20
72.674906719999981
10
254.64891412
20
73.675407640000003
10
240.64991494
20
73.675407640000003
10
240.64991494
20
72.674906719999981
0
LWPOLYLINE
5
124
100
AcDbEntity
8
0
100
AcDbPolyline
90
20
70
1
43
0.0
10
9.6669453599999855
20
40.626106200000009
10
23.667813980000005
20
40.626106200000009
10
23.667813980000005
20
41.625105979999965
10
24.46711388000001
20
41.625105979999965
10
24.46711388000001
20
44.725706840000008
10
23.667813980000005
20
44.725706840000008
10
23.667813980000005
20
50.525707940000004
10
24.46711388000001
20
50.525707940000004
10
24.46711388000001
20
53.624906719999998
10
23.667813980000005
20
53.624906719999998
10
23.667813980000005
20
54.625407639999999
10
9.6669453599999837
20
54.625407639999999
10
9.6669453599999837
20
53.624906719999998
10
8.8676962599999953
20
53.624906719999998
10
8.8676962599999953
20
50.525707940000004
10
9.6669453599999837
20
50.525707940000004
10
9.6669453599999837
20
44.725706840000008
10
8.8676962599999953
20
44.725706840000008
10
8.8676962599999953
20
41.625105979999965
10
9.6669453599999837
20
41.625105979999965
0
LWPOLYLINE
5
125
100
AcDbEntity
8
0
100
AcDbPolyline
90
20
70
1
43
0.0
10
141.14991581999999
20
60.675105979999991
10
141.14991581999999
20
63.775706839999998
10
140.34891412000002
20
63.775706839999998
10
140.34891412000002
20
69.575707939999972
10
141.14991581999999
20
69.575707939999972
10
141.14991581999999
20
72.674906719999981
10
140.34891412000002
20
72.674906719999981
10
140.34891412000002
20
73.675407640000003
10
126.34991494000005
20
73.675407640000003
10
126.34991494000005
20
72.674906719999981
10
125.54891578000004
20
72.674906719999981
10
125.54891578000004
20
69.575707939999972
10
126.34991494000005
20
69.575707939999972
10
126.34991494000005
20
63.775706839999998
10
125.54891578000004
20
63.775706839999998
10
125.54891578000004
20
60.675105979999991
10
126.34991494000005
20
60.675105979999991
10
126.34991494000005
20
59.676106200000021
10
140.34891412000002
20
59.676106200000021
10
140.34891412000002
20
60.675105979999991
0
LWPOLYLINE
5
126
100
AcDbEntity
8
0
100
AcDbPolyline
90
20
70
1
43
0.0
10
179.24991582000001
20
60.675105979999991
10
179.24991582000001
20
63.775706839999998
10
178.44891411999996
20
63.775706839999998
10
178.44891411999996
20
69.575707939999972
10
179.24991582000001
20
69.575707939999972
10
179.24991582000001
20
72.674906719999981
10
178.44891411999996
20
72.674906719999981
10
178.44891411999996
20
73.675407640000003
10
164.44991494000004
20
73.675407640000003
10
164.44991494000004
20
72.674906719999981
10
163.64891577999992
20
72.674906719999981
10
163.64891577999992
20
69.575707939999972
10
164.44991494000004
20
69.575707939999972
10
164.44991494000004
20
63.775706839999998
10
163.64891577999992
20
63.775706839999998
10
163.64891577999992
20
60.675105979999991
10
164.44991494000004
20
60.675105979999991
10
164.44991494000004
20
59.676106200000021
10
178.44891411999996
20
59.676106200000021
10
178.44891411999996
20
60.675105979999991
0
LWPOLYLINE
5
127
100
AcDbEntity
8
0
100
AcDbPolyline
90
20
70
1
43
0.0
10
219.21691487999999
20
15.525005780000001
10
218.41791470000004
20
15.525005780000001
10
218.41791470000004
20
12.427107479999986
10
219.21691487999999
20
12.427107479999986
10
219.21691487999999
20
6.6255976200000077
10
218.41791470000004
20
6.6255976200000077
10
218.41791470000004
20
3.5250373999999951
10
219.21691487999999
20
3.5250373999999951
10
219.21691487999999
20
2.5259461799999983
10
233.21791558000001
20
2.5259461799999983
10
233.21791558000001
20
3.5250373999999951
10
234.01691576000002
20
3.5250373999999951
10
234.01691576000002
20
6.6255976200000077
10
233.21791558000001
20
6.6255976200000077
10
233.21791558000001
20
12.427107479999986
10
234.01691576000002
20
12.427107479999986
10
234.01691576000002
20
15.525005780000001
10
233.21791558000001
20
15.525005780000001
10
233.21791558000001
20
16.525407640000012
10
219.21691487999999
20
16.525407640000012
0
LWPOLYLINE
5
128
100
AcDbEntity
8
0
100
AcDbPolyline
90
20
70
1
43
0.0
10
163.64891577999992
20
108.30030664
10
164.44991494000004
20
108.30030664
10
164.44991494000004
20
107.30130686000001
10
178.44891411999996
20
107.30130686000001
10
178.44891411999996
20
108.30030664
10
179.24991582000001
20
108.30030664
10
179.24991582000001
20
111.40030806
10
178.44891411999996
20
111.40030806
10
178.44891411999996
20
117.20030662000001
10
179.24991582000001
20
117.20030662000001
10
179.24991582000001
20
120.30030804
10
178.44891411999996
20
120.30030804
10
178.44891411999996
20
121.30030604
10
164.44991494000004
20
121.30030604
10
164.44991494000004
20
120.30030804
10
163.64891577999992
20
120.30030804
10
163.64891577999992
20
117.20030662000001
10
164.44991494000004
20
117.20030662000001
10
164.44991494000004
20
111.40030806
10
163.64891577999992
20
111.40030806
0
LWPOLYLINE
5
129
100
AcDbEntity
8
0
100
AcDbPolyline
90
20
70
1
43
0.0
10
35.862115219999964
20
53.624906719999998
10
35.061415779999976
20
53.624906719999998
10
35.061415779999976
20
50.525707940000004
10
35.862115219999964
20
50.525707940000004
10
35.862115219999964
20
44.725706840000008
10
35.061415779999976
20
44.725706840000008
10
35.061415779999976
20
41.625105979999965
10
35.862115219999964
20
41.625105979999965
10
35.862115219999964
20
40.626106200000009
10
49.86141412000002
20
40.626106200000009
10
49.86141412000002
20
41.625105979999965
10
50.660815620000008
20
41.625105979999965
10
50.660815620000008
20
44.725706840000008
10
49.86141412000002
20
44.725706840000008
10
49.86141412000002
20
50.525707940000004
10
50.660815620000008
20
50.525707940000004
10
50.660815620000008
20
53.624906719999998
10
49.86141412000002
20
53.624906719999998
10
49.86141412000002
20
54.625407639999999
10
35.862115219999964
20
54.625407639999999
0
LWPOLYLINE
5
130
100
AcDbEntity
8
0
100
AcDbPolyline
90
20
70
1
43
0.0
10
226.07391412000001
20
120.30030804
10
226.07391412000001
20
121.30030604
10
212.0749149400001
20
121.30030604
10
212.0749149400001
20
120.30030804
10
211.27391578000001
20
120.30030804
10
211.27391578000001
20
117.20030662000001
10
212.0749149400001
20
117.20030662000001
10
212.0749149400001
20
111.40030806
10
211.27391578000001
20
111.40030806
10
211.27391578000001
20
108.30030664
10
212.0749149400001
20
108.30030664
10
212.0749149400001
20
107.30130686000001
10
226.07391412000001
20
107.30130686000001
10
226.07391412000001
20
108.30030664
10
226.87491582000007
20
108.30030664
10
226.87491582000007
20
111.40030806
10
226.07391412000001
20
111.40030806
10
226.07391412000001
20
117.20030662000001
10
226.87491582000007
20
117.20030662000001
10
226.87491582000007
20
120.30030804
0
LWPOLYLINE
5
131
100
AcDbEntity
8
0
100
AcDbPolyline
90
20
70
1
43
0.0
10
257.83091436000001
20
15.525005780000001
10
257.0299152
20
15.525005780000001
10
257.0299152
20
16.525407640000012
10
243.03091602000001
20
16.525407640000012
10
243.03091602000001
20
15.525005780000001
10
242.22991432000001
20
15.525005780000001
10
242.22991432000001
20
12.427107479999986
10
243.03091602000001
20
12.427107479999986
10
243.03091602000001
20
6.6255976200000077
10
242.22991432000001
20
6.6255976200000077
10
242.22991432000001
20
3.5250373999999951
10
243.03091602000001
20
3.5250373999999951
10
243.03091602000001
20
2.5259461799999983
10
257.0299152
20
2.5259461799999983
10
257.0299152
20
3.5250373999999951
10
257.83091436000001
20
3.5250373999999951
10
257.83091436000001
20
6.6255976200000077
10
257.0299152
20
6.6255976200000077
10
257.0299152
20
12.427107479999986
10
257.83091436000001
20
12.427107479999986
0
LWPOLYLINE
5
132
100
AcDbEntity
8
0
100
AcDbPolyline
90
23
70
1
43
0.0
10
284.02491581999999
20
120.30030804
10
283.22391412000002
20
120.30030804
10
283.22391412000002
20
121.30030604
10
269.22491494000002
20
121.30030604
10
269.22491494000002
20
120.30030804
10
268.42391578000002
20
120.30030804
10
268.42391578000002
20
117.20030662000001
10
269.22491494000002
20
117.20030662000001
10
269.22491494000002
20
111.40030806
10
268.42391578000002
20
111.40030806
10
268.42391578000002
20
108.30030664
10
269.22491494000002
20
108.30030664
10
269.22491494000002
20
107.30130686000001
10
283.22391412000002
20
107.30130686000001
10
283.22391412000002
20
108.30030664
10
284.02491581999999
20
108.30030664
10
284.02491581999999
20
111.40030806
10
283.22391412000002
20
111.40030806
10
283.22391412000002
20
117.20030662000001
10
283.40901790246852
20
117.20030661999999
42
-0.41338762352387981
10
283.90901591330527
20
116.70171699555556
42
5.4760102932403925
10
284.90092517333335
20
119.34956705531533
42
-0.692210453029102
10
284.02491581999999
20
119.67913793722977
0
LWPOLYLINE
5
133
100
AcDbEntity
8
0
100
AcDbPolyline
90
20
70
1
43
0.0
10
231.12491494
20
117.20030662000001
10
231.12491494
20
111.40030806
10
230.32391578000002
20
111.40030806
10
230.32391578000002
20
108.30030664
10
231.12491494
20
108.30030664
10
231.12491494
20
107.30130686000001
10
245.12391411999999
20
107.30130686000001
10
245.12391411999999
20
108.30030664
10
245.92491582000002
20
108.30030664
10
245.92491582000002
20
111.40030806
10
245.12391411999999
20
111.40030806
10
245.12391411999999
20
117.20030662000001
10
245.92491582000002
20
117.20030662000001
10
245.92491582000002
20
120.30030804
10
245.12391411999999
20
120.30030804
10
245.12391411999999
20
121.30030604
10
231.12491494
20
121.30030604
10
231.12491494
20
120.30030804
10
230.32391578000002
20
120.30030804
10
230.32391578000002
20
117.20030662000001
0
LWPOLYLINE
5
134
100
AcDbEntity
8
0
100
AcDbPolyline
90
20
70
1
43
0.0
10
40.62461521999996
20
79.725105979999981
10
40.62461521999996
20
78.726106199999975
10
54.623914119999988
20
78.726106199999975
10
54.623914119999988
20
79.725105979999981
10
55.424715159999991
20
79.725105979999981
10
55.424715159999991
20
82.825706839999981
10
54.623914119999988
20
82.825706839999981
10
54.623914119999988
20
88.625707939999984
10
55.424715159999991
20
88.625707939999984
10
55.424715159999991
20
91.724906720000007
10
54.623914119999988
20
91.724906720000007
10
54.623914119999988
20
92.72540764
10
40.62461521999996
20
92.72540764
10
40.62461521999996
20
91.724906720000007
10
39.823814179999992
20
91.724906720000007
10
39.823814179999992
20
88.625707939999984
10
40.62461521999996
20
88.625707939999984
10
40.62461521999996
20
82.825706839999981
10
39.823814179999992
20
82.825706839999981
10
39.823814179999992
20
79.725105979999981
0
LWPOLYLINE
5
135
100
AcDbEntity
8
0
100
AcDbPolyline
90
20
70
1
43
0.0
10
16.524114780000012
20
120.30030804
10
16.524114780000012
20
121.30030604
10
2.5245644199999973
20
121.30030604
10
2.5245644199999973
20
120.30030804
10
1.7239259400000151
20
120.30030804
10
1.7239259400000151
20
117.20030662000001
10
2.5245644199999973
20
117.20030662000001
10
2.5245644199999973
20
111.40030806
10
1.7239259400000151
20
111.40030806
10
1.7239259400000151
20
108.30030664
10
2.5245644199999973
20
108.30030664
10
2.5245644199999973
20
107.30130686000001
10
16.524114780000012
20
107.30130686000001
10
16.524114780000012
20
108.30030664
10
17.324715160000004
20
108.30030664
10
17.324715160000004
20
111.40030806
10
16.524114780000012
20
111.40030806
10
16.524114780000012
20
117.20030662000001
10
17.324715160000004
20
117.20030662000001
10
17.324715160000004
20
120.30030804
0
LWPOLYLINE
5
136
100
AcDbEntity
8
0
100
AcDbPolyline
90
20
70
1
43
0.0
10
183.49991494
20
107.30130686000001
10
197.49891411999999
20
107.30130686000001
10
197.49891411999999
20
108.30030664
10
198.29991582000002
20
108.30030664
10
198.29991582000002
20
111.40030806
10
197.49891411999999
20
111.40030806
10
197.49891411999999
20
117.20030662000001
10
198.29991582000002
20
117.20030662000001
10
198.29991582000002
20
120.30030804
10
197.49891411999999
20
120.30030804
10
197.49891411999999
20
121.30030604
10
183.49991494
20
121.30030604
10
183.49991494
20
120.30030804
10
182.69891577999999
20
120.30030804
10
182.69891577999999
20
117.20030662000001
10
183.49991494
20
117.20030662000001
10
183.49991494
20
111.40030806
10
182.69891577999999
20
111.40030806
10
182.69891577999999
20
108.30030664
10
183.49991494
20
108.30030664
0
LWPOLYLINE
5
137
100
AcDbEntity
8
0
100
AcDbPolyline
90
20
70
1
43
0.0
10
64.148914120000001
20
72.674906719999981
10
64.148914120000001
20
73.675407640000003
10
50.149615220000001
20
73.675407640000003
10
50.149615220000001
20
72.674906719999981
10
49.348814179999998
20
72.674906719999981
10
49.348814179999998
20
69.575707939999972
10
50.149615220000001
20
69.575707939999972
10
50.149615220000001
20
63.775706839999998
10
49.348814179999998
20
63.775706839999998
10
49.348814179999998
20
60.675105979999991
10
50.149615220000001
20
60.675105979999991
10
50.149615220000001
20
59.676106200000021
10
64.148914120000001
20
59.676106200000021
10
64.148914120000001
20
60.675105979999991
10
64.949715159999954
20
60.675105979999991
10
64.949715159999954
20
63.775706839999998
10
64.148914120000001
20
63.775706839999998
10
64.148914120000001
20
69.575707939999972
10
64.949715159999954
20
69.575707939999972
10
64.949715159999954
20
72.674906719999981
0
LWPOLYLINE
5
138
100
AcDbEntity
8
0
100
AcDbPolyline
90
20
70
1
43
0.0
10
240.36191450000004
20
41.625105979999965
10
241.16091468000002
20
41.625105979999965
10
241.16091468000002
20
44.725706840000008
10
240.36191450000004
20
44.725706840000008
10
240.36191450000004
20
50.525707940000004
10
241.16091468000002
20
50.525707940000004
10
241.16091468000002
20
53.624906719999998
10
240.36191450000004
20
53.624906719999998
10
240.36191450000004
20
54.625407639999999
10
226.36191456000009
20
54.625407639999999
10
226.36191456000009
20
53.624906719999998
10
225.5609154
20
53.624906719999998
10
225.5609154
20
50.525707940000004
10
226.36191456000009
20
50.525707940000004
10
226.36191456000009
20
44.725706840000008
10
225.5609154
20
44.725706840000008
10
225.5609154
20
41.625105979999965
10
226.36191456000009
20
41.625105979999965
10
226.36191456000009
20
40.626106200000009
10
240.36191450000004
20
40.626106200000009
0
LWPOLYLINE
5
139
100
AcDbEntity
8
0
100
AcDbPolyline
90
20
70
1
43
0.0
10
145.91091467999999
20
44.725706840000008
10
145.11191450000001
20
44.725706840000008
10
145.11191450000001
20
50.525707940000004
10
145.91091467999999
20
50.525707940000004
10
145.91091467999999
20
53.624906719999998
10
145.11191450000001
20
53.624906719999998
10
145.11191450000001
20
54.625407639999999
10
131.11191456
20
54.625407639999999
10
131.11191456
20
53.624906719999998
10
130.3109154
20
53.624906719999998
10
130.3109154
20
50.525707940000004
10
131.11191456
20
50.525707940000004
10
131.11191456
20
44.725706840000008
10
130.3109154
20
44.725706840000008
10
130.3109154
20
41.625105979999965
10
131.11191456
20
41.625105979999965
10
131.11191456
20
40.626106200000009
10
145.11191450000001
20
40.626106200000009
10
145.11191450000001
20
41.625105979999965
10
145.91091467999999
20
41.625105979999965
0
LWPOLYLINE
5
140
100
AcDbEntity
8
0
100
AcDbPolyline
90
20
70
1
43
0.0
10
96.973814180000005
20
82.825706839999981
10
96.973814180000005
20
79.725105979999981
10
97.77321568000005
20
79.725105979999981
10
97.77321568000005
20
78.726106199999975
10
111.77391412
20
78.726106199999975
10
111.77391412
20
79.725105979999981
10
112.57291430000002
20
79.725105979999981
10
112.57291430000002
20
82.825706839999981
10
111.77391412
20
82.825706839999981
10
111.77391412
20
88.625707939999984
10
112.57291430000002
20
88.625707939999984
10
112.57291430000002
20
91.724906720000007
10
111.77391412
20
91.724906720000007
10
111.77391412
20
92.72540764
10
97.77321568000005
20
92.72540764
10
97.77321568000005
20
91.724906720000007
10
96.973814180000005
20
91.724906720000007
10
96.973814180000005
20
88.625707939999984
10
97.77321568000005
20
88.625707939999984
10
97.77321568000005
20
82.825706839999981
0
LWPOLYLINE
5
141
100
AcDbEntity
8
0
100
AcDbPolyline
90
20
70
1
43
0.0
10
311.28591540000002
20
31.47580700000001
10
312.08691456000008
20
31.47580700000001
10
312.08691456000008
20
25.675607780000011
10
311.28591540000002
20
25.675607780000011
10
311.28591540000002
20
22.575006919999968
10
312.08691456000008
20
22.575006919999968
10
312.08691456000008
20
21.575908080000001
10
326.08691450000009
20
21.575908080000001
10
326.08691450000009
20
22.575006919999968
10
326.88591467999998
20
22.575006919999968
10
326.88591467999998
20
25.675607780000011
10
326.08691450000009
20
25.675607780000011
10
326.08691450000009
20
31.47580700000001
10
326.88591467999998
20
31.47580700000001
10
326.88591467999998
20
34.575005779999977
10
326.08691450000009
20
34.575005779999977
10
326.08691450000009
20
35.575306039999965
10
312.08691456000008
20
35.575306039999965
10
312.08691456000008
20
34.575005779999977
10
311.28591540000002
20
34.575005779999977
0
LWPOLYLINE
5
142
100
AcDbEntity
8
0
100
AcDbPolyline
90
20
70
1
43
0.0
10
87.448814179999985
20
72.674906719999981
10
87.448814179999985
20
69.575707939999972
10
88.249615220000024
20
69.575707939999972
10
88.249615220000024
20
63.775706839999998
10
87.448814179999985
20
63.775706839999998
10
87.448814179999985
20
60.675105979999991
10
88.249615220000024
20
60.675105979999991
10
88.249615220000024
20
59.676106200000021
10
102.24891411999998
20
59.676106200000021
10
102.24891411999998
20
60.675105979999991
10
103.04991582
20
60.675105979999991
10
103.04991582
20
63.775706839999998
10
102.24891411999998
20
63.775706839999998
10
102.24891411999998
20
69.575707939999972
10
103.04991582
20
69.575707939999972
10
103.04991582
20
72.674906719999981
10
102.24891411999998
20
72.674906719999981
10
102.24891411999998
20
73.675407640000003
10
88.249615220000024
20
73.675407640000003
10
88.249615220000024
20
72.674906719999981
0
LWPOLYLINE
5
143
100
AcDbEntity
8
0
100
AcDbPolyline
90
20
70
1
43
0.0
10
149.87391411999999
20
92.72540764
10
135.87491494000002
20
92.72540764
10
135.87491494000002
20
91.724906720000007
10
135.07391577999999
20
91.724906720000007
10
135.07391577999999
20
88.625707939999984
10
135.87491494000002
20
88.625707939999984
10
135.87491494000002
20
82.825706839999981
10
135.07391577999999
20
82.825706839999981
10
135.07391577999999
20
79.725105979999981
10
135.87491494000002
20
79.725105979999981
10
135.87491494000002
20
78.726106199999975
10
149.87391411999999
20
78.726106199999975
10
149.87391411999999
20
79.725105979999981
10
150.67491582
20
79.725105979999981
10
150.67491582
20
82.825706839999981
10
149.87391411999999
20
82.825706839999981
10
149.87391411999999
20
88.625707939999984
10
150.67491582
20
88.625707939999984
10
150.67491582
20
91.724906720000007
10
149.87391411999999
20
91.724906720000007
0
LWPOLYLINE
5
144
100
AcDbEntity
8
0
100
AcDbPolyline
90
20
70
1
43
0.0
10
54.623914119999988
20
120.30030804
10
54.623914119999988
20
121.30030604
10
40.62461521999996
20
121.30030604
10
40.62461521999996
20
120.30030804
10
39.823814179999992
20
120.30030804
10
39.823814179999992
20
117.20030662000001
10
40.62461521999996
20
117.20030662000001
10
40.62461521999996
20
111.40030806
10
39.823814179999992
20
111.40030806
10
39.823814179999992
20
108.30030664
10
40.62461521999996
20
108.30030664
10
40.62461521999996
20
107.30130686000001
10
54.623914119999988
20
107.30130686000001
10
54.623914119999988
20
108.30030664
10
55.424715159999991
20
108.30030664
10
55.424715159999991
20
111.40030806
10
54.623914119999988
20
111.40030806
10
54.623914119999988
20
117.20030662000001
10
55.424715159999991
20
117.20030662000001
10
55.424715159999991
20
120.30030804
0
LWPOLYLINE
5
145
100
AcDbEntity
8
0
100
AcDbPolyline
90
20
70
1
43
0.0
10
43.517113879999982
20
12.427107479999986
10
43.517113879999982
20
15.525005780000001
10
42.717714919999992
20
15.525005780000001
10
42.717714919999992
20
16.525407640000012
10
28.716914880000001
20
16.525407640000012
10
28.716914880000001
20
15.525005780000001
10
27.917714039999986
20
15.525005780000001
10
27.917714039999986
20
12.427107479999986
10
28.716914880000001
20
12.427107479999986
10
28.716914880000001
20
6.6255976200000077
10
27.917714039999986
20
6.6255976200000077
10
27.917714039999986
20
3.5250373999999951
10
28.716914880000001
20
3.5250373999999951
10
28.716914880000001
20
2.5259461799999983
10
42.717714919999992
20
2.5259461799999983
10
42.717714919999992
20
3.5250373999999951
10
43.517113879999982
20
3.5250373999999951
10
43.517113879999982
20
6.6255976200000077
10
42.717714919999992
20
6.6255976200000077
10
42.717714919999992
20
12.427107479999986
0
LWPOLYLINE
5
146
100
AcDbEntity
8
0
100
AcDbPolyline
90
20
70
1
43
0.0
10
31.09961521999999
20
63.775706839999998
10
30.29891577999997
20
63.775706839999998
10
30.29891577999997
20
60.675105979999991
10
31.09961521999999
20
60.675105979999991
10
31.09961521999999
20
59.676106200000021
10
45.098914119999982
20
59.676106200000021
10
45.098914119999982
20
60.675105979999991
10
45.899715159999992
20
60.675105979999991
10
45.899715159999992
20
63.775706839999998
10
45.098914119999982
20
63.775706839999998
10
45.098914119999982
20
69.575707939999972
10
45.899715159999992
20
69.575707939999972
10
45.899715159999992
20
72.674906719999981
10
45.098914119999982
20
72.674906719999981
10
45.098914119999982
20
73.675407640000003
10
31.09961521999999
20
73.675407640000003
10
31.09961521999999
20
72.674906719999981
10
30.29891577999997
20
72.674906719999981
10
30.29891577999997
20
69.575707939999972
10
31.09961521999999
20
69.575707939999972
0
LWPOLYLINE
5
147
100
AcDbEntity
8
0
100
AcDbPolyline
90
20
70
1
43
0.0
10
22.085815619999991
20
60.675105979999991
10
22.085815619999991
20
63.775706839999998
10
21.286614780000011
20
63.775706839999998
10
21.286614780000011
20
69.575707939999972
10
22.085815619999991
20
69.575707939999972
10
22.085815619999991
20
72.674906719999981
10
21.286614780000011
20
72.674906719999981
10
21.286614780000011
20
73.675407640000003
10
7.2870745799999881
20
73.675407640000003
10
7.2870745799999881
20
72.674906719999981
10
6.4864462599999939
20
72.674906719999981
10
6.4864462599999939
20
69.575707939999972
10
7.2870745799999881
20
69.575707939999972
10
7.2870745799999881
20
63.775706839999998
10
6.4864462599999939
20
63.775706839999998
10
6.4864462599999939
20
60.675105979999991
10
7.2870745799999881
20
60.675105979999991
10
7.2870745799999881
20
59.676106200000021
10
21.286614780000011
20
59.676106200000021
10
21.286614780000011
20
60.675105979999991
0
LWPOLYLINE
5
148
100
AcDbEntity
8
0
100
AcDbPolyline
90
20
70
1
43
0.0
10
74.474715160000002
20
88.625707939999984
10
74.474715160000002
20
91.724906720000007
10
73.673914119999978
20
91.724906720000007
10
73.673914119999978
20
92.72540764
10
59.674615220000007
20
92.72540764
10
59.674615220000007
20
91.724906720000007
10
58.873814180000004
20
91.724906720000007
10
58.873814180000004
20
88.625707939999984
10
59.674615220000007
20
88.625707939999984
10
59.674615220000007
20
82.825706839999981
10
58.873814180000004
20
82.825706839999981
10
58.873814180000004
20
79.725105979999981
10
59.674615220000007
20
79.725105979999981
10
59.674615220000007
20
78.726106199999975
10
73.673914119999978
20
78.726106199999975
10
73.673914119999978
20
79.725105979999981
10
74.474715160000002
20
79.725105979999981
10
74.474715160000002
20
82.825706839999981
10
73.673914119999978
20
82.825706839999981
10
73.673914119999978
20
88.625707939999984
0
LWPOLYLINE
5
149
100
AcDbEntity
8
0
100
AcDbPolyline
90
20
70
1
43
0.0
10
35.573914119999976
20
82.825706839999981
10
35.573914119999976
20
88.625707939999984
10
36.374715160000015
20
88.625707939999984
10
36.374715160000015
20
91.724906720000007
10
35.573914119999976
20
91.724906720000007
10
35.573914119999976
20
92.72540764
10
21.574615219999984
20
92.72540764
10
21.574615219999984
20
91.724906720000007
10
20.773915779999967
20
91.724906720000007
10
20.773915779999967
20
88.625707939999984
10
21.574615219999984
20
88.625707939999984
10
21.574615219999984
20
82.825706839999981
10
20.773915779999967
20
82.825706839999981
10
20.773915779999967
20
79.725105979999981
10
21.574615219999984
20
79.725105979999981
10
21.574615219999984
20
78.726106199999975
10
35.573914119999976
20
78.726106199999975
10
35.573914119999976
20
79.725105979999981
10
36.374715160000015
20
79.725105979999981
10
36.374715160000015
20
82.825706839999981
0
LWPOLYLINE
5
150
100
AcDbEntity
8
0
100
AcDbPolyline
90
20
70
1
43
0.0
10
164.96091468
20
44.725706840000008
10
164.16191449999999
20
44.725706840000008
10
164.16191449999999
20
50.525707940000004
10
164.96091468
20
50.525707940000004
10
164.96091468
20
53.624906719999998
10
164.16191449999999
20
53.624906719999998
10
164.16191449999999
20
54.625407639999999
10
150.16191456000001
20
54.625407639999999
10
150.16191456000001
20
53.624906719999998
10
149.36091540000001
20
53.624906719999998
10
149.36091540000001
20
50.525707940000004
10
150.16191456000001
20
50.525707940000004
10
150.16191456000001
20
44.725706840000008
10
149.36091540000001
20
44.725706840000008
10
149.36091540000001
20
41.625105979999965
10
150.16191456000001
20
41.625105979999965
10
150.16191456000001
20
40.626106200000009
10
164.16191449999999
20
40.626106200000009
10
164.16191449999999
20
41.625105979999965
10
164.96091468
20
41.625105979999965
0
LWPOLYLINE
5
151
100
AcDbEntity
8
0
100
AcDbPolyline
90
20
70
1
43
0.0
10
59.674615220000007
20
111.40030806
10
58.873814180000004
20
111.40030806
10
58.873814180000004
20
108.30030664
10
59.674615220000007
20
108.30030664
10
59.674615220000007
20
107.30130686000001
10
73.673914119999978
20
107.30130686000001
10
73.673914119999978
20
108.30030664
10
74.474715160000002
20
108.30030664
10
74.474715160000002
20
111.40030806
10
73.673914119999978
20
111.40030806
10
73.673914119999978
20
117.20030662000001
10
74.474715160000002
20
117.20030662000001
10
74.474715160000002
20
120.30030804
10
73.673914119999978
20
120.30030804
10
73.673914119999978
20
121.30030604
10
59.674615220000007
20
121.30030604
10
59.674615220000007
20
120.30030804
10
58.873814180000004
20
120.30030804
10
58.873814180000004
20
117.20030662000001
10
59.674615220000007
20
117.20030662000001
0
LWPOLYLINE
5
152
100
AcDbEntity
8
0
100
AcDbPolyline
90
20
70
1
43
0.0
10
121.58691456
20
25.675607780000011
10
120.78591539999998
20
25.675607780000011
10
120.78591539999998
20
22.575006919999968
10
121.58691456
20
22.575006919999968
10
121.58691456
20
21.575908080000001
10
135.58691450000001
20
21.575908080000001
10
135.58691450000001
20
22.575006919999968
10
136.38591468000001
20
22.575006919999968
10
136.38591468000001
20
25.675607780000011
10
135.58691450000001
20
25.675607780000011
10
135.58691450000001
20
31.47580700000001
10
136.38591468000001
20
31.47580700000001
10
136.38591468000001
20
34.575005779999977
10
135.58691450000001
20
34.575005779999977
10
135.58691450000001
20
35.575306039999965
10
121.58691456
20
35.575306039999965
10
121.58691456
20
34.575005779999977
10
120.78591539999998
20
34.575005779999977
10
120.78591539999998
20
31.47580700000001
10
121.58691456
20
31.47580700000001
0
LWPOLYLINE
5
153
100
AcDbEntity
8
0
100
AcDbPolyline
90
20
70
1
43
0.0
10
173.97491494000005
20
88.625707939999984
10
173.97491494000005
20
82.825706839999981
10
173.17391577999999
20
82.825706839999981
10
173.17391577999999
20
79.725105979999981
10
173.97491494000005
20
79.725105979999981
10
173.97491494000005
20
78.726106199999975
10
187.97391411999999
20
78.726106199999975
10
187.97391411999999
20
79.725105979999981
10
188.77491582000002
20
79.725105979999981
10
188.77491582000002
20
82.825706839999981
10
187.97391411999999
20
82.825706839999981
10
187.97391411999999
20
88.625707939999984
10
188.77491582000002
20
88.625707939999984
10
188.77491582000002
20
91.724906720000007
10
187.97391411999999
20
91.724906720000007
10
187.97391411999999
20
92.72540764
10
173.97491494000005
20
92.72540764
10
173.97491494000005
20
91.724906720000007
10
173.17391577999999
20
91.724906720000007
10
173.17391577999999
20
88.625707939999984
0
LWPOLYLINE
5
154
100
AcDbEntity
8
0
100
AcDbPolyline
90
44
70
1
43
0.0
10
249.30491414000002
20
34.105105780000002
10
249.30491414000002
20
35.025705919999993
10
246.00591388000001
20
35.025705919999993
10
246.00591388000001
20
34.105105780000002
10
244.2809160600001
20
34.105105780000002
10
244.2809160600001
20
30.874906499999994
10
243.45491568000011
20
30.874906499999994
10
243.45491568000011
20
28.076105899999995
10
244.2809160600001
20
28.076105899999995
10
244.2809160600001
20
21.806105739999989
10
246.00591388000001
20
21.806105739999989
10
246.00591388000001
20
20.824906279999983
10
249.30491414000002
20
20.824906279999983
10
249.30491414000002
20
21.806105739999989
10
251.03091526
20
21.806105739999989
10
251.03091526
20
22.575006919999968
10
252.55491526
20
22.575006919999968
10
252.55491526
20
21.575908080000001
10
266.55491520000004
20
21.575908080000001
10
266.55491520000004
20
22.575006919999968
10
268.08091418000009
20
22.575006919999968
10
268.08091418000009
20
21.806105739999989
10
269.80591454
20
21.806105739999989
10
269.80591454
20
20.824906279999983
10
273.10491480000002
20
20.824906279999983
10
273.10491480000002
20
21.806105739999989
10
274.82991515999998
20
21.806105739999989
10
274.82991515999998
20
28.076105899999995
10
275.65591554000014
20
28.076105899999995
10
275.65591554000014
20
30.874906499999994
10
274.82991515999998
20
30.874906499999994
10
274.82991515999998
20
34.105105780000002
10
273.10491480000002
20
34.105105780000002
10
273.10491480000002
20
35.025705919999993
10
269.80591454
20
35.025705919999993
10
269.80591454
20
34.105105780000002
10
267.35591435999999
20
34.105105780000002
10
267.35591435999999
20
34.575005779999977
10
266.55491520000004
20
34.575005779999977
10
266.55491520000004
20
35.575306039999965
10
252.55491526
20
35.575306039999965
10
252.55491526
20
34.575005779999977
10
251.75391610000005
20
34.575005779999977
10
251.75391610000005
20
34.105105780000002
0
LWPOLYLINE
5
155
100
AcDbEntity
8
0
100
AcDbPolyline
90
20
70
1
43
0.0
10
102.53691456
20
21.575908080000001
10
116.53691449999999
20
21.575908080000001
10
116.53691449999999
20
22.575006919999968
10
117.33591468
20
22.575006919999968
10
117.33591468
20
25.675607780000011
10
116.53691449999999
20
25.675607780000011
10
116.53691449999999
20
31.47580700000001
10
117.33591468
20
31.47580700000001
10
117.33591468
20
34.575005779999977
10
116.53691449999999
20
34.575005779999977
10
116.53691449999999
20
35.575306039999965
10
102.53691456
20
35.575306039999965
10
102.53691456
20
34.575005779999977
10
101.73591540000001
20
34.575005779999977
10
101.73591540000001
20
31.47580700000001
10
102.53691456
20
31.47580700000001
10
102.53691456
20
25.675607780000011
10
101.73591540000001
20
25.675607780000011
10
101.73591540000001
20
22.575006919999968
10
102.53691456
20
22.575006919999968
0
LWPOLYLINE
5
156
100
AcDbEntity
8
0
100
AcDbPolyline
90
20
70
1
43
0.0
10
245.12391411999999
20
82.825706839999981
10
245.12391411999999
20
88.625707939999984
10
245.92491582000002
20
88.625707939999984
10
245.92491582000002
20
91.724906720000007
10
245.12391411999999
20
91.724906720000007
10
245.12391411999999
20
92.72540764
10
231.12491494
20
92.72540764
10
231.12491494
20
91.724906720000007
10
230.32391578000002
20
91.724906720000007
10
230.32391578000002
20
88.625707939999984
10
231.12491494
20
88.625707939999984
10
231.12491494
20
82.825706839999981
10
230.32391578000002
20
82.825706839999981
10
230.32391578000002
20
79.725105979999981
10
231.12491494
20
79.725105979999981
10
231.12491494
20
78.726106199999975
10
245.12391411999999
20
78.726106199999975
10
245.12391411999999
20
79.725105979999981
10
245.92491582000002
20
79.725105979999981
10
245.92491582000002
20
82.825706839999981
0
LWPOLYLINE
5
157
100
AcDbEntity
8
0
100
AcDbPolyline
90
20
70
1
43
0.0
10
4.9058245799999867
20
3.5250373999999951
10
4.9058245799999867
20
2.5259461799999983
10
18.905313980000006
20
2.5259461799999983
10
18.905313980000006
20
3.5250373999999951
10
19.705914359999994
20
3.5250373999999951
10
19.705914359999994
20
6.6255976200000077
10
18.905313980000006
20
6.6255976200000077
10
18.905313980000006
20
12.427107479999986
10
19.705914359999994
20
12.427107479999986
10
19.705914359999994
20
15.525005780000001
10
18.905313980000006
20
15.525005780000001
10
18.905313980000006
20
16.525407640000012
10
4.9058245799999867
20
16.525407640000012
10
4.9058245799999867
20
15.525005780000001
10
4.1051962599999925
20
15.525005780000001
10
4.1051962599999925
20
12.427107479999986
10
4.9058245799999867
20
12.427107479999986
10
4.9058245799999867
20
6.6255976200000077
10
4.1051962599999925
20
6.6255976200000077
10
4.1051962599999925
20
3.5250373999999951
0
LWPOLYLINE
5
158
100
AcDbEntity
8
0
100
AcDbPolyline
90
20
70
1
43
0.0
10
144.59891578
20
69.575707939999972
10
145.39991494
20
69.575707939999972
10
145.39991494
20
63.775706839999998
10
144.59891578
20
63.775706839999998
10
144.59891578
20
60.675105979999991
10
145.39991494
20
60.675105979999991
10
145.39991494
20
59.676106200000021
10
159.39891412000003
20
59.676106200000021
10
159.39891412000003
20
60.675105979999991
10
160.19991582
20
60.675105979999991
10
160.19991582
20
63.775706839999998
10
159.39891412000003
20
63.775706839999998
10
159.39891412000003
20
69.575707939999972
10
160.19991582
20
69.575707939999972
10
160.19991582
20
72.674906719999981
10
159.39891412000003
20
72.674906719999981
10
159.39891412000003
20
73.675407640000003
10
145.39991494
20
73.675407640000003
10
145.39991494
20
72.674906719999981
10
144.59891578
20
72.674906719999981
0
LWPOLYLINE
5
159
100
AcDbEntity
8
0
100
AcDbPolyline
90
20
70
1
43
0.0
10
154.63691450000005
20
34.575005779999977
10
154.63691450000005
20
35.575306039999965
10
140.63691455999998
20
35.575306039999965
10
140.63691455999998
20
34.575005779999977
10
139.8359154
20
34.575005779999977
10
139.8359154
20
31.47580700000001
10
140.63691455999998
20
31.47580700000001
10
140.63691455999998
20
25.675607780000011
10
139.8359154
20
25.675607780000011
10
139.8359154
20
22.575006919999968
10
140.63691455999998
20
22.575006919999968
10
140.63691455999998
20
21.575908080000001
10
154.63691450000005
20
21.575908080000001
10
154.63691450000005
20
22.575006919999968
10
155.43591468
20
22.575006919999968
10
155.43591468
20
25.675607780000011
10
154.63691450000005
20
25.675607780000011
10
154.63691450000005
20
31.47580700000001
10
155.43591468
20
31.47580700000001
10
155.43591468
20
34.575005779999977
0
LWPOLYLINE
5
160
100
AcDbEntity
8
0
100
AcDbPolyline
90
20
70
1
43
0.0
10
68.398814179999974
20
69.575707939999972
10
69.199615220000013
20
69.575707939999972
10
69.199615220000013
20
63.775706839999998
10
68.398814179999974
20
63.775706839999998
10
68.398814179999974
20
60.675105979999991
10
69.199615220000013
20
60.675105979999991
10
69.199615220000013
20
59.676106200000021
10
83.198914120000055
20
59.676106200000021
10
83.198914120000055
20
60.675105979999991
10
83.999715159999994
20
60.675105979999991
10
83.999715159999994
20
63.775706839999998
10
83.198914120000055
20
63.775706839999998
10
83.198914120000055
20
69.575707939999972
10
83.999715159999994
20
69.575707939999972
10
83.999715159999994
20
72.674906719999981
10
83.198914120000055
20
72.674906719999981
10
83.198914120000055
20
73.675407640000003
10
69.199615220000013
20
73.675407640000003
10
69.199615220000013
20
72.674906719999981
10
68.398814179999974
20
72.674906719999981
0
LWPOLYLINE
5
161
100
AcDbEntity
8
0
100
AcDbPolyline
90
20
70
1
43
0.0
10
112.57291430000002
20
111.40030806
10
111.77391412
20
111.40030806
10
111.77391412
20
117.20030662000001
10
112.57291430000002
20
117.20030662000001
10
112.57291430000002
20
120.30030804
10
111.77391412
20
120.30030804
10
111.77391412
20
121.30030604
10
97.77321568000005
20
121.30030604
10
97.77321568000005
20
120.30030804
10
96.973814180000005
20
120.30030804
10
96.973814180000005
20
117.20030662000001
10
97.77321568000005
20
117.20030662000001
10
97.77321568000005
20
111.40030806
10
96.973814180000005
20
111.40030806
10
96.973814180000005
20
108.30030664
10
97.77321568000005
20
108.30030664
10
97.77321568000005
20
107.30130686000001
10
111.77391412
20
107.30130686000001
10
111.77391412
20
108.30030664
10
112.57291430000002
20
108.30030664
0
LWPOLYLINE
5
162
100
AcDbEntity
8
0
100
AcDbPolyline
90
20
70
1
43
0.0
10
196.98591540000001
20
25.675607780000011
10
196.98591540000001
20
22.575006919999968
10
197.78691456000004
20
22.575006919999968
10
197.78691456000004
20
21.575908080000001
10
211.78691450000002
20
21.575908080000001
10
211.78691450000002
20
22.575006919999968
10
212.58591468000009
20
22.575006919999968
10
212.58591468000009
20
25.675607780000011
10
211.78691450000002
20
25.675607780000011
10
211.78691450000002
20
31.47580700000001
10
212.58591468000009
20
31.47580700000001
10
212.58591468000009
20
34.575005779999977
10
211.78691450000002
20
34.575005779999977
10
211.78691450000002
20
35.575306039999965
10
197.78691456000004
20
35.575306039999965
10
197.78691456000004
20
34.575005779999977
10
196.98591540000001
20
34.575005779999977
10
196.98591540000001
20
31.47580700000001
10
197.78691456000004
20
31.47580700000001
10
197.78691456000004
20
25.675607780000011
0
LWPOLYLINE
5
163
100
AcDbEntity
8
0
100
AcDbPolyline
90
20
70
1
43
0.0
10
307.03691450000008
20
79.72516693999998
10
307.83591468000009
20
79.72516693999998
10
307.83591468000009
20
82.82576779999998
10
307.03691450000008
20
82.82576779999998
10
307.03691450000008
20
88.625967019999962
10
307.83591468000009
20
88.625967019999962
10
307.83591468000009
20
91.725165800000013
10
307.03691450000008
20
91.725165800000013
10
307.03691450000008
20
92.725466060000002
10
293.03691456000001
20
92.725466060000002
10
293.03691456000001
20
91.725165800000013
10
292.23591540000001
20
91.725165800000013
10
292.23591540000001
20
88.625967019999962
10
293.03691456000001
20
88.625967019999962
10
293.03691456000001
20
82.82576779999998
10
292.23591540000001
20
82.82576779999998
10
292.23591540000001
20
79.72516693999998
10
293.03691456000001
20
79.72516693999998
10
293.03691456000001
20
78.726068099999978
10
307.03691450000008
20
78.726068099999978
0
LWPOLYLINE
5
164
100
AcDbEntity
8
0
100
AcDbPolyline
90
20
70
1
43
0.0
10
107.29991494000001
20
59.676106200000021
10
121.29891412000001
20
59.676106200000021
10
121.29891412000001
20
60.675105979999991
10
122.09991582000001
20
60.675105979999991
10
122.09991582000001
20
63.775706839999998
10
121.29891412000001
20
63.775706839999998
10
121.29891412000001
20
69.575707939999972
10
122.09991582000001
20
69.575707939999972
10
122.09991582000001
20
72.674906719999981
10
121.29891412000001
20
72.674906719999981
10
121.29891412000001
20
73.675407640000003
10
107.29991494000001
20
73.675407640000003
10
107.29991494000001
20
72.674906719999981
10
106.49891578000002
20
72.674906719999981
10
106.49891578000002
20
69.575707939999972
10
107.29991494000001
20
69.575707939999972
10
107.29991494000001
20
63.775706839999998
10
106.49891578000002
20
63.775706839999998
10
106.49891578000002
20
60.675105979999991
10
107.29991494000001
20
60.675105979999991
0
LWPOLYLINE
5
165
100
AcDbEntity
8
0
100
AcDbPolyline
90
20
70
1
43
0.0
10
88.760815620000045
20
50.525707940000004
10
88.760815620000045
20
53.624906719999998
10
87.961414120000001
20
53.624906719999998
10
87.961414120000001
20
54.625407639999999
10
73.962115220000015
20
54.625407639999999
10
73.962115220000015
20
53.624906719999998
10
73.161314179999977
20
53.624906719999998
10
73.161314179999977
20
50.525707940000004
10
73.962115220000015
20
50.525707940000004
10
73.962115220000015
20
44.725706840000008
10
73.161314179999977
20
44.725706840000008
10
73.161314179999977
20
41.625105979999965
10
73.962115220000015
20
41.625105979999965
10
73.962115220000015
20
40.626106200000009
10
87.961414120000001
20
40.626106200000009
10
87.961414120000001
20
41.625105979999965
10
88.760815620000045
20
41.625105979999965
10
88.760815620000045
20
44.725706840000008
10
87.961414120000001
20
44.725706840000008
10
87.961414120000001
20
50.525707940000004
0
LWPOLYLINE
5
166
100
AcDbEntity
8
0
100
AcDbPolyline
90
20
70
1
43
0.0
10
183.21191450000001
20
41.625105979999965
10
184.01091468000001
20
41.625105979999965
10
184.01091468000001
20
44.725706840000008
10
183.21191450000001
20
44.725706840000008
10
183.21191450000001
20
50.525707940000004
10
184.01091468000001
20
50.525707940000004
10
184.01091468000001
20
53.624906719999998
10
183.21191450000001
20
53.624906719999998
10
183.21191450000001
20
54.625407639999999
10
169.21191456
20
54.625407639999999
10
169.21191456
20
53.624906719999998
10
168.41091540000005
20
53.624906719999998
10
168.41091540000005
20
50.525707940000004
10
169.21191456
20
50.525707940000004
10
169.21191456
20
44.725706840000008
10
168.41091540000005
20
44.725706840000008
10
168.41091540000005
20
41.625105979999965
10
169.21191456
20
41.625105979999965
10
169.21191456
20
40.626106200000009
10
183.21191450000001
20
40.626106200000009
0
LWPOLYLINE
5
167
100
AcDbEntity
8
0
100
AcDbPolyline
90
20
70
1
43
0.0
10
141.14991581999999
20
108.30030664
10
141.14991581999999
20
111.40030806
10
140.34891412000002
20
111.40030806
10
140.34891412000002
20
117.20030662000001
10
141.14991581999999
20
117.20030662000001
10
141.14991581999999
20
120.30030804
10
140.34891412000002
20
120.30030804
10
140.34891412000002
20
121.30030604
10
126.34991494000005
20
121.30030604
10
126.34991494000005
20
120.30030804
10
125.54891578000004
20
120.30030804
10
125.54891578000004
20
117.20030662000001
10
126.34991494000005
20
117.20030662000001
10
126.34991494000005
20
111.40030806
10
125.54891578000004
20
111.40030806
10
125.54891578000004
20
108.30030664
10
126.34991494000005
20
108.30030664
10
126.34991494000005
20
107.30130686000001
10
140.34891412000002
20
107.30130686000001
10
140.34891412000002
20
108.30030664
0
LWPOLYLINE
5
168
100
AcDbEntity
8
0
100
AcDbPolyline
90
20
70
1
43
0.0
10
264.46191456000003
20
72.674906719999981
10
263.66091540000002
20
72.674906719999981
10
263.66091540000002
20
69.575707939999972
10
264.46191456000003
20
69.575707939999972
10
264.46191456000003
20
63.775706839999998
10
263.66091540000002
20
63.775706839999998
10
263.66091540000002
20
60.675105979999991
10
264.46191456000003
20
60.675105979999991
10
264.46191456000003
20
59.676106200000021
10
278.46191449999998
20
59.676106200000021
10
278.46191449999998
20
60.675105979999991
10
279.26091468000004
20
60.675105979999991
10
279.26091468000004
20
63.775706839999998
10
278.46191449999998
20
63.775706839999998
10
278.46191449999998
20
69.575707939999972
10
279.26091468000004
20
69.575707939999972
10
279.26091468000004
20
72.674906719999981
10
278.46191449999998
20
72.674906719999981
10
278.46191449999998
20
73.675407640000003
10
264.46191456000003
20
73.675407640000003
0
LWPOLYLINE
5
169
100
AcDbEntity
8
0
100
AcDbPolyline
90
44
70
1
43
0.0
10
248.21791606000002
20
47.126006839999981
10
249.04191492000001
20
47.126006839999981
10
249.04191492000001
20
40.856105739999947
10
250.76691528000001
20
40.856105739999947
10
250.76691528000001
20
39.875007879999998
10
254.06591554000002
20
39.875007879999998
10
254.06591554000002
20
40.856105739999947
10
255.79291488000001
20
40.856105739999947
10
255.79291488000001
20
41.625105979999965
10
257.31691488000001
20
41.625105979999965
10
257.31691488000001
20
40.626106200000009
10
271.31791558000009
20
40.626106200000009
10
271.31791558000009
20
41.625105979999965
10
272.84191558000009
20
41.625105979999965
10
272.84191558000009
20
40.856105739999947
10
274.56691594
20
40.856105739999947
10
274.56691594
20
39.875007879999998
10
277.86791518000001
20
39.875007879999998
10
277.86791518000001
20
40.856105739999947
10
279.59291553999998
20
40.856105739999947
10
279.59291553999998
20
47.126006839999981
10
280.4169144
20
47.126006839999981
10
280.4169144
20
49.92490649999997
10
279.59291553999998
20
49.92490649999997
10
279.59291553999998
20
53.155006719999989
10
277.86791518000001
20
53.155006719999989
10
277.86791518000001
20
54.07570591999999
10
274.56691594
20
54.07570591999999
10
274.56691594
20
53.155006719999989
10
272.11691575999998
20
53.155006719999989
10
272.11691575999998
20
53.624906719999998
10
271.31791558000009
20
53.624906719999998
10
271.31791558000009
20
54.625407639999999
10
257.31691488000001
20
54.625407639999999
10
257.31691488000001
20
53.624906719999998
10
256.51591571999995
20
53.624906719999998
10
256.51591571999995
20
53.155006719999989
10
254.06591554000002
20
53.155006719999989
10
254.06591554000002
20
54.07570591999999
10
250.76691528000001
20
54.07570591999999
10
250.76691528000001
20
53.155006719999989
10
249.04191492000001
20
53.155006719999989
10
249.04191492000001
20
49.92490649999997
10
248.21791606000002
20
49.92490649999997
0
LWPOLYLINE
5
170
100
AcDbEntity
8
0
100
AcDbPolyline
90
20
70
1
43
0.0
10
68.911414119999989
20
50.525707940000004
10
69.710815619999977
20
50.525707940000004
10
69.710815619999977
20
53.624906719999998
10
68.911414119999989
20
53.624906719999998
10
68.911414119999989
20
54.625407639999999
10
54.912115220000004
20
54.625407639999999
10
54.912115220000004
20
53.624906719999998
10
54.111314180000001
20
53.624906719999998
10
54.111314180000001
20
50.525707940000004
10
54.912115220000004
20
50.525707940000004
10
54.912115220000004
20
44.725706840000008
10
54.111314180000001
20
44.725706840000008
10
54.111314180000001
20
41.625105979999965
10
54.912115220000004
20
41.625105979999965
10
54.912115220000004
20
40.626106200000009
10
68.911414119999989
20
40.626106200000009
10
68.911414119999989
20
41.625105979999965
10
69.710815619999977
20
41.625105979999965
10
69.710815619999977
20
44.725706840000008
10
68.911414119999989
20
44.725706840000008
0
LWPOLYLINE
5
171
100
AcDbEntity
8
0
100
AcDbPolyline
90
20
70
1
43
0.0
10
160.19991582
20
120.30030804
10
159.39891412000003
20
120.30030804
10
159.39891412000003
20
121.30030604
10
145.39991494
20
121.30030604
10
145.39991494
20
120.30030804
10
144.59891578
20
120.30030804
10
144.59891578
20
117.20030662000001
10
145.39991494
20
117.20030662000001
10
145.39991494
20
111.40030806
10
144.59891578
20
111.40030806
10
144.59891578
20
108.30030664
10
145.39991494
20
108.30030664
10
145.39991494
20
107.30130686000001
10
159.39891412000003
20
107.30130686000001
10
159.39891412000003
20
108.30030664
10
160.19991582
20
108.30030664
10
160.19991582
20
111.40030806
10
159.39891412000003
20
111.40030806
10
159.39891412000003
20
117.20030662000001
10
160.19991582
20
117.20030662000001
0
LWPOLYLINE
5
172
100
AcDbEntity
8
0
100
AcDbPolyline
90
20
70
1
43
0.0
10
78.724615220000032
20
82.825706839999981
10
77.92381417999998
20
82.825706839999981
10
77.92381417999998
20
79.725105979999981
10
78.724615220000032
20
79.725105979999981
10
78.724615220000032
20
78.726106199999975
10
92.723914120000018
20
78.726106199999975
10
92.723914120000018
20
79.725105979999981
10
93.523315620000034
20
79.725105979999981
10
93.523315620000034
20
82.825706839999981
10
92.723914120000018
20
82.825706839999981
10
92.723914120000018
20
88.625707939999984
10
93.523315620000034
20
88.625707939999984
10
93.523315620000034
20
91.724906720000007
10
92.723914120000018
20
91.724906720000007
10
92.723914120000018
20
92.72540764
10
78.724615220000032
20
92.72540764
10
78.724615220000032
20
91.724906720000007
10
77.92381417999998
20
91.724906720000007
10
77.92381417999998
20
88.625707939999984
10
78.724615220000032
20
88.625707939999984
0
LWPOLYLINE
5
173
100
AcDbEntity
8
0
100
AcDbPolyline
90
20
70
1
43
0.0
10
235.59891411999999
20
63.775706839999998
10
235.59891411999999
20
69.575707939999972
10
236.39991581999999
20
69.575707939999972
10
236.39991581999999
20
72.674906719999981
10
235.59891411999999
20
72.674906719999981
10
235.59891411999999
20
73.675407640000003
10
221.59991493999999
20
73.675407640000003
10
221.59991493999999
20
72.674906719999981
10
220.79891578000002
20
72.674906719999981
10
220.79891578000002
20
69.575707939999972
10
221.59991493999999
20
69.575707939999972
10
221.59991493999999
20
63.775706839999998
10
220.79891578000002
20
63.775706839999998
10
220.79891578000002
20
60.675105979999991
10
221.59991493999999
20
60.675105979999991
10
221.59991493999999
20
59.676106200000021
10
235.59891411999999
20
59.676106200000021
10
235.59891411999999
20
60.675105979999991
10
236.39991581999999
20
60.675105979999991
10
236.39991581999999
20
63.775706839999998
0
LWPOLYLINE
5
174
100
AcDbEntity
8
0
100
AcDbPolyline
90
20
70
1
43
0.0
10
207.31191456000002
20
41.625105979999965
10
207.31191456000002
20
40.626106200000009
10
221.31191450000003
20
40.626106200000009
10
221.31191450000003
20
41.625105979999965
10
222.11091468000006
20
41.625105979999965
10
222.11091468000006
20
44.725706840000008
10
221.31191450000003
20
44.725706840000008
10
221.31191450000003
20
50.525707940000004
10
222.11091468000006
20
50.525707940000004
10
222.11091468000006
20
53.624906719999998
10
221.31191450000003
20
53.624906719999998
10
221.31191450000003
20
54.625407639999999
10
207.31191456000002
20
54.625407639999999
10
207.31191456000002
20
53.624906719999998
10
206.51091539999999
20
53.624906719999998
10
206.51091539999999
20
50.525707940000004
10
207.31191456000002
20
50.525707940000004
10
207.31191456000002
20
44.725706840000008
10
206.51091539999999
20
44.725706840000008
10
206.51091539999999
20
41.625105979999965
0
LWPOLYLINE
5
175
100
AcDbEntity
8
0
100
AcDbPolyline
90
45
70
1
43
0.0
10
37.530813939999952
20
30.874906499999994
10
36.705313939999975
20
30.874906499999994
10
36.705313939999975
20
34.105105780000002
10
34.980115459999965
20
34.105105780000002
10
34.980115459999965
20
35.025705919999993
10
31.679715660000021
20
35.025705919999993
10
31.679715660000021
20
34.105105780000002
10
29.230914359999968
20
34.105105780000002
10
29.230914359999968
20
34.575005779999977
10
28.430313979999969
20
34.575005779999977
10
28.430313979999969
20
35.575306039999965
10
14.430814419999969
20
35.575306039999965
10
14.430814419999969
20
34.575005779999977
10
13.630214040000013
20
34.575005779999977
10
13.630214040000013
20
34.105105780000002
10
11.180015740000007
20
34.105105780000002
10
11.180015740000007
20
35.025705919999993
10
7.8810053200000141
20
35.025705919999993
10
7.8810053200000141
20
34.105105780000002
10
6.1557154000000125
20
34.105105780000002
10
6.1557154000000125
20
30.874906499999994
10
5.3302458799999997
20
30.874906499999994
10
5.3302458799999997
20
28.076105899999995
10
6.1557154000000125
20
28.076105899999995
10
6.1557154000000125
20
21.806105739999989
10
7.8810053200000141
20
21.806105739999989
10
7.8810053200000141
20
20.824906279999983
10
11.180015740000007
20
20.824906279999983
10
11.180015740000007
20
21.806105739999989
10
12.905315819999998
20
21.806105739999989
10
12.905315819999998
20
22.575006919999968
10
14.430814419999969
20
22.575006919999968
10
14.430814419999969
20
21.575908080000001
10
28.430313979999969
20
21.575908080000001
10
28.430313979999969
20
22.575006919999968
10
29.955815119999976
20
22.575006919999968
10
29.955815119999976
20
21.806105739999989
10
31.679715660000021
20
21.806105739999989
10
31.679715660000021
20
20.824906279999983
10
34.406974020881108
20
20.824906279999979
42
-0.35818548650291782
10
35.191811684067595
20
20.179921899999982
42
2.5786528201067118
10
37.987451151999977
20
24.792496253767268
42
-0.50069612747942394
10
36.705313939999975
20
25.751870317209079
10
36.705313939999975
20
28.076105899999995
10
37.530813939999952
20
28.076105899999995
0
LWPOLYLINE
5
176
100
AcDbEntity
8
0
100
AcDbPolyline
90
20
70
1
43
0.0
10
178.73691456
20
34.575005779999977
10
177.9359154
20
34.575005779999977
10
177.9359154
20
31.47580700000001
10
178.73691456
20
31.47580700000001
10
178.73691456
20
25.675607780000011
10
177.9359154
20
25.675607780000011
10
177.9359154
20
22.575006919999968
10
178.73691456
20
22.575006919999968
10
178.73691456
20
21.575908080000001
10
192.73691450000001
20
21.575908080000001
10
192.73691450000001
20
22.575006919999968
10
193.53591468000002
20
22.575006919999968
10
193.53591468000002
20
25.675607780000011
10
192.73691450000001
20
25.675607780000011
10
192.73691450000001
20
31.47580700000001
10
193.53591468000002
20
31.47580700000001
10
193.53591468000002
20
34.575005779999977
10
192.73691450000001
20
34.575005779999977
10
192.73691450000001
20
35.575306039999965
10
178.73691456
20
35.575306039999965
0
LWPOLYLINE
5
177
100
AcDbEntity
8
0
100
AcDbPolyline
90
20
70
1
43
0.0
10
249.37391578000003
20
120.30030804
10
249.37391578000003
20
117.20030662000001
10
250.17491494000001
20
117.20030662000001
10
250.17491494000001
20
111.40030806
10
249.37391578000003
20
111.40030806
10
249.37391578000003
20
108.30030664
10
250.17491494000001
20
108.30030664
10
250.17491494000001
20
107.30130686000001
10
264.17391411999995
20
107.30130686000001
10
264.17391411999995
20
108.30030664
10
264.97491581999998
20
108.30030664
10
264.97491581999998
20
111.40030806
10
264.17391411999995
20
111.40030806
10
264.17391411999995
20
117.20030662000001
10
264.97491581999998
20
117.20030662000001
10
264.97491581999998
20
120.30030804
10
264.17391411999995
20
120.30030804
10
264.17391411999995
20
121.30030604
10
250.17491494000001
20
121.30030604
10
250.17491494000001
20
120.30030804
0
LWPOLYLINE
5
178
100
AcDbEntity
8
0
100
AcDbPolyline
90
20
70
1
43
0.0
10
51.73011498000001
20
6.6255976200000077
10
51.73011498000001
20
3.5250373999999951
10
52.530916019999978
20
3.5250373999999951
10
52.530916019999978
20
2.5259461799999983
10
66.530214920000006
20
2.5259461799999983
10
66.530214920000006
20
3.5250373999999951
10
67.331015959999974
20
3.5250373999999951
10
67.331015959999974
20
6.6255976200000077
10
66.530214920000006
20
6.6255976200000077
10
66.530214920000006
20
12.427107479999986
10
67.331015959999974
20
12.427107479999986
10
67.331015959999974
20
15.525005780000001
10
66.530214920000006
20
15.525005780000001
10
66.530214920000006
20
16.525407640000012
10
52.530916019999978
20
16.525407640000012
10
52.530916019999978
20
15.525005780000001
10
51.73011498000001
20
15.525005780000001
10
51.73011498000001
20
12.427107479999986
10
52.530916019999978
20
12.427107479999986
10
52.530916019999978
20
6.6255976200000077
0
CIRCLE
5
179
100
AcDbEntity
8
0
100
AcDbCircle
10
334.77200000000005
20
114.29630684000001
30
0
40
7.9999999999999716
210
0
220
0
230
1
0
LWPOLYLINE
5
180
100
AcDbEntity
8
0
100
AcDbPolyline
90
20
70
1
43
0.0
10
202.26191450000002
20
44.725706840000008
10
202.26191450000002
20
50.525707940000004
10
203.06091468000002
20
50.525707940000004
10
203.06091468000002
20
53.624906719999998
10
202.26191450000002
20
53.624906719999998
10
202.26191450000002
20
54.625407639999999
10
188.26191456000001
20
54.625407639999999
10
188.26191456000001
20
53.624906719999998
10
187.46091540000009
20
53.624906719999998
10
187.46091540000009
20
50.525707940000004
10
188.26191456000001
20
50.525707940000004
10
188.26191456000001
20
44.725706840000008
10
187.46091540000009
20
44.725706840000008
10
187.46091540000009
20
41.625105979999965
10
188.26191456000001
20
41.625105979999965
10
188.26191456000001
20
40.626106200000009
10
202.26191450000002
20
40.626106200000009
10
202.26191450000002
20
41.625105979999965
10
203.06091468000002
20
41.625105979999965
10
203.06091468000002
20
44.725706840000008
0
CIRCLE
5
181
100
AcDbEntity
8
0
100
AcDbCircle
10
328.61191325999994
20
76.20070611999995
30
0
40
14.794843547389803
210
0
220
0
230
1
0
CIRCLE
5
182
100
AcDbEntity
8
0
100
AcDbCircle
10
39.115999999999993
20
102.99700000000001
30
0
40
4
210
0
220
0
230
1
0
CIRCLE
5
183
100
AcDbEntity
8
0
100
AcDbCircle
10
118.87200000000001
20
107.56900000000002
30
0
40
4.0000000000000071
210
0
220
0
230
1
0
CIRCLE
5
184
100
AcDbEntity
8
0
100
AcDbCircle
10
287.90899999999999
20
25.396306840000005
30
0
40
4.0000000000000027
210
0
220
0
230
1
0
ENDSEC
0
SECTION
2
OBJECTS
0
DICTIONARY
5
C
100
AcDbDictionary
3
ACAD_GROUP
350
D
3
ACAD_MLINESTYLE
350
17
0
DICTIONARY
5
D
100
AcDbDictionary
0
DICTIONARY
5
1A
330
C
100
AcDbDictionary
0
DICTIONARY
5
17
100
AcDbDictionary
0
ENDSEC
0
EOF
