  0
SECTION
  2
HEADER
  9
$ACADVER
  1
AC1009
  9
$EXTMIN
 10
0.0
 20
0.0
 30
0.0
  9
$EXTMAX
 10
1000.0
 20
1000.0
 30
0.0
  9
$FILLMODE
 70
 0
  9
$SPLFRAME
 70
 1
  0
ENDSEC
  0
SECTION
  2
TABLES
  0
TABLE
  2
LAYER
 70
1
  0
LAYER
  2
0
 70
     0
 62
     7
  6
CONTINUOUS
  0
ENDTAB
  0
ENDSEC
  0
SECTION
  2
ENTITIES
  0
LINE
  8
0
 62
     0
 10
0.0950846
 20
124.083
 30
0.0
 11
347.758
 21
124.083
 31
0.0
  0
LINE
  8
0
 62
     0
 10
347.758
 20
124.083
 30
0.0
 11
347.758
 21
0.257693
 31
0.0
  0
LINE
  8
0
 62
     0
 10
347.758
 20
0.257693
 30
0.0
 11
0.0950846
 21
0.257693
 31
0.0
  0
LINE
  8
0
 62
     0
 10
0.0950846
 20
0.257693
 30
0.0
 11
0.0950846
 21
124.083
 31
0.0
  0
LINE
  8
0
 62
     0
 10
124.062
 20
16.7831
 30
0.0
 11
124.062
 21
12.0826
 31
0.0
  0
LINE
  8
0
 62
     0
 10
124.062
 20
12.0826
 30
0.0
 11
84.4381
 21
12.0826
 31
0.0
  0
LINE
  8
0
 62
     0
 10
84.4381
 20
12.0826
 30
0.0
 11
84.4381
 21
15.3128
 31
0.0
  0
LINE
  8
0
 62
     0
 10
84.4381
 20
15.3128
 30
0.0
 11
82.7126
 21
15.3128
 31
0.0
  0
LINE
  8
0
 62
     0
 10
82.7126
 20
15.3128
 30
0.0
 11
82.7126
 21
16.2333
 31
0.0
  0
LINE
  8
0
 62
     0
 10
82.7126
 20
16.2333
 30
0.0
 11
79.412
 21
16.2333
 31
0.0
  0
LINE
  8
0
 62
     0
 10
79.412
 20
16.2333
 30
0.0
 11
79.412
 21
15.3128
 31
0.0
  0
LINE
  8
0
 62
     0
 10
79.412
 20
15.3128
 30
0.0
 11
77.687
 21
15.3128
 31
0.0
  0
LINE
  8
0
 62
     0
 10
77.687
 20
15.3128
 30
0.0
 11
77.687
 21
12.0826
 31
0.0
  0
LINE
  8
0
 62
     0
 10
77.687
 20
12.0826
 30
0.0
 11
76.8629
 21
12.0826
 31
0.0
  0
LINE
  8
0
 62
     0
 10
76.8629
 20
12.0826
 30
0.0
 11
76.8629
 21
9.28384
 31
0.0
  0
LINE
  8
0
 62
     0
 10
76.8629
 20
9.28384
 30
0.0
 11
77.687
 21
9.28384
 31
0.0
  0
LINE
  8
0
 62
     0
 10
77.687
 20
9.28384
 30
0.0
 11
77.687
 21
3.01377
 31
0.0
  0
LINE
  8
0
 62
     0
 10
77.687
 20
3.01377
 30
0.0
 11
79.412
 21
3.01377
 31
0.0
  0
LINE
  8
0
 62
     0
 10
79.412
 20
3.01377
 30
0.0
 11
79.412
 21
2.03261
 31
0.0
  0
LINE
  8
0
 62
     0
 10
79.412
 20
2.03261
 30
0.0
 11
82.7126
 21
2.03261
 31
0.0
  0
LINE
  8
0
 62
     0
 10
82.7126
 20
2.03261
 30
0.0
 11
82.7126
 21
3.01377
 31
0.0
  0
LINE
  8
0
 62
     0
 10
82.7126
 20
3.01377
 30
0.0
 11
84.4381
 21
3.01377
 31
0.0
  0
LINE
  8
0
 62
     0
 10
84.4381
 20
3.01377
 30
0.0
 11
84.4381
 21
7.48273
 31
0.0
  0
LINE
  8
0
 62
     0
 10
84.4381
 20
7.48273
 30
0.0
 11
124.062
 21
7.48273
 31
0.0
  0
LINE
  8
0
 62
     0
 10
124.062
 20
7.48273
 30
0.0
 11
124.062
 21
2.78364
 31
0.0
  0
LINE
  8
0
 62
     0
 10
124.062
 20
2.78364
 30
0.0
 11
138.063
 21
2.78364
 31
0.0
  0
LINE
  8
0
 62
     0
 10
138.063
 20
2.78364
 30
0.0
 11
138.063
 21
7.48273
 31
0.0
  0
LINE
  8
0
 62
     0
 10
138.063
 20
7.48273
 30
0.0
 11
177.687
 21
7.48273
 31
0.0
  0
LINE
  8
0
 62
     0
 10
177.687
 20
7.48273
 30
0.0
 11
177.687
 21
3.01377
 31
0.0
  0
LINE
  8
0
 62
     0
 10
177.687
 20
3.01377
 30
0.0
 11
179.412
 21
3.01377
 31
0.0
  0
LINE
  8
0
 62
     0
 10
179.412
 20
3.01377
 30
0.0
 11
179.412
 21
2.03261
 31
0.0
  0
LINE
  8
0
 62
     0
 10
179.412
 20
2.03261
 30
0.0
 11
182.713
 21
2.03261
 31
0.0
  0
LINE
  8
0
 62
     0
 10
182.713
 20
2.03261
 30
0.0
 11
182.713
 21
3.01377
 31
0.0
  0
LINE
  8
0
 62
     0
 10
182.713
 20
3.01377
 30
0.0
 11
184.438
 21
3.01377
 31
0.0
  0
LINE
  8
0
 62
     0
 10
184.438
 20
3.01377
 30
0.0
 11
184.438
 21
9.28384
 31
0.0
  0
LINE
  8
0
 62
     0
 10
184.438
 20
9.28384
 30
0.0
 11
185.262
 21
9.28384
 31
0.0
  0
LINE
  8
0
 62
     0
 10
185.262
 20
9.28384
 30
0.0
 11
185.262
 21
12.0826
 31
0.0
  0
LINE
  8
0
 62
     0
 10
185.262
 20
12.0826
 30
0.0
 11
184.438
 21
12.0826
 31
0.0
  0
LINE
  8
0
 62
     0
 10
184.438
 20
12.0826
 30
0.0
 11
184.438
 21
15.3128
 31
0.0
  0
LINE
  8
0
 62
     0
 10
184.438
 20
15.3128
 30
0.0
 11
182.713
 21
15.3128
 31
0.0
  0
LINE
  8
0
 62
     0
 10
182.713
 20
15.3128
 30
0.0
 11
182.713
 21
16.2333
 31
0.0
  0
LINE
  8
0
 62
     0
 10
182.713
 20
16.2333
 30
0.0
 11
179.412
 21
16.2333
 31
0.0
  0
LINE
  8
0
 62
     0
 10
179.412
 20
16.2333
 30
0.0
 11
179.412
 21
15.3128
 31
0.0
  0
LINE
  8
0
 62
     0
 10
179.412
 20
15.3128
 30
0.0
 11
177.687
 21
15.3128
 31
0.0
  0
LINE
  8
0
 62
     0
 10
177.687
 20
15.3128
 30
0.0
 11
177.687
 21
12.0826
 31
0.0
  0
LINE
  8
0
 62
     0
 10
177.687
 20
12.0826
 30
0.0
 11
138.063
 21
12.0826
 31
0.0
  0
LINE
  8
0
 62
     0
 10
138.063
 20
12.0826
 30
0.0
 11
138.063
 21
16.7831
 31
0.0
  0
LINE
  8
0
 62
     0
 10
138.063
 20
16.7831
 30
0.0
 11
124.062
 21
16.7831
 31
0.0
  0
LINE
  8
0
 62
     0
 10
331.232
 20
16.7831
 30
0.0
 11
345.232
 21
16.7831
 31
0.0
  0
LINE
  8
0
 62
     0
 10
345.232
 20
16.7831
 30
0.0
 11
345.232
 21
2.78364
 31
0.0
  0
LINE
  8
0
 62
     0
 10
345.232
 20
2.78364
 30
0.0
 11
331.232
 21
2.78364
 31
0.0
  0
LINE
  8
0
 62
     0
 10
331.232
 20
2.78364
 30
0.0
 11
331.232
 21
16.7831
 31
0.0
  0
LINE
  8
0
 62
     0
 10
312.182
 20
16.7831
 30
0.0
 11
326.182
 21
16.7831
 31
0.0
  0
LINE
  8
0
 62
     0
 10
326.182
 20
16.7831
 30
0.0
 11
326.182
 21
2.78364
 31
0.0
  0
LINE
  8
0
 62
     0
 10
326.182
 20
2.78364
 30
0.0
 11
312.182
 21
2.78364
 31
0.0
  0
LINE
  8
0
 62
     0
 10
312.182
 20
2.78364
 30
0.0
 11
312.182
 21
16.7831
 31
0.0
  0
LINE
  8
0
 62
     0
 10
293.132
 20
16.7831
 30
0.0
 11
307.132
 21
16.7831
 31
0.0
  0
LINE
  8
0
 62
     0
 10
307.132
 20
16.7831
 30
0.0
 11
307.132
 21
2.78364
 31
0.0
  0
LINE
  8
0
 62
     0
 10
307.132
 20
2.78364
 30
0.0
 11
293.132
 21
2.78364
 31
0.0
  0
LINE
  8
0
 62
     0
 10
293.132
 20
2.78364
 30
0.0
 11
293.132
 21
16.7831
 31
0.0
  0
LINE
  8
0
 62
     0
 10
266.937
 20
16.7831
 30
0.0
 11
280.938
 21
16.7831
 31
0.0
  0
LINE
  8
0
 62
     0
 10
280.938
 20
16.7831
 30
0.0
 11
280.938
 21
2.78364
 31
0.0
  0
LINE
  8
0
 62
     0
 10
280.938
 20
2.78364
 30
0.0
 11
266.937
 21
2.78364
 31
0.0
  0
LINE
  8
0
 62
     0
 10
266.937
 20
2.78364
 30
0.0
 11
266.937
 21
16.7831
 31
0.0
  0
LINE
  8
0
 62
     0
 10
243.126
 20
16.7831
 30
0.0
 11
257.125
 21
16.7831
 31
0.0
  0
LINE
  8
0
 62
     0
 10
257.125
 20
16.7831
 30
0.0
 11
257.125
 21
2.78364
 31
0.0
  0
LINE
  8
0
 62
     0
 10
257.125
 20
2.78364
 30
0.0
 11
243.126
 21
2.78364
 31
0.0
  0
LINE
  8
0
 62
     0
 10
243.126
 20
2.78364
 30
0.0
 11
243.126
 21
16.7831
 31
0.0
  0
LINE
  8
0
 62
     0
 10
219.312
 20
16.7831
 30
0.0
 11
233.313
 21
16.7831
 31
0.0
  0
LINE
  8
0
 62
     0
 10
233.313
 20
16.7831
 30
0.0
 11
233.313
 21
2.78364
 31
0.0
  0
LINE
  8
0
 62
     0
 10
233.313
 20
2.78364
 30
0.0
 11
219.312
 21
2.78364
 31
0.0
  0
LINE
  8
0
 62
     0
 10
219.312
 20
2.78364
 30
0.0
 11
219.312
 21
16.7831
 31
0.0
  0
LINE
  8
0
 62
     0
 10
195.501
 20
16.7831
 30
0.0
 11
209.5
 21
16.7831
 31
0.0
  0
LINE
  8
0
 62
     0
 10
209.5
 20
16.7831
 30
0.0
 11
209.5
 21
2.78364
 31
0.0
  0
LINE
  8
0
 62
     0
 10
209.5
 20
2.78364
 30
0.0
 11
195.501
 21
2.78364
 31
0.0
  0
LINE
  8
0
 62
     0
 10
195.501
 20
2.78364
 30
0.0
 11
195.501
 21
16.7831
 31
0.0
  0
LINE
  8
0
 62
     0
 10
52.626
 20
16.7831
 30
0.0
 11
66.6253
 21
16.7831
 31
0.0
  0
LINE
  8
0
 62
     0
 10
66.6253
 20
16.7831
 30
0.0
 11
66.6253
 21
2.78364
 31
0.0
  0
LINE
  8
0
 62
     0
 10
66.6253
 20
2.78364
 30
0.0
 11
52.626
 21
2.78364
 31
0.0
  0
LINE
  8
0
 62
     0
 10
52.626
 20
2.78364
 30
0.0
 11
52.626
 21
16.7831
 31
0.0
  0
LINE
  8
0
 62
     0
 10
28.812
 20
16.7831
 30
0.0
 11
42.8128
 21
16.7831
 31
0.0
  0
LINE
  8
0
 62
     0
 10
42.8128
 20
16.7831
 30
0.0
 11
42.8128
 21
2.78364
 31
0.0
  0
LINE
  8
0
 62
     0
 10
42.8128
 20
2.78364
 30
0.0
 11
28.812
 21
2.78364
 31
0.0
  0
LINE
  8
0
 62
     0
 10
28.812
 20
2.78364
 30
0.0
 11
28.812
 21
16.7831
 31
0.0
  0
LINE
  8
0
 62
     0
 10
5.00091
 20
16.7831
 30
0.0
 11
19.0004
 21
16.7831
 31
0.0
  0
LINE
  8
0
 62
     0
 10
19.0004
 20
16.7831
 30
0.0
 11
19.0004
 21
2.78364
 31
0.0
  0
LINE
  8
0
 62
     0
 10
19.0004
 20
2.78364
 30
0.0
 11
5.00091
 21
2.78364
 31
0.0
  0
LINE
  8
0
 62
     0
 10
5.00091
 20
2.78364
 30
0.0
 11
5.00091
 21
16.7831
 31
0.0
  0
LINE
  8
0
 62
     0
 10
252.65
 20
35.833
 30
0.0
 11
252.65
 21
31.1326
 31
0.0
  0
LINE
  8
0
 62
     0
 10
252.65
 20
31.1326
 30
0.0
 11
251.126
 21
31.1326
 31
0.0
  0
LINE
  8
0
 62
     0
 10
251.126
 20
31.1326
 30
0.0
 11
251.126
 21
34.3628
 31
0.0
  0
LINE
  8
0
 62
     0
 10
251.126
 20
34.3628
 30
0.0
 11
249.4
 21
34.3628
 31
0.0
  0
LINE
  8
0
 62
     0
 10
249.4
 20
34.3628
 30
0.0
 11
249.4
 21
35.2834
 31
0.0
  0
LINE
  8
0
 62
     0
 10
249.4
 20
35.2834
 30
0.0
 11
246.101
 21
35.2834
 31
0.0
  0
LINE
  8
0
 62
     0
 10
246.101
 20
35.2834
 30
0.0
 11
246.101
 21
34.3628
 31
0.0
  0
LINE
  8
0
 62
     0
 10
246.101
 20
34.3628
 30
0.0
 11
244.376
 21
34.3628
 31
0.0
  0
LINE
  8
0
 62
     0
 10
244.376
 20
34.3628
 30
0.0
 11
244.376
 21
31.1326
 31
0.0
  0
LINE
  8
0
 62
     0
 10
244.376
 20
31.1326
 30
0.0
 11
243.55
 21
31.1326
 31
0.0
  0
LINE
  8
0
 62
     0
 10
243.55
 20
31.1326
 30
0.0
 11
243.55
 21
28.3338
 31
0.0
  0
LINE
  8
0
 62
     0
 10
243.55
 20
28.3338
 30
0.0
 11
244.376
 21
28.3338
 31
0.0
  0
LINE
  8
0
 62
     0
 10
244.376
 20
28.3338
 30
0.0
 11
244.376
 21
22.0638
 31
0.0
  0
LINE
  8
0
 62
     0
 10
244.376
 20
22.0638
 30
0.0
 11
246.101
 21
22.0638
 31
0.0
  0
LINE
  8
0
 62
     0
 10
246.101
 20
22.0638
 30
0.0
 11
246.101
 21
21.0826
 31
0.0
  0
LINE
  8
0
 62
     0
 10
246.101
 20
21.0826
 30
0.0
 11
249.4
 21
21.0826
 31
0.0
  0
LINE
  8
0
 62
     0
 10
249.4
 20
21.0826
 30
0.0
 11
249.4
 21
22.0638
 31
0.0
  0
LINE
  8
0
 62
     0
 10
249.4
 20
22.0638
 30
0.0
 11
251.126
 21
22.0638
 31
0.0
  0
LINE
  8
0
 62
     0
 10
251.126
 20
22.0638
 30
0.0
 11
251.126
 21
26.5327
 31
0.0
  0
LINE
  8
0
 62
     0
 10
251.126
 20
26.5327
 30
0.0
 11
252.65
 21
26.5327
 31
0.0
  0
LINE
  8
0
 62
     0
 10
252.65
 20
26.5327
 30
0.0
 11
252.65
 21
21.8336
 31
0.0
  0
LINE
  8
0
 62
     0
 10
252.65
 20
21.8336
 30
0.0
 11
266.65
 21
21.8336
 31
0.0
  0
LINE
  8
0
 62
     0
 10
266.65
 20
21.8336
 30
0.0
 11
266.65
 21
26.5327
 31
0.0
  0
LINE
  8
0
 62
     0
 10
266.65
 20
26.5327
 30
0.0
 11
268.176
 21
26.5327
 31
0.0
  0
LINE
  8
0
 62
     0
 10
268.176
 20
26.5327
 30
0.0
 11
268.176
 21
22.0638
 31
0.0
  0
LINE
  8
0
 62
     0
 10
268.176
 20
22.0638
 30
0.0
 11
269.901
 21
22.0638
 31
0.0
  0
LINE
  8
0
 62
     0
 10
269.901
 20
22.0638
 30
0.0
 11
269.901
 21
21.0826
 31
0.0
  0
LINE
  8
0
 62
     0
 10
269.901
 20
21.0826
 30
0.0
 11
273.2
 21
21.0826
 31
0.0
  0
LINE
  8
0
 62
     0
 10
273.2
 20
21.0826
 30
0.0
 11
273.2
 21
22.0638
 31
0.0
  0
LINE
  8
0
 62
     0
 10
273.2
 20
22.0638
 30
0.0
 11
274.925
 21
22.0638
 31
0.0
  0
LINE
  8
0
 62
     0
 10
274.925
 20
22.0638
 30
0.0
 11
274.925
 21
28.3338
 31
0.0
  0
LINE
  8
0
 62
     0
 10
274.925
 20
28.3338
 30
0.0
 11
275.751
 21
28.3338
 31
0.0
  0
LINE
  8
0
 62
     0
 10
275.751
 20
28.3338
 30
0.0
 11
275.751
 21
31.1326
 31
0.0
  0
LINE
  8
0
 62
     0
 10
275.751
 20
31.1326
 30
0.0
 11
274.925
 21
31.1326
 31
0.0
  0
LINE
  8
0
 62
     0
 10
274.925
 20
31.1326
 30
0.0
 11
274.925
 21
34.3628
 31
0.0
  0
LINE
  8
0
 62
     0
 10
274.925
 20
34.3628
 30
0.0
 11
273.2
 21
34.3628
 31
0.0
  0
LINE
  8
0
 62
     0
 10
273.2
 20
34.3628
 30
0.0
 11
273.2
 21
35.2834
 31
0.0
  0
LINE
  8
0
 62
     0
 10
273.2
 20
35.2834
 30
0.0
 11
269.901
 21
35.2834
 31
0.0
  0
LINE
  8
0
 62
     0
 10
269.901
 20
35.2834
 30
0.0
 11
269.901
 21
34.3628
 31
0.0
  0
LINE
  8
0
 62
     0
 10
269.901
 20
34.3628
 30
0.0
 11
268.176
 21
34.3628
 31
0.0
  0
LINE
  8
0
 62
     0
 10
268.176
 20
34.3628
 30
0.0
 11
268.176
 21
31.1326
 31
0.0
  0
LINE
  8
0
 62
     0
 10
268.176
 20
31.1326
 30
0.0
 11
266.65
 21
31.1326
 31
0.0
  0
LINE
  8
0
 62
     0
 10
266.65
 20
31.1326
 30
0.0
 11
266.65
 21
35.833
 31
0.0
  0
LINE
  8
0
 62
     0
 10
266.65
 20
35.833
 30
0.0
 11
252.65
 21
35.833
 31
0.0
  0
LINE
  8
0
 62
     0
 10
14.5259
 20
35.833
 30
0.0
 11
14.5259
 21
31.1326
 31
0.0
  0
LINE
  8
0
 62
     0
 10
14.5259
 20
31.1326
 30
0.0
 11
13.0004
 21
31.1326
 31
0.0
  0
LINE
  8
0
 62
     0
 10
13.0004
 20
31.1326
 30
0.0
 11
13.0004
 21
34.3628
 31
0.0
  0
LINE
  8
0
 62
     0
 10
13.0004
 20
34.3628
 30
0.0
 11
11.2751
 21
34.3628
 31
0.0
  0
LINE
  8
0
 62
     0
 10
11.2751
 20
34.3628
 30
0.0
 11
11.2751
 21
35.2834
 31
0.0
  0
LINE
  8
0
 62
     0
 10
11.2751
 20
35.2834
 30
0.0
 11
7.97609
 21
35.2834
 31
0.0
  0
LINE
  8
0
 62
     0
 10
7.97609
 20
35.2834
 30
0.0
 11
7.97609
 21
34.3628
 31
0.0
  0
LINE
  8
0
 62
     0
 10
7.97609
 20
34.3628
 30
0.0
 11
6.2508
 21
34.3628
 31
0.0
  0
LINE
  8
0
 62
     0
 10
6.2508
 20
34.3628
 30
0.0
 11
6.2508
 21
31.1326
 31
0.0
  0
LINE
  8
0
 62
     0
 10
6.2508
 20
31.1326
 30
0.0
 11
5.42533
 21
31.1326
 31
0.0
  0
LINE
  8
0
 62
     0
 10
5.42533
 20
31.1326
 30
0.0
 11
5.42533
 21
28.3338
 31
0.0
  0
LINE
  8
0
 62
     0
 10
5.42533
 20
28.3338
 30
0.0
 11
6.2508
 21
28.3338
 31
0.0
  0
LINE
  8
0
 62
     0
 10
6.2508
 20
28.3338
 30
0.0
 11
6.2508
 21
22.0638
 31
0.0
  0
LINE
  8
0
 62
     0
 10
6.2508
 20
22.0638
 30
0.0
 11
7.97609
 21
22.0638
 31
0.0
  0
LINE
  8
0
 62
     0
 10
7.97609
 20
22.0638
 30
0.0
 11
7.97609
 21
21.0826
 31
0.0
  0
LINE
  8
0
 62
     0
 10
7.97609
 20
21.0826
 30
0.0
 11
11.2751
 21
21.0826
 31
0.0
  0
LINE
  8
0
 62
     0
 10
11.2751
 20
21.0826
 30
0.0
 11
11.2751
 21
22.0638
 31
0.0
  0
LINE
  8
0
 62
     0
 10
11.2751
 20
22.0638
 30
0.0
 11
13.0004
 21
22.0638
 31
0.0
  0
LINE
  8
0
 62
     0
 10
13.0004
 20
22.0638
 30
0.0
 11
13.0004
 21
26.5327
 31
0.0
  0
LINE
  8
0
 62
     0
 10
13.0004
 20
26.5327
 30
0.0
 11
14.5259
 21
26.5327
 31
0.0
  0
LINE
  8
0
 62
     0
 10
14.5259
 20
26.5327
 30
0.0
 11
14.5259
 21
21.8336
 31
0.0
  0
LINE
  8
0
 62
     0
 10
14.5259
 20
21.8336
 30
0.0
 11
28.5254
 21
21.8336
 31
0.0
  0
LINE
  8
0
 62
     0
 10
28.5254
 20
21.8336
 30
0.0
 11
28.5254
 21
26.5327
 31
0.0
  0
LINE
  8
0
 62
     0
 10
28.5254
 20
26.5327
 30
0.0
 11
30.0509
 21
26.5327
 31
0.0
  0
LINE
  8
0
 62
     0
 10
30.0509
 20
26.5327
 30
0.0
 11
30.0509
 21
22.0638
 31
0.0
  0
LINE
  8
0
 62
     0
 10
30.0509
 20
22.0638
 30
0.0
 11
31.7748
 21
22.0638
 31
0.0
  0
LINE
  8
0
 62
     0
 10
31.7748
 20
22.0638
 30
0.0
 11
31.7748
 21
21.0826
 31
0.0
  0
LINE
  8
0
 62
     0
 10
31.7748
 20
21.0826
 30
0.0
 11
35.0752
 21
21.0826
 31
0.0
  0
LINE
  8
0
 62
     0
 10
35.0752
 20
21.0826
 30
0.0
 11
35.0752
 21
22.0638
 31
0.0
  0
LINE
  8
0
 62
     0
 10
35.0752
 20
22.0638
 30
0.0
 11
36.8004
 21
22.0638
 31
0.0
  0
LINE
  8
0
 62
     0
 10
36.8004
 20
22.0638
 30
0.0
 11
36.8004
 21
28.3338
 31
0.0
  0
LINE
  8
0
 62
     0
 10
36.8004
 20
28.3338
 30
0.0
 11
37.6259
 21
28.3338
 31
0.0
  0
LINE
  8
0
 62
     0
 10
37.6259
 20
28.3338
 30
0.0
 11
37.6259
 21
31.1326
 31
0.0
  0
LINE
  8
0
 62
     0
 10
37.6259
 20
31.1326
 30
0.0
 11
36.8004
 21
31.1326
 31
0.0
  0
LINE
  8
0
 62
     0
 10
36.8004
 20
31.1326
 30
0.0
 11
36.8004
 21
34.3628
 31
0.0
  0
LINE
  8
0
 62
     0
 10
36.8004
 20
34.3628
 30
0.0
 11
35.0752
 21
34.3628
 31
0.0
  0
LINE
  8
0
 62
     0
 10
35.0752
 20
34.3628
 30
0.0
 11
35.0752
 21
35.2834
 31
0.0
  0
LINE
  8
0
 62
     0
 10
35.0752
 20
35.2834
 30
0.0
 11
31.7748
 21
35.2834
 31
0.0
  0
LINE
  8
0
 62
     0
 10
31.7748
 20
35.2834
 30
0.0
 11
31.7748
 21
34.3628
 31
0.0
  0
LINE
  8
0
 62
     0
 10
31.7748
 20
34.3628
 30
0.0
 11
30.0509
 21
34.3628
 31
0.0
  0
LINE
  8
0
 62
     0
 10
30.0509
 20
34.3628
 30
0.0
 11
30.0509
 21
31.1326
 31
0.0
  0
LINE
  8
0
 62
     0
 10
30.0509
 20
31.1326
 30
0.0
 11
28.5254
 21
31.1326
 31
0.0
  0
LINE
  8
0
 62
     0
 10
28.5254
 20
31.1326
 30
0.0
 11
28.5254
 21
35.833
 31
0.0
  0
LINE
  8
0
 62
     0
 10
28.5254
 20
35.833
 30
0.0
 11
14.5259
 21
35.833
 31
0.0
  0
LINE
  8
0
 62
     0
 10
312.182
 20
35.833
 30
0.0
 11
326.182
 21
35.833
 31
0.0
  0
LINE
  8
0
 62
     0
 10
326.182
 20
35.833
 30
0.0
 11
326.182
 21
21.8336
 31
0.0
  0
LINE
  8
0
 62
     0
 10
326.182
 20
21.8336
 30
0.0
 11
312.182
 21
21.8336
 31
0.0
  0
LINE
  8
0
 62
     0
 10
312.182
 20
21.8336
 30
0.0
 11
312.182
 21
35.833
 31
0.0
  0
LINE
  8
0
 62
     0
 10
216.932
 20
35.833
 30
0.0
 11
230.932
 21
35.833
 31
0.0
  0
LINE
  8
0
 62
     0
 10
230.932
 20
35.833
 30
0.0
 11
230.932
 21
21.8336
 31
0.0
  0
LINE
  8
0
 62
     0
 10
230.932
 20
21.8336
 30
0.0
 11
216.932
 21
21.8336
 31
0.0
  0
LINE
  8
0
 62
     0
 10
216.932
 20
21.8336
 30
0.0
 11
216.932
 21
35.833
 31
0.0
  0
LINE
  8
0
 62
     0
 10
197.882
 20
35.833
 30
0.0
 11
211.882
 21
35.833
 31
0.0
  0
LINE
  8
0
 62
     0
 10
211.882
 20
35.833
 30
0.0
 11
211.882
 21
21.8336
 31
0.0
  0
LINE
  8
0
 62
     0
 10
211.882
 20
21.8336
 30
0.0
 11
197.882
 21
21.8336
 31
0.0
  0
LINE
  8
0
 62
     0
 10
197.882
 20
21.8336
 30
0.0
 11
197.882
 21
35.833
 31
0.0
  0
LINE
  8
0
 62
     0
 10
178.832
 20
35.833
 30
0.0
 11
192.832
 21
35.833
 31
0.0
  0
LINE
  8
0
 62
     0
 10
192.832
 20
35.833
 30
0.0
 11
192.832
 21
21.8336
 31
0.0
  0
LINE
  8
0
 62
     0
 10
192.832
 20
21.8336
 30
0.0
 11
178.832
 21
21.8336
 31
0.0
  0
LINE
  8
0
 62
     0
 10
178.832
 20
21.8336
 30
0.0
 11
178.832
 21
35.833
 31
0.0
  0
LINE
  8
0
 62
     0
 10
159.782
 20
35.833
 30
0.0
 11
173.782
 21
35.833
 31
0.0
  0
LINE
  8
0
 62
     0
 10
173.782
 20
35.833
 30
0.0
 11
173.782
 21
21.8336
 31
0.0
  0
LINE
  8
0
 62
     0
 10
173.782
 20
21.8336
 30
0.0
 11
159.782
 21
21.8336
 31
0.0
  0
LINE
  8
0
 62
     0
 10
159.782
 20
21.8336
 30
0.0
 11
159.782
 21
35.833
 31
0.0
  0
LINE
  8
0
 62
     0
 10
140.732
 20
35.833
 30
0.0
 11
154.732
 21
35.833
 31
0.0
  0
LINE
  8
0
 62
     0
 10
154.732
 20
35.833
 30
0.0
 11
154.732
 21
21.8336
 31
0.0
  0
LINE
  8
0
 62
     0
 10
154.732
 20
21.8336
 30
0.0
 11
140.732
 21
21.8336
 31
0.0
  0
LINE
  8
0
 62
     0
 10
140.732
 20
21.8336
 30
0.0
 11
140.732
 21
35.833
 31
0.0
  0
LINE
  8
0
 62
     0
 10
121.682
 20
35.833
 30
0.0
 11
135.682
 21
35.833
 31
0.0
  0
LINE
  8
0
 62
     0
 10
135.682
 20
35.833
 30
0.0
 11
135.682
 21
21.8336
 31
0.0
  0
LINE
  8
0
 62
     0
 10
135.682
 20
21.8336
 30
0.0
 11
121.682
 21
21.8336
 31
0.0
  0
LINE
  8
0
 62
     0
 10
121.682
 20
21.8336
 30
0.0
 11
121.682
 21
35.833
 31
0.0
  0
LINE
  8
0
 62
     0
 10
102.632
 20
35.833
 30
0.0
 11
116.632
 21
35.833
 31
0.0
  0
LINE
  8
0
 62
     0
 10
116.632
 20
35.833
 30
0.0
 11
116.632
 21
21.8336
 31
0.0
  0
LINE
  8
0
 62
     0
 10
116.632
 20
21.8336
 30
0.0
 11
102.632
 21
21.8336
 31
0.0
  0
LINE
  8
0
 62
     0
 10
102.632
 20
21.8336
 30
0.0
 11
102.632
 21
35.833
 31
0.0
  0
LINE
  8
0
 62
     0
 10
83.5822
 20
35.833
 30
0.0
 11
97.5815
 21
35.833
 31
0.0
  0
LINE
  8
0
 62
     0
 10
97.5815
 20
35.833
 30
0.0
 11
97.5815
 21
21.8336
 31
0.0
  0
LINE
  8
0
 62
     0
 10
97.5815
 20
21.8336
 30
0.0
 11
83.5822
 21
21.8336
 31
0.0
  0
LINE
  8
0
 62
     0
 10
83.5822
 20
21.8336
 30
0.0
 11
83.5822
 21
35.833
 31
0.0
  0
LINE
  8
0
 62
     0
 10
64.5322
 20
35.833
 30
0.0
 11
78.5315
 21
35.833
 31
0.0
  0
LINE
  8
0
 62
     0
 10
78.5315
 20
35.833
 30
0.0
 11
78.5315
 21
21.8336
 31
0.0
  0
LINE
  8
0
 62
     0
 10
78.5315
 20
21.8336
 30
0.0
 11
64.5322
 21
21.8336
 31
0.0
  0
LINE
  8
0
 62
     0
 10
64.5322
 20
21.8336
 30
0.0
 11
64.5322
 21
35.833
 31
0.0
  0
LINE
  8
0
 62
     0
 10
45.4822
 20
35.833
 30
0.0
 11
59.4815
 21
35.833
 31
0.0
  0
LINE
  8
0
 62
     0
 10
59.4815
 20
35.833
 30
0.0
 11
59.4815
 21
21.8336
 31
0.0
  0
LINE
  8
0
 62
     0
 10
59.4815
 20
21.8336
 30
0.0
 11
45.4822
 21
21.8336
 31
0.0
  0
LINE
  8
0
 62
     0
 10
45.4822
 20
21.8336
 30
0.0
 11
45.4822
 21
35.833
 31
0.0
  0
LINE
  8
0
 62
     0
 10
257.412
 20
54.8831
 30
0.0
 11
257.412
 21
50.1826
 31
0.0
  0
LINE
  8
0
 62
     0
 10
257.412
 20
50.1826
 30
0.0
 11
255.888
 21
50.1826
 31
0.0
  0
LINE
  8
0
 62
     0
 10
255.888
 20
50.1826
 30
0.0
 11
255.888
 21
53.4127
 31
0.0
  0
LINE
  8
0
 62
     0
 10
255.888
 20
53.4127
 30
0.0
 11
254.161
 21
53.4127
 31
0.0
  0
LINE
  8
0
 62
     0
 10
254.161
 20
53.4127
 30
0.0
 11
254.161
 21
54.3334
 31
0.0
  0
LINE
  8
0
 62
     0
 10
254.161
 20
54.3334
 30
0.0
 11
250.862
 21
54.3334
 31
0.0
  0
LINE
  8
0
 62
     0
 10
250.862
 20
54.3334
 30
0.0
 11
250.862
 21
53.4127
 31
0.0
  0
LINE
  8
0
 62
     0
 10
250.862
 20
53.4127
 30
0.0
 11
249.137
 21
53.4127
 31
0.0
  0
LINE
  8
0
 62
     0
 10
249.137
 20
53.4127
 30
0.0
 11
249.137
 21
50.1826
 31
0.0
  0
LINE
  8
0
 62
     0
 10
249.137
 20
50.1826
 30
0.0
 11
248.313
 21
50.1826
 31
0.0
  0
LINE
  8
0
 62
     0
 10
248.313
 20
50.1826
 30
0.0
 11
248.313
 21
47.3837
 31
0.0
  0
LINE
  8
0
 62
     0
 10
248.313
 20
47.3837
 30
0.0
 11
249.137
 21
47.3837
 31
0.0
  0
LINE
  8
0
 62
     0
 10
249.137
 20
47.3837
 30
0.0
 11
249.137
 21
41.1138
 31
0.0
  0
LINE
  8
0
 62
     0
 10
249.137
 20
41.1138
 30
0.0
 11
250.862
 21
41.1138
 31
0.0
  0
LINE
  8
0
 62
     0
 10
250.862
 20
41.1138
 30
0.0
 11
250.862
 21
40.1327
 31
0.0
  0
LINE
  8
0
 62
     0
 10
250.862
 20
40.1327
 30
0.0
 11
254.161
 21
40.1327
 31
0.0
  0
LINE
  8
0
 62
     0
 10
254.161
 20
40.1327
 30
0.0
 11
254.161
 21
41.1138
 31
0.0
  0
LINE
  8
0
 62
     0
 10
254.161
 20
41.1138
 30
0.0
 11
255.888
 21
41.1138
 31
0.0
  0
LINE
  8
0
 62
     0
 10
255.888
 20
41.1138
 30
0.0
 11
255.888
 21
45.5828
 31
0.0
  0
LINE
  8
0
 62
     0
 10
255.888
 20
45.5828
 30
0.0
 11
257.412
 21
45.5828
 31
0.0
  0
LINE
  8
0
 62
     0
 10
257.412
 20
45.5828
 30
0.0
 11
257.412
 21
40.8838
 31
0.0
  0
LINE
  8
0
 62
     0
 10
257.412
 20
40.8838
 30
0.0
 11
271.413
 21
40.8838
 31
0.0
  0
LINE
  8
0
 62
     0
 10
271.413
 20
40.8838
 30
0.0
 11
271.413
 21
45.5828
 31
0.0
  0
LINE
  8
0
 62
     0
 10
271.413
 20
45.5828
 30
0.0
 11
272.937
 21
45.5828
 31
0.0
  0
LINE
  8
0
 62
     0
 10
272.937
 20
45.5828
 30
0.0
 11
272.937
 21
41.1138
 31
0.0
  0
LINE
  8
0
 62
     0
 10
272.937
 20
41.1138
 30
0.0
 11
274.662
 21
41.1138
 31
0.0
  0
LINE
  8
0
 62
     0
 10
274.662
 20
41.1138
 30
0.0
 11
274.662
 21
40.1327
 31
0.0
  0
LINE
  8
0
 62
     0
 10
274.662
 20
40.1327
 30
0.0
 11
277.963
 21
40.1327
 31
0.0
  0
LINE
  8
0
 62
     0
 10
277.963
 20
40.1327
 30
0.0
 11
277.963
 21
41.1138
 31
0.0
  0
LINE
  8
0
 62
     0
 10
277.963
 20
41.1138
 30
0.0
 11
279.688
 21
41.1138
 31
0.0
  0
LINE
  8
0
 62
     0
 10
279.688
 20
41.1138
 30
0.0
 11
279.688
 21
47.3837
 31
0.0
  0
LINE
  8
0
 62
     0
 10
279.688
 20
47.3837
 30
0.0
 11
280.512
 21
47.3837
 31
0.0
  0
LINE
  8
0
 62
     0
 10
280.512
 20
47.3837
 30
0.0
 11
280.512
 21
50.1826
 31
0.0
  0
LINE
  8
0
 62
     0
 10
280.512
 20
50.1826
 30
0.0
 11
279.688
 21
50.1826
 31
0.0
  0
LINE
  8
0
 62
     0
 10
279.688
 20
50.1826
 30
0.0
 11
279.688
 21
53.4127
 31
0.0
  0
LINE
  8
0
 62
     0
 10
279.688
 20
53.4127
 30
0.0
 11
277.963
 21
53.4127
 31
0.0
  0
LINE
  8
0
 62
     0
 10
277.963
 20
53.4127
 30
0.0
 11
277.963
 21
54.3334
 31
0.0
  0
LINE
  8
0
 62
     0
 10
277.963
 20
54.3334
 30
0.0
 11
274.662
 21
54.3334
 31
0.0
  0
LINE
  8
0
 62
     0
 10
274.662
 20
54.3334
 30
0.0
 11
274.662
 21
53.4127
 31
0.0
  0
LINE
  8
0
 62
     0
 10
274.662
 20
53.4127
 30
0.0
 11
272.937
 21
53.4127
 31
0.0
  0
LINE
  8
0
 62
     0
 10
272.937
 20
53.4127
 30
0.0
 11
272.937
 21
50.1826
 31
0.0
  0
LINE
  8
0
 62
     0
 10
272.937
 20
50.1826
 30
0.0
 11
271.413
 21
50.1826
 31
0.0
  0
LINE
  8
0
 62
     0
 10
271.413
 20
50.1826
 30
0.0
 11
271.413
 21
54.8831
 31
0.0
  0
LINE
  8
0
 62
     0
 10
271.413
 20
54.8831
 30
0.0
 11
257.412
 21
54.8831
 31
0.0
  0
LINE
  8
0
 62
     0
 10
226.457
 20
54.8831
 30
0.0
 11
240.457
 21
54.8831
 31
0.0
  0
LINE
  8
0
 62
     0
 10
240.457
 20
54.8831
 30
0.0
 11
240.457
 21
40.8838
 31
0.0
  0
LINE
  8
0
 62
     0
 10
240.457
 20
40.8838
 30
0.0
 11
226.457
 21
40.8838
 31
0.0
  0
LINE
  8
0
 62
     0
 10
226.457
 20
40.8838
 30
0.0
 11
226.457
 21
54.8831
 31
0.0
  0
LINE
  8
0
 62
     0
 10
207.407
 20
54.8831
 30
0.0
 11
221.407
 21
54.8831
 31
0.0
  0
LINE
  8
0
 62
     0
 10
221.407
 20
54.8831
 30
0.0
 11
221.407
 21
40.8838
 31
0.0
  0
LINE
  8
0
 62
     0
 10
221.407
 20
40.8838
 30
0.0
 11
207.407
 21
40.8838
 31
0.0
  0
LINE
  8
0
 62
     0
 10
207.407
 20
40.8838
 30
0.0
 11
207.407
 21
54.8831
 31
0.0
  0
LINE
  8
0
 62
     0
 10
188.357
 20
54.8831
 30
0.0
 11
202.357
 21
54.8831
 31
0.0
  0
LINE
  8
0
 62
     0
 10
202.357
 20
54.8831
 30
0.0
 11
202.357
 21
40.8838
 31
0.0
  0
LINE
  8
0
 62
     0
 10
202.357
 20
40.8838
 30
0.0
 11
188.357
 21
40.8838
 31
0.0
  0
LINE
  8
0
 62
     0
 10
188.357
 20
40.8838
 30
0.0
 11
188.357
 21
54.8831
 31
0.0
  0
LINE
  8
0
 62
     0
 10
169.307
 20
54.8831
 30
0.0
 11
183.307
 21
54.8831
 31
0.0
  0
LINE
  8
0
 62
     0
 10
183.307
 20
54.8831
 30
0.0
 11
183.307
 21
40.8838
 31
0.0
  0
LINE
  8
0
 62
     0
 10
183.307
 20
40.8838
 30
0.0
 11
169.307
 21
40.8838
 31
0.0
  0
LINE
  8
0
 62
     0
 10
169.307
 20
40.8838
 30
0.0
 11
169.307
 21
54.8831
 31
0.0
  0
LINE
  8
0
 62
     0
 10
150.257
 20
54.8831
 30
0.0
 11
164.257
 21
54.8831
 31
0.0
  0
LINE
  8
0
 62
     0
 10
164.257
 20
54.8831
 30
0.0
 11
164.257
 21
40.8838
 31
0.0
  0
LINE
  8
0
 62
     0
 10
164.257
 20
40.8838
 30
0.0
 11
150.257
 21
40.8838
 31
0.0
  0
LINE
  8
0
 62
     0
 10
150.257
 20
40.8838
 30
0.0
 11
150.257
 21
54.8831
 31
0.0
  0
LINE
  8
0
 62
     0
 10
131.207
 20
54.8831
 30
0.0
 11
145.207
 21
54.8831
 31
0.0
  0
LINE
  8
0
 62
     0
 10
145.207
 20
54.8831
 30
0.0
 11
145.207
 21
40.8838
 31
0.0
  0
LINE
  8
0
 62
     0
 10
145.207
 20
40.8838
 30
0.0
 11
131.207
 21
40.8838
 31
0.0
  0
LINE
  8
0
 62
     0
 10
131.207
 20
40.8838
 30
0.0
 11
131.207
 21
54.8831
 31
0.0
  0
LINE
  8
0
 62
     0
 10
112.157
 20
54.8831
 30
0.0
 11
126.157
 21
54.8831
 31
0.0
  0
LINE
  8
0
 62
     0
 10
126.157
 20
54.8831
 30
0.0
 11
126.157
 21
40.8838
 31
0.0
  0
LINE
  8
0
 62
     0
 10
126.157
 20
40.8838
 30
0.0
 11
112.157
 21
40.8838
 31
0.0
  0
LINE
  8
0
 62
     0
 10
112.157
 20
40.8838
 30
0.0
 11
112.157
 21
54.8831
 31
0.0
  0
LINE
  8
0
 62
     0
 10
93.1072
 20
54.8831
 30
0.0
 11
107.107
 21
54.8831
 31
0.0
  0
LINE
  8
0
 62
     0
 10
107.107
 20
54.8831
 30
0.0
 11
107.107
 21
40.8838
 31
0.0
  0
LINE
  8
0
 62
     0
 10
107.107
 20
40.8838
 30
0.0
 11
93.1072
 21
40.8838
 31
0.0
  0
LINE
  8
0
 62
     0
 10
93.1072
 20
40.8838
 30
0.0
 11
93.1072
 21
54.8831
 31
0.0
  0
LINE
  8
0
 62
     0
 10
74.0572
 20
54.8831
 30
0.0
 11
88.0565
 21
54.8831
 31
0.0
  0
LINE
  8
0
 62
     0
 10
88.0565
 20
54.8831
 30
0.0
 11
88.0565
 21
40.8838
 31
0.0
  0
LINE
  8
0
 62
     0
 10
88.0565
 20
40.8838
 30
0.0
 11
74.0572
 21
40.8838
 31
0.0
  0
LINE
  8
0
 62
     0
 10
74.0572
 20
40.8838
 30
0.0
 11
74.0572
 21
54.8831
 31
0.0
  0
LINE
  8
0
 62
     0
 10
55.0072
 20
54.8831
 30
0.0
 11
69.0065
 21
54.8831
 31
0.0
  0
LINE
  8
0
 62
     0
 10
69.0065
 20
54.8831
 30
0.0
 11
69.0065
 21
40.8838
 31
0.0
  0
LINE
  8
0
 62
     0
 10
69.0065
 20
40.8838
 30
0.0
 11
55.0072
 21
40.8838
 31
0.0
  0
LINE
  8
0
 62
     0
 10
55.0072
 20
40.8838
 30
0.0
 11
55.0072
 21
54.8831
 31
0.0
  0
LINE
  8
0
 62
     0
 10
35.9572
 20
54.8831
 30
0.0
 11
49.9565
 21
54.8831
 31
0.0
  0
LINE
  8
0
 62
     0
 10
49.9565
 20
54.8831
 30
0.0
 11
49.9565
 21
40.8838
 31
0.0
  0
LINE
  8
0
 62
     0
 10
49.9565
 20
40.8838
 30
0.0
 11
35.9572
 21
40.8838
 31
0.0
  0
LINE
  8
0
 62
     0
 10
35.9572
 20
40.8838
 30
0.0
 11
35.9572
 21
54.8831
 31
0.0
  0
LINE
  8
0
 62
     0
 10
9.76203
 20
54.8831
 30
0.0
 11
23.7629
 21
54.8831
 31
0.0
  0
LINE
  8
0
 62
     0
 10
23.7629
 20
54.8831
 30
0.0
 11
23.7629
 21
40.8838
 31
0.0
  0
LINE
  8
0
 62
     0
 10
23.7629
 20
40.8838
 30
0.0
 11
9.76203
 21
40.8838
 31
0.0
  0
LINE
  8
0
 62
     0
 10
9.76203
 20
40.8838
 30
0.0
 11
9.76203
 21
54.8831
 31
0.0
  0
LINE
  8
0
 62
     0
 10
293.132
 20
73.9331
 30
0.0
 11
307.132
 21
73.9331
 31
0.0
  0
LINE
  8
0
 62
     0
 10
307.132
 20
73.9331
 30
0.0
 11
307.132
 21
59.9338
 31
0.0
  0
LINE
  8
0
 62
     0
 10
307.132
 20
59.9338
 30
0.0
 11
293.132
 21
59.9338
 31
0.0
  0
LINE
  8
0
 62
     0
 10
293.132
 20
59.9338
 30
0.0
 11
293.132
 21
73.9331
 31
0.0
  0
LINE
  8
0
 62
     0
 10
264.557
 20
73.9331
 30
0.0
 11
278.557
 21
73.9331
 31
0.0
  0
LINE
  8
0
 62
     0
 10
278.557
 20
73.9331
 30
0.0
 11
278.557
 21
59.9338
 31
0.0
  0
LINE
  8
0
 62
     0
 10
278.557
 20
59.9338
 30
0.0
 11
264.557
 21
59.9338
 31
0.0
  0
LINE
  8
0
 62
     0
 10
264.557
 20
59.9338
 30
0.0
 11
264.557
 21
73.9331
 31
0.0
  0
LINE
  8
0
 62
     0
 10
240.745
 20
73.9331
 30
0.0
 11
254.744
 21
73.9331
 31
0.0
  0
LINE
  8
0
 62
     0
 10
254.744
 20
73.9331
 30
0.0
 11
254.744
 21
59.9338
 31
0.0
  0
LINE
  8
0
 62
     0
 10
254.744
 20
59.9338
 30
0.0
 11
240.745
 21
59.9338
 31
0.0
  0
LINE
  8
0
 62
     0
 10
240.745
 20
59.9338
 30
0.0
 11
240.745
 21
73.9331
 31
0.0
  0
LINE
  8
0
 62
     0
 10
221.695
 20
73.9331
 30
0.0
 11
235.694
 21
73.9331
 31
0.0
  0
LINE
  8
0
 62
     0
 10
235.694
 20
73.9331
 30
0.0
 11
235.694
 21
59.9338
 31
0.0
  0
LINE
  8
0
 62
     0
 10
235.694
 20
59.9338
 30
0.0
 11
221.695
 21
59.9338
 31
0.0
  0
LINE
  8
0
 62
     0
 10
221.695
 20
59.9338
 30
0.0
 11
221.695
 21
73.9331
 31
0.0
  0
LINE
  8
0
 62
     0
 10
202.645
 20
73.9331
 30
0.0
 11
216.644
 21
73.9331
 31
0.0
  0
LINE
  8
0
 62
     0
 10
216.644
 20
73.9331
 30
0.0
 11
216.644
 21
59.9338
 31
0.0
  0
LINE
  8
0
 62
     0
 10
216.644
 20
59.9338
 30
0.0
 11
202.645
 21
59.9338
 31
0.0
  0
LINE
  8
0
 62
     0
 10
202.645
 20
59.9338
 30
0.0
 11
202.645
 21
73.9331
 31
0.0
  0
LINE
  8
0
 62
     0
 10
183.595
 20
73.9331
 30
0.0
 11
197.594
 21
73.9331
 31
0.0
  0
LINE
  8
0
 62
     0
 10
197.594
 20
73.9331
 30
0.0
 11
197.594
 21
59.9338
 31
0.0
  0
LINE
  8
0
 62
     0
 10
197.594
 20
59.9338
 30
0.0
 11
183.595
 21
59.9338
 31
0.0
  0
LINE
  8
0
 62
     0
 10
183.595
 20
59.9338
 30
0.0
 11
183.595
 21
73.9331
 31
0.0
  0
LINE
  8
0
 62
     0
 10
164.545
 20
73.9331
 30
0.0
 11
178.544
 21
73.9331
 31
0.0
  0
LINE
  8
0
 62
     0
 10
178.544
 20
73.9331
 30
0.0
 11
178.544
 21
59.9338
 31
0.0
  0
LINE
  8
0
 62
     0
 10
178.544
 20
59.9338
 30
0.0
 11
164.545
 21
59.9338
 31
0.0
  0
LINE
  8
0
 62
     0
 10
164.545
 20
59.9338
 30
0.0
 11
164.545
 21
73.9331
 31
0.0
  0
LINE
  8
0
 62
     0
 10
145.495
 20
73.9331
 30
0.0
 11
159.494
 21
73.9331
 31
0.0
  0
LINE
  8
0
 62
     0
 10
159.494
 20
73.9331
 30
0.0
 11
159.494
 21
59.9338
 31
0.0
  0
LINE
  8
0
 62
     0
 10
159.494
 20
59.9338
 30
0.0
 11
145.495
 21
59.9338
 31
0.0
  0
LINE
  8
0
 62
     0
 10
145.495
 20
59.9338
 30
0.0
 11
145.495
 21
73.9331
 31
0.0
  0
LINE
  8
0
 62
     0
 10
126.445
 20
73.9331
 30
0.0
 11
140.444
 21
73.9331
 31
0.0
  0
LINE
  8
0
 62
     0
 10
140.444
 20
73.9331
 30
0.0
 11
140.444
 21
59.9338
 31
0.0
  0
LINE
  8
0
 62
     0
 10
140.444
 20
59.9338
 30
0.0
 11
126.445
 21
59.9338
 31
0.0
  0
LINE
  8
0
 62
     0
 10
126.445
 20
59.9338
 30
0.0
 11
126.445
 21
73.9331
 31
0.0
  0
LINE
  8
0
 62
     0
 10
107.395
 20
73.9331
 30
0.0
 11
121.394
 21
73.9331
 31
0.0
  0
LINE
  8
0
 62
     0
 10
121.394
 20
73.9331
 30
0.0
 11
121.394
 21
59.9338
 31
0.0
  0
LINE
  8
0
 62
     0
 10
121.394
 20
59.9338
 30
0.0
 11
107.395
 21
59.9338
 31
0.0
  0
LINE
  8
0
 62
     0
 10
107.395
 20
59.9338
 30
0.0
 11
107.395
 21
73.9331
 31
0.0
  0
LINE
  8
0
 62
     0
 10
88.3447
 20
73.9331
 30
0.0
 11
102.344
 21
73.9331
 31
0.0
  0
LINE
  8
0
 62
     0
 10
102.344
 20
73.9331
 30
0.0
 11
102.344
 21
59.9338
 31
0.0
  0
LINE
  8
0
 62
     0
 10
102.344
 20
59.9338
 30
0.0
 11
88.3447
 21
59.9338
 31
0.0
  0
LINE
  8
0
 62
     0
 10
88.3447
 20
59.9338
 30
0.0
 11
88.3447
 21
73.9331
 31
0.0
  0
LINE
  8
0
 62
     0
 10
69.2947
 20
73.9331
 30
0.0
 11
83.294
 21
73.9331
 31
0.0
  0
LINE
  8
0
 62
     0
 10
83.294
 20
73.9331
 30
0.0
 11
83.294
 21
59.9338
 31
0.0
  0
LINE
  8
0
 62
     0
 10
83.294
 20
59.9338
 30
0.0
 11
69.2947
 21
59.9338
 31
0.0
  0
LINE
  8
0
 62
     0
 10
69.2947
 20
59.9338
 30
0.0
 11
69.2947
 21
73.9331
 31
0.0
  0
LINE
  8
0
 62
     0
 10
50.2447
 20
73.9331
 30
0.0
 11
64.244
 21
73.9331
 31
0.0
  0
LINE
  8
0
 62
     0
 10
64.244
 20
73.9331
 30
0.0
 11
64.244
 21
59.9338
 31
0.0
  0
LINE
  8
0
 62
     0
 10
64.244
 20
59.9338
 30
0.0
 11
50.2447
 21
59.9338
 31
0.0
  0
LINE
  8
0
 62
     0
 10
50.2447
 20
59.9338
 30
0.0
 11
50.2447
 21
73.9331
 31
0.0
  0
LINE
  8
0
 62
     0
 10
31.1947
 20
73.9331
 30
0.0
 11
45.194
 21
73.9331
 31
0.0
  0
LINE
  8
0
 62
     0
 10
45.194
 20
73.9331
 30
0.0
 11
45.194
 21
59.9338
 31
0.0
  0
LINE
  8
0
 62
     0
 10
45.194
 20
59.9338
 30
0.0
 11
31.1947
 21
59.9338
 31
0.0
  0
LINE
  8
0
 62
     0
 10
31.1947
 20
59.9338
 30
0.0
 11
31.1947
 21
73.9331
 31
0.0
  0
LINE
  8
0
 62
     0
 10
7.38216
 20
73.9331
 30
0.0
 11
21.3817
 21
73.9331
 31
0.0
  0
LINE
  8
0
 62
     0
 10
21.3817
 20
73.9331
 30
0.0
 11
21.3817
 21
59.9338
 31
0.0
  0
LINE
  8
0
 62
     0
 10
21.3817
 20
59.9338
 30
0.0
 11
7.38216
 21
59.9338
 31
0.0
  0
LINE
  8
0
 62
     0
 10
7.38216
 20
59.9338
 30
0.0
 11
7.38216
 21
73.9331
 31
0.0
  0
LINE
  8
0
 62
     0
 10
259.795
 20
92.9831
 30
0.0
 11
259.795
 21
88.2826
 31
0.0
  0
LINE
  8
0
 62
     0
 10
259.795
 20
88.2826
 30
0.0
 11
258.269
 21
88.2826
 31
0.0
  0
LINE
  8
0
 62
     0
 10
258.269
 20
88.2826
 30
0.0
 11
258.269
 21
91.5127
 31
0.0
  0
LINE
  8
0
 62
     0
 10
258.269
 20
91.5127
 30
0.0
 11
256.544
 21
91.5127
 31
0.0
  0
LINE
  8
0
 62
     0
 10
256.544
 20
91.5127
 30
0.0
 11
256.544
 21
92.4334
 31
0.0
  0
LINE
  8
0
 62
     0
 10
256.544
 20
92.4334
 30
0.0
 11
253.243
 21
92.4334
 31
0.0
  0
LINE
  8
0
 62
     0
 10
253.243
 20
92.4334
 30
0.0
 11
253.243
 21
91.5127
 31
0.0
  0
LINE
  8
0
 62
     0
 10
253.243
 20
91.5127
 30
0.0
 11
251.52
 21
91.5127
 31
0.0
  0
LINE
  8
0
 62
     0
 10
251.52
 20
91.5127
 30
0.0
 11
251.52
 21
88.2826
 31
0.0
  0
LINE
  8
0
 62
     0
 10
251.52
 20
88.2826
 30
0.0
 11
250.694
 21
88.2826
 31
0.0
  0
LINE
  8
0
 62
     0
 10
250.694
 20
88.2826
 30
0.0
 11
250.694
 21
85.4837
 31
0.0
  0
LINE
  8
0
 62
     0
 10
250.694
 20
85.4837
 30
0.0
 11
251.52
 21
85.4837
 31
0.0
  0
LINE
  8
0
 62
     0
 10
251.52
 20
85.4837
 30
0.0
 11
251.52
 21
79.2138
 31
0.0
  0
LINE
  8
0
 62
     0
 10
251.52
 20
79.2138
 30
0.0
 11
253.243
 21
79.2138
 31
0.0
  0
LINE
  8
0
 62
     0
 10
253.243
 20
79.2138
 30
0.0
 11
253.243
 21
78.2327
 31
0.0
  0
LINE
  8
0
 62
     0
 10
253.243
 20
78.2327
 30
0.0
 11
256.544
 21
78.2327
 31
0.0
  0
LINE
  8
0
 62
     0
 10
256.544
 20
78.2327
 30
0.0
 11
256.544
 21
79.2138
 31
0.0
  0
LINE
  8
0
 62
     0
 10
256.544
 20
79.2138
 30
0.0
 11
258.269
 21
79.2138
 31
0.0
  0
LINE
  8
0
 62
     0
 10
258.269
 20
79.2138
 30
0.0
 11
258.269
 21
83.6828
 31
0.0
  0
LINE
  8
0
 62
     0
 10
258.269
 20
83.6828
 30
0.0
 11
259.795
 21
83.6828
 31
0.0
  0
LINE
  8
0
 62
     0
 10
259.795
 20
83.6828
 30
0.0
 11
259.795
 21
78.9838
 31
0.0
  0
LINE
  8
0
 62
     0
 10
259.795
 20
78.9838
 30
0.0
 11
273.794
 21
78.9838
 31
0.0
  0
LINE
  8
0
 62
     0
 10
273.794
 20
78.9838
 30
0.0
 11
273.794
 21
83.6828
 31
0.0
  0
LINE
  8
0
 62
     0
 10
273.794
 20
83.6828
 30
0.0
 11
275.32
 21
83.6828
 31
0.0
  0
LINE
  8
0
 62
     0
 10
275.32
 20
83.6828
 30
0.0
 11
275.32
 21
79.2138
 31
0.0
  0
LINE
  8
0
 62
     0
 10
275.32
 20
79.2138
 30
0.0
 11
277.045
 21
79.2138
 31
0.0
  0
LINE
  8
0
 62
     0
 10
277.045
 20
79.2138
 30
0.0
 11
277.045
 21
78.2327
 31
0.0
  0
LINE
  8
0
 62
     0
 10
277.045
 20
78.2327
 30
0.0
 11
280.344
 21
78.2327
 31
0.0
  0
LINE
  8
0
 62
     0
 10
280.344
 20
78.2327
 30
0.0
 11
280.344
 21
79.2138
 31
0.0
  0
LINE
  8
0
 62
     0
 10
280.344
 20
79.2138
 30
0.0
 11
282.069
 21
79.2138
 31
0.0
  0
LINE
  8
0
 62
     0
 10
282.069
 20
79.2138
 30
0.0
 11
282.069
 21
85.4837
 31
0.0
  0
LINE
  8
0
 62
     0
 10
282.069
 20
85.4837
 30
0.0
 11
282.895
 21
85.4837
 31
0.0
  0
LINE
  8
0
 62
     0
 10
282.895
 20
85.4837
 30
0.0
 11
282.895
 21
88.2826
 31
0.0
  0
LINE
  8
0
 62
     0
 10
282.895
 20
88.2826
 30
0.0
 11
282.069
 21
88.2826
 31
0.0
  0
LINE
  8
0
 62
     0
 10
282.069
 20
88.2826
 30
0.0
 11
282.069
 21
91.5127
 31
0.0
  0
LINE
  8
0
 62
     0
 10
282.069
 20
91.5127
 30
0.0
 11
280.344
 21
91.5127
 31
0.0
  0
LINE
  8
0
 62
     0
 10
280.344
 20
91.5127
 30
0.0
 11
280.344
 21
92.4334
 31
0.0
  0
LINE
  8
0
 62
     0
 10
280.344
 20
92.4334
 30
0.0
 11
277.045
 21
92.4334
 31
0.0
  0
LINE
  8
0
 62
     0
 10
277.045
 20
92.4334
 30
0.0
 11
277.045
 21
91.5127
 31
0.0
  0
LINE
  8
0
 62
     0
 10
277.045
 20
91.5127
 30
0.0
 11
275.32
 21
91.5127
 31
0.0
  0
LINE
  8
0
 62
     0
 10
275.32
 20
91.5127
 30
0.0
 11
275.32
 21
88.2826
 31
0.0
  0
LINE
  8
0
 62
     0
 10
275.32
 20
88.2826
 30
0.0
 11
273.794
 21
88.2826
 31
0.0
  0
LINE
  8
0
 62
     0
 10
273.794
 20
88.2826
 30
0.0
 11
273.794
 21
92.9831
 31
0.0
  0
LINE
  8
0
 62
     0
 10
273.794
 20
92.9831
 30
0.0
 11
259.795
 21
92.9831
 31
0.0
  0
LINE
  8
0
 62
     0
 10
293.132
 20
92.9831
 30
0.0
 11
307.132
 21
92.9831
 31
0.0
  0
LINE
  8
0
 62
     0
 10
307.132
 20
92.9831
 30
0.0
 11
307.132
 21
78.9838
 31
0.0
  0
LINE
  8
0
 62
     0
 10
307.132
 20
78.9838
 30
0.0
 11
293.132
 21
78.9838
 31
0.0
  0
LINE
  8
0
 62
     0
 10
293.132
 20
78.9838
 30
0.0
 11
293.132
 21
92.9831
 31
0.0
  0
LINE
  8
0
 62
     0
 10
231.22
 20
92.9831
 30
0.0
 11
245.219
 21
92.9831
 31
0.0
  0
LINE
  8
0
 62
     0
 10
245.219
 20
92.9831
 30
0.0
 11
245.219
 21
78.9838
 31
0.0
  0
LINE
  8
0
 62
     0
 10
245.219
 20
78.9838
 30
0.0
 11
231.22
 21
78.9838
 31
0.0
  0
LINE
  8
0
 62
     0
 10
231.22
 20
78.9838
 30
0.0
 11
231.22
 21
92.9831
 31
0.0
  0
LINE
  8
0
 62
     0
 10
212.17
 20
92.9831
 30
0.0
 11
226.169
 21
92.9831
 31
0.0
  0
LINE
  8
0
 62
     0
 10
226.169
 20
92.9831
 30
0.0
 11
226.169
 21
78.9838
 31
0.0
  0
LINE
  8
0
 62
     0
 10
226.169
 20
78.9838
 30
0.0
 11
212.17
 21
78.9838
 31
0.0
  0
LINE
  8
0
 62
     0
 10
212.17
 20
78.9838
 30
0.0
 11
212.17
 21
92.9831
 31
0.0
  0
LINE
  8
0
 62
     0
 10
193.12
 20
92.9831
 30
0.0
 11
207.119
 21
92.9831
 31
0.0
  0
LINE
  8
0
 62
     0
 10
207.119
 20
92.9831
 30
0.0
 11
207.119
 21
78.9838
 31
0.0
  0
LINE
  8
0
 62
     0
 10
207.119
 20
78.9838
 30
0.0
 11
193.12
 21
78.9838
 31
0.0
  0
LINE
  8
0
 62
     0
 10
193.12
 20
78.9838
 30
0.0
 11
193.12
 21
92.9831
 31
0.0
  0
LINE
  8
0
 62
     0
 10
174.07
 20
92.9831
 30
0.0
 11
188.069
 21
92.9831
 31
0.0
  0
LINE
  8
0
 62
     0
 10
188.069
 20
92.9831
 30
0.0
 11
188.069
 21
78.9838
 31
0.0
  0
LINE
  8
0
 62
     0
 10
188.069
 20
78.9838
 30
0.0
 11
174.07
 21
78.9838
 31
0.0
  0
LINE
  8
0
 62
     0
 10
174.07
 20
78.9838
 30
0.0
 11
174.07
 21
92.9831
 31
0.0
  0
LINE
  8
0
 62
     0
 10
155.02
 20
92.9831
 30
0.0
 11
169.019
 21
92.9831
 31
0.0
  0
LINE
  8
0
 62
     0
 10
169.019
 20
92.9831
 30
0.0
 11
169.019
 21
78.9838
 31
0.0
  0
LINE
  8
0
 62
     0
 10
169.019
 20
78.9838
 30
0.0
 11
155.02
 21
78.9838
 31
0.0
  0
LINE
  8
0
 62
     0
 10
155.02
 20
78.9838
 30
0.0
 11
155.02
 21
92.9831
 31
0.0
  0
LINE
  8
0
 62
     0
 10
135.97
 20
92.9831
 30
0.0
 11
149.969
 21
92.9831
 31
0.0
  0
LINE
  8
0
 62
     0
 10
149.969
 20
92.9831
 30
0.0
 11
149.969
 21
78.9838
 31
0.0
  0
LINE
  8
0
 62
     0
 10
149.969
 20
78.9838
 30
0.0
 11
135.97
 21
78.9838
 31
0.0
  0
LINE
  8
0
 62
     0
 10
135.97
 20
78.9838
 30
0.0
 11
135.97
 21
92.9831
 31
0.0
  0
LINE
  8
0
 62
     0
 10
116.918
 20
92.9831
 30
0.0
 11
130.919
 21
92.9831
 31
0.0
  0
LINE
  8
0
 62
     0
 10
130.919
 20
92.9831
 30
0.0
 11
130.919
 21
78.9838
 31
0.0
  0
LINE
  8
0
 62
     0
 10
130.919
 20
78.9838
 30
0.0
 11
116.918
 21
78.9838
 31
0.0
  0
LINE
  8
0
 62
     0
 10
116.918
 20
78.9838
 30
0.0
 11
116.918
 21
92.9831
 31
0.0
  0
LINE
  8
0
 62
     0
 10
97.8683
 20
92.9831
 30
0.0
 11
111.869
 21
92.9831
 31
0.0
  0
LINE
  8
0
 62
     0
 10
111.869
 20
92.9831
 30
0.0
 11
111.869
 21
78.9838
 31
0.0
  0
LINE
  8
0
 62
     0
 10
111.869
 20
78.9838
 30
0.0
 11
97.8683
 21
78.9838
 31
0.0
  0
LINE
  8
0
 62
     0
 10
97.8683
 20
78.9838
 30
0.0
 11
97.8683
 21
92.9831
 31
0.0
  0
LINE
  8
0
 62
     0
 10
78.8197
 20
92.9831
 30
0.0
 11
92.819
 21
92.9831
 31
0.0
  0
LINE
  8
0
 62
     0
 10
92.819
 20
92.9831
 30
0.0
 11
92.819
 21
78.9838
 31
0.0
  0
LINE
  8
0
 62
     0
 10
92.819
 20
78.9838
 30
0.0
 11
78.8197
 21
78.9838
 31
0.0
  0
LINE
  8
0
 62
     0
 10
78.8197
 20
78.9838
 30
0.0
 11
78.8197
 21
92.9831
 31
0.0
  0
LINE
  8
0
 62
     0
 10
59.7697
 20
92.9831
 30
0.0
 11
73.769
 21
92.9831
 31
0.0
  0
LINE
  8
0
 62
     0
 10
73.769
 20
92.9831
 30
0.0
 11
73.769
 21
78.9838
 31
0.0
  0
LINE
  8
0
 62
     0
 10
73.769
 20
78.9838
 30
0.0
 11
59.7697
 21
78.9838
 31
0.0
  0
LINE
  8
0
 62
     0
 10
59.7697
 20
78.9838
 30
0.0
 11
59.7697
 21
92.9831
 31
0.0
  0
LINE
  8
0
 62
     0
 10
40.7197
 20
92.9831
 30
0.0
 11
54.719
 21
92.9831
 31
0.0
  0
LINE
  8
0
 62
     0
 10
54.719
 20
92.9831
 30
0.0
 11
54.719
 21
78.9838
 31
0.0
  0
LINE
  8
0
 62
     0
 10
54.719
 20
78.9838
 30
0.0
 11
40.7197
 21
78.9838
 31
0.0
  0
LINE
  8
0
 62
     0
 10
40.7197
 20
78.9838
 30
0.0
 11
40.7197
 21
92.9831
 31
0.0
  0
LINE
  8
0
 62
     0
 10
21.6697
 20
92.9831
 30
0.0
 11
35.669
 21
92.9831
 31
0.0
  0
LINE
  8
0
 62
     0
 10
35.669
 20
92.9831
 30
0.0
 11
35.669
 21
78.9838
 31
0.0
  0
LINE
  8
0
 62
     0
 10
35.669
 20
78.9838
 30
0.0
 11
21.6697
 21
78.9838
 31
0.0
  0
LINE
  8
0
 62
     0
 10
21.6697
 20
78.9838
 30
0.0
 11
21.6697
 21
92.9831
 31
0.0
  0
LINE
  8
0
 62
     0
 10
2.61965
 20
92.9831
 30
0.0
 11
16.6192
 21
92.9831
 31
0.0
  0
LINE
  8
0
 62
     0
 10
16.6192
 20
92.9831
 30
0.0
 11
16.6192
 21
78.9838
 31
0.0
  0
LINE
  8
0
 62
     0
 10
16.6192
 20
78.9838
 30
0.0
 11
2.61965
 21
78.9838
 31
0.0
  0
LINE
  8
0
 62
     0
 10
2.61965
 20
78.9838
 30
0.0
 11
2.61965
 21
92.9831
 31
0.0
  0
LINE
  8
0
 62
     0
 10
269.32
 20
121.558
 30
0.0
 11
283.319
 21
121.558
 31
0.0
  0
LINE
  8
0
 62
     0
 10
283.319
 20
121.558
 30
0.0
 11
283.319
 21
107.559
 31
0.0
  0
LINE
  8
0
 62
     0
 10
283.319
 20
107.559
 30
0.0
 11
269.32
 21
107.559
 31
0.0
  0
LINE
  8
0
 62
     0
 10
269.32
 20
107.559
 30
0.0
 11
269.32
 21
121.558
 31
0.0
  0
LINE
  8
0
 62
     0
 10
250.27
 20
121.558
 30
0.0
 11
264.269
 21
121.558
 31
0.0
  0
LINE
  8
0
 62
     0
 10
264.269
 20
121.558
 30
0.0
 11
264.269
 21
107.559
 31
0.0
  0
LINE
  8
0
 62
     0
 10
264.269
 20
107.559
 30
0.0
 11
250.27
 21
107.559
 31
0.0
  0
LINE
  8
0
 62
     0
 10
250.27
 20
107.559
 30
0.0
 11
250.27
 21
121.558
 31
0.0
  0
LINE
  8
0
 62
     0
 10
231.22
 20
121.558
 30
0.0
 11
245.219
 21
121.558
 31
0.0
  0
LINE
  8
0
 62
     0
 10
245.219
 20
121.558
 30
0.0
 11
245.219
 21
107.559
 31
0.0
  0
LINE
  8
0
 62
     0
 10
245.219
 20
107.559
 30
0.0
 11
231.22
 21
107.559
 31
0.0
  0
LINE
  8
0
 62
     0
 10
231.22
 20
107.559
 30
0.0
 11
231.22
 21
121.558
 31
0.0
  0
LINE
  8
0
 62
     0
 10
212.17
 20
121.558
 30
0.0
 11
226.169
 21
121.558
 31
0.0
  0
LINE
  8
0
 62
     0
 10
226.169
 20
121.558
 30
0.0
 11
226.169
 21
107.559
 31
0.0
  0
LINE
  8
0
 62
     0
 10
226.169
 20
107.559
 30
0.0
 11
212.17
 21
107.559
 31
0.0
  0
LINE
  8
0
 62
     0
 10
212.17
 20
107.559
 30
0.0
 11
212.17
 21
121.558
 31
0.0
  0
LINE
  8
0
 62
     0
 10
183.595
 20
121.558
 30
0.0
 11
197.594
 21
121.558
 31
0.0
  0
LINE
  8
0
 62
     0
 10
197.594
 20
121.558
 30
0.0
 11
197.594
 21
107.559
 31
0.0
  0
LINE
  8
0
 62
     0
 10
197.594
 20
107.559
 30
0.0
 11
183.595
 21
107.559
 31
0.0
  0
LINE
  8
0
 62
     0
 10
183.595
 20
107.559
 30
0.0
 11
183.595
 21
121.558
 31
0.0
  0
LINE
  8
0
 62
     0
 10
164.545
 20
121.558
 30
0.0
 11
178.544
 21
121.558
 31
0.0
  0
LINE
  8
0
 62
     0
 10
178.544
 20
121.558
 30
0.0
 11
178.544
 21
107.559
 31
0.0
  0
LINE
  8
0
 62
     0
 10
178.544
 20
107.559
 30
0.0
 11
164.545
 21
107.559
 31
0.0
  0
LINE
  8
0
 62
     0
 10
164.545
 20
107.559
 30
0.0
 11
164.545
 21
121.558
 31
0.0
  0
LINE
  8
0
 62
     0
 10
145.495
 20
121.558
 30
0.0
 11
159.494
 21
121.558
 31
0.0
  0
LINE
  8
0
 62
     0
 10
159.494
 20
121.558
 30
0.0
 11
159.494
 21
107.559
 31
0.0
  0
LINE
  8
0
 62
     0
 10
159.494
 20
107.559
 30
0.0
 11
145.495
 21
107.559
 31
0.0
  0
LINE
  8
0
 62
     0
 10
145.495
 20
107.559
 30
0.0
 11
145.495
 21
121.558
 31
0.0
  0
LINE
  8
0
 62
     0
 10
126.445
 20
121.558
 30
0.0
 11
140.444
 21
121.558
 31
0.0
  0
LINE
  8
0
 62
     0
 10
140.444
 20
121.558
 30
0.0
 11
140.444
 21
107.559
 31
0.0
  0
LINE
  8
0
 62
     0
 10
140.444
 20
107.559
 30
0.0
 11
126.445
 21
107.559
 31
0.0
  0
LINE
  8
0
 62
     0
 10
126.445
 20
107.559
 30
0.0
 11
126.445
 21
121.558
 31
0.0
  0
LINE
  8
0
 62
     0
 10
97.8683
 20
121.558
 30
0.0
 11
111.869
 21
121.558
 31
0.0
  0
LINE
  8
0
 62
     0
 10
111.869
 20
121.558
 30
0.0
 11
111.869
 21
107.559
 31
0.0
  0
LINE
  8
0
 62
     0
 10
111.869
 20
107.559
 30
0.0
 11
97.8683
 21
107.559
 31
0.0
  0
LINE
  8
0
 62
     0
 10
97.8683
 20
107.559
 30
0.0
 11
97.8683
 21
121.558
 31
0.0
  0
LINE
  8
0
 62
     0
 10
78.8197
 20
121.558
 30
0.0
 11
92.819
 21
121.558
 31
0.0
  0
LINE
  8
0
 62
     0
 10
92.819
 20
121.558
 30
0.0
 11
92.819
 21
107.559
 31
0.0
  0
LINE
  8
0
 62
     0
 10
92.819
 20
107.559
 30
0.0
 11
78.8197
 21
107.559
 31
0.0
  0
LINE
  8
0
 62
     0
 10
78.8197
 20
107.559
 30
0.0
 11
78.8197
 21
121.558
 31
0.0
  0
LINE
  8
0
 62
     0
 10
59.7697
 20
121.558
 30
0.0
 11
73.769
 21
121.558
 31
0.0
  0
LINE
  8
0
 62
     0
 10
73.769
 20
121.558
 30
0.0
 11
73.769
 21
107.559
 31
0.0
  0
LINE
  8
0
 62
     0
 10
73.769
 20
107.559
 30
0.0
 11
59.7697
 21
107.559
 31
0.0
  0
LINE
  8
0
 62
     0
 10
59.7697
 20
107.559
 30
0.0
 11
59.7697
 21
121.558
 31
0.0
  0
LINE
  8
0
 62
     0
 10
40.7197
 20
121.558
 30
0.0
 11
54.719
 21
121.558
 31
0.0
  0
LINE
  8
0
 62
     0
 10
54.719
 20
121.558
 30
0.0
 11
54.719
 21
107.559
 31
0.0
  0
LINE
  8
0
 62
     0
 10
54.719
 20
107.559
 30
0.0
 11
40.7197
 21
107.559
 31
0.0
  0
LINE
  8
0
 62
     0
 10
40.7197
 20
107.559
 30
0.0
 11
40.7197
 21
121.558
 31
0.0
  0
LINE
  8
0
 62
     0
 10
2.61965
 20
121.558
 30
0.0
 11
16.6192
 21
121.558
 31
0.0
  0
LINE
  8
0
 62
     0
 10
16.6192
 20
121.558
 30
0.0
 11
16.6192
 21
107.559
 31
0.0
  0
LINE
  8
0
 62
     0
 10
16.6192
 20
107.559
 30
0.0
 11
2.61965
 21
107.559
 31
0.0
  0
LINE
  8
0
 62
     0
 10
2.61965
 20
107.559
 30
0.0
 11
2.61965
 21
121.558
 31
0.0
  0
ENDSEC
  0
EOF
