  0
SECTION
  2
HEADER
  9
$ACADVER
  1
AC1009
  9
$EXTMIN
 10
0.0
 20
0.0
 30
0.0
  9
$EXTMAX
 10
1000.0
 20
1000.0
 30
0.0
  9
$FILLMODE
 70
 0
  9
$SPLFRAME
 70
 1
  0
ENDSEC
  0
SECTION
  2
TABLES
  0
TABLE
  2
LAYER
 70
1
  0
LAYER
  2
0
 70
     0
 62
     7
  6
CONTINUOUS
  0
ENDTAB
  0
ENDSEC
  0
SECTION
  2
ENTITIES
  0
LINE
  8
0
 62
     0
 10
0.0950846
 20
124.083
 30
0.0
 11
347.758
 21
124.083
 31
0.0
  0
LINE
  8
0
 62
     0
 10
347.758
 20
124.083
 30
0.0
 11
347.758
 21
0.257693
 31
0.0
  0
LINE
  8
0
 62
     0
 10
347.758
 20
0.257693
 30
0.0
 11
0.0950846
 21
0.257693
 31
0.0
  0
LINE
  8
0
 62
     0
 10
0.0950846
 20
0.257693
 30
0.0
 11
0.0950846
 21
124.083
 31
0.0
  0
LINE
  8
0
 62
     0
 10
124.062
 20
16.7831
 30
0.0
 11
124.062
 21
15.7827
 31
0.0
  0
LINE
  8
0
 62
     0
 10
124.062
 20
15.7827
 30
0.0
 11
123.263
 21
15.7827
 31
0.0
  0
LINE
  8
0
 62
     0
 10
123.263
 20
15.7827
 30
0.0
 11
123.263
 21
12.6848
 31
0.0
  0
LINE
  8
0
 62
     0
 10
123.263
 20
12.6848
 30
0.0
 11
124.062
 21
12.6848
 31
0.0
  0
LINE
  8
0
 62
     0
 10
124.062
 20
12.6848
 30
0.0
 11
124.062
 21
12.0826
 31
0.0
  0
LINE
  8
0
 62
     0
 10
124.062
 20
12.0826
 30
0.0
 11
84.4381
 21
12.0826
 31
0.0
  0
LINE
  8
0
 62
     0
 10
84.4381
 20
12.0826
 30
0.0
 11
84.4381
 21
15.3128
 31
0.0
  0
LINE
  8
0
 62
     0
 10
84.4381
 20
15.3128
 30
0.0
 11
82.7126
 21
15.3128
 31
0.0
  0
LINE
  8
0
 62
     0
 10
82.7126
 20
15.3128
 30
0.0
 11
82.7126
 21
16.2333
 31
0.0
  0
LINE
  8
0
 62
     0
 10
82.7126
 20
16.2333
 30
0.0
 11
79.412
 21
16.2333
 31
0.0
  0
LINE
  8
0
 62
     0
 10
79.412
 20
16.2333
 30
0.0
 11
79.412
 21
15.3128
 31
0.0
  0
LINE
  8
0
 62
     0
 10
79.412
 20
15.3128
 30
0.0
 11
77.687
 21
15.3128
 31
0.0
  0
LINE
  8
0
 62
     0
 10
77.687
 20
15.3128
 30
0.0
 11
77.687
 21
12.0826
 31
0.0
  0
LINE
  8
0
 62
     0
 10
77.687
 20
12.0826
 30
0.0
 11
76.8629
 21
12.0826
 31
0.0
  0
LINE
  8
0
 62
     0
 10
76.8629
 20
12.0826
 30
0.0
 11
76.8629
 21
9.28384
 31
0.0
  0
LINE
  8
0
 62
     0
 10
76.8629
 20
9.28384
 30
0.0
 11
77.687
 21
9.28384
 31
0.0
  0
LINE
  8
0
 62
     0
 10
77.687
 20
9.28384
 30
0.0
 11
77.687
 21
3.01377
 31
0.0
  0
LINE
  8
0
 62
     0
 10
77.687
 20
3.01377
 30
0.0
 11
79.412
 21
3.01377
 31
0.0
  0
LINE
  8
0
 62
     0
 10
79.412
 20
3.01377
 30
0.0
 11
79.412
 21
2.03261
 31
0.0
  0
LINE
  8
0
 62
     0
 10
79.412
 20
2.03261
 30
0.0
 11
82.7126
 21
2.03261
 31
0.0
  0
LINE
  8
0
 62
     0
 10
82.7126
 20
2.03261
 30
0.0
 11
82.7126
 21
3.01377
 31
0.0
  0
LINE
  8
0
 62
     0
 10
82.7126
 20
3.01377
 30
0.0
 11
84.4381
 21
3.01377
 31
0.0
  0
LINE
  8
0
 62
     0
 10
84.4381
 20
3.01377
 30
0.0
 11
84.4381
 21
7.48273
 31
0.0
  0
LINE
  8
0
 62
     0
 10
84.4381
 20
7.48273
 30
0.0
 11
124.062
 21
7.48273
 31
0.0
  0
LINE
  8
0
 62
     0
 10
124.062
 20
7.48273
 30
0.0
 11
124.062
 21
6.88329
 31
0.0
  0
LINE
  8
0
 62
     0
 10
124.062
 20
6.88329
 30
0.0
 11
123.263
 21
6.88329
 31
0.0
  0
LINE
  8
0
 62
     0
 10
123.263
 20
6.88329
 30
0.0
 11
123.263
 21
3.78273
 31
0.0
  0
LINE
  8
0
 62
     0
 10
123.263
 20
3.78273
 30
0.0
 11
124.062
 21
3.78273
 31
0.0
  0
LINE
  8
0
 62
     0
 10
124.062
 20
3.78273
 30
0.0
 11
124.062
 21
2.78364
 31
0.0
  0
LINE
  8
0
 62
     0
 10
124.062
 20
2.78364
 30
0.0
 11
138.063
 21
2.78364
 31
0.0
  0
LINE
  8
0
 62
     0
 10
138.063
 20
2.78364
 30
0.0
 11
138.063
 21
3.78273
 31
0.0
  0
LINE
  8
0
 62
     0
 10
138.063
 20
3.78273
 30
0.0
 11
138.862
 21
3.78273
 31
0.0
  0
LINE
  8
0
 62
     0
 10
138.862
 20
3.78273
 30
0.0
 11
138.862
 21
6.88329
 31
0.0
  0
LINE
  8
0
 62
     0
 10
138.862
 20
6.88329
 30
0.0
 11
138.063
 21
6.88329
 31
0.0
  0
LINE
  8
0
 62
     0
 10
138.063
 20
6.88329
 30
0.0
 11
138.063
 21
7.48273
 31
0.0
  0
LINE
  8
0
 62
     0
 10
138.063
 20
7.48273
 30
0.0
 11
177.687
 21
7.48273
 31
0.0
  0
LINE
  8
0
 62
     0
 10
177.687
 20
7.48273
 30
0.0
 11
177.687
 21
3.01377
 31
0.0
  0
LINE
  8
0
 62
     0
 10
177.687
 20
3.01377
 30
0.0
 11
179.412
 21
3.01377
 31
0.0
  0
LINE
  8
0
 62
     0
 10
179.412
 20
3.01377
 30
0.0
 11
179.412
 21
2.03261
 31
0.0
  0
LINE
  8
0
 62
     0
 10
179.412
 20
2.03261
 30
0.0
 11
182.713
 21
2.03261
 31
0.0
  0
LINE
  8
0
 62
     0
 10
182.713
 20
2.03261
 30
0.0
 11
182.713
 21
3.01377
 31
0.0
  0
LINE
  8
0
 62
     0
 10
182.713
 20
3.01377
 30
0.0
 11
184.438
 21
3.01377
 31
0.0
  0
LINE
  8
0
 62
     0
 10
184.438
 20
3.01377
 30
0.0
 11
184.438
 21
9.28384
 31
0.0
  0
LINE
  8
0
 62
     0
 10
184.438
 20
9.28384
 30
0.0
 11
185.262
 21
9.28384
 31
0.0
  0
LINE
  8
0
 62
     0
 10
185.262
 20
9.28384
 30
0.0
 11
185.262
 21
12.0826
 31
0.0
  0
LINE
  8
0
 62
     0
 10
185.262
 20
12.0826
 30
0.0
 11
184.438
 21
12.0826
 31
0.0
  0
LINE
  8
0
 62
     0
 10
184.438
 20
12.0826
 30
0.0
 11
184.438
 21
15.3128
 31
0.0
  0
LINE
  8
0
 62
     0
 10
184.438
 20
15.3128
 30
0.0
 11
182.713
 21
15.3128
 31
0.0
  0
LINE
  8
0
 62
     0
 10
182.713
 20
15.3128
 30
0.0
 11
182.713
 21
16.2333
 31
0.0
  0
LINE
  8
0
 62
     0
 10
182.713
 20
16.2333
 30
0.0
 11
179.412
 21
16.2333
 31
0.0
  0
LINE
  8
0
 62
     0
 10
179.412
 20
16.2333
 30
0.0
 11
179.412
 21
15.3128
 31
0.0
  0
LINE
  8
0
 62
     0
 10
179.412
 20
15.3128
 30
0.0
 11
177.687
 21
15.3128
 31
0.0
  0
LINE
  8
0
 62
     0
 10
177.687
 20
15.3128
 30
0.0
 11
177.687
 21
12.0826
 31
0.0
  0
LINE
  8
0
 62
     0
 10
177.687
 20
12.0826
 30
0.0
 11
138.063
 21
12.0826
 31
0.0
  0
LINE
  8
0
 62
     0
 10
138.063
 20
12.0826
 30
0.0
 11
138.063
 21
12.6848
 31
0.0
  0
LINE
  8
0
 62
     0
 10
138.063
 20
12.6848
 30
0.0
 11
138.862
 21
12.6848
 31
0.0
  0
LINE
  8
0
 62
     0
 10
138.862
 20
12.6848
 30
0.0
 11
138.862
 21
15.7827
 31
0.0
  0
LINE
  8
0
 62
     0
 10
138.862
 20
15.7827
 30
0.0
 11
138.063
 21
15.7827
 31
0.0
  0
LINE
  8
0
 62
     0
 10
138.063
 20
15.7827
 30
0.0
 11
138.063
 21
16.7831
 31
0.0
  0
LINE
  8
0
 62
     0
 10
138.063
 20
16.7831
 30
0.0
 11
124.062
 21
16.7831
 31
0.0
  0
LINE
  8
0
 62
     0
 10
331.232
 20
16.7831
 30
0.0
 11
331.232
 21
15.7827
 31
0.0
  0
LINE
  8
0
 62
     0
 10
331.232
 20
15.7827
 30
0.0
 11
330.431
 21
15.7827
 31
0.0
  0
LINE
  8
0
 62
     0
 10
330.431
 20
15.7827
 30
0.0
 11
330.431
 21
12.6848
 31
0.0
  0
LINE
  8
0
 62
     0
 10
330.431
 20
12.6848
 30
0.0
 11
331.232
 21
12.6848
 31
0.0
  0
LINE
  8
0
 62
     0
 10
331.232
 20
12.6848
 30
0.0
 11
331.232
 21
6.88329
 31
0.0
  0
LINE
  8
0
 62
     0
 10
331.232
 20
6.88329
 30
0.0
 11
330.431
 21
6.88329
 31
0.0
  0
LINE
  8
0
 62
     0
 10
330.431
 20
6.88329
 30
0.0
 11
330.431
 21
3.78273
 31
0.0
  0
LINE
  8
0
 62
     0
 10
330.431
 20
3.78273
 30
0.0
 11
331.232
 21
3.78273
 31
0.0
  0
LINE
  8
0
 62
     0
 10
331.232
 20
3.78273
 30
0.0
 11
331.232
 21
2.78364
 31
0.0
  0
LINE
  8
0
 62
     0
 10
331.232
 20
2.78364
 30
0.0
 11
345.232
 21
2.78364
 31
0.0
  0
LINE
  8
0
 62
     0
 10
345.232
 20
2.78364
 30
0.0
 11
345.232
 21
3.78273
 31
0.0
  0
LINE
  8
0
 62
     0
 10
345.232
 20
3.78273
 30
0.0
 11
346.031
 21
3.78273
 31
0.0
  0
LINE
  8
0
 62
     0
 10
346.031
 20
3.78273
 30
0.0
 11
346.031
 21
6.88329
 31
0.0
  0
LINE
  8
0
 62
     0
 10
346.031
 20
6.88329
 30
0.0
 11
345.232
 21
6.88329
 31
0.0
  0
LINE
  8
0
 62
     0
 10
345.232
 20
6.88329
 30
0.0
 11
345.232
 21
12.6848
 31
0.0
  0
LINE
  8
0
 62
     0
 10
345.232
 20
12.6848
 30
0.0
 11
346.031
 21
12.6848
 31
0.0
  0
LINE
  8
0
 62
     0
 10
346.031
 20
12.6848
 30
0.0
 11
346.031
 21
15.7827
 31
0.0
  0
LINE
  8
0
 62
     0
 10
346.031
 20
15.7827
 30
0.0
 11
345.232
 21
15.7827
 31
0.0
  0
LINE
  8
0
 62
     0
 10
345.232
 20
15.7827
 30
0.0
 11
345.232
 21
16.7831
 31
0.0
  0
LINE
  8
0
 62
     0
 10
345.232
 20
16.7831
 30
0.0
 11
331.232
 21
16.7831
 31
0.0
  0
LINE
  8
0
 62
     0
 10
312.182
 20
16.7831
 30
0.0
 11
312.182
 21
15.7827
 31
0.0
  0
LINE
  8
0
 62
     0
 10
312.182
 20
15.7827
 30
0.0
 11
311.381
 21
15.7827
 31
0.0
  0
LINE
  8
0
 62
     0
 10
311.381
 20
15.7827
 30
0.0
 11
311.381
 21
12.6848
 31
0.0
  0
LINE
  8
0
 62
     0
 10
311.381
 20
12.6848
 30
0.0
 11
312.182
 21
12.6848
 31
0.0
  0
LINE
  8
0
 62
     0
 10
312.182
 20
12.6848
 30
0.0
 11
312.182
 21
6.88329
 31
0.0
  0
LINE
  8
0
 62
     0
 10
312.182
 20
6.88329
 30
0.0
 11
311.381
 21
6.88329
 31
0.0
  0
LINE
  8
0
 62
     0
 10
311.381
 20
6.88329
 30
0.0
 11
311.381
 21
3.78273
 31
0.0
  0
LINE
  8
0
 62
     0
 10
311.381
 20
3.78273
 30
0.0
 11
312.182
 21
3.78273
 31
0.0
  0
LINE
  8
0
 62
     0
 10
312.182
 20
3.78273
 30
0.0
 11
312.182
 21
2.78364
 31
0.0
  0
LINE
  8
0
 62
     0
 10
312.182
 20
2.78364
 30
0.0
 11
326.182
 21
2.78364
 31
0.0
  0
LINE
  8
0
 62
     0
 10
326.182
 20
2.78364
 30
0.0
 11
326.182
 21
3.78273
 31
0.0
  0
LINE
  8
0
 62
     0
 10
326.182
 20
3.78273
 30
0.0
 11
326.981
 21
3.78273
 31
0.0
  0
LINE
  8
0
 62
     0
 10
326.981
 20
3.78273
 30
0.0
 11
326.981
 21
6.88329
 31
0.0
  0
LINE
  8
0
 62
     0
 10
326.981
 20
6.88329
 30
0.0
 11
326.182
 21
6.88329
 31
0.0
  0
LINE
  8
0
 62
     0
 10
326.182
 20
6.88329
 30
0.0
 11
326.182
 21
12.6848
 31
0.0
  0
LINE
  8
0
 62
     0
 10
326.182
 20
12.6848
 30
0.0
 11
326.981
 21
12.6848
 31
0.0
  0
LINE
  8
0
 62
     0
 10
326.981
 20
12.6848
 30
0.0
 11
326.981
 21
15.7827
 31
0.0
  0
LINE
  8
0
 62
     0
 10
326.981
 20
15.7827
 30
0.0
 11
326.182
 21
15.7827
 31
0.0
  0
LINE
  8
0
 62
     0
 10
326.182
 20
15.7827
 30
0.0
 11
326.182
 21
16.7831
 31
0.0
  0
LINE
  8
0
 62
     0
 10
326.182
 20
16.7831
 30
0.0
 11
312.182
 21
16.7831
 31
0.0
  0
LINE
  8
0
 62
     0
 10
293.132
 20
16.7831
 30
0.0
 11
293.132
 21
15.7827
 31
0.0
  0
LINE
  8
0
 62
     0
 10
293.132
 20
15.7827
 30
0.0
 11
292.331
 21
15.7827
 31
0.0
  0
LINE
  8
0
 62
     0
 10
292.331
 20
15.7827
 30
0.0
 11
292.331
 21
12.6848
 31
0.0
  0
LINE
  8
0
 62
     0
 10
292.331
 20
12.6848
 30
0.0
 11
293.132
 21
12.6848
 31
0.0
  0
LINE
  8
0
 62
     0
 10
293.132
 20
12.6848
 30
0.0
 11
293.132
 21
6.88329
 31
0.0
  0
LINE
  8
0
 62
     0
 10
293.132
 20
6.88329
 30
0.0
 11
292.331
 21
6.88329
 31
0.0
  0
LINE
  8
0
 62
     0
 10
292.331
 20
6.88329
 30
0.0
 11
292.331
 21
3.78273
 31
0.0
  0
LINE
  8
0
 62
     0
 10
292.331
 20
3.78273
 30
0.0
 11
293.132
 21
3.78273
 31
0.0
  0
LINE
  8
0
 62
     0
 10
293.132
 20
3.78273
 30
0.0
 11
293.132
 21
2.78364
 31
0.0
  0
LINE
  8
0
 62
     0
 10
293.132
 20
2.78364
 30
0.0
 11
307.132
 21
2.78364
 31
0.0
  0
LINE
  8
0
 62
     0
 10
307.132
 20
2.78364
 30
0.0
 11
307.132
 21
3.78273
 31
0.0
  0
LINE
  8
0
 62
     0
 10
307.132
 20
3.78273
 30
0.0
 11
307.931
 21
3.78273
 31
0.0
  0
LINE
  8
0
 62
     0
 10
307.931
 20
3.78273
 30
0.0
 11
307.931
 21
6.88329
 31
0.0
  0
LINE
  8
0
 62
     0
 10
307.931
 20
6.88329
 30
0.0
 11
307.132
 21
6.88329
 31
0.0
  0
LINE
  8
0
 62
     0
 10
307.132
 20
6.88329
 30
0.0
 11
307.132
 21
12.6848
 31
0.0
  0
LINE
  8
0
 62
     0
 10
307.132
 20
12.6848
 30
0.0
 11
307.931
 21
12.6848
 31
0.0
  0
LINE
  8
0
 62
     0
 10
307.931
 20
12.6848
 30
0.0
 11
307.931
 21
15.7827
 31
0.0
  0
LINE
  8
0
 62
     0
 10
307.931
 20
15.7827
 30
0.0
 11
307.132
 21
15.7827
 31
0.0
  0
LINE
  8
0
 62
     0
 10
307.132
 20
15.7827
 30
0.0
 11
307.132
 21
16.7831
 31
0.0
  0
LINE
  8
0
 62
     0
 10
307.132
 20
16.7831
 30
0.0
 11
293.132
 21
16.7831
 31
0.0
  0
LINE
  8
0
 62
     0
 10
266.937
 20
16.7831
 30
0.0
 11
266.937
 21
15.7827
 31
0.0
  0
LINE
  8
0
 62
     0
 10
266.937
 20
15.7827
 30
0.0
 11
266.138
 21
15.7827
 31
0.0
  0
LINE
  8
0
 62
     0
 10
266.138
 20
15.7827
 30
0.0
 11
266.138
 21
12.6848
 31
0.0
  0
LINE
  8
0
 62
     0
 10
266.138
 20
12.6848
 30
0.0
 11
266.937
 21
12.6848
 31
0.0
  0
LINE
  8
0
 62
     0
 10
266.937
 20
12.6848
 30
0.0
 11
266.937
 21
6.88329
 31
0.0
  0
LINE
  8
0
 62
     0
 10
266.937
 20
6.88329
 30
0.0
 11
266.138
 21
6.88329
 31
0.0
  0
LINE
  8
0
 62
     0
 10
266.138
 20
6.88329
 30
0.0
 11
266.138
 21
3.78273
 31
0.0
  0
LINE
  8
0
 62
     0
 10
266.138
 20
3.78273
 30
0.0
 11
266.937
 21
3.78273
 31
0.0
  0
LINE
  8
0
 62
     0
 10
266.937
 20
3.78273
 30
0.0
 11
266.937
 21
2.78364
 31
0.0
  0
LINE
  8
0
 62
     0
 10
266.937
 20
2.78364
 30
0.0
 11
280.938
 21
2.78364
 31
0.0
  0
LINE
  8
0
 62
     0
 10
280.938
 20
2.78364
 30
0.0
 11
280.938
 21
3.78273
 31
0.0
  0
LINE
  8
0
 62
     0
 10
280.938
 20
3.78273
 30
0.0
 11
281.737
 21
3.78273
 31
0.0
  0
LINE
  8
0
 62
     0
 10
281.737
 20
3.78273
 30
0.0
 11
281.737
 21
6.88329
 31
0.0
  0
LINE
  8
0
 62
     0
 10
281.737
 20
6.88329
 30
0.0
 11
280.938
 21
6.88329
 31
0.0
  0
LINE
  8
0
 62
     0
 10
280.938
 20
6.88329
 30
0.0
 11
280.938
 21
12.6848
 31
0.0
  0
LINE
  8
0
 62
     0
 10
280.938
 20
12.6848
 30
0.0
 11
281.737
 21
12.6848
 31
0.0
  0
LINE
  8
0
 62
     0
 10
281.737
 20
12.6848
 30
0.0
 11
281.737
 21
15.7827
 31
0.0
  0
LINE
  8
0
 62
     0
 10
281.737
 20
15.7827
 30
0.0
 11
280.938
 21
15.7827
 31
0.0
  0
LINE
  8
0
 62
     0
 10
280.938
 20
15.7827
 30
0.0
 11
280.938
 21
16.7831
 31
0.0
  0
LINE
  8
0
 62
     0
 10
280.938
 20
16.7831
 30
0.0
 11
266.937
 21
16.7831
 31
0.0
  0
LINE
  8
0
 62
     0
 10
243.126
 20
16.7831
 30
0.0
 11
243.126
 21
15.7827
 31
0.0
  0
LINE
  8
0
 62
     0
 10
243.126
 20
15.7827
 30
0.0
 11
242.325
 21
15.7827
 31
0.0
  0
LINE
  8
0
 62
     0
 10
242.325
 20
15.7827
 30
0.0
 11
242.325
 21
12.6848
 31
0.0
  0
LINE
  8
0
 62
     0
 10
242.325
 20
12.6848
 30
0.0
 11
243.126
 21
12.6848
 31
0.0
  0
LINE
  8
0
 62
     0
 10
243.126
 20
12.6848
 30
0.0
 11
243.126
 21
6.88329
 31
0.0
  0
LINE
  8
0
 62
     0
 10
243.126
 20
6.88329
 30
0.0
 11
242.325
 21
6.88329
 31
0.0
  0
LINE
  8
0
 62
     0
 10
242.325
 20
6.88329
 30
0.0
 11
242.325
 21
3.78273
 31
0.0
  0
LINE
  8
0
 62
     0
 10
242.325
 20
3.78273
 30
0.0
 11
243.126
 21
3.78273
 31
0.0
  0
LINE
  8
0
 62
     0
 10
243.126
 20
3.78273
 30
0.0
 11
243.126
 21
2.78364
 31
0.0
  0
LINE
  8
0
 62
     0
 10
243.126
 20
2.78364
 30
0.0
 11
257.125
 21
2.78364
 31
0.0
  0
LINE
  8
0
 62
     0
 10
257.125
 20
2.78364
 30
0.0
 11
257.125
 21
3.78273
 31
0.0
  0
LINE
  8
0
 62
     0
 10
257.125
 20
3.78273
 30
0.0
 11
257.926
 21
3.78273
 31
0.0
  0
LINE
  8
0
 62
     0
 10
257.926
 20
3.78273
 30
0.0
 11
257.926
 21
6.88329
 31
0.0
  0
LINE
  8
0
 62
     0
 10
257.926
 20
6.88329
 30
0.0
 11
257.125
 21
6.88329
 31
0.0
  0
LINE
  8
0
 62
     0
 10
257.125
 20
6.88329
 30
0.0
 11
257.125
 21
12.6848
 31
0.0
  0
LINE
  8
0
 62
     0
 10
257.125
 20
12.6848
 30
0.0
 11
257.926
 21
12.6848
 31
0.0
  0
LINE
  8
0
 62
     0
 10
257.926
 20
12.6848
 30
0.0
 11
257.926
 21
15.7827
 31
0.0
  0
LINE
  8
0
 62
     0
 10
257.926
 20
15.7827
 30
0.0
 11
257.125
 21
15.7827
 31
0.0
  0
LINE
  8
0
 62
     0
 10
257.125
 20
15.7827
 30
0.0
 11
257.125
 21
16.7831
 31
0.0
  0
LINE
  8
0
 62
     0
 10
257.125
 20
16.7831
 30
0.0
 11
243.126
 21
16.7831
 31
0.0
  0
LINE
  8
0
 62
     0
 10
219.312
 20
16.7831
 30
0.0
 11
219.312
 21
15.7827
 31
0.0
  0
LINE
  8
0
 62
     0
 10
219.312
 20
15.7827
 30
0.0
 11
218.513
 21
15.7827
 31
0.0
  0
LINE
  8
0
 62
     0
 10
218.513
 20
15.7827
 30
0.0
 11
218.513
 21
12.6848
 31
0.0
  0
LINE
  8
0
 62
     0
 10
218.513
 20
12.6848
 30
0.0
 11
219.312
 21
12.6848
 31
0.0
  0
LINE
  8
0
 62
     0
 10
219.312
 20
12.6848
 30
0.0
 11
219.312
 21
6.88329
 31
0.0
  0
LINE
  8
0
 62
     0
 10
219.312
 20
6.88329
 30
0.0
 11
218.513
 21
6.88329
 31
0.0
  0
LINE
  8
0
 62
     0
 10
218.513
 20
6.88329
 30
0.0
 11
218.513
 21
3.78273
 31
0.0
  0
LINE
  8
0
 62
     0
 10
218.513
 20
3.78273
 30
0.0
 11
219.312
 21
3.78273
 31
0.0
  0
LINE
  8
0
 62
     0
 10
219.312
 20
3.78273
 30
0.0
 11
219.312
 21
2.78364
 31
0.0
  0
LINE
  8
0
 62
     0
 10
219.312
 20
2.78364
 30
0.0
 11
233.313
 21
2.78364
 31
0.0
  0
LINE
  8
0
 62
     0
 10
233.313
 20
2.78364
 30
0.0
 11
233.313
 21
3.78273
 31
0.0
  0
LINE
  8
0
 62
     0
 10
233.313
 20
3.78273
 30
0.0
 11
234.112
 21
3.78273
 31
0.0
  0
LINE
  8
0
 62
     0
 10
234.112
 20
3.78273
 30
0.0
 11
234.112
 21
6.88329
 31
0.0
  0
LINE
  8
0
 62
     0
 10
234.112
 20
6.88329
 30
0.0
 11
233.313
 21
6.88329
 31
0.0
  0
LINE
  8
0
 62
     0
 10
233.313
 20
6.88329
 30
0.0
 11
233.313
 21
12.6848
 31
0.0
  0
LINE
  8
0
 62
     0
 10
233.313
 20
12.6848
 30
0.0
 11
234.112
 21
12.6848
 31
0.0
  0
LINE
  8
0
 62
     0
 10
234.112
 20
12.6848
 30
0.0
 11
234.112
 21
15.7827
 31
0.0
  0
LINE
  8
0
 62
     0
 10
234.112
 20
15.7827
 30
0.0
 11
233.313
 21
15.7827
 31
0.0
  0
LINE
  8
0
 62
     0
 10
233.313
 20
15.7827
 30
0.0
 11
233.313
 21
16.7831
 31
0.0
  0
LINE
  8
0
 62
     0
 10
233.313
 20
16.7831
 30
0.0
 11
219.312
 21
16.7831
 31
0.0
  0
LINE
  8
0
 62
     0
 10
195.501
 20
16.7831
 30
0.0
 11
195.501
 21
15.7827
 31
0.0
  0
LINE
  8
0
 62
     0
 10
195.501
 20
15.7827
 30
0.0
 11
194.7
 21
15.7827
 31
0.0
  0
LINE
  8
0
 62
     0
 10
194.7
 20
15.7827
 30
0.0
 11
194.7
 21
12.6848
 31
0.0
  0
LINE
  8
0
 62
     0
 10
194.7
 20
12.6848
 30
0.0
 11
195.501
 21
12.6848
 31
0.0
  0
LINE
  8
0
 62
     0
 10
195.501
 20
12.6848
 30
0.0
 11
195.501
 21
6.88329
 31
0.0
  0
LINE
  8
0
 62
     0
 10
195.501
 20
6.88329
 30
0.0
 11
194.7
 21
6.88329
 31
0.0
  0
LINE
  8
0
 62
     0
 10
194.7
 20
6.88329
 30
0.0
 11
194.7
 21
3.78273
 31
0.0
  0
LINE
  8
0
 62
     0
 10
194.7
 20
3.78273
 30
0.0
 11
195.501
 21
3.78273
 31
0.0
  0
LINE
  8
0
 62
     0
 10
195.501
 20
3.78273
 30
0.0
 11
195.501
 21
2.78364
 31
0.0
  0
LINE
  8
0
 62
     0
 10
195.501
 20
2.78364
 30
0.0
 11
209.5
 21
2.78364
 31
0.0
  0
LINE
  8
0
 62
     0
 10
209.5
 20
2.78364
 30
0.0
 11
209.5
 21
3.78273
 31
0.0
  0
LINE
  8
0
 62
     0
 10
209.5
 20
3.78273
 30
0.0
 11
210.301
 21
3.78273
 31
0.0
  0
LINE
  8
0
 62
     0
 10
210.301
 20
3.78273
 30
0.0
 11
210.301
 21
6.88329
 31
0.0
  0
LINE
  8
0
 62
     0
 10
210.301
 20
6.88329
 30
0.0
 11
209.5
 21
6.88329
 31
0.0
  0
LINE
  8
0
 62
     0
 10
209.5
 20
6.88329
 30
0.0
 11
209.5
 21
12.6848
 31
0.0
  0
LINE
  8
0
 62
     0
 10
209.5
 20
12.6848
 30
0.0
 11
210.301
 21
12.6848
 31
0.0
  0
LINE
  8
0
 62
     0
 10
210.301
 20
12.6848
 30
0.0
 11
210.301
 21
15.7827
 31
0.0
  0
LINE
  8
0
 62
     0
 10
210.301
 20
15.7827
 30
0.0
 11
209.5
 21
15.7827
 31
0.0
  0
LINE
  8
0
 62
     0
 10
209.5
 20
15.7827
 30
0.0
 11
209.5
 21
16.7831
 31
0.0
  0
LINE
  8
0
 62
     0
 10
209.5
 20
16.7831
 30
0.0
 11
195.501
 21
16.7831
 31
0.0
  0
LINE
  8
0
 62
     0
 10
52.626
 20
16.7831
 30
0.0
 11
52.626
 21
15.7827
 31
0.0
  0
LINE
  8
0
 62
     0
 10
52.626
 20
15.7827
 30
0.0
 11
51.8252
 21
15.7827
 31
0.0
  0
LINE
  8
0
 62
     0
 10
51.8252
 20
15.7827
 30
0.0
 11
51.8252
 21
12.6848
 31
0.0
  0
LINE
  8
0
 62
     0
 10
51.8252
 20
12.6848
 30
0.0
 11
52.626
 21
12.6848
 31
0.0
  0
LINE
  8
0
 62
     0
 10
52.626
 20
12.6848
 30
0.0
 11
52.626
 21
6.88329
 31
0.0
  0
LINE
  8
0
 62
     0
 10
52.626
 20
6.88329
 30
0.0
 11
51.8252
 21
6.88329
 31
0.0
  0
LINE
  8
0
 62
     0
 10
51.8252
 20
6.88329
 30
0.0
 11
51.8252
 21
3.78273
 31
0.0
  0
LINE
  8
0
 62
     0
 10
51.8252
 20
3.78273
 30
0.0
 11
52.626
 21
3.78273
 31
0.0
  0
LINE
  8
0
 62
     0
 10
52.626
 20
3.78273
 30
0.0
 11
52.626
 21
2.78364
 31
0.0
  0
LINE
  8
0
 62
     0
 10
52.626
 20
2.78364
 30
0.0
 11
66.6253
 21
2.78364
 31
0.0
  0
LINE
  8
0
 62
     0
 10
66.6253
 20
2.78364
 30
0.0
 11
66.6253
 21
3.78273
 31
0.0
  0
LINE
  8
0
 62
     0
 10
66.6253
 20
3.78273
 30
0.0
 11
67.4261
 21
3.78273
 31
0.0
  0
LINE
  8
0
 62
     0
 10
67.4261
 20
3.78273
 30
0.0
 11
67.4261
 21
6.88329
 31
0.0
  0
LINE
  8
0
 62
     0
 10
67.4261
 20
6.88329
 30
0.0
 11
66.6253
 21
6.88329
 31
0.0
  0
LINE
  8
0
 62
     0
 10
66.6253
 20
6.88329
 30
0.0
 11
66.6253
 21
12.6848
 31
0.0
  0
LINE
  8
0
 62
     0
 10
66.6253
 20
12.6848
 30
0.0
 11
67.4261
 21
12.6848
 31
0.0
  0
LINE
  8
0
 62
     0
 10
67.4261
 20
12.6848
 30
0.0
 11
67.4261
 21
15.7827
 31
0.0
  0
LINE
  8
0
 62
     0
 10
67.4261
 20
15.7827
 30
0.0
 11
66.6253
 21
15.7827
 31
0.0
  0
LINE
  8
0
 62
     0
 10
66.6253
 20
15.7827
 30
0.0
 11
66.6253
 21
16.7831
 31
0.0
  0
LINE
  8
0
 62
     0
 10
66.6253
 20
16.7831
 30
0.0
 11
52.626
 21
16.7831
 31
0.0
  0
LINE
  8
0
 62
     0
 10
28.812
 20
16.7831
 30
0.0
 11
28.812
 21
15.7827
 31
0.0
  0
LINE
  8
0
 62
     0
 10
28.812
 20
15.7827
 30
0.0
 11
28.0128
 21
15.7827
 31
0.0
  0
LINE
  8
0
 62
     0
 10
28.0128
 20
15.7827
 30
0.0
 11
28.0128
 21
12.6848
 31
0.0
  0
LINE
  8
0
 62
     0
 10
28.0128
 20
12.6848
 30
0.0
 11
28.812
 21
12.6848
 31
0.0
  0
LINE
  8
0
 62
     0
 10
28.812
 20
12.6848
 30
0.0
 11
28.812
 21
6.88329
 31
0.0
  0
LINE
  8
0
 62
     0
 10
28.812
 20
6.88329
 30
0.0
 11
28.0128
 21
6.88329
 31
0.0
  0
LINE
  8
0
 62
     0
 10
28.0128
 20
6.88329
 30
0.0
 11
28.0128
 21
3.78273
 31
0.0
  0
LINE
  8
0
 62
     0
 10
28.0128
 20
3.78273
 30
0.0
 11
28.812
 21
3.78273
 31
0.0
  0
LINE
  8
0
 62
     0
 10
28.812
 20
3.78273
 30
0.0
 11
28.812
 21
2.78364
 31
0.0
  0
LINE
  8
0
 62
     0
 10
28.812
 20
2.78364
 30
0.0
 11
42.8128
 21
2.78364
 31
0.0
  0
LINE
  8
0
 62
     0
 10
42.8128
 20
2.78364
 30
0.0
 11
42.8128
 21
3.78273
 31
0.0
  0
LINE
  8
0
 62
     0
 10
42.8128
 20
3.78273
 30
0.0
 11
43.6122
 21
3.78273
 31
0.0
  0
LINE
  8
0
 62
     0
 10
43.6122
 20
3.78273
 30
0.0
 11
43.6122
 21
6.88329
 31
0.0
  0
LINE
  8
0
 62
     0
 10
43.6122
 20
6.88329
 30
0.0
 11
42.8128
 21
6.88329
 31
0.0
  0
LINE
  8
0
 62
     0
 10
42.8128
 20
6.88329
 30
0.0
 11
42.8128
 21
12.6848
 31
0.0
  0
LINE
  8
0
 62
     0
 10
42.8128
 20
12.6848
 30
0.0
 11
43.6122
 21
12.6848
 31
0.0
  0
LINE
  8
0
 62
     0
 10
43.6122
 20
12.6848
 30
0.0
 11
43.6122
 21
15.7827
 31
0.0
  0
LINE
  8
0
 62
     0
 10
43.6122
 20
15.7827
 30
0.0
 11
42.8128
 21
15.7827
 31
0.0
  0
LINE
  8
0
 62
     0
 10
42.8128
 20
15.7827
 30
0.0
 11
42.8128
 21
16.7831
 31
0.0
  0
LINE
  8
0
 62
     0
 10
42.8128
 20
16.7831
 30
0.0
 11
28.812
 21
16.7831
 31
0.0
  0
LINE
  8
0
 62
     0
 10
5.00091
 20
16.7831
 30
0.0
 11
5.00091
 21
15.7827
 31
0.0
  0
LINE
  8
0
 62
     0
 10
5.00091
 20
15.7827
 30
0.0
 11
4.20028
 21
15.7827
 31
0.0
  0
LINE
  8
0
 62
     0
 10
4.20028
 20
15.7827
 30
0.0
 11
4.20028
 21
12.6848
 31
0.0
  0
LINE
  8
0
 62
     0
 10
4.20028
 20
12.6848
 30
0.0
 11
5.00091
 21
12.6848
 31
0.0
  0
LINE
  8
0
 62
     0
 10
5.00091
 20
12.6848
 30
0.0
 11
5.00091
 21
6.88329
 31
0.0
  0
LINE
  8
0
 62
     0
 10
5.00091
 20
6.88329
 30
0.0
 11
4.20028
 21
6.88329
 31
0.0
  0
LINE
  8
0
 62
     0
 10
4.20028
 20
6.88329
 30
0.0
 11
4.20028
 21
3.78273
 31
0.0
  0
LINE
  8
0
 62
     0
 10
4.20028
 20
3.78273
 30
0.0
 11
5.00091
 21
3.78273
 31
0.0
  0
LINE
  8
0
 62
     0
 10
5.00091
 20
3.78273
 30
0.0
 11
5.00091
 21
2.78364
 31
0.0
  0
LINE
  8
0
 62
     0
 10
5.00091
 20
2.78364
 30
0.0
 11
19.0004
 21
2.78364
 31
0.0
  0
LINE
  8
0
 62
     0
 10
19.0004
 20
2.78364
 30
0.0
 11
19.0004
 21
3.78273
 31
0.0
  0
LINE
  8
0
 62
     0
 10
19.0004
 20
3.78273
 30
0.0
 11
19.801
 21
3.78273
 31
0.0
  0
LINE
  8
0
 62
     0
 10
19.801
 20
3.78273
 30
0.0
 11
19.801
 21
6.88329
 31
0.0
  0
LINE
  8
0
 62
     0
 10
19.801
 20
6.88329
 30
0.0
 11
19.0004
 21
6.88329
 31
0.0
  0
LINE
  8
0
 62
     0
 10
19.0004
 20
6.88329
 30
0.0
 11
19.0004
 21
12.6848
 31
0.0
  0
LINE
  8
0
 62
     0
 10
19.0004
 20
12.6848
 30
0.0
 11
19.801
 21
12.6848
 31
0.0
  0
LINE
  8
0
 62
     0
 10
19.801
 20
12.6848
 30
0.0
 11
19.801
 21
15.7827
 31
0.0
  0
LINE
  8
0
 62
     0
 10
19.801
 20
15.7827
 30
0.0
 11
19.0004
 21
15.7827
 31
0.0
  0
LINE
  8
0
 62
     0
 10
19.0004
 20
15.7827
 30
0.0
 11
19.0004
 21
16.7831
 31
0.0
  0
LINE
  8
0
 62
     0
 10
19.0004
 20
16.7831
 30
0.0
 11
5.00091
 21
16.7831
 31
0.0
  0
LINE
  8
0
 62
     0
 10
252.65
 20
35.833
 30
0.0
 11
252.65
 21
34.8327
 31
0.0
  0
LINE
  8
0
 62
     0
 10
252.65
 20
34.8327
 30
0.0
 11
251.849
 21
34.8327
 31
0.0
  0
LINE
  8
0
 62
     0
 10
251.849
 20
34.8327
 30
0.0
 11
251.849
 21
31.7335
 31
0.0
  0
LINE
  8
0
 62
     0
 10
251.849
 20
31.7335
 30
0.0
 11
252.65
 21
31.7335
 31
0.0
  0
LINE
  8
0
 62
     0
 10
252.65
 20
31.7335
 30
0.0
 11
252.65
 21
31.1326
 31
0.0
  0
LINE
  8
0
 62
     0
 10
252.65
 20
31.1326
 30
0.0
 11
251.126
 21
31.1326
 31
0.0
  0
LINE
  8
0
 62
     0
 10
251.126
 20
31.1326
 30
0.0
 11
251.126
 21
34.3628
 31
0.0
  0
LINE
  8
0
 62
     0
 10
251.126
 20
34.3628
 30
0.0
 11
249.4
 21
34.3628
 31
0.0
  0
LINE
  8
0
 62
     0
 10
249.4
 20
34.3628
 30
0.0
 11
249.4
 21
35.2834
 31
0.0
  0
LINE
  8
0
 62
     0
 10
249.4
 20
35.2834
 30
0.0
 11
246.101
 21
35.2834
 31
0.0
  0
LINE
  8
0
 62
     0
 10
246.101
 20
35.2834
 30
0.0
 11
246.101
 21
34.3628
 31
0.0
  0
LINE
  8
0
 62
     0
 10
246.101
 20
34.3628
 30
0.0
 11
244.376
 21
34.3628
 31
0.0
  0
LINE
  8
0
 62
     0
 10
244.376
 20
34.3628
 30
0.0
 11
244.376
 21
31.1326
 31
0.0
  0
LINE
  8
0
 62
     0
 10
244.376
 20
31.1326
 30
0.0
 11
243.55
 21
31.1326
 31
0.0
  0
LINE
  8
0
 62
     0
 10
243.55
 20
31.1326
 30
0.0
 11
243.55
 21
28.3338
 31
0.0
  0
LINE
  8
0
 62
     0
 10
243.55
 20
28.3338
 30
0.0
 11
244.376
 21
28.3338
 31
0.0
  0
LINE
  8
0
 62
     0
 10
244.376
 20
28.3338
 30
0.0
 11
244.376
 21
22.0638
 31
0.0
  0
LINE
  8
0
 62
     0
 10
244.376
 20
22.0638
 30
0.0
 11
246.101
 21
22.0638
 31
0.0
  0
LINE
  8
0
 62
     0
 10
246.101
 20
22.0638
 30
0.0
 11
246.101
 21
21.0826
 31
0.0
  0
LINE
  8
0
 62
     0
 10
246.101
 20
21.0826
 30
0.0
 11
249.4
 21
21.0826
 31
0.0
  0
LINE
  8
0
 62
     0
 10
249.4
 20
21.0826
 30
0.0
 11
249.4
 21
22.0638
 31
0.0
  0
LINE
  8
0
 62
     0
 10
249.4
 20
22.0638
 30
0.0
 11
251.126
 21
22.0638
 31
0.0
  0
LINE
  8
0
 62
     0
 10
251.126
 20
22.0638
 30
0.0
 11
251.126
 21
26.5327
 31
0.0
  0
LINE
  8
0
 62
     0
 10
251.126
 20
26.5327
 30
0.0
 11
252.65
 21
26.5327
 31
0.0
  0
LINE
  8
0
 62
     0
 10
252.65
 20
26.5327
 30
0.0
 11
252.65
 21
25.9333
 31
0.0
  0
LINE
  8
0
 62
     0
 10
252.65
 20
25.9333
 30
0.0
 11
251.849
 21
25.9333
 31
0.0
  0
LINE
  8
0
 62
     0
 10
251.849
 20
25.9333
 30
0.0
 11
251.849
 21
22.8327
 31
0.0
  0
LINE
  8
0
 62
     0
 10
251.849
 20
22.8327
 30
0.0
 11
252.65
 21
22.8327
 31
0.0
  0
LINE
  8
0
 62
     0
 10
252.65
 20
22.8327
 30
0.0
 11
252.65
 21
21.8336
 31
0.0
  0
LINE
  8
0
 62
     0
 10
252.65
 20
21.8336
 30
0.0
 11
266.65
 21
21.8336
 31
0.0
  0
LINE
  8
0
 62
     0
 10
266.65
 20
21.8336
 30
0.0
 11
266.65
 21
22.8327
 31
0.0
  0
LINE
  8
0
 62
     0
 10
266.65
 20
22.8327
 30
0.0
 11
267.451
 21
22.8327
 31
0.0
  0
LINE
  8
0
 62
     0
 10
267.451
 20
22.8327
 30
0.0
 11
267.451
 21
25.9333
 31
0.0
  0
LINE
  8
0
 62
     0
 10
267.451
 20
25.9333
 30
0.0
 11
266.65
 21
25.9333
 31
0.0
  0
LINE
  8
0
 62
     0
 10
266.65
 20
25.9333
 30
0.0
 11
266.65
 21
26.5327
 31
0.0
  0
LINE
  8
0
 62
     0
 10
266.65
 20
26.5327
 30
0.0
 11
268.176
 21
26.5327
 31
0.0
  0
LINE
  8
0
 62
     0
 10
268.176
 20
26.5327
 30
0.0
 11
268.176
 21
22.0638
 31
0.0
  0
LINE
  8
0
 62
     0
 10
268.176
 20
22.0638
 30
0.0
 11
269.901
 21
22.0638
 31
0.0
  0
LINE
  8
0
 62
     0
 10
269.901
 20
22.0638
 30
0.0
 11
269.901
 21
21.0826
 31
0.0
  0
LINE
  8
0
 62
     0
 10
269.901
 20
21.0826
 30
0.0
 11
273.2
 21
21.0826
 31
0.0
  0
LINE
  8
0
 62
     0
 10
273.2
 20
21.0826
 30
0.0
 11
273.2
 21
22.0638
 31
0.0
  0
LINE
  8
0
 62
     0
 10
273.2
 20
22.0638
 30
0.0
 11
274.925
 21
22.0638
 31
0.0
  0
LINE
  8
0
 62
     0
 10
274.925
 20
22.0638
 30
0.0
 11
274.925
 21
28.3338
 31
0.0
  0
LINE
  8
0
 62
     0
 10
274.925
 20
28.3338
 30
0.0
 11
275.751
 21
28.3338
 31
0.0
  0
LINE
  8
0
 62
     0
 10
275.751
 20
28.3338
 30
0.0
 11
275.751
 21
31.1326
 31
0.0
  0
LINE
  8
0
 62
     0
 10
275.751
 20
31.1326
 30
0.0
 11
274.925
 21
31.1326
 31
0.0
  0
LINE
  8
0
 62
     0
 10
274.925
 20
31.1326
 30
0.0
 11
274.925
 21
34.3628
 31
0.0
  0
LINE
  8
0
 62
     0
 10
274.925
 20
34.3628
 30
0.0
 11
273.2
 21
34.3628
 31
0.0
  0
LINE
  8
0
 62
     0
 10
273.2
 20
34.3628
 30
0.0
 11
273.2
 21
35.2834
 31
0.0
  0
LINE
  8
0
 62
     0
 10
273.2
 20
35.2834
 30
0.0
 11
269.901
 21
35.2834
 31
0.0
  0
LINE
  8
0
 62
     0
 10
269.901
 20
35.2834
 30
0.0
 11
269.901
 21
34.3628
 31
0.0
  0
LINE
  8
0
 62
     0
 10
269.901
 20
34.3628
 30
0.0
 11
268.176
 21
34.3628
 31
0.0
  0
LINE
  8
0
 62
     0
 10
268.176
 20
34.3628
 30
0.0
 11
268.176
 21
31.1326
 31
0.0
  0
LINE
  8
0
 62
     0
 10
268.176
 20
31.1326
 30
0.0
 11
266.65
 21
31.1326
 31
0.0
  0
LINE
  8
0
 62
     0
 10
266.65
 20
31.1326
 30
0.0
 11
266.65
 21
31.7335
 31
0.0
  0
LINE
  8
0
 62
     0
 10
266.65
 20
31.7335
 30
0.0
 11
267.451
 21
31.7335
 31
0.0
  0
LINE
  8
0
 62
     0
 10
267.451
 20
31.7335
 30
0.0
 11
267.451
 21
34.8327
 31
0.0
  0
LINE
  8
0
 62
     0
 10
267.451
 20
34.8327
 30
0.0
 11
266.65
 21
34.8327
 31
0.0
  0
LINE
  8
0
 62
     0
 10
266.65
 20
34.8327
 30
0.0
 11
266.65
 21
35.833
 31
0.0
  0
LINE
  8
0
 62
     0
 10
266.65
 20
35.833
 30
0.0
 11
252.65
 21
35.833
 31
0.0
  0
LINE
  8
0
 62
     0
 10
14.5259
 20
35.833
 30
0.0
 11
14.5259
 21
34.8327
 31
0.0
  0
LINE
  8
0
 62
     0
 10
14.5259
 20
34.8327
 30
0.0
 11
13.7253
 21
34.8327
 31
0.0
  0
LINE
  8
0
 62
     0
 10
13.7253
 20
34.8327
 30
0.0
 11
13.7253
 21
31.7335
 31
0.0
  0
LINE
  8
0
 62
     0
 10
13.7253
 20
31.7335
 30
0.0
 11
14.5259
 21
31.7335
 31
0.0
  0
LINE
  8
0
 62
     0
 10
14.5259
 20
31.7335
 30
0.0
 11
14.5259
 21
31.1326
 31
0.0
  0
LINE
  8
0
 62
     0
 10
14.5259
 20
31.1326
 30
0.0
 11
13.0004
 21
31.1326
 31
0.0
  0
LINE
  8
0
 62
     0
 10
13.0004
 20
31.1326
 30
0.0
 11
13.0004
 21
34.3628
 31
0.0
  0
LINE
  8
0
 62
     0
 10
13.0004
 20
34.3628
 30
0.0
 11
11.2751
 21
34.3628
 31
0.0
  0
LINE
  8
0
 62
     0
 10
11.2751
 20
34.3628
 30
0.0
 11
11.2751
 21
35.2834
 31
0.0
  0
LINE
  8
0
 62
     0
 10
11.2751
 20
35.2834
 30
0.0
 11
7.97609
 21
35.2834
 31
0.0
  0
LINE
  8
0
 62
     0
 10
7.97609
 20
35.2834
 30
0.0
 11
7.97609
 21
34.3628
 31
0.0
  0
LINE
  8
0
 62
     0
 10
7.97609
 20
34.3628
 30
0.0
 11
6.2508
 21
34.3628
 31
0.0
  0
LINE
  8
0
 62
     0
 10
6.2508
 20
34.3628
 30
0.0
 11
6.2508
 21
31.1326
 31
0.0
  0
LINE
  8
0
 62
     0
 10
6.2508
 20
31.1326
 30
0.0
 11
5.42533
 21
31.1326
 31
0.0
  0
LINE
  8
0
 62
     0
 10
5.42533
 20
31.1326
 30
0.0
 11
5.42533
 21
28.3338
 31
0.0
  0
LINE
  8
0
 62
     0
 10
5.42533
 20
28.3338
 30
0.0
 11
6.2508
 21
28.3338
 31
0.0
  0
LINE
  8
0
 62
     0
 10
6.2508
 20
28.3338
 30
0.0
 11
6.2508
 21
22.0638
 31
0.0
  0
LINE
  8
0
 62
     0
 10
6.2508
 20
22.0638
 30
0.0
 11
7.97609
 21
22.0638
 31
0.0
  0
LINE
  8
0
 62
     0
 10
7.97609
 20
22.0638
 30
0.0
 11
7.97609
 21
21.0826
 31
0.0
  0
LINE
  8
0
 62
     0
 10
7.97609
 20
21.0826
 30
0.0
 11
11.2751
 21
21.0826
 31
0.0
  0
LINE
  8
0
 62
     0
 10
11.2751
 20
21.0826
 30
0.0
 11
11.2751
 21
22.0638
 31
0.0
  0
LINE
  8
0
 62
     0
 10
11.2751
 20
22.0638
 30
0.0
 11
13.0004
 21
22.0638
 31
0.0
  0
LINE
  8
0
 62
     0
 10
13.0004
 20
22.0638
 30
0.0
 11
13.0004
 21
26.5327
 31
0.0
  0
LINE
  8
0
 62
     0
 10
13.0004
 20
26.5327
 30
0.0
 11
14.5259
 21
26.5327
 31
0.0
  0
LINE
  8
0
 62
     0
 10
14.5259
 20
26.5327
 30
0.0
 11
14.5259
 21
25.9333
 31
0.0
  0
LINE
  8
0
 62
     0
 10
14.5259
 20
25.9333
 30
0.0
 11
13.7253
 21
25.9333
 31
0.0
  0
LINE
  8
0
 62
     0
 10
13.7253
 20
25.9333
 30
0.0
 11
13.7253
 21
22.8327
 31
0.0
  0
LINE
  8
0
 62
     0
 10
13.7253
 20
22.8327
 30
0.0
 11
14.5259
 21
22.8327
 31
0.0
  0
LINE
  8
0
 62
     0
 10
14.5259
 20
22.8327
 30
0.0
 11
14.5259
 21
21.8336
 31
0.0
  0
LINE
  8
0
 62
     0
 10
14.5259
 20
21.8336
 30
0.0
 11
28.5254
 21
21.8336
 31
0.0
  0
LINE
  8
0
 62
     0
 10
28.5254
 20
21.8336
 30
0.0
 11
28.5254
 21
22.8327
 31
0.0
  0
LINE
  8
0
 62
     0
 10
28.5254
 20
22.8327
 30
0.0
 11
29.326
 21
22.8327
 31
0.0
  0
LINE
  8
0
 62
     0
 10
29.326
 20
22.8327
 30
0.0
 11
29.326
 21
25.9333
 31
0.0
  0
LINE
  8
0
 62
     0
 10
29.326
 20
25.9333
 30
0.0
 11
28.5254
 21
25.9333
 31
0.0
  0
LINE
  8
0
 62
     0
 10
28.5254
 20
25.9333
 30
0.0
 11
28.5254
 21
26.5327
 31
0.0
  0
LINE
  8
0
 62
     0
 10
28.5254
 20
26.5327
 30
0.0
 11
30.0509
 21
26.5327
 31
0.0
  0
LINE
  8
0
 62
     0
 10
30.0509
 20
26.5327
 30
0.0
 11
30.0509
 21
22.0638
 31
0.0
  0
LINE
  8
0
 62
     0
 10
30.0509
 20
22.0638
 30
0.0
 11
31.7748
 21
22.0638
 31
0.0
  0
LINE
  8
0
 62
     0
 10
31.7748
 20
22.0638
 30
0.0
 11
31.7748
 21
21.0826
 31
0.0
  0
LINE
  8
0
 62
     0
 10
31.7748
 20
21.0826
 30
0.0
 11
35.0752
 21
21.0826
 31
0.0
  0
LINE
  8
0
 62
     0
 10
35.0752
 20
21.0826
 30
0.0
 11
35.0752
 21
22.0638
 31
0.0
  0
LINE
  8
0
 62
     0
 10
35.0752
 20
22.0638
 30
0.0
 11
36.8004
 21
22.0638
 31
0.0
  0
LINE
  8
0
 62
     0
 10
36.8004
 20
22.0638
 30
0.0
 11
36.8004
 21
28.3338
 31
0.0
  0
LINE
  8
0
 62
     0
 10
36.8004
 20
28.3338
 30
0.0
 11
37.6259
 21
28.3338
 31
0.0
  0
LINE
  8
0
 62
     0
 10
37.6259
 20
28.3338
 30
0.0
 11
37.6259
 21
31.1326
 31
0.0
  0
LINE
  8
0
 62
     0
 10
37.6259
 20
31.1326
 30
0.0
 11
36.8004
 21
31.1326
 31
0.0
  0
LINE
  8
0
 62
     0
 10
36.8004
 20
31.1326
 30
0.0
 11
36.8004
 21
34.3628
 31
0.0
  0
LINE
  8
0
 62
     0
 10
36.8004
 20
34.3628
 30
0.0
 11
35.0752
 21
34.3628
 31
0.0
  0
LINE
  8
0
 62
     0
 10
35.0752
 20
34.3628
 30
0.0
 11
35.0752
 21
35.2834
 31
0.0
  0
LINE
  8
0
 62
     0
 10
35.0752
 20
35.2834
 30
0.0
 11
31.7748
 21
35.2834
 31
0.0
  0
LINE
  8
0
 62
     0
 10
31.7748
 20
35.2834
 30
0.0
 11
31.7748
 21
34.3628
 31
0.0
  0
LINE
  8
0
 62
     0
 10
31.7748
 20
34.3628
 30
0.0
 11
30.0509
 21
34.3628
 31
0.0
  0
LINE
  8
0
 62
     0
 10
30.0509
 20
34.3628
 30
0.0
 11
30.0509
 21
31.1326
 31
0.0
  0
LINE
  8
0
 62
     0
 10
30.0509
 20
31.1326
 30
0.0
 11
28.5254
 21
31.1326
 31
0.0
  0
LINE
  8
0
 62
     0
 10
28.5254
 20
31.1326
 30
0.0
 11
28.5254
 21
31.7335
 31
0.0
  0
LINE
  8
0
 62
     0
 10
28.5254
 20
31.7335
 30
0.0
 11
29.326
 21
31.7335
 31
0.0
  0
LINE
  8
0
 62
     0
 10
29.326
 20
31.7335
 30
0.0
 11
29.326
 21
34.8327
 31
0.0
  0
LINE
  8
0
 62
     0
 10
29.326
 20
34.8327
 30
0.0
 11
28.5254
 21
34.8327
 31
0.0
  0
LINE
  8
0
 62
     0
 10
28.5254
 20
34.8327
 30
0.0
 11
28.5254
 21
35.833
 31
0.0
  0
LINE
  8
0
 62
     0
 10
28.5254
 20
35.833
 30
0.0
 11
14.5259
 21
35.833
 31
0.0
  0
LINE
  8
0
 62
     0
 10
312.182
 20
35.833
 30
0.0
 11
312.182
 21
34.8327
 31
0.0
  0
LINE
  8
0
 62
     0
 10
312.182
 20
34.8327
 30
0.0
 11
311.381
 21
34.8327
 31
0.0
  0
LINE
  8
0
 62
     0
 10
311.381
 20
34.8327
 30
0.0
 11
311.381
 21
31.7335
 31
0.0
  0
LINE
  8
0
 62
     0
 10
311.381
 20
31.7335
 30
0.0
 11
312.182
 21
31.7335
 31
0.0
  0
LINE
  8
0
 62
     0
 10
312.182
 20
31.7335
 30
0.0
 11
312.182
 21
25.9333
 31
0.0
  0
LINE
  8
0
 62
     0
 10
312.182
 20
25.9333
 30
0.0
 11
311.381
 21
25.9333
 31
0.0
  0
LINE
  8
0
 62
     0
 10
311.381
 20
25.9333
 30
0.0
 11
311.381
 21
22.8327
 31
0.0
  0
LINE
  8
0
 62
     0
 10
311.381
 20
22.8327
 30
0.0
 11
312.182
 21
22.8327
 31
0.0
  0
LINE
  8
0
 62
     0
 10
312.182
 20
22.8327
 30
0.0
 11
312.182
 21
21.8336
 31
0.0
  0
LINE
  8
0
 62
     0
 10
312.182
 20
21.8336
 30
0.0
 11
326.182
 21
21.8336
 31
0.0
  0
LINE
  8
0
 62
     0
 10
326.182
 20
21.8336
 30
0.0
 11
326.182
 21
22.8327
 31
0.0
  0
LINE
  8
0
 62
     0
 10
326.182
 20
22.8327
 30
0.0
 11
326.981
 21
22.8327
 31
0.0
  0
LINE
  8
0
 62
     0
 10
326.981
 20
22.8327
 30
0.0
 11
326.981
 21
25.9333
 31
0.0
  0
LINE
  8
0
 62
     0
 10
326.981
 20
25.9333
 30
0.0
 11
326.182
 21
25.9333
 31
0.0
  0
LINE
  8
0
 62
     0
 10
326.182
 20
25.9333
 30
0.0
 11
326.182
 21
31.7335
 31
0.0
  0
LINE
  8
0
 62
     0
 10
326.182
 20
31.7335
 30
0.0
 11
326.981
 21
31.7335
 31
0.0
  0
LINE
  8
0
 62
     0
 10
326.981
 20
31.7335
 30
0.0
 11
326.981
 21
34.8327
 31
0.0
  0
LINE
  8
0
 62
     0
 10
326.981
 20
34.8327
 30
0.0
 11
326.182
 21
34.8327
 31
0.0
  0
LINE
  8
0
 62
     0
 10
326.182
 20
34.8327
 30
0.0
 11
326.182
 21
35.833
 31
0.0
  0
LINE
  8
0
 62
     0
 10
326.182
 20
35.833
 30
0.0
 11
312.182
 21
35.833
 31
0.0
  0
LINE
  8
0
 62
     0
 10
216.932
 20
35.833
 30
0.0
 11
216.932
 21
34.8327
 31
0.0
  0
LINE
  8
0
 62
     0
 10
216.932
 20
34.8327
 30
0.0
 11
216.131
 21
34.8327
 31
0.0
  0
LINE
  8
0
 62
     0
 10
216.131
 20
34.8327
 30
0.0
 11
216.131
 21
31.7335
 31
0.0
  0
LINE
  8
0
 62
     0
 10
216.131
 20
31.7335
 30
0.0
 11
216.932
 21
31.7335
 31
0.0
  0
LINE
  8
0
 62
     0
 10
216.932
 20
31.7335
 30
0.0
 11
216.932
 21
25.9333
 31
0.0
  0
LINE
  8
0
 62
     0
 10
216.932
 20
25.9333
 30
0.0
 11
216.131
 21
25.9333
 31
0.0
  0
LINE
  8
0
 62
     0
 10
216.131
 20
25.9333
 30
0.0
 11
216.131
 21
22.8327
 31
0.0
  0
LINE
  8
0
 62
     0
 10
216.131
 20
22.8327
 30
0.0
 11
216.932
 21
22.8327
 31
0.0
  0
LINE
  8
0
 62
     0
 10
216.932
 20
22.8327
 30
0.0
 11
216.932
 21
21.8336
 31
0.0
  0
LINE
  8
0
 62
     0
 10
216.932
 20
21.8336
 30
0.0
 11
230.932
 21
21.8336
 31
0.0
  0
LINE
  8
0
 62
     0
 10
230.932
 20
21.8336
 30
0.0
 11
230.932
 21
22.8327
 31
0.0
  0
LINE
  8
0
 62
     0
 10
230.932
 20
22.8327
 30
0.0
 11
231.731
 21
22.8327
 31
0.0
  0
LINE
  8
0
 62
     0
 10
231.731
 20
22.8327
 30
0.0
 11
231.731
 21
25.9333
 31
0.0
  0
LINE
  8
0
 62
     0
 10
231.731
 20
25.9333
 30
0.0
 11
230.932
 21
25.9333
 31
0.0
  0
LINE
  8
0
 62
     0
 10
230.932
 20
25.9333
 30
0.0
 11
230.932
 21
31.7335
 31
0.0
  0
LINE
  8
0
 62
     0
 10
230.932
 20
31.7335
 30
0.0
 11
231.731
 21
31.7335
 31
0.0
  0
LINE
  8
0
 62
     0
 10
231.731
 20
31.7335
 30
0.0
 11
231.731
 21
34.8327
 31
0.0
  0
LINE
  8
0
 62
     0
 10
231.731
 20
34.8327
 30
0.0
 11
230.932
 21
34.8327
 31
0.0
  0
LINE
  8
0
 62
     0
 10
230.932
 20
34.8327
 30
0.0
 11
230.932
 21
35.833
 31
0.0
  0
LINE
  8
0
 62
     0
 10
230.932
 20
35.833
 30
0.0
 11
216.932
 21
35.833
 31
0.0
  0
LINE
  8
0
 62
     0
 10
197.882
 20
35.833
 30
0.0
 11
197.882
 21
34.8327
 31
0.0
  0
LINE
  8
0
 62
     0
 10
197.882
 20
34.8327
 30
0.0
 11
197.081
 21
34.8327
 31
0.0
  0
LINE
  8
0
 62
     0
 10
197.081
 20
34.8327
 30
0.0
 11
197.081
 21
31.7335
 31
0.0
  0
LINE
  8
0
 62
     0
 10
197.081
 20
31.7335
 30
0.0
 11
197.882
 21
31.7335
 31
0.0
  0
LINE
  8
0
 62
     0
 10
197.882
 20
31.7335
 30
0.0
 11
197.882
 21
25.9333
 31
0.0
  0
LINE
  8
0
 62
     0
 10
197.882
 20
25.9333
 30
0.0
 11
197.081
 21
25.9333
 31
0.0
  0
LINE
  8
0
 62
     0
 10
197.081
 20
25.9333
 30
0.0
 11
197.081
 21
22.8327
 31
0.0
  0
LINE
  8
0
 62
     0
 10
197.081
 20
22.8327
 30
0.0
 11
197.882
 21
22.8327
 31
0.0
  0
LINE
  8
0
 62
     0
 10
197.882
 20
22.8327
 30
0.0
 11
197.882
 21
21.8336
 31
0.0
  0
LINE
  8
0
 62
     0
 10
197.882
 20
21.8336
 30
0.0
 11
211.882
 21
21.8336
 31
0.0
  0
LINE
  8
0
 62
     0
 10
211.882
 20
21.8336
 30
0.0
 11
211.882
 21
22.8327
 31
0.0
  0
LINE
  8
0
 62
     0
 10
211.882
 20
22.8327
 30
0.0
 11
212.681
 21
22.8327
 31
0.0
  0
LINE
  8
0
 62
     0
 10
212.681
 20
22.8327
 30
0.0
 11
212.681
 21
25.9333
 31
0.0
  0
LINE
  8
0
 62
     0
 10
212.681
 20
25.9333
 30
0.0
 11
211.882
 21
25.9333
 31
0.0
  0
LINE
  8
0
 62
     0
 10
211.882
 20
25.9333
 30
0.0
 11
211.882
 21
31.7335
 31
0.0
  0
LINE
  8
0
 62
     0
 10
211.882
 20
31.7335
 30
0.0
 11
212.681
 21
31.7335
 31
0.0
  0
LINE
  8
0
 62
     0
 10
212.681
 20
31.7335
 30
0.0
 11
212.681
 21
34.8327
 31
0.0
  0
LINE
  8
0
 62
     0
 10
212.681
 20
34.8327
 30
0.0
 11
211.882
 21
34.8327
 31
0.0
  0
LINE
  8
0
 62
     0
 10
211.882
 20
34.8327
 30
0.0
 11
211.882
 21
35.833
 31
0.0
  0
LINE
  8
0
 62
     0
 10
211.882
 20
35.833
 30
0.0
 11
197.882
 21
35.833
 31
0.0
  0
LINE
  8
0
 62
     0
 10
178.832
 20
35.833
 30
0.0
 11
178.832
 21
34.8327
 31
0.0
  0
LINE
  8
0
 62
     0
 10
178.832
 20
34.8327
 30
0.0
 11
178.031
 21
34.8327
 31
0.0
  0
LINE
  8
0
 62
     0
 10
178.031
 20
34.8327
 30
0.0
 11
178.031
 21
31.7335
 31
0.0
  0
LINE
  8
0
 62
     0
 10
178.031
 20
31.7335
 30
0.0
 11
178.832
 21
31.7335
 31
0.0
  0
LINE
  8
0
 62
     0
 10
178.832
 20
31.7335
 30
0.0
 11
178.832
 21
25.9333
 31
0.0
  0
LINE
  8
0
 62
     0
 10
178.832
 20
25.9333
 30
0.0
 11
178.031
 21
25.9333
 31
0.0
  0
LINE
  8
0
 62
     0
 10
178.031
 20
25.9333
 30
0.0
 11
178.031
 21
22.8327
 31
0.0
  0
LINE
  8
0
 62
     0
 10
178.031
 20
22.8327
 30
0.0
 11
178.832
 21
22.8327
 31
0.0
  0
LINE
  8
0
 62
     0
 10
178.832
 20
22.8327
 30
0.0
 11
178.832
 21
21.8336
 31
0.0
  0
LINE
  8
0
 62
     0
 10
178.832
 20
21.8336
 30
0.0
 11
192.832
 21
21.8336
 31
0.0
  0
LINE
  8
0
 62
     0
 10
192.832
 20
21.8336
 30
0.0
 11
192.832
 21
22.8327
 31
0.0
  0
LINE
  8
0
 62
     0
 10
192.832
 20
22.8327
 30
0.0
 11
193.631
 21
22.8327
 31
0.0
  0
LINE
  8
0
 62
     0
 10
193.631
 20
22.8327
 30
0.0
 11
193.631
 21
25.9333
 31
0.0
  0
LINE
  8
0
 62
     0
 10
193.631
 20
25.9333
 30
0.0
 11
192.832
 21
25.9333
 31
0.0
  0
LINE
  8
0
 62
     0
 10
192.832
 20
25.9333
 30
0.0
 11
192.832
 21
31.7335
 31
0.0
  0
LINE
  8
0
 62
     0
 10
192.832
 20
31.7335
 30
0.0
 11
193.631
 21
31.7335
 31
0.0
  0
LINE
  8
0
 62
     0
 10
193.631
 20
31.7335
 30
0.0
 11
193.631
 21
34.8327
 31
0.0
  0
LINE
  8
0
 62
     0
 10
193.631
 20
34.8327
 30
0.0
 11
192.832
 21
34.8327
 31
0.0
  0
LINE
  8
0
 62
     0
 10
192.832
 20
34.8327
 30
0.0
 11
192.832
 21
35.833
 31
0.0
  0
LINE
  8
0
 62
     0
 10
192.832
 20
35.833
 30
0.0
 11
178.832
 21
35.833
 31
0.0
  0
LINE
  8
0
 62
     0
 10
159.782
 20
35.833
 30
0.0
 11
159.782
 21
34.8327
 31
0.0
  0
LINE
  8
0
 62
     0
 10
159.782
 20
34.8327
 30
0.0
 11
158.981
 21
34.8327
 31
0.0
  0
LINE
  8
0
 62
     0
 10
158.981
 20
34.8327
 30
0.0
 11
158.981
 21
31.7335
 31
0.0
  0
LINE
  8
0
 62
     0
 10
158.981
 20
31.7335
 30
0.0
 11
159.782
 21
31.7335
 31
0.0
  0
LINE
  8
0
 62
     0
 10
159.782
 20
31.7335
 30
0.0
 11
159.782
 21
25.9333
 31
0.0
  0
LINE
  8
0
 62
     0
 10
159.782
 20
25.9333
 30
0.0
 11
158.981
 21
25.9333
 31
0.0
  0
LINE
  8
0
 62
     0
 10
158.981
 20
25.9333
 30
0.0
 11
158.981
 21
22.8327
 31
0.0
  0
LINE
  8
0
 62
     0
 10
158.981
 20
22.8327
 30
0.0
 11
159.782
 21
22.8327
 31
0.0
  0
LINE
  8
0
 62
     0
 10
159.782
 20
22.8327
 30
0.0
 11
159.782
 21
21.8336
 31
0.0
  0
LINE
  8
0
 62
     0
 10
159.782
 20
21.8336
 30
0.0
 11
173.782
 21
21.8336
 31
0.0
  0
LINE
  8
0
 62
     0
 10
173.782
 20
21.8336
 30
0.0
 11
173.782
 21
22.8327
 31
0.0
  0
LINE
  8
0
 62
     0
 10
173.782
 20
22.8327
 30
0.0
 11
174.581
 21
22.8327
 31
0.0
  0
LINE
  8
0
 62
     0
 10
174.581
 20
22.8327
 30
0.0
 11
174.581
 21
25.9333
 31
0.0
  0
LINE
  8
0
 62
     0
 10
174.581
 20
25.9333
 30
0.0
 11
173.782
 21
25.9333
 31
0.0
  0
LINE
  8
0
 62
     0
 10
173.782
 20
25.9333
 30
0.0
 11
173.782
 21
31.7335
 31
0.0
  0
LINE
  8
0
 62
     0
 10
173.782
 20
31.7335
 30
0.0
 11
174.581
 21
31.7335
 31
0.0
  0
LINE
  8
0
 62
     0
 10
174.581
 20
31.7335
 30
0.0
 11
174.581
 21
34.8327
 31
0.0
  0
LINE
  8
0
 62
     0
 10
174.581
 20
34.8327
 30
0.0
 11
173.782
 21
34.8327
 31
0.0
  0
LINE
  8
0
 62
     0
 10
173.782
 20
34.8327
 30
0.0
 11
173.782
 21
35.833
 31
0.0
  0
LINE
  8
0
 62
     0
 10
173.782
 20
35.833
 30
0.0
 11
159.782
 21
35.833
 31
0.0
  0
LINE
  8
0
 62
     0
 10
140.732
 20
35.833
 30
0.0
 11
140.732
 21
34.8327
 31
0.0
  0
LINE
  8
0
 62
     0
 10
140.732
 20
34.8327
 30
0.0
 11
139.931
 21
34.8327
 31
0.0
  0
LINE
  8
0
 62
     0
 10
139.931
 20
34.8327
 30
0.0
 11
139.931
 21
31.7335
 31
0.0
  0
LINE
  8
0
 62
     0
 10
139.931
 20
31.7335
 30
0.0
 11
140.732
 21
31.7335
 31
0.0
  0
LINE
  8
0
 62
     0
 10
140.732
 20
31.7335
 30
0.0
 11
140.732
 21
25.9333
 31
0.0
  0
LINE
  8
0
 62
     0
 10
140.732
 20
25.9333
 30
0.0
 11
139.931
 21
25.9333
 31
0.0
  0
LINE
  8
0
 62
     0
 10
139.931
 20
25.9333
 30
0.0
 11
139.931
 21
22.8327
 31
0.0
  0
LINE
  8
0
 62
     0
 10
139.931
 20
22.8327
 30
0.0
 11
140.732
 21
22.8327
 31
0.0
  0
LINE
  8
0
 62
     0
 10
140.732
 20
22.8327
 30
0.0
 11
140.732
 21
21.8336
 31
0.0
  0
LINE
  8
0
 62
     0
 10
140.732
 20
21.8336
 30
0.0
 11
154.732
 21
21.8336
 31
0.0
  0
LINE
  8
0
 62
     0
 10
154.732
 20
21.8336
 30
0.0
 11
154.732
 21
22.8327
 31
0.0
  0
LINE
  8
0
 62
     0
 10
154.732
 20
22.8327
 30
0.0
 11
155.531
 21
22.8327
 31
0.0
  0
LINE
  8
0
 62
     0
 10
155.531
 20
22.8327
 30
0.0
 11
155.531
 21
25.9333
 31
0.0
  0
LINE
  8
0
 62
     0
 10
155.531
 20
25.9333
 30
0.0
 11
154.732
 21
25.9333
 31
0.0
  0
LINE
  8
0
 62
     0
 10
154.732
 20
25.9333
 30
0.0
 11
154.732
 21
31.7335
 31
0.0
  0
LINE
  8
0
 62
     0
 10
154.732
 20
31.7335
 30
0.0
 11
155.531
 21
31.7335
 31
0.0
  0
LINE
  8
0
 62
     0
 10
155.531
 20
31.7335
 30
0.0
 11
155.531
 21
34.8327
 31
0.0
  0
LINE
  8
0
 62
     0
 10
155.531
 20
34.8327
 30
0.0
 11
154.732
 21
34.8327
 31
0.0
  0
LINE
  8
0
 62
     0
 10
154.732
 20
34.8327
 30
0.0
 11
154.732
 21
35.833
 31
0.0
  0
LINE
  8
0
 62
     0
 10
154.732
 20
35.833
 30
0.0
 11
140.732
 21
35.833
 31
0.0
  0
LINE
  8
0
 62
     0
 10
121.682
 20
35.833
 30
0.0
 11
121.682
 21
34.8327
 31
0.0
  0
LINE
  8
0
 62
     0
 10
121.682
 20
34.8327
 30
0.0
 11
120.881
 21
34.8327
 31
0.0
  0
LINE
  8
0
 62
     0
 10
120.881
 20
34.8327
 30
0.0
 11
120.881
 21
31.7335
 31
0.0
  0
LINE
  8
0
 62
     0
 10
120.881
 20
31.7335
 30
0.0
 11
121.682
 21
31.7335
 31
0.0
  0
LINE
  8
0
 62
     0
 10
121.682
 20
31.7335
 30
0.0
 11
121.682
 21
25.9333
 31
0.0
  0
LINE
  8
0
 62
     0
 10
121.682
 20
25.9333
 30
0.0
 11
120.881
 21
25.9333
 31
0.0
  0
LINE
  8
0
 62
     0
 10
120.881
 20
25.9333
 30
0.0
 11
120.881
 21
22.8327
 31
0.0
  0
LINE
  8
0
 62
     0
 10
120.881
 20
22.8327
 30
0.0
 11
121.682
 21
22.8327
 31
0.0
  0
LINE
  8
0
 62
     0
 10
121.682
 20
22.8327
 30
0.0
 11
121.682
 21
21.8336
 31
0.0
  0
LINE
  8
0
 62
     0
 10
121.682
 20
21.8336
 30
0.0
 11
135.682
 21
21.8336
 31
0.0
  0
LINE
  8
0
 62
     0
 10
135.682
 20
21.8336
 30
0.0
 11
135.682
 21
22.8327
 31
0.0
  0
LINE
  8
0
 62
     0
 10
135.682
 20
22.8327
 30
0.0
 11
136.481
 21
22.8327
 31
0.0
  0
LINE
  8
0
 62
     0
 10
136.481
 20
22.8327
 30
0.0
 11
136.481
 21
25.9333
 31
0.0
  0
LINE
  8
0
 62
     0
 10
136.481
 20
25.9333
 30
0.0
 11
135.682
 21
25.9333
 31
0.0
  0
LINE
  8
0
 62
     0
 10
135.682
 20
25.9333
 30
0.0
 11
135.682
 21
31.7335
 31
0.0
  0
LINE
  8
0
 62
     0
 10
135.682
 20
31.7335
 30
0.0
 11
136.481
 21
31.7335
 31
0.0
  0
LINE
  8
0
 62
     0
 10
136.481
 20
31.7335
 30
0.0
 11
136.481
 21
34.8327
 31
0.0
  0
LINE
  8
0
 62
     0
 10
136.481
 20
34.8327
 30
0.0
 11
135.682
 21
34.8327
 31
0.0
  0
LINE
  8
0
 62
     0
 10
135.682
 20
34.8327
 30
0.0
 11
135.682
 21
35.833
 31
0.0
  0
LINE
  8
0
 62
     0
 10
135.682
 20
35.833
 30
0.0
 11
121.682
 21
35.833
 31
0.0
  0
LINE
  8
0
 62
     0
 10
102.632
 20
35.833
 30
0.0
 11
102.632
 21
34.8327
 31
0.0
  0
LINE
  8
0
 62
     0
 10
102.632
 20
34.8327
 30
0.0
 11
101.831
 21
34.8327
 31
0.0
  0
LINE
  8
0
 62
     0
 10
101.831
 20
34.8327
 30
0.0
 11
101.831
 21
31.7335
 31
0.0
  0
LINE
  8
0
 62
     0
 10
101.831
 20
31.7335
 30
0.0
 11
102.632
 21
31.7335
 31
0.0
  0
LINE
  8
0
 62
     0
 10
102.632
 20
31.7335
 30
0.0
 11
102.632
 21
25.9333
 31
0.0
  0
LINE
  8
0
 62
     0
 10
102.632
 20
25.9333
 30
0.0
 11
101.831
 21
25.9333
 31
0.0
  0
LINE
  8
0
 62
     0
 10
101.831
 20
25.9333
 30
0.0
 11
101.831
 21
22.8327
 31
0.0
  0
LINE
  8
0
 62
     0
 10
101.831
 20
22.8327
 30
0.0
 11
102.632
 21
22.8327
 31
0.0
  0
LINE
  8
0
 62
     0
 10
102.632
 20
22.8327
 30
0.0
 11
102.632
 21
21.8336
 31
0.0
  0
LINE
  8
0
 62
     0
 10
102.632
 20
21.8336
 30
0.0
 11
116.632
 21
21.8336
 31
0.0
  0
LINE
  8
0
 62
     0
 10
116.632
 20
21.8336
 30
0.0
 11
116.632
 21
22.8327
 31
0.0
  0
LINE
  8
0
 62
     0
 10
116.632
 20
22.8327
 30
0.0
 11
117.431
 21
22.8327
 31
0.0
  0
LINE
  8
0
 62
     0
 10
117.431
 20
22.8327
 30
0.0
 11
117.431
 21
25.9333
 31
0.0
  0
LINE
  8
0
 62
     0
 10
117.431
 20
25.9333
 30
0.0
 11
116.632
 21
25.9333
 31
0.0
  0
LINE
  8
0
 62
     0
 10
116.632
 20
25.9333
 30
0.0
 11
116.632
 21
31.7335
 31
0.0
  0
LINE
  8
0
 62
     0
 10
116.632
 20
31.7335
 30
0.0
 11
117.431
 21
31.7335
 31
0.0
  0
LINE
  8
0
 62
     0
 10
117.431
 20
31.7335
 30
0.0
 11
117.431
 21
34.8327
 31
0.0
  0
LINE
  8
0
 62
     0
 10
117.431
 20
34.8327
 30
0.0
 11
116.632
 21
34.8327
 31
0.0
  0
LINE
  8
0
 62
     0
 10
116.632
 20
34.8327
 30
0.0
 11
116.632
 21
35.833
 31
0.0
  0
LINE
  8
0
 62
     0
 10
116.632
 20
35.833
 30
0.0
 11
102.632
 21
35.833
 31
0.0
  0
LINE
  8
0
 62
     0
 10
83.5822
 20
35.833
 30
0.0
 11
83.5822
 21
34.8327
 31
0.0
  0
LINE
  8
0
 62
     0
 10
83.5822
 20
34.8327
 30
0.0
 11
82.7814
 21
34.8327
 31
0.0
  0
LINE
  8
0
 62
     0
 10
82.7814
 20
34.8327
 30
0.0
 11
82.7814
 21
31.7335
 31
0.0
  0
LINE
  8
0
 62
     0
 10
82.7814
 20
31.7335
 30
0.0
 11
83.5822
 21
31.7335
 31
0.0
  0
LINE
  8
0
 62
     0
 10
83.5822
 20
31.7335
 30
0.0
 11
83.5822
 21
25.9333
 31
0.0
  0
LINE
  8
0
 62
     0
 10
83.5822
 20
25.9333
 30
0.0
 11
82.7814
 21
25.9333
 31
0.0
  0
LINE
  8
0
 62
     0
 10
82.7814
 20
25.9333
 30
0.0
 11
82.7814
 21
22.8327
 31
0.0
  0
LINE
  8
0
 62
     0
 10
82.7814
 20
22.8327
 30
0.0
 11
83.5822
 21
22.8327
 31
0.0
  0
LINE
  8
0
 62
     0
 10
83.5822
 20
22.8327
 30
0.0
 11
83.5822
 21
21.8336
 31
0.0
  0
LINE
  8
0
 62
     0
 10
83.5822
 20
21.8336
 30
0.0
 11
97.5815
 21
21.8336
 31
0.0
  0
LINE
  8
0
 62
     0
 10
97.5815
 20
21.8336
 30
0.0
 11
97.5815
 21
22.8327
 31
0.0
  0
LINE
  8
0
 62
     0
 10
97.5815
 20
22.8327
 30
0.0
 11
98.3809
 21
22.8327
 31
0.0
  0
LINE
  8
0
 62
     0
 10
98.3809
 20
22.8327
 30
0.0
 11
98.3809
 21
25.9333
 31
0.0
  0
LINE
  8
0
 62
     0
 10
98.3809
 20
25.9333
 30
0.0
 11
97.5815
 21
25.9333
 31
0.0
  0
LINE
  8
0
 62
     0
 10
97.5815
 20
25.9333
 30
0.0
 11
97.5815
 21
31.7335
 31
0.0
  0
LINE
  8
0
 62
     0
 10
97.5815
 20
31.7335
 30
0.0
 11
98.3809
 21
31.7335
 31
0.0
  0
LINE
  8
0
 62
     0
 10
98.3809
 20
31.7335
 30
0.0
 11
98.3809
 21
34.8327
 31
0.0
  0
LINE
  8
0
 62
     0
 10
98.3809
 20
34.8327
 30
0.0
 11
97.5815
 21
34.8327
 31
0.0
  0
LINE
  8
0
 62
     0
 10
97.5815
 20
34.8327
 30
0.0
 11
97.5815
 21
35.833
 31
0.0
  0
LINE
  8
0
 62
     0
 10
97.5815
 20
35.833
 30
0.0
 11
83.5822
 21
35.833
 31
0.0
  0
LINE
  8
0
 62
     0
 10
64.5322
 20
35.833
 30
0.0
 11
64.5322
 21
34.8327
 31
0.0
  0
LINE
  8
0
 62
     0
 10
64.5322
 20
34.8327
 30
0.0
 11
63.7314
 21
34.8327
 31
0.0
  0
LINE
  8
0
 62
     0
 10
63.7314
 20
34.8327
 30
0.0
 11
63.7314
 21
31.7335
 31
0.0
  0
LINE
  8
0
 62
     0
 10
63.7314
 20
31.7335
 30
0.0
 11
64.5322
 21
31.7335
 31
0.0
  0
LINE
  8
0
 62
     0
 10
64.5322
 20
31.7335
 30
0.0
 11
64.5322
 21
25.9333
 31
0.0
  0
LINE
  8
0
 62
     0
 10
64.5322
 20
25.9333
 30
0.0
 11
63.7314
 21
25.9333
 31
0.0
  0
LINE
  8
0
 62
     0
 10
63.7314
 20
25.9333
 30
0.0
 11
63.7314
 21
22.8327
 31
0.0
  0
LINE
  8
0
 62
     0
 10
63.7314
 20
22.8327
 30
0.0
 11
64.5322
 21
22.8327
 31
0.0
  0
LINE
  8
0
 62
     0
 10
64.5322
 20
22.8327
 30
0.0
 11
64.5322
 21
21.8336
 31
0.0
  0
LINE
  8
0
 62
     0
 10
64.5322
 20
21.8336
 30
0.0
 11
78.5315
 21
21.8336
 31
0.0
  0
LINE
  8
0
 62
     0
 10
78.5315
 20
21.8336
 30
0.0
 11
78.5315
 21
22.8327
 31
0.0
  0
LINE
  8
0
 62
     0
 10
78.5315
 20
22.8327
 30
0.0
 11
79.3309
 21
22.8327
 31
0.0
  0
LINE
  8
0
 62
     0
 10
79.3309
 20
22.8327
 30
0.0
 11
79.3309
 21
25.9333
 31
0.0
  0
LINE
  8
0
 62
     0
 10
79.3309
 20
25.9333
 30
0.0
 11
78.5315
 21
25.9333
 31
0.0
  0
LINE
  8
0
 62
     0
 10
78.5315
 20
25.9333
 30
0.0
 11
78.5315
 21
31.7335
 31
0.0
  0
LINE
  8
0
 62
     0
 10
78.5315
 20
31.7335
 30
0.0
 11
79.3309
 21
31.7335
 31
0.0
  0
LINE
  8
0
 62
     0
 10
79.3309
 20
31.7335
 30
0.0
 11
79.3309
 21
34.8327
 31
0.0
  0
LINE
  8
0
 62
     0
 10
79.3309
 20
34.8327
 30
0.0
 11
78.5315
 21
34.8327
 31
0.0
  0
LINE
  8
0
 62
     0
 10
78.5315
 20
34.8327
 30
0.0
 11
78.5315
 21
35.833
 31
0.0
  0
LINE
  8
0
 62
     0
 10
78.5315
 20
35.833
 30
0.0
 11
64.5322
 21
35.833
 31
0.0
  0
LINE
  8
0
 62
     0
 10
45.4822
 20
35.833
 30
0.0
 11
45.4822
 21
34.8327
 31
0.0
  0
LINE
  8
0
 62
     0
 10
45.4822
 20
34.8327
 30
0.0
 11
44.6814
 21
34.8327
 31
0.0
  0
LINE
  8
0
 62
     0
 10
44.6814
 20
34.8327
 30
0.0
 11
44.6814
 21
31.7335
 31
0.0
  0
LINE
  8
0
 62
     0
 10
44.6814
 20
31.7335
 30
0.0
 11
45.4822
 21
31.7335
 31
0.0
  0
LINE
  8
0
 62
     0
 10
45.4822
 20
31.7335
 30
0.0
 11
45.4822
 21
25.9333
 31
0.0
  0
LINE
  8
0
 62
     0
 10
45.4822
 20
25.9333
 30
0.0
 11
44.6814
 21
25.9333
 31
0.0
  0
LINE
  8
0
 62
     0
 10
44.6814
 20
25.9333
 30
0.0
 11
44.6814
 21
22.8327
 31
0.0
  0
LINE
  8
0
 62
     0
 10
44.6814
 20
22.8327
 30
0.0
 11
45.4822
 21
22.8327
 31
0.0
  0
LINE
  8
0
 62
     0
 10
45.4822
 20
22.8327
 30
0.0
 11
45.4822
 21
21.8336
 31
0.0
  0
LINE
  8
0
 62
     0
 10
45.4822
 20
21.8336
 30
0.0
 11
59.4815
 21
21.8336
 31
0.0
  0
LINE
  8
0
 62
     0
 10
59.4815
 20
21.8336
 30
0.0
 11
59.4815
 21
22.8327
 31
0.0
  0
LINE
  8
0
 62
     0
 10
59.4815
 20
22.8327
 30
0.0
 11
60.2809
 21
22.8327
 31
0.0
  0
LINE
  8
0
 62
     0
 10
60.2809
 20
22.8327
 30
0.0
 11
60.2809
 21
25.9333
 31
0.0
  0
LINE
  8
0
 62
     0
 10
60.2809
 20
25.9333
 30
0.0
 11
59.4815
 21
25.9333
 31
0.0
  0
LINE
  8
0
 62
     0
 10
59.4815
 20
25.9333
 30
0.0
 11
59.4815
 21
31.7335
 31
0.0
  0
LINE
  8
0
 62
     0
 10
59.4815
 20
31.7335
 30
0.0
 11
60.2809
 21
31.7335
 31
0.0
  0
LINE
  8
0
 62
     0
 10
60.2809
 20
31.7335
 30
0.0
 11
60.2809
 21
34.8327
 31
0.0
  0
LINE
  8
0
 62
     0
 10
60.2809
 20
34.8327
 30
0.0
 11
59.4815
 21
34.8327
 31
0.0
  0
LINE
  8
0
 62
     0
 10
59.4815
 20
34.8327
 30
0.0
 11
59.4815
 21
35.833
 31
0.0
  0
LINE
  8
0
 62
     0
 10
59.4815
 20
35.833
 30
0.0
 11
45.4822
 21
35.833
 31
0.0
  0
LINE
  8
0
 62
     0
 10
257.412
 20
54.8831
 30
0.0
 11
257.412
 21
53.8826
 31
0.0
  0
LINE
  8
0
 62
     0
 10
257.412
 20
53.8826
 30
0.0
 11
256.611
 21
53.8826
 31
0.0
  0
LINE
  8
0
 62
     0
 10
256.611
 20
53.8826
 30
0.0
 11
256.611
 21
50.7834
 31
0.0
  0
LINE
  8
0
 62
     0
 10
256.611
 20
50.7834
 30
0.0
 11
257.412
 21
50.7834
 31
0.0
  0
LINE
  8
0
 62
     0
 10
257.412
 20
50.7834
 30
0.0
 11
257.412
 21
50.1826
 31
0.0
  0
LINE
  8
0
 62
     0
 10
257.412
 20
50.1826
 30
0.0
 11
255.888
 21
50.1826
 31
0.0
  0
LINE
  8
0
 62
     0
 10
255.888
 20
50.1826
 30
0.0
 11
255.888
 21
53.4127
 31
0.0
  0
LINE
  8
0
 62
     0
 10
255.888
 20
53.4127
 30
0.0
 11
254.161
 21
53.4127
 31
0.0
  0
LINE
  8
0
 62
     0
 10
254.161
 20
53.4127
 30
0.0
 11
254.161
 21
54.3334
 31
0.0
  0
LINE
  8
0
 62
     0
 10
254.161
 20
54.3334
 30
0.0
 11
250.862
 21
54.3334
 31
0.0
  0
LINE
  8
0
 62
     0
 10
250.862
 20
54.3334
 30
0.0
 11
250.862
 21
53.4127
 31
0.0
  0
LINE
  8
0
 62
     0
 10
250.862
 20
53.4127
 30
0.0
 11
249.137
 21
53.4127
 31
0.0
  0
LINE
  8
0
 62
     0
 10
249.137
 20
53.4127
 30
0.0
 11
249.137
 21
50.1826
 31
0.0
  0
LINE
  8
0
 62
     0
 10
249.137
 20
50.1826
 30
0.0
 11
248.313
 21
50.1826
 31
0.0
  0
LINE
  8
0
 62
     0
 10
248.313
 20
50.1826
 30
0.0
 11
248.313
 21
47.3837
 31
0.0
  0
LINE
  8
0
 62
     0
 10
248.313
 20
47.3837
 30
0.0
 11
249.137
 21
47.3837
 31
0.0
  0
LINE
  8
0
 62
     0
 10
249.137
 20
47.3837
 30
0.0
 11
249.137
 21
41.1138
 31
0.0
  0
LINE
  8
0
 62
     0
 10
249.137
 20
41.1138
 30
0.0
 11
250.862
 21
41.1138
 31
0.0
  0
LINE
  8
0
 62
     0
 10
250.862
 20
41.1138
 30
0.0
 11
250.862
 21
40.1327
 31
0.0
  0
LINE
  8
0
 62
     0
 10
250.862
 20
40.1327
 30
0.0
 11
254.161
 21
40.1327
 31
0.0
  0
LINE
  8
0
 62
     0
 10
254.161
 20
40.1327
 30
0.0
 11
254.161
 21
41.1138
 31
0.0
  0
LINE
  8
0
 62
     0
 10
254.161
 20
41.1138
 30
0.0
 11
255.888
 21
41.1138
 31
0.0
  0
LINE
  8
0
 62
     0
 10
255.888
 20
41.1138
 30
0.0
 11
255.888
 21
45.5828
 31
0.0
  0
LINE
  8
0
 62
     0
 10
255.888
 20
45.5828
 30
0.0
 11
257.412
 21
45.5828
 31
0.0
  0
LINE
  8
0
 62
     0
 10
257.412
 20
45.5828
 30
0.0
 11
257.412
 21
44.9834
 31
0.0
  0
LINE
  8
0
 62
     0
 10
257.412
 20
44.9834
 30
0.0
 11
256.611
 21
44.9834
 31
0.0
  0
LINE
  8
0
 62
     0
 10
256.611
 20
44.9834
 30
0.0
 11
256.611
 21
41.8828
 31
0.0
  0
LINE
  8
0
 62
     0
 10
256.611
 20
41.8828
 30
0.0
 11
257.412
 21
41.8828
 31
0.0
  0
LINE
  8
0
 62
     0
 10
257.412
 20
41.8828
 30
0.0
 11
257.412
 21
40.8838
 31
0.0
  0
LINE
  8
0
 62
     0
 10
257.412
 20
40.8838
 30
0.0
 11
271.413
 21
40.8838
 31
0.0
  0
LINE
  8
0
 62
     0
 10
271.413
 20
40.8838
 30
0.0
 11
271.413
 21
41.8828
 31
0.0
  0
LINE
  8
0
 62
     0
 10
271.413
 20
41.8828
 30
0.0
 11
272.212
 21
41.8828
 31
0.0
  0
LINE
  8
0
 62
     0
 10
272.212
 20
41.8828
 30
0.0
 11
272.212
 21
44.9834
 31
0.0
  0
LINE
  8
0
 62
     0
 10
272.212
 20
44.9834
 30
0.0
 11
271.413
 21
44.9834
 31
0.0
  0
LINE
  8
0
 62
     0
 10
271.413
 20
44.9834
 30
0.0
 11
271.413
 21
45.5828
 31
0.0
  0
LINE
  8
0
 62
     0
 10
271.413
 20
45.5828
 30
0.0
 11
272.937
 21
45.5828
 31
0.0
  0
LINE
  8
0
 62
     0
 10
272.937
 20
45.5828
 30
0.0
 11
272.937
 21
41.1138
 31
0.0
  0
LINE
  8
0
 62
     0
 10
272.937
 20
41.1138
 30
0.0
 11
274.662
 21
41.1138
 31
0.0
  0
LINE
  8
0
 62
     0
 10
274.662
 20
41.1138
 30
0.0
 11
274.662
 21
40.1327
 31
0.0
  0
LINE
  8
0
 62
     0
 10
274.662
 20
40.1327
 30
0.0
 11
277.963
 21
40.1327
 31
0.0
  0
LINE
  8
0
 62
     0
 10
277.963
 20
40.1327
 30
0.0
 11
277.963
 21
41.1138
 31
0.0
  0
LINE
  8
0
 62
     0
 10
277.963
 20
41.1138
 30
0.0
 11
279.688
 21
41.1138
 31
0.0
  0
LINE
  8
0
 62
     0
 10
279.688
 20
41.1138
 30
0.0
 11
279.688
 21
47.3837
 31
0.0
  0
LINE
  8
0
 62
     0
 10
279.688
 20
47.3837
 30
0.0
 11
280.512
 21
47.3837
 31
0.0
  0
LINE
  8
0
 62
     0
 10
280.512
 20
47.3837
 30
0.0
 11
280.512
 21
50.1826
 31
0.0
  0
LINE
  8
0
 62
     0
 10
280.512
 20
50.1826
 30
0.0
 11
279.688
 21
50.1826
 31
0.0
  0
LINE
  8
0
 62
     0
 10
279.688
 20
50.1826
 30
0.0
 11
279.688
 21
53.4127
 31
0.0
  0
LINE
  8
0
 62
     0
 10
279.688
 20
53.4127
 30
0.0
 11
277.963
 21
53.4127
 31
0.0
  0
LINE
  8
0
 62
     0
 10
277.963
 20
53.4127
 30
0.0
 11
277.963
 21
54.3334
 31
0.0
  0
LINE
  8
0
 62
     0
 10
277.963
 20
54.3334
 30
0.0
 11
274.662
 21
54.3334
 31
0.0
  0
LINE
  8
0
 62
     0
 10
274.662
 20
54.3334
 30
0.0
 11
274.662
 21
53.4127
 31
0.0
  0
LINE
  8
0
 62
     0
 10
274.662
 20
53.4127
 30
0.0
 11
272.937
 21
53.4127
 31
0.0
  0
LINE
  8
0
 62
     0
 10
272.937
 20
53.4127
 30
0.0
 11
272.937
 21
50.1826
 31
0.0
  0
LINE
  8
0
 62
     0
 10
272.937
 20
50.1826
 30
0.0
 11
271.413
 21
50.1826
 31
0.0
  0
LINE
  8
0
 62
     0
 10
271.413
 20
50.1826
 30
0.0
 11
271.413
 21
50.7834
 31
0.0
  0
LINE
  8
0
 62
     0
 10
271.413
 20
50.7834
 30
0.0
 11
272.212
 21
50.7834
 31
0.0
  0
LINE
  8
0
 62
     0
 10
272.212
 20
50.7834
 30
0.0
 11
272.212
 21
53.8826
 31
0.0
  0
LINE
  8
0
 62
     0
 10
272.212
 20
53.8826
 30
0.0
 11
271.413
 21
53.8826
 31
0.0
  0
LINE
  8
0
 62
     0
 10
271.413
 20
53.8826
 30
0.0
 11
271.413
 21
54.8831
 31
0.0
  0
LINE
  8
0
 62
     0
 10
271.413
 20
54.8831
 30
0.0
 11
257.412
 21
54.8831
 31
0.0
  0
LINE
  8
0
 62
     0
 10
226.457
 20
54.8831
 30
0.0
 11
226.457
 21
53.8826
 31
0.0
  0
LINE
  8
0
 62
     0
 10
226.457
 20
53.8826
 30
0.0
 11
225.656
 21
53.8826
 31
0.0
  0
LINE
  8
0
 62
     0
 10
225.656
 20
53.8826
 30
0.0
 11
225.656
 21
50.7834
 31
0.0
  0
LINE
  8
0
 62
     0
 10
225.656
 20
50.7834
 30
0.0
 11
226.457
 21
50.7834
 31
0.0
  0
LINE
  8
0
 62
     0
 10
226.457
 20
50.7834
 30
0.0
 11
226.457
 21
44.9834
 31
0.0
  0
LINE
  8
0
 62
     0
 10
226.457
 20
44.9834
 30
0.0
 11
225.656
 21
44.9834
 31
0.0
  0
LINE
  8
0
 62
     0
 10
225.656
 20
44.9834
 30
0.0
 11
225.656
 21
41.8828
 31
0.0
  0
LINE
  8
0
 62
     0
 10
225.656
 20
41.8828
 30
0.0
 11
226.457
 21
41.8828
 31
0.0
  0
LINE
  8
0
 62
     0
 10
226.457
 20
41.8828
 30
0.0
 11
226.457
 21
40.8838
 31
0.0
  0
LINE
  8
0
 62
     0
 10
226.457
 20
40.8838
 30
0.0
 11
240.457
 21
40.8838
 31
0.0
  0
LINE
  8
0
 62
     0
 10
240.457
 20
40.8838
 30
0.0
 11
240.457
 21
41.8828
 31
0.0
  0
LINE
  8
0
 62
     0
 10
240.457
 20
41.8828
 30
0.0
 11
241.256
 21
41.8828
 31
0.0
  0
LINE
  8
0
 62
     0
 10
241.256
 20
41.8828
 30
0.0
 11
241.256
 21
44.9834
 31
0.0
  0
LINE
  8
0
 62
     0
 10
241.256
 20
44.9834
 30
0.0
 11
240.457
 21
44.9834
 31
0.0
  0
LINE
  8
0
 62
     0
 10
240.457
 20
44.9834
 30
0.0
 11
240.457
 21
50.7834
 31
0.0
  0
LINE
  8
0
 62
     0
 10
240.457
 20
50.7834
 30
0.0
 11
241.256
 21
50.7834
 31
0.0
  0
LINE
  8
0
 62
     0
 10
241.256
 20
50.7834
 30
0.0
 11
241.256
 21
53.8826
 31
0.0
  0
LINE
  8
0
 62
     0
 10
241.256
 20
53.8826
 30
0.0
 11
240.457
 21
53.8826
 31
0.0
  0
LINE
  8
0
 62
     0
 10
240.457
 20
53.8826
 30
0.0
 11
240.457
 21
54.8831
 31
0.0
  0
LINE
  8
0
 62
     0
 10
240.457
 20
54.8831
 30
0.0
 11
226.457
 21
54.8831
 31
0.0
  0
LINE
  8
0
 62
     0
 10
207.407
 20
54.8831
 30
0.0
 11
207.407
 21
53.8826
 31
0.0
  0
LINE
  8
0
 62
     0
 10
207.407
 20
53.8826
 30
0.0
 11
206.606
 21
53.8826
 31
0.0
  0
LINE
  8
0
 62
     0
 10
206.606
 20
53.8826
 30
0.0
 11
206.606
 21
50.7834
 31
0.0
  0
LINE
  8
0
 62
     0
 10
206.606
 20
50.7834
 30
0.0
 11
207.407
 21
50.7834
 31
0.0
  0
LINE
  8
0
 62
     0
 10
207.407
 20
50.7834
 30
0.0
 11
207.407
 21
44.9834
 31
0.0
  0
LINE
  8
0
 62
     0
 10
207.407
 20
44.9834
 30
0.0
 11
206.606
 21
44.9834
 31
0.0
  0
LINE
  8
0
 62
     0
 10
206.606
 20
44.9834
 30
0.0
 11
206.606
 21
41.8828
 31
0.0
  0
LINE
  8
0
 62
     0
 10
206.606
 20
41.8828
 30
0.0
 11
207.407
 21
41.8828
 31
0.0
  0
LINE
  8
0
 62
     0
 10
207.407
 20
41.8828
 30
0.0
 11
207.407
 21
40.8838
 31
0.0
  0
LINE
  8
0
 62
     0
 10
207.407
 20
40.8838
 30
0.0
 11
221.407
 21
40.8838
 31
0.0
  0
LINE
  8
0
 62
     0
 10
221.407
 20
40.8838
 30
0.0
 11
221.407
 21
41.8828
 31
0.0
  0
LINE
  8
0
 62
     0
 10
221.407
 20
41.8828
 30
0.0
 11
222.206
 21
41.8828
 31
0.0
  0
LINE
  8
0
 62
     0
 10
222.206
 20
41.8828
 30
0.0
 11
222.206
 21
44.9834
 31
0.0
  0
LINE
  8
0
 62
     0
 10
222.206
 20
44.9834
 30
0.0
 11
221.407
 21
44.9834
 31
0.0
  0
LINE
  8
0
 62
     0
 10
221.407
 20
44.9834
 30
0.0
 11
221.407
 21
50.7834
 31
0.0
  0
LINE
  8
0
 62
     0
 10
221.407
 20
50.7834
 30
0.0
 11
222.206
 21
50.7834
 31
0.0
  0
LINE
  8
0
 62
     0
 10
222.206
 20
50.7834
 30
0.0
 11
222.206
 21
53.8826
 31
0.0
  0
LINE
  8
0
 62
     0
 10
222.206
 20
53.8826
 30
0.0
 11
221.407
 21
53.8826
 31
0.0
  0
LINE
  8
0
 62
     0
 10
221.407
 20
53.8826
 30
0.0
 11
221.407
 21
54.8831
 31
0.0
  0
LINE
  8
0
 62
     0
 10
221.407
 20
54.8831
 30
0.0
 11
207.407
 21
54.8831
 31
0.0
  0
LINE
  8
0
 62
     0
 10
188.357
 20
54.8831
 30
0.0
 11
188.357
 21
53.8826
 31
0.0
  0
LINE
  8
0
 62
     0
 10
188.357
 20
53.8826
 30
0.0
 11
187.556
 21
53.8826
 31
0.0
  0
LINE
  8
0
 62
     0
 10
187.556
 20
53.8826
 30
0.0
 11
187.556
 21
50.7834
 31
0.0
  0
LINE
  8
0
 62
     0
 10
187.556
 20
50.7834
 30
0.0
 11
188.357
 21
50.7834
 31
0.0
  0
LINE
  8
0
 62
     0
 10
188.357
 20
50.7834
 30
0.0
 11
188.357
 21
44.9834
 31
0.0
  0
LINE
  8
0
 62
     0
 10
188.357
 20
44.9834
 30
0.0
 11
187.556
 21
44.9834
 31
0.0
  0
LINE
  8
0
 62
     0
 10
187.556
 20
44.9834
 30
0.0
 11
187.556
 21
41.8828
 31
0.0
  0
LINE
  8
0
 62
     0
 10
187.556
 20
41.8828
 30
0.0
 11
188.357
 21
41.8828
 31
0.0
  0
LINE
  8
0
 62
     0
 10
188.357
 20
41.8828
 30
0.0
 11
188.357
 21
40.8838
 31
0.0
  0
LINE
  8
0
 62
     0
 10
188.357
 20
40.8838
 30
0.0
 11
202.357
 21
40.8838
 31
0.0
  0
LINE
  8
0
 62
     0
 10
202.357
 20
40.8838
 30
0.0
 11
202.357
 21
41.8828
 31
0.0
  0
LINE
  8
0
 62
     0
 10
202.357
 20
41.8828
 30
0.0
 11
203.156
 21
41.8828
 31
0.0
  0
LINE
  8
0
 62
     0
 10
203.156
 20
41.8828
 30
0.0
 11
203.156
 21
44.9834
 31
0.0
  0
LINE
  8
0
 62
     0
 10
203.156
 20
44.9834
 30
0.0
 11
202.357
 21
44.9834
 31
0.0
  0
LINE
  8
0
 62
     0
 10
202.357
 20
44.9834
 30
0.0
 11
202.357
 21
50.7834
 31
0.0
  0
LINE
  8
0
 62
     0
 10
202.357
 20
50.7834
 30
0.0
 11
203.156
 21
50.7834
 31
0.0
  0
LINE
  8
0
 62
     0
 10
203.156
 20
50.7834
 30
0.0
 11
203.156
 21
53.8826
 31
0.0
  0
LINE
  8
0
 62
     0
 10
203.156
 20
53.8826
 30
0.0
 11
202.357
 21
53.8826
 31
0.0
  0
LINE
  8
0
 62
     0
 10
202.357
 20
53.8826
 30
0.0
 11
202.357
 21
54.8831
 31
0.0
  0
LINE
  8
0
 62
     0
 10
202.357
 20
54.8831
 30
0.0
 11
188.357
 21
54.8831
 31
0.0
  0
LINE
  8
0
 62
     0
 10
169.307
 20
54.8831
 30
0.0
 11
169.307
 21
53.8826
 31
0.0
  0
LINE
  8
0
 62
     0
 10
169.307
 20
53.8826
 30
0.0
 11
168.506
 21
53.8826
 31
0.0
  0
LINE
  8
0
 62
     0
 10
168.506
 20
53.8826
 30
0.0
 11
168.506
 21
50.7834
 31
0.0
  0
LINE
  8
0
 62
     0
 10
168.506
 20
50.7834
 30
0.0
 11
169.307
 21
50.7834
 31
0.0
  0
LINE
  8
0
 62
     0
 10
169.307
 20
50.7834
 30
0.0
 11
169.307
 21
44.9834
 31
0.0
  0
LINE
  8
0
 62
     0
 10
169.307
 20
44.9834
 30
0.0
 11
168.506
 21
44.9834
 31
0.0
  0
LINE
  8
0
 62
     0
 10
168.506
 20
44.9834
 30
0.0
 11
168.506
 21
41.8828
 31
0.0
  0
LINE
  8
0
 62
     0
 10
168.506
 20
41.8828
 30
0.0
 11
169.307
 21
41.8828
 31
0.0
  0
LINE
  8
0
 62
     0
 10
169.307
 20
41.8828
 30
0.0
 11
169.307
 21
40.8838
 31
0.0
  0
LINE
  8
0
 62
     0
 10
169.307
 20
40.8838
 30
0.0
 11
183.307
 21
40.8838
 31
0.0
  0
LINE
  8
0
 62
     0
 10
183.307
 20
40.8838
 30
0.0
 11
183.307
 21
41.8828
 31
0.0
  0
LINE
  8
0
 62
     0
 10
183.307
 20
41.8828
 30
0.0
 11
184.106
 21
41.8828
 31
0.0
  0
LINE
  8
0
 62
     0
 10
184.106
 20
41.8828
 30
0.0
 11
184.106
 21
44.9834
 31
0.0
  0
LINE
  8
0
 62
     0
 10
184.106
 20
44.9834
 30
0.0
 11
183.307
 21
44.9834
 31
0.0
  0
LINE
  8
0
 62
     0
 10
183.307
 20
44.9834
 30
0.0
 11
183.307
 21
50.7834
 31
0.0
  0
LINE
  8
0
 62
     0
 10
183.307
 20
50.7834
 30
0.0
 11
184.106
 21
50.7834
 31
0.0
  0
LINE
  8
0
 62
     0
 10
184.106
 20
50.7834
 30
0.0
 11
184.106
 21
53.8826
 31
0.0
  0
LINE
  8
0
 62
     0
 10
184.106
 20
53.8826
 30
0.0
 11
183.307
 21
53.8826
 31
0.0
  0
LINE
  8
0
 62
     0
 10
183.307
 20
53.8826
 30
0.0
 11
183.307
 21
54.8831
 31
0.0
  0
LINE
  8
0
 62
     0
 10
183.307
 20
54.8831
 30
0.0
 11
169.307
 21
54.8831
 31
0.0
  0
LINE
  8
0
 62
     0
 10
150.257
 20
54.8831
 30
0.0
 11
150.257
 21
53.8826
 31
0.0
  0
LINE
  8
0
 62
     0
 10
150.257
 20
53.8826
 30
0.0
 11
149.456
 21
53.8826
 31
0.0
  0
LINE
  8
0
 62
     0
 10
149.456
 20
53.8826
 30
0.0
 11
149.456
 21
50.7834
 31
0.0
  0
LINE
  8
0
 62
     0
 10
149.456
 20
50.7834
 30
0.0
 11
150.257
 21
50.7834
 31
0.0
  0
LINE
  8
0
 62
     0
 10
150.257
 20
50.7834
 30
0.0
 11
150.257
 21
44.9834
 31
0.0
  0
LINE
  8
0
 62
     0
 10
150.257
 20
44.9834
 30
0.0
 11
149.456
 21
44.9834
 31
0.0
  0
LINE
  8
0
 62
     0
 10
149.456
 20
44.9834
 30
0.0
 11
149.456
 21
41.8828
 31
0.0
  0
LINE
  8
0
 62
     0
 10
149.456
 20
41.8828
 30
0.0
 11
150.257
 21
41.8828
 31
0.0
  0
LINE
  8
0
 62
     0
 10
150.257
 20
41.8828
 30
0.0
 11
150.257
 21
40.8838
 31
0.0
  0
LINE
  8
0
 62
     0
 10
150.257
 20
40.8838
 30
0.0
 11
164.257
 21
40.8838
 31
0.0
  0
LINE
  8
0
 62
     0
 10
164.257
 20
40.8838
 30
0.0
 11
164.257
 21
41.8828
 31
0.0
  0
LINE
  8
0
 62
     0
 10
164.257
 20
41.8828
 30
0.0
 11
165.056
 21
41.8828
 31
0.0
  0
LINE
  8
0
 62
     0
 10
165.056
 20
41.8828
 30
0.0
 11
165.056
 21
44.9834
 31
0.0
  0
LINE
  8
0
 62
     0
 10
165.056
 20
44.9834
 30
0.0
 11
164.257
 21
44.9834
 31
0.0
  0
LINE
  8
0
 62
     0
 10
164.257
 20
44.9834
 30
0.0
 11
164.257
 21
50.7834
 31
0.0
  0
LINE
  8
0
 62
     0
 10
164.257
 20
50.7834
 30
0.0
 11
165.056
 21
50.7834
 31
0.0
  0
LINE
  8
0
 62
     0
 10
165.056
 20
50.7834
 30
0.0
 11
165.056
 21
53.8826
 31
0.0
  0
LINE
  8
0
 62
     0
 10
165.056
 20
53.8826
 30
0.0
 11
164.257
 21
53.8826
 31
0.0
  0
LINE
  8
0
 62
     0
 10
164.257
 20
53.8826
 30
0.0
 11
164.257
 21
54.8831
 31
0.0
  0
LINE
  8
0
 62
     0
 10
164.257
 20
54.8831
 30
0.0
 11
150.257
 21
54.8831
 31
0.0
  0
LINE
  8
0
 62
     0
 10
131.207
 20
54.8831
 30
0.0
 11
131.207
 21
53.8826
 31
0.0
  0
LINE
  8
0
 62
     0
 10
131.207
 20
53.8826
 30
0.0
 11
130.406
 21
53.8826
 31
0.0
  0
LINE
  8
0
 62
     0
 10
130.406
 20
53.8826
 30
0.0
 11
130.406
 21
50.7834
 31
0.0
  0
LINE
  8
0
 62
     0
 10
130.406
 20
50.7834
 30
0.0
 11
131.207
 21
50.7834
 31
0.0
  0
LINE
  8
0
 62
     0
 10
131.207
 20
50.7834
 30
0.0
 11
131.207
 21
44.9834
 31
0.0
  0
LINE
  8
0
 62
     0
 10
131.207
 20
44.9834
 30
0.0
 11
130.406
 21
44.9834
 31
0.0
  0
LINE
  8
0
 62
     0
 10
130.406
 20
44.9834
 30
0.0
 11
130.406
 21
41.8828
 31
0.0
  0
LINE
  8
0
 62
     0
 10
130.406
 20
41.8828
 30
0.0
 11
131.207
 21
41.8828
 31
0.0
  0
LINE
  8
0
 62
     0
 10
131.207
 20
41.8828
 30
0.0
 11
131.207
 21
40.8838
 31
0.0
  0
LINE
  8
0
 62
     0
 10
131.207
 20
40.8838
 30
0.0
 11
145.207
 21
40.8838
 31
0.0
  0
LINE
  8
0
 62
     0
 10
145.207
 20
40.8838
 30
0.0
 11
145.207
 21
41.8828
 31
0.0
  0
LINE
  8
0
 62
     0
 10
145.207
 20
41.8828
 30
0.0
 11
146.006
 21
41.8828
 31
0.0
  0
LINE
  8
0
 62
     0
 10
146.006
 20
41.8828
 30
0.0
 11
146.006
 21
44.9834
 31
0.0
  0
LINE
  8
0
 62
     0
 10
146.006
 20
44.9834
 30
0.0
 11
145.207
 21
44.9834
 31
0.0
  0
LINE
  8
0
 62
     0
 10
145.207
 20
44.9834
 30
0.0
 11
145.207
 21
50.7834
 31
0.0
  0
LINE
  8
0
 62
     0
 10
145.207
 20
50.7834
 30
0.0
 11
146.006
 21
50.7834
 31
0.0
  0
LINE
  8
0
 62
     0
 10
146.006
 20
50.7834
 30
0.0
 11
146.006
 21
53.8826
 31
0.0
  0
LINE
  8
0
 62
     0
 10
146.006
 20
53.8826
 30
0.0
 11
145.207
 21
53.8826
 31
0.0
  0
LINE
  8
0
 62
     0
 10
145.207
 20
53.8826
 30
0.0
 11
145.207
 21
54.8831
 31
0.0
  0
LINE
  8
0
 62
     0
 10
145.207
 20
54.8831
 30
0.0
 11
131.207
 21
54.8831
 31
0.0
  0
LINE
  8
0
 62
     0
 10
112.157
 20
54.8831
 30
0.0
 11
112.157
 21
53.8826
 31
0.0
  0
LINE
  8
0
 62
     0
 10
112.157
 20
53.8826
 30
0.0
 11
111.356
 21
53.8826
 31
0.0
  0
LINE
  8
0
 62
     0
 10
111.356
 20
53.8826
 30
0.0
 11
111.356
 21
50.7834
 31
0.0
  0
LINE
  8
0
 62
     0
 10
111.356
 20
50.7834
 30
0.0
 11
112.157
 21
50.7834
 31
0.0
  0
LINE
  8
0
 62
     0
 10
112.157
 20
50.7834
 30
0.0
 11
112.157
 21
44.9834
 31
0.0
  0
LINE
  8
0
 62
     0
 10
112.157
 20
44.9834
 30
0.0
 11
111.356
 21
44.9834
 31
0.0
  0
LINE
  8
0
 62
     0
 10
111.356
 20
44.9834
 30
0.0
 11
111.356
 21
41.8828
 31
0.0
  0
LINE
  8
0
 62
     0
 10
111.356
 20
41.8828
 30
0.0
 11
112.157
 21
41.8828
 31
0.0
  0
LINE
  8
0
 62
     0
 10
112.157
 20
41.8828
 30
0.0
 11
112.157
 21
40.8838
 31
0.0
  0
LINE
  8
0
 62
     0
 10
112.157
 20
40.8838
 30
0.0
 11
126.157
 21
40.8838
 31
0.0
  0
LINE
  8
0
 62
     0
 10
126.157
 20
40.8838
 30
0.0
 11
126.157
 21
41.8828
 31
0.0
  0
LINE
  8
0
 62
     0
 10
126.157
 20
41.8828
 30
0.0
 11
126.956
 21
41.8828
 31
0.0
  0
LINE
  8
0
 62
     0
 10
126.956
 20
41.8828
 30
0.0
 11
126.956
 21
44.9834
 31
0.0
  0
LINE
  8
0
 62
     0
 10
126.956
 20
44.9834
 30
0.0
 11
126.157
 21
44.9834
 31
0.0
  0
LINE
  8
0
 62
     0
 10
126.157
 20
44.9834
 30
0.0
 11
126.157
 21
50.7834
 31
0.0
  0
LINE
  8
0
 62
     0
 10
126.157
 20
50.7834
 30
0.0
 11
126.956
 21
50.7834
 31
0.0
  0
LINE
  8
0
 62
     0
 10
126.956
 20
50.7834
 30
0.0
 11
126.956
 21
53.8826
 31
0.0
  0
LINE
  8
0
 62
     0
 10
126.956
 20
53.8826
 30
0.0
 11
126.157
 21
53.8826
 31
0.0
  0
LINE
  8
0
 62
     0
 10
126.157
 20
53.8826
 30
0.0
 11
126.157
 21
54.8831
 31
0.0
  0
LINE
  8
0
 62
     0
 10
126.157
 20
54.8831
 30
0.0
 11
112.157
 21
54.8831
 31
0.0
  0
LINE
  8
0
 62
     0
 10
93.1072
 20
54.8831
 30
0.0
 11
93.1072
 21
53.8826
 31
0.0
  0
LINE
  8
0
 62
     0
 10
93.1072
 20
53.8826
 30
0.0
 11
92.3064
 21
53.8826
 31
0.0
  0
LINE
  8
0
 62
     0
 10
92.3064
 20
53.8826
 30
0.0
 11
92.3064
 21
50.7834
 31
0.0
  0
LINE
  8
0
 62
     0
 10
92.3064
 20
50.7834
 30
0.0
 11
93.1072
 21
50.7834
 31
0.0
  0
LINE
  8
0
 62
     0
 10
93.1072
 20
50.7834
 30
0.0
 11
93.1072
 21
44.9834
 31
0.0
  0
LINE
  8
0
 62
     0
 10
93.1072
 20
44.9834
 30
0.0
 11
92.3064
 21
44.9834
 31
0.0
  0
LINE
  8
0
 62
     0
 10
92.3064
 20
44.9834
 30
0.0
 11
92.3064
 21
41.8828
 31
0.0
  0
LINE
  8
0
 62
     0
 10
92.3064
 20
41.8828
 30
0.0
 11
93.1072
 21
41.8828
 31
0.0
  0
LINE
  8
0
 62
     0
 10
93.1072
 20
41.8828
 30
0.0
 11
93.1072
 21
40.8838
 31
0.0
  0
LINE
  8
0
 62
     0
 10
93.1072
 20
40.8838
 30
0.0
 11
107.107
 21
40.8838
 31
0.0
  0
LINE
  8
0
 62
     0
 10
107.107
 20
40.8838
 30
0.0
 11
107.107
 21
41.8828
 31
0.0
  0
LINE
  8
0
 62
     0
 10
107.107
 20
41.8828
 30
0.0
 11
107.906
 21
41.8828
 31
0.0
  0
LINE
  8
0
 62
     0
 10
107.906
 20
41.8828
 30
0.0
 11
107.906
 21
44.9834
 31
0.0
  0
LINE
  8
0
 62
     0
 10
107.906
 20
44.9834
 30
0.0
 11
107.107
 21
44.9834
 31
0.0
  0
LINE
  8
0
 62
     0
 10
107.107
 20
44.9834
 30
0.0
 11
107.107
 21
50.7834
 31
0.0
  0
LINE
  8
0
 62
     0
 10
107.107
 20
50.7834
 30
0.0
 11
107.906
 21
50.7834
 31
0.0
  0
LINE
  8
0
 62
     0
 10
107.906
 20
50.7834
 30
0.0
 11
107.906
 21
53.8826
 31
0.0
  0
LINE
  8
0
 62
     0
 10
107.906
 20
53.8826
 30
0.0
 11
107.107
 21
53.8826
 31
0.0
  0
LINE
  8
0
 62
     0
 10
107.107
 20
53.8826
 30
0.0
 11
107.107
 21
54.8831
 31
0.0
  0
LINE
  8
0
 62
     0
 10
107.107
 20
54.8831
 30
0.0
 11
93.1072
 21
54.8831
 31
0.0
  0
LINE
  8
0
 62
     0
 10
74.0572
 20
54.8831
 30
0.0
 11
74.0572
 21
53.8826
 31
0.0
  0
LINE
  8
0
 62
     0
 10
74.0572
 20
53.8826
 30
0.0
 11
73.2564
 21
53.8826
 31
0.0
  0
LINE
  8
0
 62
     0
 10
73.2564
 20
53.8826
 30
0.0
 11
73.2564
 21
50.7834
 31
0.0
  0
LINE
  8
0
 62
     0
 10
73.2564
 20
50.7834
 30
0.0
 11
74.0572
 21
50.7834
 31
0.0
  0
LINE
  8
0
 62
     0
 10
74.0572
 20
50.7834
 30
0.0
 11
74.0572
 21
44.9834
 31
0.0
  0
LINE
  8
0
 62
     0
 10
74.0572
 20
44.9834
 30
0.0
 11
73.2564
 21
44.9834
 31
0.0
  0
LINE
  8
0
 62
     0
 10
73.2564
 20
44.9834
 30
0.0
 11
73.2564
 21
41.8828
 31
0.0
  0
LINE
  8
0
 62
     0
 10
73.2564
 20
41.8828
 30
0.0
 11
74.0572
 21
41.8828
 31
0.0
  0
LINE
  8
0
 62
     0
 10
74.0572
 20
41.8828
 30
0.0
 11
74.0572
 21
40.8838
 31
0.0
  0
LINE
  8
0
 62
     0
 10
74.0572
 20
40.8838
 30
0.0
 11
88.0565
 21
40.8838
 31
0.0
  0
LINE
  8
0
 62
     0
 10
88.0565
 20
40.8838
 30
0.0
 11
88.0565
 21
41.8828
 31
0.0
  0
LINE
  8
0
 62
     0
 10
88.0565
 20
41.8828
 30
0.0
 11
88.8559
 21
41.8828
 31
0.0
  0
LINE
  8
0
 62
     0
 10
88.8559
 20
41.8828
 30
0.0
 11
88.8559
 21
44.9834
 31
0.0
  0
LINE
  8
0
 62
     0
 10
88.8559
 20
44.9834
 30
0.0
 11
88.0565
 21
44.9834
 31
0.0
  0
LINE
  8
0
 62
     0
 10
88.0565
 20
44.9834
 30
0.0
 11
88.0565
 21
50.7834
 31
0.0
  0
LINE
  8
0
 62
     0
 10
88.0565
 20
50.7834
 30
0.0
 11
88.8559
 21
50.7834
 31
0.0
  0
LINE
  8
0
 62
     0
 10
88.8559
 20
50.7834
 30
0.0
 11
88.8559
 21
53.8826
 31
0.0
  0
LINE
  8
0
 62
     0
 10
88.8559
 20
53.8826
 30
0.0
 11
88.0565
 21
53.8826
 31
0.0
  0
LINE
  8
0
 62
     0
 10
88.0565
 20
53.8826
 30
0.0
 11
88.0565
 21
54.8831
 31
0.0
  0
LINE
  8
0
 62
     0
 10
88.0565
 20
54.8831
 30
0.0
 11
74.0572
 21
54.8831
 31
0.0
  0
LINE
  8
0
 62
     0
 10
55.0072
 20
54.8831
 30
0.0
 11
55.0072
 21
53.8826
 31
0.0
  0
LINE
  8
0
 62
     0
 10
55.0072
 20
53.8826
 30
0.0
 11
54.2064
 21
53.8826
 31
0.0
  0
LINE
  8
0
 62
     0
 10
54.2064
 20
53.8826
 30
0.0
 11
54.2064
 21
50.7834
 31
0.0
  0
LINE
  8
0
 62
     0
 10
54.2064
 20
50.7834
 30
0.0
 11
55.0072
 21
50.7834
 31
0.0
  0
LINE
  8
0
 62
     0
 10
55.0072
 20
50.7834
 30
0.0
 11
55.0072
 21
44.9834
 31
0.0
  0
LINE
  8
0
 62
     0
 10
55.0072
 20
44.9834
 30
0.0
 11
54.2064
 21
44.9834
 31
0.0
  0
LINE
  8
0
 62
     0
 10
54.2064
 20
44.9834
 30
0.0
 11
54.2064
 21
41.8828
 31
0.0
  0
LINE
  8
0
 62
     0
 10
54.2064
 20
41.8828
 30
0.0
 11
55.0072
 21
41.8828
 31
0.0
  0
LINE
  8
0
 62
     0
 10
55.0072
 20
41.8828
 30
0.0
 11
55.0072
 21
40.8838
 31
0.0
  0
LINE
  8
0
 62
     0
 10
55.0072
 20
40.8838
 30
0.0
 11
69.0065
 21
40.8838
 31
0.0
  0
LINE
  8
0
 62
     0
 10
69.0065
 20
40.8838
 30
0.0
 11
69.0065
 21
41.8828
 31
0.0
  0
LINE
  8
0
 62
     0
 10
69.0065
 20
41.8828
 30
0.0
 11
69.8059
 21
41.8828
 31
0.0
  0
LINE
  8
0
 62
     0
 10
69.8059
 20
41.8828
 30
0.0
 11
69.8059
 21
44.9834
 31
0.0
  0
LINE
  8
0
 62
     0
 10
69.8059
 20
44.9834
 30
0.0
 11
69.0065
 21
44.9834
 31
0.0
  0
LINE
  8
0
 62
     0
 10
69.0065
 20
44.9834
 30
0.0
 11
69.0065
 21
50.7834
 31
0.0
  0
LINE
  8
0
 62
     0
 10
69.0065
 20
50.7834
 30
0.0
 11
69.8059
 21
50.7834
 31
0.0
  0
LINE
  8
0
 62
     0
 10
69.8059
 20
50.7834
 30
0.0
 11
69.8059
 21
53.8826
 31
0.0
  0
LINE
  8
0
 62
     0
 10
69.8059
 20
53.8826
 30
0.0
 11
69.0065
 21
53.8826
 31
0.0
  0
LINE
  8
0
 62
     0
 10
69.0065
 20
53.8826
 30
0.0
 11
69.0065
 21
54.8831
 31
0.0
  0
LINE
  8
0
 62
     0
 10
69.0065
 20
54.8831
 30
0.0
 11
55.0072
 21
54.8831
 31
0.0
  0
LINE
  8
0
 62
     0
 10
35.9572
 20
54.8831
 30
0.0
 11
35.9572
 21
53.8826
 31
0.0
  0
LINE
  8
0
 62
     0
 10
35.9572
 20
53.8826
 30
0.0
 11
35.1565
 21
53.8826
 31
0.0
  0
LINE
  8
0
 62
     0
 10
35.1565
 20
53.8826
 30
0.0
 11
35.1565
 21
50.7834
 31
0.0
  0
LINE
  8
0
 62
     0
 10
35.1565
 20
50.7834
 30
0.0
 11
35.9572
 21
50.7834
 31
0.0
  0
LINE
  8
0
 62
     0
 10
35.9572
 20
50.7834
 30
0.0
 11
35.9572
 21
44.9834
 31
0.0
  0
LINE
  8
0
 62
     0
 10
35.9572
 20
44.9834
 30
0.0
 11
35.1565
 21
44.9834
 31
0.0
  0
LINE
  8
0
 62
     0
 10
35.1565
 20
44.9834
 30
0.0
 11
35.1565
 21
41.8828
 31
0.0
  0
LINE
  8
0
 62
     0
 10
35.1565
 20
41.8828
 30
0.0
 11
35.9572
 21
41.8828
 31
0.0
  0
LINE
  8
0
 62
     0
 10
35.9572
 20
41.8828
 30
0.0
 11
35.9572
 21
40.8838
 31
0.0
  0
LINE
  8
0
 62
     0
 10
35.9572
 20
40.8838
 30
0.0
 11
49.9565
 21
40.8838
 31
0.0
  0
LINE
  8
0
 62
     0
 10
49.9565
 20
40.8838
 30
0.0
 11
49.9565
 21
41.8828
 31
0.0
  0
LINE
  8
0
 62
     0
 10
49.9565
 20
41.8828
 30
0.0
 11
50.7559
 21
41.8828
 31
0.0
  0
LINE
  8
0
 62
     0
 10
50.7559
 20
41.8828
 30
0.0
 11
50.7559
 21
44.9834
 31
0.0
  0
LINE
  8
0
 62
     0
 10
50.7559
 20
44.9834
 30
0.0
 11
49.9565
 21
44.9834
 31
0.0
  0
LINE
  8
0
 62
     0
 10
49.9565
 20
44.9834
 30
0.0
 11
49.9565
 21
50.7834
 31
0.0
  0
LINE
  8
0
 62
     0
 10
49.9565
 20
50.7834
 30
0.0
 11
50.7559
 21
50.7834
 31
0.0
  0
LINE
  8
0
 62
     0
 10
50.7559
 20
50.7834
 30
0.0
 11
50.7559
 21
53.8826
 31
0.0
  0
LINE
  8
0
 62
     0
 10
50.7559
 20
53.8826
 30
0.0
 11
49.9565
 21
53.8826
 31
0.0
  0
LINE
  8
0
 62
     0
 10
49.9565
 20
53.8826
 30
0.0
 11
49.9565
 21
54.8831
 31
0.0
  0
LINE
  8
0
 62
     0
 10
49.9565
 20
54.8831
 30
0.0
 11
35.9572
 21
54.8831
 31
0.0
  0
LINE
  8
0
 62
     0
 10
9.76203
 20
54.8831
 30
0.0
 11
9.76203
 21
53.8826
 31
0.0
  0
LINE
  8
0
 62
     0
 10
9.76203
 20
53.8826
 30
0.0
 11
8.96278
 21
53.8826
 31
0.0
  0
LINE
  8
0
 62
     0
 10
8.96278
 20
53.8826
 30
0.0
 11
8.96278
 21
50.7834
 31
0.0
  0
LINE
  8
0
 62
     0
 10
8.96278
 20
50.7834
 30
0.0
 11
9.76203
 21
50.7834
 31
0.0
  0
LINE
  8
0
 62
     0
 10
9.76203
 20
50.7834
 30
0.0
 11
9.76203
 21
44.9834
 31
0.0
  0
LINE
  8
0
 62
     0
 10
9.76203
 20
44.9834
 30
0.0
 11
8.96278
 21
44.9834
 31
0.0
  0
LINE
  8
0
 62
     0
 10
8.96278
 20
44.9834
 30
0.0
 11
8.96278
 21
41.8828
 31
0.0
  0
LINE
  8
0
 62
     0
 10
8.96278
 20
41.8828
 30
0.0
 11
9.76203
 21
41.8828
 31
0.0
  0
LINE
  8
0
 62
     0
 10
9.76203
 20
41.8828
 30
0.0
 11
9.76203
 21
40.8838
 31
0.0
  0
LINE
  8
0
 62
     0
 10
9.76203
 20
40.8838
 30
0.0
 11
23.7629
 21
40.8838
 31
0.0
  0
LINE
  8
0
 62
     0
 10
23.7629
 20
40.8838
 30
0.0
 11
23.7629
 21
41.8828
 31
0.0
  0
LINE
  8
0
 62
     0
 10
23.7629
 20
41.8828
 30
0.0
 11
24.5622
 21
41.8828
 31
0.0
  0
LINE
  8
0
 62
     0
 10
24.5622
 20
41.8828
 30
0.0
 11
24.5622
 21
44.9834
 31
0.0
  0
LINE
  8
0
 62
     0
 10
24.5622
 20
44.9834
 30
0.0
 11
23.7629
 21
44.9834
 31
0.0
  0
LINE
  8
0
 62
     0
 10
23.7629
 20
44.9834
 30
0.0
 11
23.7629
 21
50.7834
 31
0.0
  0
LINE
  8
0
 62
     0
 10
23.7629
 20
50.7834
 30
0.0
 11
24.5622
 21
50.7834
 31
0.0
  0
LINE
  8
0
 62
     0
 10
24.5622
 20
50.7834
 30
0.0
 11
24.5622
 21
53.8826
 31
0.0
  0
LINE
  8
0
 62
     0
 10
24.5622
 20
53.8826
 30
0.0
 11
23.7629
 21
53.8826
 31
0.0
  0
LINE
  8
0
 62
     0
 10
23.7629
 20
53.8826
 30
0.0
 11
23.7629
 21
54.8831
 31
0.0
  0
LINE
  8
0
 62
     0
 10
23.7629
 20
54.8831
 30
0.0
 11
9.76203
 21
54.8831
 31
0.0
  0
LINE
  8
0
 62
     0
 10
293.132
 20
73.9331
 30
0.0
 11
293.132
 21
72.9326
 31
0.0
  0
LINE
  8
0
 62
     0
 10
293.132
 20
72.9326
 30
0.0
 11
292.331
 21
72.9326
 31
0.0
  0
LINE
  8
0
 62
     0
 10
292.331
 20
72.9326
 30
0.0
 11
292.331
 21
69.8334
 31
0.0
  0
LINE
  8
0
 62
     0
 10
292.331
 20
69.8334
 30
0.0
 11
293.132
 21
69.8334
 31
0.0
  0
LINE
  8
0
 62
     0
 10
293.132
 20
69.8334
 30
0.0
 11
293.132
 21
64.0334
 31
0.0
  0
LINE
  8
0
 62
     0
 10
293.132
 20
64.0334
 30
0.0
 11
292.331
 21
64.0334
 31
0.0
  0
LINE
  8
0
 62
     0
 10
292.331
 20
64.0334
 30
0.0
 11
292.331
 21
60.9328
 31
0.0
  0
LINE
  8
0
 62
     0
 10
292.331
 20
60.9328
 30
0.0
 11
293.132
 21
60.9328
 31
0.0
  0
LINE
  8
0
 62
     0
 10
293.132
 20
60.9328
 30
0.0
 11
293.132
 21
59.9338
 31
0.0
  0
LINE
  8
0
 62
     0
 10
293.132
 20
59.9338
 30
0.0
 11
307.132
 21
59.9338
 31
0.0
  0
LINE
  8
0
 62
     0
 10
307.132
 20
59.9338
 30
0.0
 11
307.132
 21
60.9328
 31
0.0
  0
LINE
  8
0
 62
     0
 10
307.132
 20
60.9328
 30
0.0
 11
307.931
 21
60.9328
 31
0.0
  0
LINE
  8
0
 62
     0
 10
307.931
 20
60.9328
 30
0.0
 11
307.931
 21
64.0334
 31
0.0
  0
LINE
  8
0
 62
     0
 10
307.931
 20
64.0334
 30
0.0
 11
307.132
 21
64.0334
 31
0.0
  0
LINE
  8
0
 62
     0
 10
307.132
 20
64.0334
 30
0.0
 11
307.132
 21
69.8334
 31
0.0
  0
LINE
  8
0
 62
     0
 10
307.132
 20
69.8334
 30
0.0
 11
307.931
 21
69.8334
 31
0.0
  0
LINE
  8
0
 62
     0
 10
307.931
 20
69.8334
 30
0.0
 11
307.931
 21
72.9326
 31
0.0
  0
LINE
  8
0
 62
     0
 10
307.931
 20
72.9326
 30
0.0
 11
307.132
 21
72.9326
 31
0.0
  0
LINE
  8
0
 62
     0
 10
307.132
 20
72.9326
 30
0.0
 11
307.132
 21
73.9331
 31
0.0
  0
LINE
  8
0
 62
     0
 10
307.132
 20
73.9331
 30
0.0
 11
293.132
 21
73.9331
 31
0.0
  0
LINE
  8
0
 62
     0
 10
264.557
 20
73.9331
 30
0.0
 11
264.557
 21
72.9326
 31
0.0
  0
LINE
  8
0
 62
     0
 10
264.557
 20
72.9326
 30
0.0
 11
263.756
 21
72.9326
 31
0.0
  0
LINE
  8
0
 62
     0
 10
263.756
 20
72.9326
 30
0.0
 11
263.756
 21
69.8334
 31
0.0
  0
LINE
  8
0
 62
     0
 10
263.756
 20
69.8334
 30
0.0
 11
264.557
 21
69.8334
 31
0.0
  0
LINE
  8
0
 62
     0
 10
264.557
 20
69.8334
 30
0.0
 11
264.557
 21
64.0334
 31
0.0
  0
LINE
  8
0
 62
     0
 10
264.557
 20
64.0334
 30
0.0
 11
263.756
 21
64.0334
 31
0.0
  0
LINE
  8
0
 62
     0
 10
263.756
 20
64.0334
 30
0.0
 11
263.756
 21
60.9328
 31
0.0
  0
LINE
  8
0
 62
     0
 10
263.756
 20
60.9328
 30
0.0
 11
264.557
 21
60.9328
 31
0.0
  0
LINE
  8
0
 62
     0
 10
264.557
 20
60.9328
 30
0.0
 11
264.557
 21
59.9338
 31
0.0
  0
LINE
  8
0
 62
     0
 10
264.557
 20
59.9338
 30
0.0
 11
278.557
 21
59.9338
 31
0.0
  0
LINE
  8
0
 62
     0
 10
278.557
 20
59.9338
 30
0.0
 11
278.557
 21
60.9328
 31
0.0
  0
LINE
  8
0
 62
     0
 10
278.557
 20
60.9328
 30
0.0
 11
279.356
 21
60.9328
 31
0.0
  0
LINE
  8
0
 62
     0
 10
279.356
 20
60.9328
 30
0.0
 11
279.356
 21
64.0334
 31
0.0
  0
LINE
  8
0
 62
     0
 10
279.356
 20
64.0334
 30
0.0
 11
278.557
 21
64.0334
 31
0.0
  0
LINE
  8
0
 62
     0
 10
278.557
 20
64.0334
 30
0.0
 11
278.557
 21
69.8334
 31
0.0
  0
LINE
  8
0
 62
     0
 10
278.557
 20
69.8334
 30
0.0
 11
279.356
 21
69.8334
 31
0.0
  0
LINE
  8
0
 62
     0
 10
279.356
 20
69.8334
 30
0.0
 11
279.356
 21
72.9326
 31
0.0
  0
LINE
  8
0
 62
     0
 10
279.356
 20
72.9326
 30
0.0
 11
278.557
 21
72.9326
 31
0.0
  0
LINE
  8
0
 62
     0
 10
278.557
 20
72.9326
 30
0.0
 11
278.557
 21
73.9331
 31
0.0
  0
LINE
  8
0
 62
     0
 10
278.557
 20
73.9331
 30
0.0
 11
264.557
 21
73.9331
 31
0.0
  0
LINE
  8
0
 62
     0
 10
240.745
 20
73.9331
 30
0.0
 11
240.745
 21
72.9326
 31
0.0
  0
LINE
  8
0
 62
     0
 10
240.745
 20
72.9326
 30
0.0
 11
239.944
 21
72.9326
 31
0.0
  0
LINE
  8
0
 62
     0
 10
239.944
 20
72.9326
 30
0.0
 11
239.944
 21
69.8334
 31
0.0
  0
LINE
  8
0
 62
     0
 10
239.944
 20
69.8334
 30
0.0
 11
240.745
 21
69.8334
 31
0.0
  0
LINE
  8
0
 62
     0
 10
240.745
 20
69.8334
 30
0.0
 11
240.745
 21
64.0334
 31
0.0
  0
LINE
  8
0
 62
     0
 10
240.745
 20
64.0334
 30
0.0
 11
239.944
 21
64.0334
 31
0.0
  0
LINE
  8
0
 62
     0
 10
239.944
 20
64.0334
 30
0.0
 11
239.944
 21
60.9328
 31
0.0
  0
LINE
  8
0
 62
     0
 10
239.944
 20
60.9328
 30
0.0
 11
240.745
 21
60.9328
 31
0.0
  0
LINE
  8
0
 62
     0
 10
240.745
 20
60.9328
 30
0.0
 11
240.745
 21
59.9338
 31
0.0
  0
LINE
  8
0
 62
     0
 10
240.745
 20
59.9338
 30
0.0
 11
254.744
 21
59.9338
 31
0.0
  0
LINE
  8
0
 62
     0
 10
254.744
 20
59.9338
 30
0.0
 11
254.744
 21
60.9328
 31
0.0
  0
LINE
  8
0
 62
     0
 10
254.744
 20
60.9328
 30
0.0
 11
255.545
 21
60.9328
 31
0.0
  0
LINE
  8
0
 62
     0
 10
255.545
 20
60.9328
 30
0.0
 11
255.545
 21
64.0334
 31
0.0
  0
LINE
  8
0
 62
     0
 10
255.545
 20
64.0334
 30
0.0
 11
254.744
 21
64.0334
 31
0.0
  0
LINE
  8
0
 62
     0
 10
254.744
 20
64.0334
 30
0.0
 11
254.744
 21
69.8334
 31
0.0
  0
LINE
  8
0
 62
     0
 10
254.744
 20
69.8334
 30
0.0
 11
255.545
 21
69.8334
 31
0.0
  0
LINE
  8
0
 62
     0
 10
255.545
 20
69.8334
 30
0.0
 11
255.545
 21
72.9326
 31
0.0
  0
LINE
  8
0
 62
     0
 10
255.545
 20
72.9326
 30
0.0
 11
254.744
 21
72.9326
 31
0.0
  0
LINE
  8
0
 62
     0
 10
254.744
 20
72.9326
 30
0.0
 11
254.744
 21
73.9331
 31
0.0
  0
LINE
  8
0
 62
     0
 10
254.744
 20
73.9331
 30
0.0
 11
240.745
 21
73.9331
 31
0.0
  0
LINE
  8
0
 62
     0
 10
221.695
 20
73.9331
 30
0.0
 11
221.695
 21
72.9326
 31
0.0
  0
LINE
  8
0
 62
     0
 10
221.695
 20
72.9326
 30
0.0
 11
220.894
 21
72.9326
 31
0.0
  0
LINE
  8
0
 62
     0
 10
220.894
 20
72.9326
 30
0.0
 11
220.894
 21
69.8334
 31
0.0
  0
LINE
  8
0
 62
     0
 10
220.894
 20
69.8334
 30
0.0
 11
221.695
 21
69.8334
 31
0.0
  0
LINE
  8
0
 62
     0
 10
221.695
 20
69.8334
 30
0.0
 11
221.695
 21
64.0334
 31
0.0
  0
LINE
  8
0
 62
     0
 10
221.695
 20
64.0334
 30
0.0
 11
220.894
 21
64.0334
 31
0.0
  0
LINE
  8
0
 62
     0
 10
220.894
 20
64.0334
 30
0.0
 11
220.894
 21
60.9328
 31
0.0
  0
LINE
  8
0
 62
     0
 10
220.894
 20
60.9328
 30
0.0
 11
221.695
 21
60.9328
 31
0.0
  0
LINE
  8
0
 62
     0
 10
221.695
 20
60.9328
 30
0.0
 11
221.695
 21
59.9338
 31
0.0
  0
LINE
  8
0
 62
     0
 10
221.695
 20
59.9338
 30
0.0
 11
235.694
 21
59.9338
 31
0.0
  0
LINE
  8
0
 62
     0
 10
235.694
 20
59.9338
 30
0.0
 11
235.694
 21
60.9328
 31
0.0
  0
LINE
  8
0
 62
     0
 10
235.694
 20
60.9328
 30
0.0
 11
236.495
 21
60.9328
 31
0.0
  0
LINE
  8
0
 62
     0
 10
236.495
 20
60.9328
 30
0.0
 11
236.495
 21
64.0334
 31
0.0
  0
LINE
  8
0
 62
     0
 10
236.495
 20
64.0334
 30
0.0
 11
235.694
 21
64.0334
 31
0.0
  0
LINE
  8
0
 62
     0
 10
235.694
 20
64.0334
 30
0.0
 11
235.694
 21
69.8334
 31
0.0
  0
LINE
  8
0
 62
     0
 10
235.694
 20
69.8334
 30
0.0
 11
236.495
 21
69.8334
 31
0.0
  0
LINE
  8
0
 62
     0
 10
236.495
 20
69.8334
 30
0.0
 11
236.495
 21
72.9326
 31
0.0
  0
LINE
  8
0
 62
     0
 10
236.495
 20
72.9326
 30
0.0
 11
235.694
 21
72.9326
 31
0.0
  0
LINE
  8
0
 62
     0
 10
235.694
 20
72.9326
 30
0.0
 11
235.694
 21
73.9331
 31
0.0
  0
LINE
  8
0
 62
     0
 10
235.694
 20
73.9331
 30
0.0
 11
221.695
 21
73.9331
 31
0.0
  0
LINE
  8
0
 62
     0
 10
202.645
 20
73.9331
 30
0.0
 11
202.645
 21
72.9326
 31
0.0
  0
LINE
  8
0
 62
     0
 10
202.645
 20
72.9326
 30
0.0
 11
201.844
 21
72.9326
 31
0.0
  0
LINE
  8
0
 62
     0
 10
201.844
 20
72.9326
 30
0.0
 11
201.844
 21
69.8334
 31
0.0
  0
LINE
  8
0
 62
     0
 10
201.844
 20
69.8334
 30
0.0
 11
202.645
 21
69.8334
 31
0.0
  0
LINE
  8
0
 62
     0
 10
202.645
 20
69.8334
 30
0.0
 11
202.645
 21
64.0334
 31
0.0
  0
LINE
  8
0
 62
     0
 10
202.645
 20
64.0334
 30
0.0
 11
201.844
 21
64.0334
 31
0.0
  0
LINE
  8
0
 62
     0
 10
201.844
 20
64.0334
 30
0.0
 11
201.844
 21
60.9328
 31
0.0
  0
LINE
  8
0
 62
     0
 10
201.844
 20
60.9328
 30
0.0
 11
202.645
 21
60.9328
 31
0.0
  0
LINE
  8
0
 62
     0
 10
202.645
 20
60.9328
 30
0.0
 11
202.645
 21
59.9338
 31
0.0
  0
LINE
  8
0
 62
     0
 10
202.645
 20
59.9338
 30
0.0
 11
216.644
 21
59.9338
 31
0.0
  0
LINE
  8
0
 62
     0
 10
216.644
 20
59.9338
 30
0.0
 11
216.644
 21
60.9328
 31
0.0
  0
LINE
  8
0
 62
     0
 10
216.644
 20
60.9328
 30
0.0
 11
217.445
 21
60.9328
 31
0.0
  0
LINE
  8
0
 62
     0
 10
217.445
 20
60.9328
 30
0.0
 11
217.445
 21
64.0334
 31
0.0
  0
LINE
  8
0
 62
     0
 10
217.445
 20
64.0334
 30
0.0
 11
216.644
 21
64.0334
 31
0.0
  0
LINE
  8
0
 62
     0
 10
216.644
 20
64.0334
 30
0.0
 11
216.644
 21
69.8334
 31
0.0
  0
LINE
  8
0
 62
     0
 10
216.644
 20
69.8334
 30
0.0
 11
217.445
 21
69.8334
 31
0.0
  0
LINE
  8
0
 62
     0
 10
217.445
 20
69.8334
 30
0.0
 11
217.445
 21
72.9326
 31
0.0
  0
LINE
  8
0
 62
     0
 10
217.445
 20
72.9326
 30
0.0
 11
216.644
 21
72.9326
 31
0.0
  0
LINE
  8
0
 62
     0
 10
216.644
 20
72.9326
 30
0.0
 11
216.644
 21
73.9331
 31
0.0
  0
LINE
  8
0
 62
     0
 10
216.644
 20
73.9331
 30
0.0
 11
202.645
 21
73.9331
 31
0.0
  0
LINE
  8
0
 62
     0
 10
183.595
 20
73.9331
 30
0.0
 11
183.595
 21
72.9326
 31
0.0
  0
LINE
  8
0
 62
     0
 10
183.595
 20
72.9326
 30
0.0
 11
182.794
 21
72.9326
 31
0.0
  0
LINE
  8
0
 62
     0
 10
182.794
 20
72.9326
 30
0.0
 11
182.794
 21
69.8334
 31
0.0
  0
LINE
  8
0
 62
     0
 10
182.794
 20
69.8334
 30
0.0
 11
183.595
 21
69.8334
 31
0.0
  0
LINE
  8
0
 62
     0
 10
183.595
 20
69.8334
 30
0.0
 11
183.595
 21
64.0334
 31
0.0
  0
LINE
  8
0
 62
     0
 10
183.595
 20
64.0334
 30
0.0
 11
182.794
 21
64.0334
 31
0.0
  0
LINE
  8
0
 62
     0
 10
182.794
 20
64.0334
 30
0.0
 11
182.794
 21
60.9328
 31
0.0
  0
LINE
  8
0
 62
     0
 10
182.794
 20
60.9328
 30
0.0
 11
183.595
 21
60.9328
 31
0.0
  0
LINE
  8
0
 62
     0
 10
183.595
 20
60.9328
 30
0.0
 11
183.595
 21
59.9338
 31
0.0
  0
LINE
  8
0
 62
     0
 10
183.595
 20
59.9338
 30
0.0
 11
197.594
 21
59.9338
 31
0.0
  0
LINE
  8
0
 62
     0
 10
197.594
 20
59.9338
 30
0.0
 11
197.594
 21
60.9328
 31
0.0
  0
LINE
  8
0
 62
     0
 10
197.594
 20
60.9328
 30
0.0
 11
198.395
 21
60.9328
 31
0.0
  0
LINE
  8
0
 62
     0
 10
198.395
 20
60.9328
 30
0.0
 11
198.395
 21
64.0334
 31
0.0
  0
LINE
  8
0
 62
     0
 10
198.395
 20
64.0334
 30
0.0
 11
197.594
 21
64.0334
 31
0.0
  0
LINE
  8
0
 62
     0
 10
197.594
 20
64.0334
 30
0.0
 11
197.594
 21
69.8334
 31
0.0
  0
LINE
  8
0
 62
     0
 10
197.594
 20
69.8334
 30
0.0
 11
198.395
 21
69.8334
 31
0.0
  0
LINE
  8
0
 62
     0
 10
198.395
 20
69.8334
 30
0.0
 11
198.395
 21
72.9326
 31
0.0
  0
LINE
  8
0
 62
     0
 10
198.395
 20
72.9326
 30
0.0
 11
197.594
 21
72.9326
 31
0.0
  0
LINE
  8
0
 62
     0
 10
197.594
 20
72.9326
 30
0.0
 11
197.594
 21
73.9331
 31
0.0
  0
LINE
  8
0
 62
     0
 10
197.594
 20
73.9331
 30
0.0
 11
183.595
 21
73.9331
 31
0.0
  0
LINE
  8
0
 62
     0
 10
164.545
 20
73.9331
 30
0.0
 11
164.545
 21
72.9326
 31
0.0
  0
LINE
  8
0
 62
     0
 10
164.545
 20
72.9326
 30
0.0
 11
163.744
 21
72.9326
 31
0.0
  0
LINE
  8
0
 62
     0
 10
163.744
 20
72.9326
 30
0.0
 11
163.744
 21
69.8334
 31
0.0
  0
LINE
  8
0
 62
     0
 10
163.744
 20
69.8334
 30
0.0
 11
164.545
 21
69.8334
 31
0.0
  0
LINE
  8
0
 62
     0
 10
164.545
 20
69.8334
 30
0.0
 11
164.545
 21
64.0334
 31
0.0
  0
LINE
  8
0
 62
     0
 10
164.545
 20
64.0334
 30
0.0
 11
163.744
 21
64.0334
 31
0.0
  0
LINE
  8
0
 62
     0
 10
163.744
 20
64.0334
 30
0.0
 11
163.744
 21
60.9328
 31
0.0
  0
LINE
  8
0
 62
     0
 10
163.744
 20
60.9328
 30
0.0
 11
164.545
 21
60.9328
 31
0.0
  0
LINE
  8
0
 62
     0
 10
164.545
 20
60.9328
 30
0.0
 11
164.545
 21
59.9338
 31
0.0
  0
LINE
  8
0
 62
     0
 10
164.545
 20
59.9338
 30
0.0
 11
178.544
 21
59.9338
 31
0.0
  0
LINE
  8
0
 62
     0
 10
178.544
 20
59.9338
 30
0.0
 11
178.544
 21
60.9328
 31
0.0
  0
LINE
  8
0
 62
     0
 10
178.544
 20
60.9328
 30
0.0
 11
179.345
 21
60.9328
 31
0.0
  0
LINE
  8
0
 62
     0
 10
179.345
 20
60.9328
 30
0.0
 11
179.345
 21
64.0334
 31
0.0
  0
LINE
  8
0
 62
     0
 10
179.345
 20
64.0334
 30
0.0
 11
178.544
 21
64.0334
 31
0.0
  0
LINE
  8
0
 62
     0
 10
178.544
 20
64.0334
 30
0.0
 11
178.544
 21
69.8334
 31
0.0
  0
LINE
  8
0
 62
     0
 10
178.544
 20
69.8334
 30
0.0
 11
179.345
 21
69.8334
 31
0.0
  0
LINE
  8
0
 62
     0
 10
179.345
 20
69.8334
 30
0.0
 11
179.345
 21
72.9326
 31
0.0
  0
LINE
  8
0
 62
     0
 10
179.345
 20
72.9326
 30
0.0
 11
178.544
 21
72.9326
 31
0.0
  0
LINE
  8
0
 62
     0
 10
178.544
 20
72.9326
 30
0.0
 11
178.544
 21
73.9331
 31
0.0
  0
LINE
  8
0
 62
     0
 10
178.544
 20
73.9331
 30
0.0
 11
164.545
 21
73.9331
 31
0.0
  0
LINE
  8
0
 62
     0
 10
145.495
 20
73.9331
 30
0.0
 11
145.495
 21
72.9326
 31
0.0
  0
LINE
  8
0
 62
     0
 10
145.495
 20
72.9326
 30
0.0
 11
144.694
 21
72.9326
 31
0.0
  0
LINE
  8
0
 62
     0
 10
144.694
 20
72.9326
 30
0.0
 11
144.694
 21
69.8334
 31
0.0
  0
LINE
  8
0
 62
     0
 10
144.694
 20
69.8334
 30
0.0
 11
145.495
 21
69.8334
 31
0.0
  0
LINE
  8
0
 62
     0
 10
145.495
 20
69.8334
 30
0.0
 11
145.495
 21
64.0334
 31
0.0
  0
LINE
  8
0
 62
     0
 10
145.495
 20
64.0334
 30
0.0
 11
144.694
 21
64.0334
 31
0.0
  0
LINE
  8
0
 62
     0
 10
144.694
 20
64.0334
 30
0.0
 11
144.694
 21
60.9328
 31
0.0
  0
LINE
  8
0
 62
     0
 10
144.694
 20
60.9328
 30
0.0
 11
145.495
 21
60.9328
 31
0.0
  0
LINE
  8
0
 62
     0
 10
145.495
 20
60.9328
 30
0.0
 11
145.495
 21
59.9338
 31
0.0
  0
LINE
  8
0
 62
     0
 10
145.495
 20
59.9338
 30
0.0
 11
159.494
 21
59.9338
 31
0.0
  0
LINE
  8
0
 62
     0
 10
159.494
 20
59.9338
 30
0.0
 11
159.494
 21
60.9328
 31
0.0
  0
LINE
  8
0
 62
     0
 10
159.494
 20
60.9328
 30
0.0
 11
160.295
 21
60.9328
 31
0.0
  0
LINE
  8
0
 62
     0
 10
160.295
 20
60.9328
 30
0.0
 11
160.295
 21
64.0334
 31
0.0
  0
LINE
  8
0
 62
     0
 10
160.295
 20
64.0334
 30
0.0
 11
159.494
 21
64.0334
 31
0.0
  0
LINE
  8
0
 62
     0
 10
159.494
 20
64.0334
 30
0.0
 11
159.494
 21
69.8334
 31
0.0
  0
LINE
  8
0
 62
     0
 10
159.494
 20
69.8334
 30
0.0
 11
160.295
 21
69.8334
 31
0.0
  0
LINE
  8
0
 62
     0
 10
160.295
 20
69.8334
 30
0.0
 11
160.295
 21
72.9326
 31
0.0
  0
LINE
  8
0
 62
     0
 10
160.295
 20
72.9326
 30
0.0
 11
159.494
 21
72.9326
 31
0.0
  0
LINE
  8
0
 62
     0
 10
159.494
 20
72.9326
 30
0.0
 11
159.494
 21
73.9331
 31
0.0
  0
LINE
  8
0
 62
     0
 10
159.494
 20
73.9331
 30
0.0
 11
145.495
 21
73.9331
 31
0.0
  0
LINE
  8
0
 62
     0
 10
126.445
 20
73.9331
 30
0.0
 11
126.445
 21
72.9326
 31
0.0
  0
LINE
  8
0
 62
     0
 10
126.445
 20
72.9326
 30
0.0
 11
125.644
 21
72.9326
 31
0.0
  0
LINE
  8
0
 62
     0
 10
125.644
 20
72.9326
 30
0.0
 11
125.644
 21
69.8334
 31
0.0
  0
LINE
  8
0
 62
     0
 10
125.644
 20
69.8334
 30
0.0
 11
126.445
 21
69.8334
 31
0.0
  0
LINE
  8
0
 62
     0
 10
126.445
 20
69.8334
 30
0.0
 11
126.445
 21
64.0334
 31
0.0
  0
LINE
  8
0
 62
     0
 10
126.445
 20
64.0334
 30
0.0
 11
125.644
 21
64.0334
 31
0.0
  0
LINE
  8
0
 62
     0
 10
125.644
 20
64.0334
 30
0.0
 11
125.644
 21
60.9328
 31
0.0
  0
LINE
  8
0
 62
     0
 10
125.644
 20
60.9328
 30
0.0
 11
126.445
 21
60.9328
 31
0.0
  0
LINE
  8
0
 62
     0
 10
126.445
 20
60.9328
 30
0.0
 11
126.445
 21
59.9338
 31
0.0
  0
LINE
  8
0
 62
     0
 10
126.445
 20
59.9338
 30
0.0
 11
140.444
 21
59.9338
 31
0.0
  0
LINE
  8
0
 62
     0
 10
140.444
 20
59.9338
 30
0.0
 11
140.444
 21
60.9328
 31
0.0
  0
LINE
  8
0
 62
     0
 10
140.444
 20
60.9328
 30
0.0
 11
141.245
 21
60.9328
 31
0.0
  0
LINE
  8
0
 62
     0
 10
141.245
 20
60.9328
 30
0.0
 11
141.245
 21
64.0334
 31
0.0
  0
LINE
  8
0
 62
     0
 10
141.245
 20
64.0334
 30
0.0
 11
140.444
 21
64.0334
 31
0.0
  0
LINE
  8
0
 62
     0
 10
140.444
 20
64.0334
 30
0.0
 11
140.444
 21
69.8334
 31
0.0
  0
LINE
  8
0
 62
     0
 10
140.444
 20
69.8334
 30
0.0
 11
141.245
 21
69.8334
 31
0.0
  0
LINE
  8
0
 62
     0
 10
141.245
 20
69.8334
 30
0.0
 11
141.245
 21
72.9326
 31
0.0
  0
LINE
  8
0
 62
     0
 10
141.245
 20
72.9326
 30
0.0
 11
140.444
 21
72.9326
 31
0.0
  0
LINE
  8
0
 62
     0
 10
140.444
 20
72.9326
 30
0.0
 11
140.444
 21
73.9331
 31
0.0
  0
LINE
  8
0
 62
     0
 10
140.444
 20
73.9331
 30
0.0
 11
126.445
 21
73.9331
 31
0.0
  0
LINE
  8
0
 62
     0
 10
107.395
 20
73.9331
 30
0.0
 11
107.395
 21
72.9326
 31
0.0
  0
LINE
  8
0
 62
     0
 10
107.395
 20
72.9326
 30
0.0
 11
106.594
 21
72.9326
 31
0.0
  0
LINE
  8
0
 62
     0
 10
106.594
 20
72.9326
 30
0.0
 11
106.594
 21
69.8334
 31
0.0
  0
LINE
  8
0
 62
     0
 10
106.594
 20
69.8334
 30
0.0
 11
107.395
 21
69.8334
 31
0.0
  0
LINE
  8
0
 62
     0
 10
107.395
 20
69.8334
 30
0.0
 11
107.395
 21
64.0334
 31
0.0
  0
LINE
  8
0
 62
     0
 10
107.395
 20
64.0334
 30
0.0
 11
106.594
 21
64.0334
 31
0.0
  0
LINE
  8
0
 62
     0
 10
106.594
 20
64.0334
 30
0.0
 11
106.594
 21
60.9328
 31
0.0
  0
LINE
  8
0
 62
     0
 10
106.594
 20
60.9328
 30
0.0
 11
107.395
 21
60.9328
 31
0.0
  0
LINE
  8
0
 62
     0
 10
107.395
 20
60.9328
 30
0.0
 11
107.395
 21
59.9338
 31
0.0
  0
LINE
  8
0
 62
     0
 10
107.395
 20
59.9338
 30
0.0
 11
121.394
 21
59.9338
 31
0.0
  0
LINE
  8
0
 62
     0
 10
121.394
 20
59.9338
 30
0.0
 11
121.394
 21
60.9328
 31
0.0
  0
LINE
  8
0
 62
     0
 10
121.394
 20
60.9328
 30
0.0
 11
122.195
 21
60.9328
 31
0.0
  0
LINE
  8
0
 62
     0
 10
122.195
 20
60.9328
 30
0.0
 11
122.195
 21
64.0334
 31
0.0
  0
LINE
  8
0
 62
     0
 10
122.195
 20
64.0334
 30
0.0
 11
121.394
 21
64.0334
 31
0.0
  0
LINE
  8
0
 62
     0
 10
121.394
 20
64.0334
 30
0.0
 11
121.394
 21
69.8334
 31
0.0
  0
LINE
  8
0
 62
     0
 10
121.394
 20
69.8334
 30
0.0
 11
122.195
 21
69.8334
 31
0.0
  0
LINE
  8
0
 62
     0
 10
122.195
 20
69.8334
 30
0.0
 11
122.195
 21
72.9326
 31
0.0
  0
LINE
  8
0
 62
     0
 10
122.195
 20
72.9326
 30
0.0
 11
121.394
 21
72.9326
 31
0.0
  0
LINE
  8
0
 62
     0
 10
121.394
 20
72.9326
 30
0.0
 11
121.394
 21
73.9331
 31
0.0
  0
LINE
  8
0
 62
     0
 10
121.394
 20
73.9331
 30
0.0
 11
107.395
 21
73.9331
 31
0.0
  0
LINE
  8
0
 62
     0
 10
88.3447
 20
73.9331
 30
0.0
 11
88.3447
 21
72.9326
 31
0.0
  0
LINE
  8
0
 62
     0
 10
88.3447
 20
72.9326
 30
0.0
 11
87.5439
 21
72.9326
 31
0.0
  0
LINE
  8
0
 62
     0
 10
87.5439
 20
72.9326
 30
0.0
 11
87.5439
 21
69.8334
 31
0.0
  0
LINE
  8
0
 62
     0
 10
87.5439
 20
69.8334
 30
0.0
 11
88.3447
 21
69.8334
 31
0.0
  0
LINE
  8
0
 62
     0
 10
88.3447
 20
69.8334
 30
0.0
 11
88.3447
 21
64.0334
 31
0.0
  0
LINE
  8
0
 62
     0
 10
88.3447
 20
64.0334
 30
0.0
 11
87.5439
 21
64.0334
 31
0.0
  0
LINE
  8
0
 62
     0
 10
87.5439
 20
64.0334
 30
0.0
 11
87.5439
 21
60.9328
 31
0.0
  0
LINE
  8
0
 62
     0
 10
87.5439
 20
60.9328
 30
0.0
 11
88.3447
 21
60.9328
 31
0.0
  0
LINE
  8
0
 62
     0
 10
88.3447
 20
60.9328
 30
0.0
 11
88.3447
 21
59.9338
 31
0.0
  0
LINE
  8
0
 62
     0
 10
88.3447
 20
59.9338
 30
0.0
 11
102.344
 21
59.9338
 31
0.0
  0
LINE
  8
0
 62
     0
 10
102.344
 20
59.9338
 30
0.0
 11
102.344
 21
60.9328
 31
0.0
  0
LINE
  8
0
 62
     0
 10
102.344
 20
60.9328
 30
0.0
 11
103.145
 21
60.9328
 31
0.0
  0
LINE
  8
0
 62
     0
 10
103.145
 20
60.9328
 30
0.0
 11
103.145
 21
64.0334
 31
0.0
  0
LINE
  8
0
 62
     0
 10
103.145
 20
64.0334
 30
0.0
 11
102.344
 21
64.0334
 31
0.0
  0
LINE
  8
0
 62
     0
 10
102.344
 20
64.0334
 30
0.0
 11
102.344
 21
69.8334
 31
0.0
  0
LINE
  8
0
 62
     0
 10
102.344
 20
69.8334
 30
0.0
 11
103.145
 21
69.8334
 31
0.0
  0
LINE
  8
0
 62
     0
 10
103.145
 20
69.8334
 30
0.0
 11
103.145
 21
72.9326
 31
0.0
  0
LINE
  8
0
 62
     0
 10
103.145
 20
72.9326
 30
0.0
 11
102.344
 21
72.9326
 31
0.0
  0
LINE
  8
0
 62
     0
 10
102.344
 20
72.9326
 30
0.0
 11
102.344
 21
73.9331
 31
0.0
  0
LINE
  8
0
 62
     0
 10
102.344
 20
73.9331
 30
0.0
 11
88.3447
 21
73.9331
 31
0.0
  0
LINE
  8
0
 62
     0
 10
69.2947
 20
73.9331
 30
0.0
 11
69.2947
 21
72.9326
 31
0.0
  0
LINE
  8
0
 62
     0
 10
69.2947
 20
72.9326
 30
0.0
 11
68.4939
 21
72.9326
 31
0.0
  0
LINE
  8
0
 62
     0
 10
68.4939
 20
72.9326
 30
0.0
 11
68.4939
 21
69.8334
 31
0.0
  0
LINE
  8
0
 62
     0
 10
68.4939
 20
69.8334
 30
0.0
 11
69.2947
 21
69.8334
 31
0.0
  0
LINE
  8
0
 62
     0
 10
69.2947
 20
69.8334
 30
0.0
 11
69.2947
 21
64.0334
 31
0.0
  0
LINE
  8
0
 62
     0
 10
69.2947
 20
64.0334
 30
0.0
 11
68.4939
 21
64.0334
 31
0.0
  0
LINE
  8
0
 62
     0
 10
68.4939
 20
64.0334
 30
0.0
 11
68.4939
 21
60.9328
 31
0.0
  0
LINE
  8
0
 62
     0
 10
68.4939
 20
60.9328
 30
0.0
 11
69.2947
 21
60.9328
 31
0.0
  0
LINE
  8
0
 62
     0
 10
69.2947
 20
60.9328
 30
0.0
 11
69.2947
 21
59.9338
 31
0.0
  0
LINE
  8
0
 62
     0
 10
69.2947
 20
59.9338
 30
0.0
 11
83.294
 21
59.9338
 31
0.0
  0
LINE
  8
0
 62
     0
 10
83.294
 20
59.9338
 30
0.0
 11
83.294
 21
60.9328
 31
0.0
  0
LINE
  8
0
 62
     0
 10
83.294
 20
60.9328
 30
0.0
 11
84.0948
 21
60.9328
 31
0.0
  0
LINE
  8
0
 62
     0
 10
84.0948
 20
60.9328
 30
0.0
 11
84.0948
 21
64.0334
 31
0.0
  0
LINE
  8
0
 62
     0
 10
84.0948
 20
64.0334
 30
0.0
 11
83.294
 21
64.0334
 31
0.0
  0
LINE
  8
0
 62
     0
 10
83.294
 20
64.0334
 30
0.0
 11
83.294
 21
69.8334
 31
0.0
  0
LINE
  8
0
 62
     0
 10
83.294
 20
69.8334
 30
0.0
 11
84.0948
 21
69.8334
 31
0.0
  0
LINE
  8
0
 62
     0
 10
84.0948
 20
69.8334
 30
0.0
 11
84.0948
 21
72.9326
 31
0.0
  0
LINE
  8
0
 62
     0
 10
84.0948
 20
72.9326
 30
0.0
 11
83.294
 21
72.9326
 31
0.0
  0
LINE
  8
0
 62
     0
 10
83.294
 20
72.9326
 30
0.0
 11
83.294
 21
73.9331
 31
0.0
  0
LINE
  8
0
 62
     0
 10
83.294
 20
73.9331
 30
0.0
 11
69.2947
 21
73.9331
 31
0.0
  0
LINE
  8
0
 62
     0
 10
50.2447
 20
73.9331
 30
0.0
 11
50.2447
 21
72.9326
 31
0.0
  0
LINE
  8
0
 62
     0
 10
50.2447
 20
72.9326
 30
0.0
 11
49.4439
 21
72.9326
 31
0.0
  0
LINE
  8
0
 62
     0
 10
49.4439
 20
72.9326
 30
0.0
 11
49.4439
 21
69.8334
 31
0.0
  0
LINE
  8
0
 62
     0
 10
49.4439
 20
69.8334
 30
0.0
 11
50.2447
 21
69.8334
 31
0.0
  0
LINE
  8
0
 62
     0
 10
50.2447
 20
69.8334
 30
0.0
 11
50.2447
 21
64.0334
 31
0.0
  0
LINE
  8
0
 62
     0
 10
50.2447
 20
64.0334
 30
0.0
 11
49.4439
 21
64.0334
 31
0.0
  0
LINE
  8
0
 62
     0
 10
49.4439
 20
64.0334
 30
0.0
 11
49.4439
 21
60.9328
 31
0.0
  0
LINE
  8
0
 62
     0
 10
49.4439
 20
60.9328
 30
0.0
 11
50.2447
 21
60.9328
 31
0.0
  0
LINE
  8
0
 62
     0
 10
50.2447
 20
60.9328
 30
0.0
 11
50.2447
 21
59.9338
 31
0.0
  0
LINE
  8
0
 62
     0
 10
50.2447
 20
59.9338
 30
0.0
 11
64.244
 21
59.9338
 31
0.0
  0
LINE
  8
0
 62
     0
 10
64.244
 20
59.9338
 30
0.0
 11
64.244
 21
60.9328
 31
0.0
  0
LINE
  8
0
 62
     0
 10
64.244
 20
60.9328
 30
0.0
 11
65.0448
 21
60.9328
 31
0.0
  0
LINE
  8
0
 62
     0
 10
65.0448
 20
60.9328
 30
0.0
 11
65.0448
 21
64.0334
 31
0.0
  0
LINE
  8
0
 62
     0
 10
65.0448
 20
64.0334
 30
0.0
 11
64.244
 21
64.0334
 31
0.0
  0
LINE
  8
0
 62
     0
 10
64.244
 20
64.0334
 30
0.0
 11
64.244
 21
69.8334
 31
0.0
  0
LINE
  8
0
 62
     0
 10
64.244
 20
69.8334
 30
0.0
 11
65.0448
 21
69.8334
 31
0.0
  0
LINE
  8
0
 62
     0
 10
65.0448
 20
69.8334
 30
0.0
 11
65.0448
 21
72.9326
 31
0.0
  0
LINE
  8
0
 62
     0
 10
65.0448
 20
72.9326
 30
0.0
 11
64.244
 21
72.9326
 31
0.0
  0
LINE
  8
0
 62
     0
 10
64.244
 20
72.9326
 30
0.0
 11
64.244
 21
73.9331
 31
0.0
  0
LINE
  8
0
 62
     0
 10
64.244
 20
73.9331
 30
0.0
 11
50.2447
 21
73.9331
 31
0.0
  0
LINE
  8
0
 62
     0
 10
31.1947
 20
73.9331
 30
0.0
 11
31.1947
 21
72.9326
 31
0.0
  0
LINE
  8
0
 62
     0
 10
31.1947
 20
72.9326
 30
0.0
 11
30.394
 21
72.9326
 31
0.0
  0
LINE
  8
0
 62
     0
 10
30.394
 20
72.9326
 30
0.0
 11
30.394
 21
69.8334
 31
0.0
  0
LINE
  8
0
 62
     0
 10
30.394
 20
69.8334
 30
0.0
 11
31.1947
 21
69.8334
 31
0.0
  0
LINE
  8
0
 62
     0
 10
31.1947
 20
69.8334
 30
0.0
 11
31.1947
 21
64.0334
 31
0.0
  0
LINE
  8
0
 62
     0
 10
31.1947
 20
64.0334
 30
0.0
 11
30.394
 21
64.0334
 31
0.0
  0
LINE
  8
0
 62
     0
 10
30.394
 20
64.0334
 30
0.0
 11
30.394
 21
60.9328
 31
0.0
  0
LINE
  8
0
 62
     0
 10
30.394
 20
60.9328
 30
0.0
 11
31.1947
 21
60.9328
 31
0.0
  0
LINE
  8
0
 62
     0
 10
31.1947
 20
60.9328
 30
0.0
 11
31.1947
 21
59.9338
 31
0.0
  0
LINE
  8
0
 62
     0
 10
31.1947
 20
59.9338
 30
0.0
 11
45.194
 21
59.9338
 31
0.0
  0
LINE
  8
0
 62
     0
 10
45.194
 20
59.9338
 30
0.0
 11
45.194
 21
60.9328
 31
0.0
  0
LINE
  8
0
 62
     0
 10
45.194
 20
60.9328
 30
0.0
 11
45.9948
 21
60.9328
 31
0.0
  0
LINE
  8
0
 62
     0
 10
45.9948
 20
60.9328
 30
0.0
 11
45.9948
 21
64.0334
 31
0.0
  0
LINE
  8
0
 62
     0
 10
45.9948
 20
64.0334
 30
0.0
 11
45.194
 21
64.0334
 31
0.0
  0
LINE
  8
0
 62
     0
 10
45.194
 20
64.0334
 30
0.0
 11
45.194
 21
69.8334
 31
0.0
  0
LINE
  8
0
 62
     0
 10
45.194
 20
69.8334
 30
0.0
 11
45.9948
 21
69.8334
 31
0.0
  0
LINE
  8
0
 62
     0
 10
45.9948
 20
69.8334
 30
0.0
 11
45.9948
 21
72.9326
 31
0.0
  0
LINE
  8
0
 62
     0
 10
45.9948
 20
72.9326
 30
0.0
 11
45.194
 21
72.9326
 31
0.0
  0
LINE
  8
0
 62
     0
 10
45.194
 20
72.9326
 30
0.0
 11
45.194
 21
73.9331
 31
0.0
  0
LINE
  8
0
 62
     0
 10
45.194
 20
73.9331
 30
0.0
 11
31.1947
 21
73.9331
 31
0.0
  0
LINE
  8
0
 62
     0
 10
7.38216
 20
73.9331
 30
0.0
 11
7.38216
 21
72.9326
 31
0.0
  0
LINE
  8
0
 62
     0
 10
7.38216
 20
72.9326
 30
0.0
 11
6.58153
 21
72.9326
 31
0.0
  0
LINE
  8
0
 62
     0
 10
6.58153
 20
72.9326
 30
0.0
 11
6.58153
 21
69.8334
 31
0.0
  0
LINE
  8
0
 62
     0
 10
6.58153
 20
69.8334
 30
0.0
 11
7.38216
 21
69.8334
 31
0.0
  0
LINE
  8
0
 62
     0
 10
7.38216
 20
69.8334
 30
0.0
 11
7.38216
 21
64.0334
 31
0.0
  0
LINE
  8
0
 62
     0
 10
7.38216
 20
64.0334
 30
0.0
 11
6.58153
 21
64.0334
 31
0.0
  0
LINE
  8
0
 62
     0
 10
6.58153
 20
64.0334
 30
0.0
 11
6.58153
 21
60.9328
 31
0.0
  0
LINE
  8
0
 62
     0
 10
6.58153
 20
60.9328
 30
0.0
 11
7.38216
 21
60.9328
 31
0.0
  0
LINE
  8
0
 62
     0
 10
7.38216
 20
60.9328
 30
0.0
 11
7.38216
 21
59.9338
 31
0.0
  0
LINE
  8
0
 62
     0
 10
7.38216
 20
59.9338
 30
0.0
 11
21.3817
 21
59.9338
 31
0.0
  0
LINE
  8
0
 62
     0
 10
21.3817
 20
59.9338
 30
0.0
 11
21.3817
 21
60.9328
 31
0.0
  0
LINE
  8
0
 62
     0
 10
21.3817
 20
60.9328
 30
0.0
 11
22.1809
 21
60.9328
 31
0.0
  0
LINE
  8
0
 62
     0
 10
22.1809
 20
60.9328
 30
0.0
 11
22.1809
 21
64.0334
 31
0.0
  0
LINE
  8
0
 62
     0
 10
22.1809
 20
64.0334
 30
0.0
 11
21.3817
 21
64.0334
 31
0.0
  0
LINE
  8
0
 62
     0
 10
21.3817
 20
64.0334
 30
0.0
 11
21.3817
 21
69.8334
 31
0.0
  0
LINE
  8
0
 62
     0
 10
21.3817
 20
69.8334
 30
0.0
 11
22.1809
 21
69.8334
 31
0.0
  0
LINE
  8
0
 62
     0
 10
22.1809
 20
69.8334
 30
0.0
 11
22.1809
 21
72.9326
 31
0.0
  0
LINE
  8
0
 62
     0
 10
22.1809
 20
72.9326
 30
0.0
 11
21.3817
 21
72.9326
 31
0.0
  0
LINE
  8
0
 62
     0
 10
21.3817
 20
72.9326
 30
0.0
 11
21.3817
 21
73.9331
 31
0.0
  0
LINE
  8
0
 62
     0
 10
21.3817
 20
73.9331
 30
0.0
 11
7.38216
 21
73.9331
 31
0.0
  0
LINE
  8
0
 62
     0
 10
259.795
 20
92.9831
 30
0.0
 11
259.795
 21
91.9826
 31
0.0
  0
LINE
  8
0
 62
     0
 10
259.795
 20
91.9826
 30
0.0
 11
258.994
 21
91.9826
 31
0.0
  0
LINE
  8
0
 62
     0
 10
258.994
 20
91.9826
 30
0.0
 11
258.994
 21
88.8834
 31
0.0
  0
LINE
  8
0
 62
     0
 10
258.994
 20
88.8834
 30
0.0
 11
259.795
 21
88.8834
 31
0.0
  0
LINE
  8
0
 62
     0
 10
259.795
 20
88.8834
 30
0.0
 11
259.795
 21
88.2826
 31
0.0
  0
LINE
  8
0
 62
     0
 10
259.795
 20
88.2826
 30
0.0
 11
258.269
 21
88.2826
 31
0.0
  0
LINE
  8
0
 62
     0
 10
258.269
 20
88.2826
 30
0.0
 11
258.269
 21
91.5127
 31
0.0
  0
LINE
  8
0
 62
     0
 10
258.269
 20
91.5127
 30
0.0
 11
256.544
 21
91.5127
 31
0.0
  0
LINE
  8
0
 62
     0
 10
256.544
 20
91.5127
 30
0.0
 11
256.544
 21
92.4334
 31
0.0
  0
LINE
  8
0
 62
     0
 10
256.544
 20
92.4334
 30
0.0
 11
253.243
 21
92.4334
 31
0.0
  0
LINE
  8
0
 62
     0
 10
253.243
 20
92.4334
 30
0.0
 11
253.243
 21
91.5127
 31
0.0
  0
LINE
  8
0
 62
     0
 10
253.243
 20
91.5127
 30
0.0
 11
251.52
 21
91.5127
 31
0.0
  0
LINE
  8
0
 62
     0
 10
251.52
 20
91.5127
 30
0.0
 11
251.52
 21
88.2826
 31
0.0
  0
LINE
  8
0
 62
     0
 10
251.52
 20
88.2826
 30
0.0
 11
250.694
 21
88.2826
 31
0.0
  0
LINE
  8
0
 62
     0
 10
250.694
 20
88.2826
 30
0.0
 11
250.694
 21
85.4837
 31
0.0
  0
LINE
  8
0
 62
     0
 10
250.694
 20
85.4837
 30
0.0
 11
251.52
 21
85.4837
 31
0.0
  0
LINE
  8
0
 62
     0
 10
251.52
 20
85.4837
 30
0.0
 11
251.52
 21
79.2138
 31
0.0
  0
LINE
  8
0
 62
     0
 10
251.52
 20
79.2138
 30
0.0
 11
253.243
 21
79.2138
 31
0.0
  0
LINE
  8
0
 62
     0
 10
253.243
 20
79.2138
 30
0.0
 11
253.243
 21
78.2327
 31
0.0
  0
LINE
  8
0
 62
     0
 10
253.243
 20
78.2327
 30
0.0
 11
256.544
 21
78.2327
 31
0.0
  0
LINE
  8
0
 62
     0
 10
256.544
 20
78.2327
 30
0.0
 11
256.544
 21
79.2138
 31
0.0
  0
LINE
  8
0
 62
     0
 10
256.544
 20
79.2138
 30
0.0
 11
258.269
 21
79.2138
 31
0.0
  0
LINE
  8
0
 62
     0
 10
258.269
 20
79.2138
 30
0.0
 11
258.269
 21
83.6828
 31
0.0
  0
LINE
  8
0
 62
     0
 10
258.269
 20
83.6828
 30
0.0
 11
259.795
 21
83.6828
 31
0.0
  0
LINE
  8
0
 62
     0
 10
259.795
 20
83.6828
 30
0.0
 11
259.795
 21
83.0834
 31
0.0
  0
LINE
  8
0
 62
     0
 10
259.795
 20
83.0834
 30
0.0
 11
258.994
 21
83.0834
 31
0.0
  0
LINE
  8
0
 62
     0
 10
258.994
 20
83.0834
 30
0.0
 11
258.994
 21
79.9828
 31
0.0
  0
LINE
  8
0
 62
     0
 10
258.994
 20
79.9828
 30
0.0
 11
259.795
 21
79.9828
 31
0.0
  0
LINE
  8
0
 62
     0
 10
259.795
 20
79.9828
 30
0.0
 11
259.795
 21
78.9838
 31
0.0
  0
LINE
  8
0
 62
     0
 10
259.795
 20
78.9838
 30
0.0
 11
273.794
 21
78.9838
 31
0.0
  0
LINE
  8
0
 62
     0
 10
273.794
 20
78.9838
 30
0.0
 11
273.794
 21
79.9828
 31
0.0
  0
LINE
  8
0
 62
     0
 10
273.794
 20
79.9828
 30
0.0
 11
274.595
 21
79.9828
 31
0.0
  0
LINE
  8
0
 62
     0
 10
274.595
 20
79.9828
 30
0.0
 11
274.595
 21
83.0834
 31
0.0
  0
LINE
  8
0
 62
     0
 10
274.595
 20
83.0834
 30
0.0
 11
273.794
 21
83.0834
 31
0.0
  0
LINE
  8
0
 62
     0
 10
273.794
 20
83.0834
 30
0.0
 11
273.794
 21
83.6828
 31
0.0
  0
LINE
  8
0
 62
     0
 10
273.794
 20
83.6828
 30
0.0
 11
275.32
 21
83.6828
 31
0.0
  0
LINE
  8
0
 62
     0
 10
275.32
 20
83.6828
 30
0.0
 11
275.32
 21
79.2138
 31
0.0
  0
LINE
  8
0
 62
     0
 10
275.32
 20
79.2138
 30
0.0
 11
277.045
 21
79.2138
 31
0.0
  0
LINE
  8
0
 62
     0
 10
277.045
 20
79.2138
 30
0.0
 11
277.045
 21
78.2327
 31
0.0
  0
LINE
  8
0
 62
     0
 10
277.045
 20
78.2327
 30
0.0
 11
280.344
 21
78.2327
 31
0.0
  0
LINE
  8
0
 62
     0
 10
280.344
 20
78.2327
 30
0.0
 11
280.344
 21
79.2138
 31
0.0
  0
LINE
  8
0
 62
     0
 10
280.344
 20
79.2138
 30
0.0
 11
282.069
 21
79.2138
 31
0.0
  0
LINE
  8
0
 62
     0
 10
282.069
 20
79.2138
 30
0.0
 11
282.069
 21
85.4837
 31
0.0
  0
LINE
  8
0
 62
     0
 10
282.069
 20
85.4837
 30
0.0
 11
282.895
 21
85.4837
 31
0.0
  0
LINE
  8
0
 62
     0
 10
282.895
 20
85.4837
 30
0.0
 11
282.895
 21
88.2826
 31
0.0
  0
LINE
  8
0
 62
     0
 10
282.895
 20
88.2826
 30
0.0
 11
282.069
 21
88.2826
 31
0.0
  0
LINE
  8
0
 62
     0
 10
282.069
 20
88.2826
 30
0.0
 11
282.069
 21
91.5127
 31
0.0
  0
LINE
  8
0
 62
     0
 10
282.069
 20
91.5127
 30
0.0
 11
280.344
 21
91.5127
 31
0.0
  0
LINE
  8
0
 62
     0
 10
280.344
 20
91.5127
 30
0.0
 11
280.344
 21
92.4334
 31
0.0
  0
LINE
  8
0
 62
     0
 10
280.344
 20
92.4334
 30
0.0
 11
277.045
 21
92.4334
 31
0.0
  0
LINE
  8
0
 62
     0
 10
277.045
 20
92.4334
 30
0.0
 11
277.045
 21
91.5127
 31
0.0
  0
LINE
  8
0
 62
     0
 10
277.045
 20
91.5127
 30
0.0
 11
275.32
 21
91.5127
 31
0.0
  0
LINE
  8
0
 62
     0
 10
275.32
 20
91.5127
 30
0.0
 11
275.32
 21
88.2826
 31
0.0
  0
LINE
  8
0
 62
     0
 10
275.32
 20
88.2826
 30
0.0
 11
273.794
 21
88.2826
 31
0.0
  0
LINE
  8
0
 62
     0
 10
273.794
 20
88.2826
 30
0.0
 11
273.794
 21
88.8834
 31
0.0
  0
LINE
  8
0
 62
     0
 10
273.794
 20
88.8834
 30
0.0
 11
274.595
 21
88.8834
 31
0.0
  0
LINE
  8
0
 62
     0
 10
274.595
 20
88.8834
 30
0.0
 11
274.595
 21
91.9826
 31
0.0
  0
LINE
  8
0
 62
     0
 10
274.595
 20
91.9826
 30
0.0
 11
273.794
 21
91.9826
 31
0.0
  0
LINE
  8
0
 62
     0
 10
273.794
 20
91.9826
 30
0.0
 11
273.794
 21
92.9831
 31
0.0
  0
LINE
  8
0
 62
     0
 10
273.794
 20
92.9831
 30
0.0
 11
259.795
 21
92.9831
 31
0.0
  0
LINE
  8
0
 62
     0
 10
293.132
 20
92.9831
 30
0.0
 11
293.132
 21
91.9826
 31
0.0
  0
LINE
  8
0
 62
     0
 10
293.132
 20
91.9826
 30
0.0
 11
292.331
 21
91.9826
 31
0.0
  0
LINE
  8
0
 62
     0
 10
292.331
 20
91.9826
 30
0.0
 11
292.331
 21
88.8834
 31
0.0
  0
LINE
  8
0
 62
     0
 10
292.331
 20
88.8834
 30
0.0
 11
293.132
 21
88.8834
 31
0.0
  0
LINE
  8
0
 62
     0
 10
293.132
 20
88.8834
 30
0.0
 11
293.132
 21
83.0834
 31
0.0
  0
LINE
  8
0
 62
     0
 10
293.132
 20
83.0834
 30
0.0
 11
292.331
 21
83.0834
 31
0.0
  0
LINE
  8
0
 62
     0
 10
292.331
 20
83.0834
 30
0.0
 11
292.331
 21
79.9828
 31
0.0
  0
LINE
  8
0
 62
     0
 10
292.331
 20
79.9828
 30
0.0
 11
293.132
 21
79.9828
 31
0.0
  0
LINE
  8
0
 62
     0
 10
293.132
 20
79.9828
 30
0.0
 11
293.132
 21
78.9838
 31
0.0
  0
LINE
  8
0
 62
     0
 10
293.132
 20
78.9838
 30
0.0
 11
307.132
 21
78.9838
 31
0.0
  0
LINE
  8
0
 62
     0
 10
307.132
 20
78.9838
 30
0.0
 11
307.132
 21
79.9828
 31
0.0
  0
LINE
  8
0
 62
     0
 10
307.132
 20
79.9828
 30
0.0
 11
307.931
 21
79.9828
 31
0.0
  0
LINE
  8
0
 62
     0
 10
307.931
 20
79.9828
 30
0.0
 11
307.931
 21
83.0834
 31
0.0
  0
LINE
  8
0
 62
     0
 10
307.931
 20
83.0834
 30
0.0
 11
307.132
 21
83.0834
 31
0.0
  0
LINE
  8
0
 62
     0
 10
307.132
 20
83.0834
 30
0.0
 11
307.132
 21
88.8834
 31
0.0
  0
LINE
  8
0
 62
     0
 10
307.132
 20
88.8834
 30
0.0
 11
307.931
 21
88.8834
 31
0.0
  0
LINE
  8
0
 62
     0
 10
307.931
 20
88.8834
 30
0.0
 11
307.931
 21
91.9826
 31
0.0
  0
LINE
  8
0
 62
     0
 10
307.931
 20
91.9826
 30
0.0
 11
307.132
 21
91.9826
 31
0.0
  0
LINE
  8
0
 62
     0
 10
307.132
 20
91.9826
 30
0.0
 11
307.132
 21
92.9831
 31
0.0
  0
LINE
  8
0
 62
     0
 10
307.132
 20
92.9831
 30
0.0
 11
293.132
 21
92.9831
 31
0.0
  0
LINE
  8
0
 62
     0
 10
231.22
 20
92.9831
 30
0.0
 11
231.22
 21
91.9826
 31
0.0
  0
LINE
  8
0
 62
     0
 10
231.22
 20
91.9826
 30
0.0
 11
230.419
 21
91.9826
 31
0.0
  0
LINE
  8
0
 62
     0
 10
230.419
 20
91.9826
 30
0.0
 11
230.419
 21
88.8834
 31
0.0
  0
LINE
  8
0
 62
     0
 10
230.419
 20
88.8834
 30
0.0
 11
231.22
 21
88.8834
 31
0.0
  0
LINE
  8
0
 62
     0
 10
231.22
 20
88.8834
 30
0.0
 11
231.22
 21
83.0834
 31
0.0
  0
LINE
  8
0
 62
     0
 10
231.22
 20
83.0834
 30
0.0
 11
230.419
 21
83.0834
 31
0.0
  0
LINE
  8
0
 62
     0
 10
230.419
 20
83.0834
 30
0.0
 11
230.419
 21
79.9828
 31
0.0
  0
LINE
  8
0
 62
     0
 10
230.419
 20
79.9828
 30
0.0
 11
231.22
 21
79.9828
 31
0.0
  0
LINE
  8
0
 62
     0
 10
231.22
 20
79.9828
 30
0.0
 11
231.22
 21
78.9838
 31
0.0
  0
LINE
  8
0
 62
     0
 10
231.22
 20
78.9838
 30
0.0
 11
245.219
 21
78.9838
 31
0.0
  0
LINE
  8
0
 62
     0
 10
245.219
 20
78.9838
 30
0.0
 11
245.219
 21
79.9828
 31
0.0
  0
LINE
  8
0
 62
     0
 10
245.219
 20
79.9828
 30
0.0
 11
246.02
 21
79.9828
 31
0.0
  0
LINE
  8
0
 62
     0
 10
246.02
 20
79.9828
 30
0.0
 11
246.02
 21
83.0834
 31
0.0
  0
LINE
  8
0
 62
     0
 10
246.02
 20
83.0834
 30
0.0
 11
245.219
 21
83.0834
 31
0.0
  0
LINE
  8
0
 62
     0
 10
245.219
 20
83.0834
 30
0.0
 11
245.219
 21
88.8834
 31
0.0
  0
LINE
  8
0
 62
     0
 10
245.219
 20
88.8834
 30
0.0
 11
246.02
 21
88.8834
 31
0.0
  0
LINE
  8
0
 62
     0
 10
246.02
 20
88.8834
 30
0.0
 11
246.02
 21
91.9826
 31
0.0
  0
LINE
  8
0
 62
     0
 10
246.02
 20
91.9826
 30
0.0
 11
245.219
 21
91.9826
 31
0.0
  0
LINE
  8
0
 62
     0
 10
245.219
 20
91.9826
 30
0.0
 11
245.219
 21
92.9831
 31
0.0
  0
LINE
  8
0
 62
     0
 10
245.219
 20
92.9831
 30
0.0
 11
231.22
 21
92.9831
 31
0.0
  0
LINE
  8
0
 62
     0
 10
212.17
 20
92.9831
 30
0.0
 11
212.17
 21
91.9826
 31
0.0
  0
LINE
  8
0
 62
     0
 10
212.17
 20
91.9826
 30
0.0
 11
211.369
 21
91.9826
 31
0.0
  0
LINE
  8
0
 62
     0
 10
211.369
 20
91.9826
 30
0.0
 11
211.369
 21
88.8834
 31
0.0
  0
LINE
  8
0
 62
     0
 10
211.369
 20
88.8834
 30
0.0
 11
212.17
 21
88.8834
 31
0.0
  0
LINE
  8
0
 62
     0
 10
212.17
 20
88.8834
 30
0.0
 11
212.17
 21
83.0834
 31
0.0
  0
LINE
  8
0
 62
     0
 10
212.17
 20
83.0834
 30
0.0
 11
211.369
 21
83.0834
 31
0.0
  0
LINE
  8
0
 62
     0
 10
211.369
 20
83.0834
 30
0.0
 11
211.369
 21
79.9828
 31
0.0
  0
LINE
  8
0
 62
     0
 10
211.369
 20
79.9828
 30
0.0
 11
212.17
 21
79.9828
 31
0.0
  0
LINE
  8
0
 62
     0
 10
212.17
 20
79.9828
 30
0.0
 11
212.17
 21
78.9838
 31
0.0
  0
LINE
  8
0
 62
     0
 10
212.17
 20
78.9838
 30
0.0
 11
226.169
 21
78.9838
 31
0.0
  0
LINE
  8
0
 62
     0
 10
226.169
 20
78.9838
 30
0.0
 11
226.169
 21
79.9828
 31
0.0
  0
LINE
  8
0
 62
     0
 10
226.169
 20
79.9828
 30
0.0
 11
226.97
 21
79.9828
 31
0.0
  0
LINE
  8
0
 62
     0
 10
226.97
 20
79.9828
 30
0.0
 11
226.97
 21
83.0834
 31
0.0
  0
LINE
  8
0
 62
     0
 10
226.97
 20
83.0834
 30
0.0
 11
226.169
 21
83.0834
 31
0.0
  0
LINE
  8
0
 62
     0
 10
226.169
 20
83.0834
 30
0.0
 11
226.169
 21
88.8834
 31
0.0
  0
LINE
  8
0
 62
     0
 10
226.169
 20
88.8834
 30
0.0
 11
226.97
 21
88.8834
 31
0.0
  0
LINE
  8
0
 62
     0
 10
226.97
 20
88.8834
 30
0.0
 11
226.97
 21
91.9826
 31
0.0
  0
LINE
  8
0
 62
     0
 10
226.97
 20
91.9826
 30
0.0
 11
226.169
 21
91.9826
 31
0.0
  0
LINE
  8
0
 62
     0
 10
226.169
 20
91.9826
 30
0.0
 11
226.169
 21
92.9831
 31
0.0
  0
LINE
  8
0
 62
     0
 10
226.169
 20
92.9831
 30
0.0
 11
212.17
 21
92.9831
 31
0.0
  0
LINE
  8
0
 62
     0
 10
193.12
 20
92.9831
 30
0.0
 11
193.12
 21
91.9826
 31
0.0
  0
LINE
  8
0
 62
     0
 10
193.12
 20
91.9826
 30
0.0
 11
192.319
 21
91.9826
 31
0.0
  0
LINE
  8
0
 62
     0
 10
192.319
 20
91.9826
 30
0.0
 11
192.319
 21
88.8834
 31
0.0
  0
LINE
  8
0
 62
     0
 10
192.319
 20
88.8834
 30
0.0
 11
193.12
 21
88.8834
 31
0.0
  0
LINE
  8
0
 62
     0
 10
193.12
 20
88.8834
 30
0.0
 11
193.12
 21
83.0834
 31
0.0
  0
LINE
  8
0
 62
     0
 10
193.12
 20
83.0834
 30
0.0
 11
192.319
 21
83.0834
 31
0.0
  0
LINE
  8
0
 62
     0
 10
192.319
 20
83.0834
 30
0.0
 11
192.319
 21
79.9828
 31
0.0
  0
LINE
  8
0
 62
     0
 10
192.319
 20
79.9828
 30
0.0
 11
193.12
 21
79.9828
 31
0.0
  0
LINE
  8
0
 62
     0
 10
193.12
 20
79.9828
 30
0.0
 11
193.12
 21
78.9838
 31
0.0
  0
LINE
  8
0
 62
     0
 10
193.12
 20
78.9838
 30
0.0
 11
207.119
 21
78.9838
 31
0.0
  0
LINE
  8
0
 62
     0
 10
207.119
 20
78.9838
 30
0.0
 11
207.119
 21
79.9828
 31
0.0
  0
LINE
  8
0
 62
     0
 10
207.119
 20
79.9828
 30
0.0
 11
207.92
 21
79.9828
 31
0.0
  0
LINE
  8
0
 62
     0
 10
207.92
 20
79.9828
 30
0.0
 11
207.92
 21
83.0834
 31
0.0
  0
LINE
  8
0
 62
     0
 10
207.92
 20
83.0834
 30
0.0
 11
207.119
 21
83.0834
 31
0.0
  0
LINE
  8
0
 62
     0
 10
207.119
 20
83.0834
 30
0.0
 11
207.119
 21
88.8834
 31
0.0
  0
LINE
  8
0
 62
     0
 10
207.119
 20
88.8834
 30
0.0
 11
207.92
 21
88.8834
 31
0.0
  0
LINE
  8
0
 62
     0
 10
207.92
 20
88.8834
 30
0.0
 11
207.92
 21
91.9826
 31
0.0
  0
LINE
  8
0
 62
     0
 10
207.92
 20
91.9826
 30
0.0
 11
207.119
 21
91.9826
 31
0.0
  0
LINE
  8
0
 62
     0
 10
207.119
 20
91.9826
 30
0.0
 11
207.119
 21
92.9831
 31
0.0
  0
LINE
  8
0
 62
     0
 10
207.119
 20
92.9831
 30
0.0
 11
193.12
 21
92.9831
 31
0.0
  0
LINE
  8
0
 62
     0
 10
174.07
 20
92.9831
 30
0.0
 11
174.07
 21
91.9826
 31
0.0
  0
LINE
  8
0
 62
     0
 10
174.07
 20
91.9826
 30
0.0
 11
173.269
 21
91.9826
 31
0.0
  0
LINE
  8
0
 62
     0
 10
173.269
 20
91.9826
 30
0.0
 11
173.269
 21
88.8834
 31
0.0
  0
LINE
  8
0
 62
     0
 10
173.269
 20
88.8834
 30
0.0
 11
174.07
 21
88.8834
 31
0.0
  0
LINE
  8
0
 62
     0
 10
174.07
 20
88.8834
 30
0.0
 11
174.07
 21
83.0834
 31
0.0
  0
LINE
  8
0
 62
     0
 10
174.07
 20
83.0834
 30
0.0
 11
173.269
 21
83.0834
 31
0.0
  0
LINE
  8
0
 62
     0
 10
173.269
 20
83.0834
 30
0.0
 11
173.269
 21
79.9828
 31
0.0
  0
LINE
  8
0
 62
     0
 10
173.269
 20
79.9828
 30
0.0
 11
174.07
 21
79.9828
 31
0.0
  0
LINE
  8
0
 62
     0
 10
174.07
 20
79.9828
 30
0.0
 11
174.07
 21
78.9838
 31
0.0
  0
LINE
  8
0
 62
     0
 10
174.07
 20
78.9838
 30
0.0
 11
188.069
 21
78.9838
 31
0.0
  0
LINE
  8
0
 62
     0
 10
188.069
 20
78.9838
 30
0.0
 11
188.069
 21
79.9828
 31
0.0
  0
LINE
  8
0
 62
     0
 10
188.069
 20
79.9828
 30
0.0
 11
188.87
 21
79.9828
 31
0.0
  0
LINE
  8
0
 62
     0
 10
188.87
 20
79.9828
 30
0.0
 11
188.87
 21
83.0834
 31
0.0
  0
LINE
  8
0
 62
     0
 10
188.87
 20
83.0834
 30
0.0
 11
188.069
 21
83.0834
 31
0.0
  0
LINE
  8
0
 62
     0
 10
188.069
 20
83.0834
 30
0.0
 11
188.069
 21
88.8834
 31
0.0
  0
LINE
  8
0
 62
     0
 10
188.069
 20
88.8834
 30
0.0
 11
188.87
 21
88.8834
 31
0.0
  0
LINE
  8
0
 62
     0
 10
188.87
 20
88.8834
 30
0.0
 11
188.87
 21
91.9826
 31
0.0
  0
LINE
  8
0
 62
     0
 10
188.87
 20
91.9826
 30
0.0
 11
188.069
 21
91.9826
 31
0.0
  0
LINE
  8
0
 62
     0
 10
188.069
 20
91.9826
 30
0.0
 11
188.069
 21
92.9831
 31
0.0
  0
LINE
  8
0
 62
     0
 10
188.069
 20
92.9831
 30
0.0
 11
174.07
 21
92.9831
 31
0.0
  0
LINE
  8
0
 62
     0
 10
155.02
 20
92.9831
 30
0.0
 11
155.02
 21
91.9826
 31
0.0
  0
LINE
  8
0
 62
     0
 10
155.02
 20
91.9826
 30
0.0
 11
154.219
 21
91.9826
 31
0.0
  0
LINE
  8
0
 62
     0
 10
154.219
 20
91.9826
 30
0.0
 11
154.219
 21
88.8834
 31
0.0
  0
LINE
  8
0
 62
     0
 10
154.219
 20
88.8834
 30
0.0
 11
155.02
 21
88.8834
 31
0.0
  0
LINE
  8
0
 62
     0
 10
155.02
 20
88.8834
 30
0.0
 11
155.02
 21
83.0834
 31
0.0
  0
LINE
  8
0
 62
     0
 10
155.02
 20
83.0834
 30
0.0
 11
154.219
 21
83.0834
 31
0.0
  0
LINE
  8
0
 62
     0
 10
154.219
 20
83.0834
 30
0.0
 11
154.219
 21
79.9828
 31
0.0
  0
LINE
  8
0
 62
     0
 10
154.219
 20
79.9828
 30
0.0
 11
155.02
 21
79.9828
 31
0.0
  0
LINE
  8
0
 62
     0
 10
155.02
 20
79.9828
 30
0.0
 11
155.02
 21
78.9838
 31
0.0
  0
LINE
  8
0
 62
     0
 10
155.02
 20
78.9838
 30
0.0
 11
169.019
 21
78.9838
 31
0.0
  0
LINE
  8
0
 62
     0
 10
169.019
 20
78.9838
 30
0.0
 11
169.019
 21
79.9828
 31
0.0
  0
LINE
  8
0
 62
     0
 10
169.019
 20
79.9828
 30
0.0
 11
169.82
 21
79.9828
 31
0.0
  0
LINE
  8
0
 62
     0
 10
169.82
 20
79.9828
 30
0.0
 11
169.82
 21
83.0834
 31
0.0
  0
LINE
  8
0
 62
     0
 10
169.82
 20
83.0834
 30
0.0
 11
169.019
 21
83.0834
 31
0.0
  0
LINE
  8
0
 62
     0
 10
169.019
 20
83.0834
 30
0.0
 11
169.019
 21
88.8834
 31
0.0
  0
LINE
  8
0
 62
     0
 10
169.019
 20
88.8834
 30
0.0
 11
169.82
 21
88.8834
 31
0.0
  0
LINE
  8
0
 62
     0
 10
169.82
 20
88.8834
 30
0.0
 11
169.82
 21
91.9826
 31
0.0
  0
LINE
  8
0
 62
     0
 10
169.82
 20
91.9826
 30
0.0
 11
169.019
 21
91.9826
 31
0.0
  0
LINE
  8
0
 62
     0
 10
169.019
 20
91.9826
 30
0.0
 11
169.019
 21
92.9831
 31
0.0
  0
LINE
  8
0
 62
     0
 10
169.019
 20
92.9831
 30
0.0
 11
155.02
 21
92.9831
 31
0.0
  0
LINE
  8
0
 62
     0
 10
135.97
 20
92.9831
 30
0.0
 11
135.97
 21
91.9826
 31
0.0
  0
LINE
  8
0
 62
     0
 10
135.97
 20
91.9826
 30
0.0
 11
135.169
 21
91.9826
 31
0.0
  0
LINE
  8
0
 62
     0
 10
135.169
 20
91.9826
 30
0.0
 11
135.169
 21
88.8834
 31
0.0
  0
LINE
  8
0
 62
     0
 10
135.169
 20
88.8834
 30
0.0
 11
135.97
 21
88.8834
 31
0.0
  0
LINE
  8
0
 62
     0
 10
135.97
 20
88.8834
 30
0.0
 11
135.97
 21
83.0834
 31
0.0
  0
LINE
  8
0
 62
     0
 10
135.97
 20
83.0834
 30
0.0
 11
135.169
 21
83.0834
 31
0.0
  0
LINE
  8
0
 62
     0
 10
135.169
 20
83.0834
 30
0.0
 11
135.169
 21
79.9828
 31
0.0
  0
LINE
  8
0
 62
     0
 10
135.169
 20
79.9828
 30
0.0
 11
135.97
 21
79.9828
 31
0.0
  0
LINE
  8
0
 62
     0
 10
135.97
 20
79.9828
 30
0.0
 11
135.97
 21
78.9838
 31
0.0
  0
LINE
  8
0
 62
     0
 10
135.97
 20
78.9838
 30
0.0
 11
149.969
 21
78.9838
 31
0.0
  0
LINE
  8
0
 62
     0
 10
149.969
 20
78.9838
 30
0.0
 11
149.969
 21
79.9828
 31
0.0
  0
LINE
  8
0
 62
     0
 10
149.969
 20
79.9828
 30
0.0
 11
150.77
 21
79.9828
 31
0.0
  0
LINE
  8
0
 62
     0
 10
150.77
 20
79.9828
 30
0.0
 11
150.77
 21
83.0834
 31
0.0
  0
LINE
  8
0
 62
     0
 10
150.77
 20
83.0834
 30
0.0
 11
149.969
 21
83.0834
 31
0.0
  0
LINE
  8
0
 62
     0
 10
149.969
 20
83.0834
 30
0.0
 11
149.969
 21
88.8834
 31
0.0
  0
LINE
  8
0
 62
     0
 10
149.969
 20
88.8834
 30
0.0
 11
150.77
 21
88.8834
 31
0.0
  0
LINE
  8
0
 62
     0
 10
150.77
 20
88.8834
 30
0.0
 11
150.77
 21
91.9826
 31
0.0
  0
LINE
  8
0
 62
     0
 10
150.77
 20
91.9826
 30
0.0
 11
149.969
 21
91.9826
 31
0.0
  0
LINE
  8
0
 62
     0
 10
149.969
 20
91.9826
 30
0.0
 11
149.969
 21
92.9831
 31
0.0
  0
LINE
  8
0
 62
     0
 10
149.969
 20
92.9831
 30
0.0
 11
135.97
 21
92.9831
 31
0.0
  0
LINE
  8
0
 62
     0
 10
116.918
 20
92.9831
 30
0.0
 11
116.918
 21
91.9826
 31
0.0
  0
LINE
  8
0
 62
     0
 10
116.918
 20
91.9826
 30
0.0
 11
116.119
 21
91.9826
 31
0.0
  0
LINE
  8
0
 62
     0
 10
116.119
 20
91.9826
 30
0.0
 11
116.119
 21
88.8834
 31
0.0
  0
LINE
  8
0
 62
     0
 10
116.119
 20
88.8834
 30
0.0
 11
116.918
 21
88.8834
 31
0.0
  0
LINE
  8
0
 62
     0
 10
116.918
 20
88.8834
 30
0.0
 11
116.918
 21
83.0834
 31
0.0
  0
LINE
  8
0
 62
     0
 10
116.918
 20
83.0834
 30
0.0
 11
116.119
 21
83.0834
 31
0.0
  0
LINE
  8
0
 62
     0
 10
116.119
 20
83.0834
 30
0.0
 11
116.119
 21
79.9828
 31
0.0
  0
LINE
  8
0
 62
     0
 10
116.119
 20
79.9828
 30
0.0
 11
116.918
 21
79.9828
 31
0.0
  0
LINE
  8
0
 62
     0
 10
116.918
 20
79.9828
 30
0.0
 11
116.918
 21
78.9838
 31
0.0
  0
LINE
  8
0
 62
     0
 10
116.918
 20
78.9838
 30
0.0
 11
130.919
 21
78.9838
 31
0.0
  0
LINE
  8
0
 62
     0
 10
130.919
 20
78.9838
 30
0.0
 11
130.919
 21
79.9828
 31
0.0
  0
LINE
  8
0
 62
     0
 10
130.919
 20
79.9828
 30
0.0
 11
131.72
 21
79.9828
 31
0.0
  0
LINE
  8
0
 62
     0
 10
131.72
 20
79.9828
 30
0.0
 11
131.72
 21
83.0834
 31
0.0
  0
LINE
  8
0
 62
     0
 10
131.72
 20
83.0834
 30
0.0
 11
130.919
 21
83.0834
 31
0.0
  0
LINE
  8
0
 62
     0
 10
130.919
 20
83.0834
 30
0.0
 11
130.919
 21
88.8834
 31
0.0
  0
LINE
  8
0
 62
     0
 10
130.919
 20
88.8834
 30
0.0
 11
131.72
 21
88.8834
 31
0.0
  0
LINE
  8
0
 62
     0
 10
131.72
 20
88.8834
 30
0.0
 11
131.72
 21
91.9826
 31
0.0
  0
LINE
  8
0
 62
     0
 10
131.72
 20
91.9826
 30
0.0
 11
130.919
 21
91.9826
 31
0.0
  0
LINE
  8
0
 62
     0
 10
130.919
 20
91.9826
 30
0.0
 11
130.919
 21
92.9831
 31
0.0
  0
LINE
  8
0
 62
     0
 10
130.919
 20
92.9831
 30
0.0
 11
116.918
 21
92.9831
 31
0.0
  0
LINE
  8
0
 62
     0
 10
97.8683
 20
92.9831
 30
0.0
 11
97.8683
 21
91.9826
 31
0.0
  0
LINE
  8
0
 62
     0
 10
97.8683
 20
91.9826
 30
0.0
 11
97.0689
 21
91.9826
 31
0.0
  0
LINE
  8
0
 62
     0
 10
97.0689
 20
91.9826
 30
0.0
 11
97.0689
 21
88.8834
 31
0.0
  0
LINE
  8
0
 62
     0
 10
97.0689
 20
88.8834
 30
0.0
 11
97.8683
 21
88.8834
 31
0.0
  0
LINE
  8
0
 62
     0
 10
97.8683
 20
88.8834
 30
0.0
 11
97.8683
 21
83.0834
 31
0.0
  0
LINE
  8
0
 62
     0
 10
97.8683
 20
83.0834
 30
0.0
 11
97.0689
 21
83.0834
 31
0.0
  0
LINE
  8
0
 62
     0
 10
97.0689
 20
83.0834
 30
0.0
 11
97.0689
 21
79.9828
 31
0.0
  0
LINE
  8
0
 62
     0
 10
97.0689
 20
79.9828
 30
0.0
 11
97.8683
 21
79.9828
 31
0.0
  0
LINE
  8
0
 62
     0
 10
97.8683
 20
79.9828
 30
0.0
 11
97.8683
 21
78.9838
 31
0.0
  0
LINE
  8
0
 62
     0
 10
97.8683
 20
78.9838
 30
0.0
 11
111.869
 21
78.9838
 31
0.0
  0
LINE
  8
0
 62
     0
 10
111.869
 20
78.9838
 30
0.0
 11
111.869
 21
79.9828
 31
0.0
  0
LINE
  8
0
 62
     0
 10
111.869
 20
79.9828
 30
0.0
 11
112.668
 21
79.9828
 31
0.0
  0
LINE
  8
0
 62
     0
 10
112.668
 20
79.9828
 30
0.0
 11
112.668
 21
83.0834
 31
0.0
  0
LINE
  8
0
 62
     0
 10
112.668
 20
83.0834
 30
0.0
 11
111.869
 21
83.0834
 31
0.0
  0
LINE
  8
0
 62
     0
 10
111.869
 20
83.0834
 30
0.0
 11
111.869
 21
88.8834
 31
0.0
  0
LINE
  8
0
 62
     0
 10
111.869
 20
88.8834
 30
0.0
 11
112.668
 21
88.8834
 31
0.0
  0
LINE
  8
0
 62
     0
 10
112.668
 20
88.8834
 30
0.0
 11
112.668
 21
91.9826
 31
0.0
  0
LINE
  8
0
 62
     0
 10
112.668
 20
91.9826
 30
0.0
 11
111.869
 21
91.9826
 31
0.0
  0
LINE
  8
0
 62
     0
 10
111.869
 20
91.9826
 30
0.0
 11
111.869
 21
92.9831
 31
0.0
  0
LINE
  8
0
 62
     0
 10
111.869
 20
92.9831
 30
0.0
 11
97.8683
 21
92.9831
 31
0.0
  0
LINE
  8
0
 62
     0
 10
78.8197
 20
92.9831
 30
0.0
 11
78.8197
 21
91.9826
 31
0.0
  0
LINE
  8
0
 62
     0
 10
78.8197
 20
91.9826
 30
0.0
 11
78.0189
 21
91.9826
 31
0.0
  0
LINE
  8
0
 62
     0
 10
78.0189
 20
91.9826
 30
0.0
 11
78.0189
 21
88.8834
 31
0.0
  0
LINE
  8
0
 62
     0
 10
78.0189
 20
88.8834
 30
0.0
 11
78.8197
 21
88.8834
 31
0.0
  0
LINE
  8
0
 62
     0
 10
78.8197
 20
88.8834
 30
0.0
 11
78.8197
 21
83.0834
 31
0.0
  0
LINE
  8
0
 62
     0
 10
78.8197
 20
83.0834
 30
0.0
 11
78.0189
 21
83.0834
 31
0.0
  0
LINE
  8
0
 62
     0
 10
78.0189
 20
83.0834
 30
0.0
 11
78.0189
 21
79.9828
 31
0.0
  0
LINE
  8
0
 62
     0
 10
78.0189
 20
79.9828
 30
0.0
 11
78.8197
 21
79.9828
 31
0.0
  0
LINE
  8
0
 62
     0
 10
78.8197
 20
79.9828
 30
0.0
 11
78.8197
 21
78.9838
 31
0.0
  0
LINE
  8
0
 62
     0
 10
78.8197
 20
78.9838
 30
0.0
 11
92.819
 21
78.9838
 31
0.0
  0
LINE
  8
0
 62
     0
 10
92.819
 20
78.9838
 30
0.0
 11
92.819
 21
79.9828
 31
0.0
  0
LINE
  8
0
 62
     0
 10
92.819
 20
79.9828
 30
0.0
 11
93.6184
 21
79.9828
 31
0.0
  0
LINE
  8
0
 62
     0
 10
93.6184
 20
79.9828
 30
0.0
 11
93.6184
 21
83.0834
 31
0.0
  0
LINE
  8
0
 62
     0
 10
93.6184
 20
83.0834
 30
0.0
 11
92.819
 21
83.0834
 31
0.0
  0
LINE
  8
0
 62
     0
 10
92.819
 20
83.0834
 30
0.0
 11
92.819
 21
88.8834
 31
0.0
  0
LINE
  8
0
 62
     0
 10
92.819
 20
88.8834
 30
0.0
 11
93.6184
 21
88.8834
 31
0.0
  0
LINE
  8
0
 62
     0
 10
93.6184
 20
88.8834
 30
0.0
 11
93.6184
 21
91.9826
 31
0.0
  0
LINE
  8
0
 62
     0
 10
93.6184
 20
91.9826
 30
0.0
 11
92.819
 21
91.9826
 31
0.0
  0
LINE
  8
0
 62
     0
 10
92.819
 20
91.9826
 30
0.0
 11
92.819
 21
92.9831
 31
0.0
  0
LINE
  8
0
 62
     0
 10
92.819
 20
92.9831
 30
0.0
 11
78.8197
 21
92.9831
 31
0.0
  0
LINE
  8
0
 62
     0
 10
59.7697
 20
92.9831
 30
0.0
 11
59.7697
 21
91.9826
 31
0.0
  0
LINE
  8
0
 62
     0
 10
59.7697
 20
91.9826
 30
0.0
 11
58.9689
 21
91.9826
 31
0.0
  0
LINE
  8
0
 62
     0
 10
58.9689
 20
91.9826
 30
0.0
 11
58.9689
 21
88.8834
 31
0.0
  0
LINE
  8
0
 62
     0
 10
58.9689
 20
88.8834
 30
0.0
 11
59.7697
 21
88.8834
 31
0.0
  0
LINE
  8
0
 62
     0
 10
59.7697
 20
88.8834
 30
0.0
 11
59.7697
 21
83.0834
 31
0.0
  0
LINE
  8
0
 62
     0
 10
59.7697
 20
83.0834
 30
0.0
 11
58.9689
 21
83.0834
 31
0.0
  0
LINE
  8
0
 62
     0
 10
58.9689
 20
83.0834
 30
0.0
 11
58.9689
 21
79.9828
 31
0.0
  0
LINE
  8
0
 62
     0
 10
58.9689
 20
79.9828
 30
0.0
 11
59.7697
 21
79.9828
 31
0.0
  0
LINE
  8
0
 62
     0
 10
59.7697
 20
79.9828
 30
0.0
 11
59.7697
 21
78.9838
 31
0.0
  0
LINE
  8
0
 62
     0
 10
59.7697
 20
78.9838
 30
0.0
 11
73.769
 21
78.9838
 31
0.0
  0
LINE
  8
0
 62
     0
 10
73.769
 20
78.9838
 30
0.0
 11
73.769
 21
79.9828
 31
0.0
  0
LINE
  8
0
 62
     0
 10
73.769
 20
79.9828
 30
0.0
 11
74.5698
 21
79.9828
 31
0.0
  0
LINE
  8
0
 62
     0
 10
74.5698
 20
79.9828
 30
0.0
 11
74.5698
 21
83.0834
 31
0.0
  0
LINE
  8
0
 62
     0
 10
74.5698
 20
83.0834
 30
0.0
 11
73.769
 21
83.0834
 31
0.0
  0
LINE
  8
0
 62
     0
 10
73.769
 20
83.0834
 30
0.0
 11
73.769
 21
88.8834
 31
0.0
  0
LINE
  8
0
 62
     0
 10
73.769
 20
88.8834
 30
0.0
 11
74.5698
 21
88.8834
 31
0.0
  0
LINE
  8
0
 62
     0
 10
74.5698
 20
88.8834
 30
0.0
 11
74.5698
 21
91.9826
 31
0.0
  0
LINE
  8
0
 62
     0
 10
74.5698
 20
91.9826
 30
0.0
 11
73.769
 21
91.9826
 31
0.0
  0
LINE
  8
0
 62
     0
 10
73.769
 20
91.9826
 30
0.0
 11
73.769
 21
92.9831
 31
0.0
  0
LINE
  8
0
 62
     0
 10
73.769
 20
92.9831
 30
0.0
 11
59.7697
 21
92.9831
 31
0.0
  0
LINE
  8
0
 62
     0
 10
40.7197
 20
92.9831
 30
0.0
 11
40.7197
 21
91.9826
 31
0.0
  0
LINE
  8
0
 62
     0
 10
40.7197
 20
91.9826
 30
0.0
 11
39.9189
 21
91.9826
 31
0.0
  0
LINE
  8
0
 62
     0
 10
39.9189
 20
91.9826
 30
0.0
 11
39.9189
 21
88.8834
 31
0.0
  0
LINE
  8
0
 62
     0
 10
39.9189
 20
88.8834
 30
0.0
 11
40.7197
 21
88.8834
 31
0.0
  0
LINE
  8
0
 62
     0
 10
40.7197
 20
88.8834
 30
0.0
 11
40.7197
 21
83.0834
 31
0.0
  0
LINE
  8
0
 62
     0
 10
40.7197
 20
83.0834
 30
0.0
 11
39.9189
 21
83.0834
 31
0.0
  0
LINE
  8
0
 62
     0
 10
39.9189
 20
83.0834
 30
0.0
 11
39.9189
 21
79.9828
 31
0.0
  0
LINE
  8
0
 62
     0
 10
39.9189
 20
79.9828
 30
0.0
 11
40.7197
 21
79.9828
 31
0.0
  0
LINE
  8
0
 62
     0
 10
40.7197
 20
79.9828
 30
0.0
 11
40.7197
 21
78.9838
 31
0.0
  0
LINE
  8
0
 62
     0
 10
40.7197
 20
78.9838
 30
0.0
 11
54.719
 21
78.9838
 31
0.0
  0
LINE
  8
0
 62
     0
 10
54.719
 20
78.9838
 30
0.0
 11
54.719
 21
79.9828
 31
0.0
  0
LINE
  8
0
 62
     0
 10
54.719
 20
79.9828
 30
0.0
 11
55.5198
 21
79.9828
 31
0.0
  0
LINE
  8
0
 62
     0
 10
55.5198
 20
79.9828
 30
0.0
 11
55.5198
 21
83.0834
 31
0.0
  0
LINE
  8
0
 62
     0
 10
55.5198
 20
83.0834
 30
0.0
 11
54.719
 21
83.0834
 31
0.0
  0
LINE
  8
0
 62
     0
 10
54.719
 20
83.0834
 30
0.0
 11
54.719
 21
88.8834
 31
0.0
  0
LINE
  8
0
 62
     0
 10
54.719
 20
88.8834
 30
0.0
 11
55.5198
 21
88.8834
 31
0.0
  0
LINE
  8
0
 62
     0
 10
55.5198
 20
88.8834
 30
0.0
 11
55.5198
 21
91.9826
 31
0.0
  0
LINE
  8
0
 62
     0
 10
55.5198
 20
91.9826
 30
0.0
 11
54.719
 21
91.9826
 31
0.0
  0
LINE
  8
0
 62
     0
 10
54.719
 20
91.9826
 30
0.0
 11
54.719
 21
92.9831
 31
0.0
  0
LINE
  8
0
 62
     0
 10
54.719
 20
92.9831
 30
0.0
 11
40.7197
 21
92.9831
 31
0.0
  0
LINE
  8
0
 62
     0
 10
21.6697
 20
92.9831
 30
0.0
 11
21.6697
 21
91.9826
 31
0.0
  0
LINE
  8
0
 62
     0
 10
21.6697
 20
91.9826
 30
0.0
 11
20.869
 21
91.9826
 31
0.0
  0
LINE
  8
0
 62
     0
 10
20.869
 20
91.9826
 30
0.0
 11
20.869
 21
88.8834
 31
0.0
  0
LINE
  8
0
 62
     0
 10
20.869
 20
88.8834
 30
0.0
 11
21.6697
 21
88.8834
 31
0.0
  0
LINE
  8
0
 62
     0
 10
21.6697
 20
88.8834
 30
0.0
 11
21.6697
 21
83.0834
 31
0.0
  0
LINE
  8
0
 62
     0
 10
21.6697
 20
83.0834
 30
0.0
 11
20.869
 21
83.0834
 31
0.0
  0
LINE
  8
0
 62
     0
 10
20.869
 20
83.0834
 30
0.0
 11
20.869
 21
79.9828
 31
0.0
  0
LINE
  8
0
 62
     0
 10
20.869
 20
79.9828
 30
0.0
 11
21.6697
 21
79.9828
 31
0.0
  0
LINE
  8
0
 62
     0
 10
21.6697
 20
79.9828
 30
0.0
 11
21.6697
 21
78.9838
 31
0.0
  0
LINE
  8
0
 62
     0
 10
21.6697
 20
78.9838
 30
0.0
 11
35.669
 21
78.9838
 31
0.0
  0
LINE
  8
0
 62
     0
 10
35.669
 20
78.9838
 30
0.0
 11
35.669
 21
79.9828
 31
0.0
  0
LINE
  8
0
 62
     0
 10
35.669
 20
79.9828
 30
0.0
 11
36.4698
 21
79.9828
 31
0.0
  0
LINE
  8
0
 62
     0
 10
36.4698
 20
79.9828
 30
0.0
 11
36.4698
 21
83.0834
 31
0.0
  0
LINE
  8
0
 62
     0
 10
36.4698
 20
83.0834
 30
0.0
 11
35.669
 21
83.0834
 31
0.0
  0
LINE
  8
0
 62
     0
 10
35.669
 20
83.0834
 30
0.0
 11
35.669
 21
88.8834
 31
0.0
  0
LINE
  8
0
 62
     0
 10
35.669
 20
88.8834
 30
0.0
 11
36.4698
 21
88.8834
 31
0.0
  0
LINE
  8
0
 62
     0
 10
36.4698
 20
88.8834
 30
0.0
 11
36.4698
 21
91.9826
 31
0.0
  0
LINE
  8
0
 62
     0
 10
36.4698
 20
91.9826
 30
0.0
 11
35.669
 21
91.9826
 31
0.0
  0
LINE
  8
0
 62
     0
 10
35.669
 20
91.9826
 30
0.0
 11
35.669
 21
92.9831
 31
0.0
  0
LINE
  8
0
 62
     0
 10
35.669
 20
92.9831
 30
0.0
 11
21.6697
 21
92.9831
 31
0.0
  0
LINE
  8
0
 62
     0
 10
2.61965
 20
92.9831
 30
0.0
 11
2.61965
 21
91.9826
 31
0.0
  0
LINE
  8
0
 62
     0
 10
2.61965
 20
91.9826
 30
0.0
 11
1.81901
 21
91.9826
 31
0.0
  0
LINE
  8
0
 62
     0
 10
1.81901
 20
91.9826
 30
0.0
 11
1.81901
 21
88.8834
 31
0.0
  0
LINE
  8
0
 62
     0
 10
1.81901
 20
88.8834
 30
0.0
 11
2.61965
 21
88.8834
 31
0.0
  0
LINE
  8
0
 62
     0
 10
2.61965
 20
88.8834
 30
0.0
 11
2.61965
 21
83.0834
 31
0.0
  0
LINE
  8
0
 62
     0
 10
2.61965
 20
83.0834
 30
0.0
 11
1.81901
 21
83.0834
 31
0.0
  0
LINE
  8
0
 62
     0
 10
1.81901
 20
83.0834
 30
0.0
 11
1.81901
 21
79.9828
 31
0.0
  0
LINE
  8
0
 62
     0
 10
1.81901
 20
79.9828
 30
0.0
 11
2.61965
 21
79.9828
 31
0.0
  0
LINE
  8
0
 62
     0
 10
2.61965
 20
79.9828
 30
0.0
 11
2.61965
 21
78.9838
 31
0.0
  0
LINE
  8
0
 62
     0
 10
2.61965
 20
78.9838
 30
0.0
 11
16.6192
 21
78.9838
 31
0.0
  0
LINE
  8
0
 62
     0
 10
16.6192
 20
78.9838
 30
0.0
 11
16.6192
 21
79.9828
 31
0.0
  0
LINE
  8
0
 62
     0
 10
16.6192
 20
79.9828
 30
0.0
 11
17.4198
 21
79.9828
 31
0.0
  0
LINE
  8
0
 62
     0
 10
17.4198
 20
79.9828
 30
0.0
 11
17.4198
 21
83.0834
 31
0.0
  0
LINE
  8
0
 62
     0
 10
17.4198
 20
83.0834
 30
0.0
 11
16.6192
 21
83.0834
 31
0.0
  0
LINE
  8
0
 62
     0
 10
16.6192
 20
83.0834
 30
0.0
 11
16.6192
 21
88.8834
 31
0.0
  0
LINE
  8
0
 62
     0
 10
16.6192
 20
88.8834
 30
0.0
 11
17.4198
 21
88.8834
 31
0.0
  0
LINE
  8
0
 62
     0
 10
17.4198
 20
88.8834
 30
0.0
 11
17.4198
 21
91.9826
 31
0.0
  0
LINE
  8
0
 62
     0
 10
17.4198
 20
91.9826
 30
0.0
 11
16.6192
 21
91.9826
 31
0.0
  0
LINE
  8
0
 62
     0
 10
16.6192
 20
91.9826
 30
0.0
 11
16.6192
 21
92.9831
 31
0.0
  0
LINE
  8
0
 62
     0
 10
16.6192
 20
92.9831
 30
0.0
 11
2.61965
 21
92.9831
 31
0.0
  0
LINE
  8
0
 62
     0
 10
269.32
 20
121.558
 30
0.0
 11
269.32
 21
120.558
 31
0.0
  0
LINE
  8
0
 62
     0
 10
269.32
 20
120.558
 30
0.0
 11
268.519
 21
120.558
 31
0.0
  0
LINE
  8
0
 62
     0
 10
268.519
 20
120.558
 30
0.0
 11
268.519
 21
117.458
 31
0.0
  0
LINE
  8
0
 62
     0
 10
268.519
 20
117.458
 30
0.0
 11
269.32
 21
117.458
 31
0.0
  0
LINE
  8
0
 62
     0
 10
269.32
 20
117.458
 30
0.0
 11
269.32
 21
111.658
 31
0.0
  0
LINE
  8
0
 62
     0
 10
269.32
 20
111.658
 30
0.0
 11
268.519
 21
111.658
 31
0.0
  0
LINE
  8
0
 62
     0
 10
268.519
 20
111.658
 30
0.0
 11
268.519
 21
108.558
 31
0.0
  0
LINE
  8
0
 62
     0
 10
268.519
 20
108.558
 30
0.0
 11
269.32
 21
108.558
 31
0.0
  0
LINE
  8
0
 62
     0
 10
269.32
 20
108.558
 30
0.0
 11
269.32
 21
107.559
 31
0.0
  0
LINE
  8
0
 62
     0
 10
269.32
 20
107.559
 30
0.0
 11
283.319
 21
107.559
 31
0.0
  0
LINE
  8
0
 62
     0
 10
283.319
 20
107.559
 30
0.0
 11
283.319
 21
108.558
 31
0.0
  0
LINE
  8
0
 62
     0
 10
283.319
 20
108.558
 30
0.0
 11
284.12
 21
108.558
 31
0.0
  0
LINE
  8
0
 62
     0
 10
284.12
 20
108.558
 30
0.0
 11
284.12
 21
111.658
 31
0.0
  0
LINE
  8
0
 62
     0
 10
284.12
 20
111.658
 30
0.0
 11
283.319
 21
111.658
 31
0.0
  0
LINE
  8
0
 62
     0
 10
283.319
 20
111.658
 30
0.0
 11
283.319
 21
117.458
 31
0.0
  0
LINE
  8
0
 62
     0
 10
283.319
 20
117.458
 30
0.0
 11
284.12
 21
117.458
 31
0.0
  0
LINE
  8
0
 62
     0
 10
284.12
 20
117.458
 30
0.0
 11
284.12
 21
120.558
 31
0.0
  0
LINE
  8
0
 62
     0
 10
284.12
 20
120.558
 30
0.0
 11
283.319
 21
120.558
 31
0.0
  0
LINE
  8
0
 62
     0
 10
283.319
 20
120.558
 30
0.0
 11
283.319
 21
121.558
 31
0.0
  0
LINE
  8
0
 62
     0
 10
283.319
 20
121.558
 30
0.0
 11
269.32
 21
121.558
 31
0.0
  0
LINE
  8
0
 62
     0
 10
250.27
 20
121.558
 30
0.0
 11
250.27
 21
120.558
 31
0.0
  0
LINE
  8
0
 62
     0
 10
250.27
 20
120.558
 30
0.0
 11
249.469
 21
120.558
 31
0.0
  0
LINE
  8
0
 62
     0
 10
249.469
 20
120.558
 30
0.0
 11
249.469
 21
117.458
 31
0.0
  0
LINE
  8
0
 62
     0
 10
249.469
 20
117.458
 30
0.0
 11
250.27
 21
117.458
 31
0.0
  0
LINE
  8
0
 62
     0
 10
250.27
 20
117.458
 30
0.0
 11
250.27
 21
111.658
 31
0.0
  0
LINE
  8
0
 62
     0
 10
250.27
 20
111.658
 30
0.0
 11
249.469
 21
111.658
 31
0.0
  0
LINE
  8
0
 62
     0
 10
249.469
 20
111.658
 30
0.0
 11
249.469
 21
108.558
 31
0.0
  0
LINE
  8
0
 62
     0
 10
249.469
 20
108.558
 30
0.0
 11
250.27
 21
108.558
 31
0.0
  0
LINE
  8
0
 62
     0
 10
250.27
 20
108.558
 30
0.0
 11
250.27
 21
107.559
 31
0.0
  0
LINE
  8
0
 62
     0
 10
250.27
 20
107.559
 30
0.0
 11
264.269
 21
107.559
 31
0.0
  0
LINE
  8
0
 62
     0
 10
264.269
 20
107.559
 30
0.0
 11
264.269
 21
108.558
 31
0.0
  0
LINE
  8
0
 62
     0
 10
264.269
 20
108.558
 30
0.0
 11
265.07
 21
108.558
 31
0.0
  0
LINE
  8
0
 62
     0
 10
265.07
 20
108.558
 30
0.0
 11
265.07
 21
111.658
 31
0.0
  0
LINE
  8
0
 62
     0
 10
265.07
 20
111.658
 30
0.0
 11
264.269
 21
111.658
 31
0.0
  0
LINE
  8
0
 62
     0
 10
264.269
 20
111.658
 30
0.0
 11
264.269
 21
117.458
 31
0.0
  0
LINE
  8
0
 62
     0
 10
264.269
 20
117.458
 30
0.0
 11
265.07
 21
117.458
 31
0.0
  0
LINE
  8
0
 62
     0
 10
265.07
 20
117.458
 30
0.0
 11
265.07
 21
120.558
 31
0.0
  0
LINE
  8
0
 62
     0
 10
265.07
 20
120.558
 30
0.0
 11
264.269
 21
120.558
 31
0.0
  0
LINE
  8
0
 62
     0
 10
264.269
 20
120.558
 30
0.0
 11
264.269
 21
121.558
 31
0.0
  0
LINE
  8
0
 62
     0
 10
264.269
 20
121.558
 30
0.0
 11
250.27
 21
121.558
 31
0.0
  0
LINE
  8
0
 62
     0
 10
231.22
 20
121.558
 30
0.0
 11
231.22
 21
120.558
 31
0.0
  0
LINE
  8
0
 62
     0
 10
231.22
 20
120.558
 30
0.0
 11
230.419
 21
120.558
 31
0.0
  0
LINE
  8
0
 62
     0
 10
230.419
 20
120.558
 30
0.0
 11
230.419
 21
117.458
 31
0.0
  0
LINE
  8
0
 62
     0
 10
230.419
 20
117.458
 30
0.0
 11
231.22
 21
117.458
 31
0.0
  0
LINE
  8
0
 62
     0
 10
231.22
 20
117.458
 30
0.0
 11
231.22
 21
111.658
 31
0.0
  0
LINE
  8
0
 62
     0
 10
231.22
 20
111.658
 30
0.0
 11
230.419
 21
111.658
 31
0.0
  0
LINE
  8
0
 62
     0
 10
230.419
 20
111.658
 30
0.0
 11
230.419
 21
108.558
 31
0.0
  0
LINE
  8
0
 62
     0
 10
230.419
 20
108.558
 30
0.0
 11
231.22
 21
108.558
 31
0.0
  0
LINE
  8
0
 62
     0
 10
231.22
 20
108.558
 30
0.0
 11
231.22
 21
107.559
 31
0.0
  0
LINE
  8
0
 62
     0
 10
231.22
 20
107.559
 30
0.0
 11
245.219
 21
107.559
 31
0.0
  0
LINE
  8
0
 62
     0
 10
245.219
 20
107.559
 30
0.0
 11
245.219
 21
108.558
 31
0.0
  0
LINE
  8
0
 62
     0
 10
245.219
 20
108.558
 30
0.0
 11
246.02
 21
108.558
 31
0.0
  0
LINE
  8
0
 62
     0
 10
246.02
 20
108.558
 30
0.0
 11
246.02
 21
111.658
 31
0.0
  0
LINE
  8
0
 62
     0
 10
246.02
 20
111.658
 30
0.0
 11
245.219
 21
111.658
 31
0.0
  0
LINE
  8
0
 62
     0
 10
245.219
 20
111.658
 30
0.0
 11
245.219
 21
117.458
 31
0.0
  0
LINE
  8
0
 62
     0
 10
245.219
 20
117.458
 30
0.0
 11
246.02
 21
117.458
 31
0.0
  0
LINE
  8
0
 62
     0
 10
246.02
 20
117.458
 30
0.0
 11
246.02
 21
120.558
 31
0.0
  0
LINE
  8
0
 62
     0
 10
246.02
 20
120.558
 30
0.0
 11
245.219
 21
120.558
 31
0.0
  0
LINE
  8
0
 62
     0
 10
245.219
 20
120.558
 30
0.0
 11
245.219
 21
121.558
 31
0.0
  0
LINE
  8
0
 62
     0
 10
245.219
 20
121.558
 30
0.0
 11
231.22
 21
121.558
 31
0.0
  0
LINE
  8
0
 62
     0
 10
212.17
 20
121.558
 30
0.0
 11
212.17
 21
120.558
 31
0.0
  0
LINE
  8
0
 62
     0
 10
212.17
 20
120.558
 30
0.0
 11
211.369
 21
120.558
 31
0.0
  0
LINE
  8
0
 62
     0
 10
211.369
 20
120.558
 30
0.0
 11
211.369
 21
117.458
 31
0.0
  0
LINE
  8
0
 62
     0
 10
211.369
 20
117.458
 30
0.0
 11
212.17
 21
117.458
 31
0.0
  0
LINE
  8
0
 62
     0
 10
212.17
 20
117.458
 30
0.0
 11
212.17
 21
111.658
 31
0.0
  0
LINE
  8
0
 62
     0
 10
212.17
 20
111.658
 30
0.0
 11
211.369
 21
111.658
 31
0.0
  0
LINE
  8
0
 62
     0
 10
211.369
 20
111.658
 30
0.0
 11
211.369
 21
108.558
 31
0.0
  0
LINE
  8
0
 62
     0
 10
211.369
 20
108.558
 30
0.0
 11
212.17
 21
108.558
 31
0.0
  0
LINE
  8
0
 62
     0
 10
212.17
 20
108.558
 30
0.0
 11
212.17
 21
107.559
 31
0.0
  0
LINE
  8
0
 62
     0
 10
212.17
 20
107.559
 30
0.0
 11
226.169
 21
107.559
 31
0.0
  0
LINE
  8
0
 62
     0
 10
226.169
 20
107.559
 30
0.0
 11
226.169
 21
108.558
 31
0.0
  0
LINE
  8
0
 62
     0
 10
226.169
 20
108.558
 30
0.0
 11
226.97
 21
108.558
 31
0.0
  0
LINE
  8
0
 62
     0
 10
226.97
 20
108.558
 30
0.0
 11
226.97
 21
111.658
 31
0.0
  0
LINE
  8
0
 62
     0
 10
226.97
 20
111.658
 30
0.0
 11
226.169
 21
111.658
 31
0.0
  0
LINE
  8
0
 62
     0
 10
226.169
 20
111.658
 30
0.0
 11
226.169
 21
117.458
 31
0.0
  0
LINE
  8
0
 62
     0
 10
226.169
 20
117.458
 30
0.0
 11
226.97
 21
117.458
 31
0.0
  0
LINE
  8
0
 62
     0
 10
226.97
 20
117.458
 30
0.0
 11
226.97
 21
120.558
 31
0.0
  0
LINE
  8
0
 62
     0
 10
226.97
 20
120.558
 30
0.0
 11
226.169
 21
120.558
 31
0.0
  0
LINE
  8
0
 62
     0
 10
226.169
 20
120.558
 30
0.0
 11
226.169
 21
121.558
 31
0.0
  0
LINE
  8
0
 62
     0
 10
226.169
 20
121.558
 30
0.0
 11
212.17
 21
121.558
 31
0.0
  0
LINE
  8
0
 62
     0
 10
183.595
 20
121.558
 30
0.0
 11
183.595
 21
120.558
 31
0.0
  0
LINE
  8
0
 62
     0
 10
183.595
 20
120.558
 30
0.0
 11
182.794
 21
120.558
 31
0.0
  0
LINE
  8
0
 62
     0
 10
182.794
 20
120.558
 30
0.0
 11
182.794
 21
117.458
 31
0.0
  0
LINE
  8
0
 62
     0
 10
182.794
 20
117.458
 30
0.0
 11
183.595
 21
117.458
 31
0.0
  0
LINE
  8
0
 62
     0
 10
183.595
 20
117.458
 30
0.0
 11
183.595
 21
111.658
 31
0.0
  0
LINE
  8
0
 62
     0
 10
183.595
 20
111.658
 30
0.0
 11
182.794
 21
111.658
 31
0.0
  0
LINE
  8
0
 62
     0
 10
182.794
 20
111.658
 30
0.0
 11
182.794
 21
108.558
 31
0.0
  0
LINE
  8
0
 62
     0
 10
182.794
 20
108.558
 30
0.0
 11
183.595
 21
108.558
 31
0.0
  0
LINE
  8
0
 62
     0
 10
183.595
 20
108.558
 30
0.0
 11
183.595
 21
107.559
 31
0.0
  0
LINE
  8
0
 62
     0
 10
183.595
 20
107.559
 30
0.0
 11
197.594
 21
107.559
 31
0.0
  0
LINE
  8
0
 62
     0
 10
197.594
 20
107.559
 30
0.0
 11
197.594
 21
108.558
 31
0.0
  0
LINE
  8
0
 62
     0
 10
197.594
 20
108.558
 30
0.0
 11
198.395
 21
108.558
 31
0.0
  0
LINE
  8
0
 62
     0
 10
198.395
 20
108.558
 30
0.0
 11
198.395
 21
111.658
 31
0.0
  0
LINE
  8
0
 62
     0
 10
198.395
 20
111.658
 30
0.0
 11
197.594
 21
111.658
 31
0.0
  0
LINE
  8
0
 62
     0
 10
197.594
 20
111.658
 30
0.0
 11
197.594
 21
117.458
 31
0.0
  0
LINE
  8
0
 62
     0
 10
197.594
 20
117.458
 30
0.0
 11
198.395
 21
117.458
 31
0.0
  0
LINE
  8
0
 62
     0
 10
198.395
 20
117.458
 30
0.0
 11
198.395
 21
120.558
 31
0.0
  0
LINE
  8
0
 62
     0
 10
198.395
 20
120.558
 30
0.0
 11
197.594
 21
120.558
 31
0.0
  0
LINE
  8
0
 62
     0
 10
197.594
 20
120.558
 30
0.0
 11
197.594
 21
121.558
 31
0.0
  0
LINE
  8
0
 62
     0
 10
197.594
 20
121.558
 30
0.0
 11
183.595
 21
121.558
 31
0.0
  0
LINE
  8
0
 62
     0
 10
164.545
 20
121.558
 30
0.0
 11
164.545
 21
120.558
 31
0.0
  0
LINE
  8
0
 62
     0
 10
164.545
 20
120.558
 30
0.0
 11
163.744
 21
120.558
 31
0.0
  0
LINE
  8
0
 62
     0
 10
163.744
 20
120.558
 30
0.0
 11
163.744
 21
117.458
 31
0.0
  0
LINE
  8
0
 62
     0
 10
163.744
 20
117.458
 30
0.0
 11
164.545
 21
117.458
 31
0.0
  0
LINE
  8
0
 62
     0
 10
164.545
 20
117.458
 30
0.0
 11
164.545
 21
111.658
 31
0.0
  0
LINE
  8
0
 62
     0
 10
164.545
 20
111.658
 30
0.0
 11
163.744
 21
111.658
 31
0.0
  0
LINE
  8
0
 62
     0
 10
163.744
 20
111.658
 30
0.0
 11
163.744
 21
108.558
 31
0.0
  0
LINE
  8
0
 62
     0
 10
163.744
 20
108.558
 30
0.0
 11
164.545
 21
108.558
 31
0.0
  0
LINE
  8
0
 62
     0
 10
164.545
 20
108.558
 30
0.0
 11
164.545
 21
107.559
 31
0.0
  0
LINE
  8
0
 62
     0
 10
164.545
 20
107.559
 30
0.0
 11
178.544
 21
107.559
 31
0.0
  0
LINE
  8
0
 62
     0
 10
178.544
 20
107.559
 30
0.0
 11
178.544
 21
108.558
 31
0.0
  0
LINE
  8
0
 62
     0
 10
178.544
 20
108.558
 30
0.0
 11
179.345
 21
108.558
 31
0.0
  0
LINE
  8
0
 62
     0
 10
179.345
 20
108.558
 30
0.0
 11
179.345
 21
111.658
 31
0.0
  0
LINE
  8
0
 62
     0
 10
179.345
 20
111.658
 30
0.0
 11
178.544
 21
111.658
 31
0.0
  0
LINE
  8
0
 62
     0
 10
178.544
 20
111.658
 30
0.0
 11
178.544
 21
117.458
 31
0.0
  0
LINE
  8
0
 62
     0
 10
178.544
 20
117.458
 30
0.0
 11
179.345
 21
117.458
 31
0.0
  0
LINE
  8
0
 62
     0
 10
179.345
 20
117.458
 30
0.0
 11
179.345
 21
120.558
 31
0.0
  0
LINE
  8
0
 62
     0
 10
179.345
 20
120.558
 30
0.0
 11
178.544
 21
120.558
 31
0.0
  0
LINE
  8
0
 62
     0
 10
178.544
 20
120.558
 30
0.0
 11
178.544
 21
121.558
 31
0.0
  0
LINE
  8
0
 62
     0
 10
178.544
 20
121.558
 30
0.0
 11
164.545
 21
121.558
 31
0.0
  0
LINE
  8
0
 62
     0
 10
145.495
 20
121.558
 30
0.0
 11
145.495
 21
120.558
 31
0.0
  0
LINE
  8
0
 62
     0
 10
145.495
 20
120.558
 30
0.0
 11
144.694
 21
120.558
 31
0.0
  0
LINE
  8
0
 62
     0
 10
144.694
 20
120.558
 30
0.0
 11
144.694
 21
117.458
 31
0.0
  0
LINE
  8
0
 62
     0
 10
144.694
 20
117.458
 30
0.0
 11
145.495
 21
117.458
 31
0.0
  0
LINE
  8
0
 62
     0
 10
145.495
 20
117.458
 30
0.0
 11
145.495
 21
111.658
 31
0.0
  0
LINE
  8
0
 62
     0
 10
145.495
 20
111.658
 30
0.0
 11
144.694
 21
111.658
 31
0.0
  0
LINE
  8
0
 62
     0
 10
144.694
 20
111.658
 30
0.0
 11
144.694
 21
108.558
 31
0.0
  0
LINE
  8
0
 62
     0
 10
144.694
 20
108.558
 30
0.0
 11
145.495
 21
108.558
 31
0.0
  0
LINE
  8
0
 62
     0
 10
145.495
 20
108.558
 30
0.0
 11
145.495
 21
107.559
 31
0.0
  0
LINE
  8
0
 62
     0
 10
145.495
 20
107.559
 30
0.0
 11
159.494
 21
107.559
 31
0.0
  0
LINE
  8
0
 62
     0
 10
159.494
 20
107.559
 30
0.0
 11
159.494
 21
108.558
 31
0.0
  0
LINE
  8
0
 62
     0
 10
159.494
 20
108.558
 30
0.0
 11
160.295
 21
108.558
 31
0.0
  0
LINE
  8
0
 62
     0
 10
160.295
 20
108.558
 30
0.0
 11
160.295
 21
111.658
 31
0.0
  0
LINE
  8
0
 62
     0
 10
160.295
 20
111.658
 30
0.0
 11
159.494
 21
111.658
 31
0.0
  0
LINE
  8
0
 62
     0
 10
159.494
 20
111.658
 30
0.0
 11
159.494
 21
117.458
 31
0.0
  0
LINE
  8
0
 62
     0
 10
159.494
 20
117.458
 30
0.0
 11
160.295
 21
117.458
 31
0.0
  0
LINE
  8
0
 62
     0
 10
160.295
 20
117.458
 30
0.0
 11
160.295
 21
120.558
 31
0.0
  0
LINE
  8
0
 62
     0
 10
160.295
 20
120.558
 30
0.0
 11
159.494
 21
120.558
 31
0.0
  0
LINE
  8
0
 62
     0
 10
159.494
 20
120.558
 30
0.0
 11
159.494
 21
121.558
 31
0.0
  0
LINE
  8
0
 62
     0
 10
159.494
 20
121.558
 30
0.0
 11
145.495
 21
121.558
 31
0.0
  0
LINE
  8
0
 62
     0
 10
126.445
 20
121.558
 30
0.0
 11
126.445
 21
120.558
 31
0.0
  0
LINE
  8
0
 62
     0
 10
126.445
 20
120.558
 30
0.0
 11
125.644
 21
120.558
 31
0.0
  0
LINE
  8
0
 62
     0
 10
125.644
 20
120.558
 30
0.0
 11
125.644
 21
117.458
 31
0.0
  0
LINE
  8
0
 62
     0
 10
125.644
 20
117.458
 30
0.0
 11
126.445
 21
117.458
 31
0.0
  0
LINE
  8
0
 62
     0
 10
126.445
 20
117.458
 30
0.0
 11
126.445
 21
111.658
 31
0.0
  0
LINE
  8
0
 62
     0
 10
126.445
 20
111.658
 30
0.0
 11
125.644
 21
111.658
 31
0.0
  0
LINE
  8
0
 62
     0
 10
125.644
 20
111.658
 30
0.0
 11
125.644
 21
108.558
 31
0.0
  0
LINE
  8
0
 62
     0
 10
125.644
 20
108.558
 30
0.0
 11
126.445
 21
108.558
 31
0.0
  0
LINE
  8
0
 62
     0
 10
126.445
 20
108.558
 30
0.0
 11
126.445
 21
107.559
 31
0.0
  0
LINE
  8
0
 62
     0
 10
126.445
 20
107.559
 30
0.0
 11
140.444
 21
107.559
 31
0.0
  0
LINE
  8
0
 62
     0
 10
140.444
 20
107.559
 30
0.0
 11
140.444
 21
108.558
 31
0.0
  0
LINE
  8
0
 62
     0
 10
140.444
 20
108.558
 30
0.0
 11
141.245
 21
108.558
 31
0.0
  0
LINE
  8
0
 62
     0
 10
141.245
 20
108.558
 30
0.0
 11
141.245
 21
111.658
 31
0.0
  0
LINE
  8
0
 62
     0
 10
141.245
 20
111.658
 30
0.0
 11
140.444
 21
111.658
 31
0.0
  0
LINE
  8
0
 62
     0
 10
140.444
 20
111.658
 30
0.0
 11
140.444
 21
117.458
 31
0.0
  0
LINE
  8
0
 62
     0
 10
140.444
 20
117.458
 30
0.0
 11
141.245
 21
117.458
 31
0.0
  0
LINE
  8
0
 62
     0
 10
141.245
 20
117.458
 30
0.0
 11
141.245
 21
120.558
 31
0.0
  0
LINE
  8
0
 62
     0
 10
141.245
 20
120.558
 30
0.0
 11
140.444
 21
120.558
 31
0.0
  0
LINE
  8
0
 62
     0
 10
140.444
 20
120.558
 30
0.0
 11
140.444
 21
121.558
 31
0.0
  0
LINE
  8
0
 62
     0
 10
140.444
 20
121.558
 30
0.0
 11
126.445
 21
121.558
 31
0.0
  0
LINE
  8
0
 62
     0
 10
97.8683
 20
121.558
 30
0.0
 11
97.8683
 21
120.558
 31
0.0
  0
LINE
  8
0
 62
     0
 10
97.8683
 20
120.558
 30
0.0
 11
97.0689
 21
120.558
 31
0.0
  0
LINE
  8
0
 62
     0
 10
97.0689
 20
120.558
 30
0.0
 11
97.0689
 21
117.458
 31
0.0
  0
LINE
  8
0
 62
     0
 10
97.0689
 20
117.458
 30
0.0
 11
97.8683
 21
117.458
 31
0.0
  0
LINE
  8
0
 62
     0
 10
97.8683
 20
117.458
 30
0.0
 11
97.8683
 21
111.658
 31
0.0
  0
LINE
  8
0
 62
     0
 10
97.8683
 20
111.658
 30
0.0
 11
97.0689
 21
111.658
 31
0.0
  0
LINE
  8
0
 62
     0
 10
97.0689
 20
111.658
 30
0.0
 11
97.0689
 21
108.558
 31
0.0
  0
LINE
  8
0
 62
     0
 10
97.0689
 20
108.558
 30
0.0
 11
97.8683
 21
108.558
 31
0.0
  0
LINE
  8
0
 62
     0
 10
97.8683
 20
108.558
 30
0.0
 11
97.8683
 21
107.559
 31
0.0
  0
LINE
  8
0
 62
     0
 10
97.8683
 20
107.559
 30
0.0
 11
111.869
 21
107.559
 31
0.0
  0
LINE
  8
0
 62
     0
 10
111.869
 20
107.559
 30
0.0
 11
111.869
 21
108.558
 31
0.0
  0
LINE
  8
0
 62
     0
 10
111.869
 20
108.558
 30
0.0
 11
112.668
 21
108.558
 31
0.0
  0
LINE
  8
0
 62
     0
 10
112.668
 20
108.558
 30
0.0
 11
112.668
 21
111.658
 31
0.0
  0
LINE
  8
0
 62
     0
 10
112.668
 20
111.658
 30
0.0
 11
111.869
 21
111.658
 31
0.0
  0
LINE
  8
0
 62
     0
 10
111.869
 20
111.658
 30
0.0
 11
111.869
 21
117.458
 31
0.0
  0
LINE
  8
0
 62
     0
 10
111.869
 20
117.458
 30
0.0
 11
112.668
 21
117.458
 31
0.0
  0
LINE
  8
0
 62
     0
 10
112.668
 20
117.458
 30
0.0
 11
112.668
 21
120.558
 31
0.0
  0
LINE
  8
0
 62
     0
 10
112.668
 20
120.558
 30
0.0
 11
111.869
 21
120.558
 31
0.0
  0
LINE
  8
0
 62
     0
 10
111.869
 20
120.558
 30
0.0
 11
111.869
 21
121.558
 31
0.0
  0
LINE
  8
0
 62
     0
 10
111.869
 20
121.558
 30
0.0
 11
97.8683
 21
121.558
 31
0.0
  0
LINE
  8
0
 62
     0
 10
78.8197
 20
121.558
 30
0.0
 11
78.8197
 21
120.558
 31
0.0
  0
LINE
  8
0
 62
     0
 10
78.8197
 20
120.558
 30
0.0
 11
78.0189
 21
120.558
 31
0.0
  0
LINE
  8
0
 62
     0
 10
78.0189
 20
120.558
 30
0.0
 11
78.0189
 21
117.458
 31
0.0
  0
LINE
  8
0
 62
     0
 10
78.0189
 20
117.458
 30
0.0
 11
78.8197
 21
117.458
 31
0.0
  0
LINE
  8
0
 62
     0
 10
78.8197
 20
117.458
 30
0.0
 11
78.8197
 21
111.658
 31
0.0
  0
LINE
  8
0
 62
     0
 10
78.8197
 20
111.658
 30
0.0
 11
78.0189
 21
111.658
 31
0.0
  0
LINE
  8
0
 62
     0
 10
78.0189
 20
111.658
 30
0.0
 11
78.0189
 21
108.558
 31
0.0
  0
LINE
  8
0
 62
     0
 10
78.0189
 20
108.558
 30
0.0
 11
78.8197
 21
108.558
 31
0.0
  0
LINE
  8
0
 62
     0
 10
78.8197
 20
108.558
 30
0.0
 11
78.8197
 21
107.559
 31
0.0
  0
LINE
  8
0
 62
     0
 10
78.8197
 20
107.559
 30
0.0
 11
92.819
 21
107.559
 31
0.0
  0
LINE
  8
0
 62
     0
 10
92.819
 20
107.559
 30
0.0
 11
92.819
 21
108.558
 31
0.0
  0
LINE
  8
0
 62
     0
 10
92.819
 20
108.558
 30
0.0
 11
93.6184
 21
108.558
 31
0.0
  0
LINE
  8
0
 62
     0
 10
93.6184
 20
108.558
 30
0.0
 11
93.6184
 21
111.658
 31
0.0
  0
LINE
  8
0
 62
     0
 10
93.6184
 20
111.658
 30
0.0
 11
92.819
 21
111.658
 31
0.0
  0
LINE
  8
0
 62
     0
 10
92.819
 20
111.658
 30
0.0
 11
92.819
 21
117.458
 31
0.0
  0
LINE
  8
0
 62
     0
 10
92.819
 20
117.458
 30
0.0
 11
93.6184
 21
117.458
 31
0.0
  0
LINE
  8
0
 62
     0
 10
93.6184
 20
117.458
 30
0.0
 11
93.6184
 21
120.558
 31
0.0
  0
LINE
  8
0
 62
     0
 10
93.6184
 20
120.558
 30
0.0
 11
92.819
 21
120.558
 31
0.0
  0
LINE
  8
0
 62
     0
 10
92.819
 20
120.558
 30
0.0
 11
92.819
 21
121.558
 31
0.0
  0
LINE
  8
0
 62
     0
 10
92.819
 20
121.558
 30
0.0
 11
78.8197
 21
121.558
 31
0.0
  0
LINE
  8
0
 62
     0
 10
59.7697
 20
121.558
 30
0.0
 11
59.7697
 21
120.558
 31
0.0
  0
LINE
  8
0
 62
     0
 10
59.7697
 20
120.558
 30
0.0
 11
58.9689
 21
120.558
 31
0.0
  0
LINE
  8
0
 62
     0
 10
58.9689
 20
120.558
 30
0.0
 11
58.9689
 21
117.458
 31
0.0
  0
LINE
  8
0
 62
     0
 10
58.9689
 20
117.458
 30
0.0
 11
59.7697
 21
117.458
 31
0.0
  0
LINE
  8
0
 62
     0
 10
59.7697
 20
117.458
 30
0.0
 11
59.7697
 21
111.658
 31
0.0
  0
LINE
  8
0
 62
     0
 10
59.7697
 20
111.658
 30
0.0
 11
58.9689
 21
111.658
 31
0.0
  0
LINE
  8
0
 62
     0
 10
58.9689
 20
111.658
 30
0.0
 11
58.9689
 21
108.558
 31
0.0
  0
LINE
  8
0
 62
     0
 10
58.9689
 20
108.558
 30
0.0
 11
59.7697
 21
108.558
 31
0.0
  0
LINE
  8
0
 62
     0
 10
59.7697
 20
108.558
 30
0.0
 11
59.7697
 21
107.559
 31
0.0
  0
LINE
  8
0
 62
     0
 10
59.7697
 20
107.559
 30
0.0
 11
73.769
 21
107.559
 31
0.0
  0
LINE
  8
0
 62
     0
 10
73.769
 20
107.559
 30
0.0
 11
73.769
 21
108.558
 31
0.0
  0
LINE
  8
0
 62
     0
 10
73.769
 20
108.558
 30
0.0
 11
74.5698
 21
108.558
 31
0.0
  0
LINE
  8
0
 62
     0
 10
74.5698
 20
108.558
 30
0.0
 11
74.5698
 21
111.658
 31
0.0
  0
LINE
  8
0
 62
     0
 10
74.5698
 20
111.658
 30
0.0
 11
73.769
 21
111.658
 31
0.0
  0
LINE
  8
0
 62
     0
 10
73.769
 20
111.658
 30
0.0
 11
73.769
 21
117.458
 31
0.0
  0
LINE
  8
0
 62
     0
 10
73.769
 20
117.458
 30
0.0
 11
74.5698
 21
117.458
 31
0.0
  0
LINE
  8
0
 62
     0
 10
74.5698
 20
117.458
 30
0.0
 11
74.5698
 21
120.558
 31
0.0
  0
LINE
  8
0
 62
     0
 10
74.5698
 20
120.558
 30
0.0
 11
73.769
 21
120.558
 31
0.0
  0
LINE
  8
0
 62
     0
 10
73.769
 20
120.558
 30
0.0
 11
73.769
 21
121.558
 31
0.0
  0
LINE
  8
0
 62
     0
 10
73.769
 20
121.558
 30
0.0
 11
59.7697
 21
121.558
 31
0.0
  0
LINE
  8
0
 62
     0
 10
40.7197
 20
121.558
 30
0.0
 11
40.7197
 21
120.558
 31
0.0
  0
LINE
  8
0
 62
     0
 10
40.7197
 20
120.558
 30
0.0
 11
39.9189
 21
120.558
 31
0.0
  0
LINE
  8
0
 62
     0
 10
39.9189
 20
120.558
 30
0.0
 11
39.9189
 21
117.458
 31
0.0
  0
LINE
  8
0
 62
     0
 10
39.9189
 20
117.458
 30
0.0
 11
40.7197
 21
117.458
 31
0.0
  0
LINE
  8
0
 62
     0
 10
40.7197
 20
117.458
 30
0.0
 11
40.7197
 21
111.658
 31
0.0
  0
LINE
  8
0
 62
     0
 10
40.7197
 20
111.658
 30
0.0
 11
39.9189
 21
111.658
 31
0.0
  0
LINE
  8
0
 62
     0
 10
39.9189
 20
111.658
 30
0.0
 11
39.9189
 21
108.558
 31
0.0
  0
LINE
  8
0
 62
     0
 10
39.9189
 20
108.558
 30
0.0
 11
40.7197
 21
108.558
 31
0.0
  0
LINE
  8
0
 62
     0
 10
40.7197
 20
108.558
 30
0.0
 11
40.7197
 21
107.559
 31
0.0
  0
LINE
  8
0
 62
     0
 10
40.7197
 20
107.559
 30
0.0
 11
54.719
 21
107.559
 31
0.0
  0
LINE
  8
0
 62
     0
 10
54.719
 20
107.559
 30
0.0
 11
54.719
 21
108.558
 31
0.0
  0
LINE
  8
0
 62
     0
 10
54.719
 20
108.558
 30
0.0
 11
55.5198
 21
108.558
 31
0.0
  0
LINE
  8
0
 62
     0
 10
55.5198
 20
108.558
 30
0.0
 11
55.5198
 21
111.658
 31
0.0
  0
LINE
  8
0
 62
     0
 10
55.5198
 20
111.658
 30
0.0
 11
54.719
 21
111.658
 31
0.0
  0
LINE
  8
0
 62
     0
 10
54.719
 20
111.658
 30
0.0
 11
54.719
 21
117.458
 31
0.0
  0
LINE
  8
0
 62
     0
 10
54.719
 20
117.458
 30
0.0
 11
55.5198
 21
117.458
 31
0.0
  0
LINE
  8
0
 62
     0
 10
55.5198
 20
117.458
 30
0.0
 11
55.5198
 21
120.558
 31
0.0
  0
LINE
  8
0
 62
     0
 10
55.5198
 20
120.558
 30
0.0
 11
54.719
 21
120.558
 31
0.0
  0
LINE
  8
0
 62
     0
 10
54.719
 20
120.558
 30
0.0
 11
54.719
 21
121.558
 31
0.0
  0
LINE
  8
0
 62
     0
 10
54.719
 20
121.558
 30
0.0
 11
40.7197
 21
121.558
 31
0.0
  0
LINE
  8
0
 62
     0
 10
2.61965
 20
121.558
 30
0.0
 11
2.61965
 21
120.558
 31
0.0
  0
LINE
  8
0
 62
     0
 10
2.61965
 20
120.558
 30
0.0
 11
1.81901
 21
120.558
 31
0.0
  0
LINE
  8
0
 62
     0
 10
1.81901
 20
120.558
 30
0.0
 11
1.81901
 21
117.458
 31
0.0
  0
LINE
  8
0
 62
     0
 10
1.81901
 20
117.458
 30
0.0
 11
2.61965
 21
117.458
 31
0.0
  0
LINE
  8
0
 62
     0
 10
2.61965
 20
117.458
 30
0.0
 11
2.61965
 21
111.658
 31
0.0
  0
LINE
  8
0
 62
     0
 10
2.61965
 20
111.658
 30
0.0
 11
1.81901
 21
111.658
 31
0.0
  0
LINE
  8
0
 62
     0
 10
1.81901
 20
111.658
 30
0.0
 11
1.81901
 21
108.558
 31
0.0
  0
LINE
  8
0
 62
     0
 10
1.81901
 20
108.558
 30
0.0
 11
2.61965
 21
108.558
 31
0.0
  0
LINE
  8
0
 62
     0
 10
2.61965
 20
108.558
 30
0.0
 11
2.61965
 21
107.559
 31
0.0
  0
LINE
  8
0
 62
     0
 10
2.61965
 20
107.559
 30
0.0
 11
16.6192
 21
107.559
 31
0.0
  0
LINE
  8
0
 62
     0
 10
16.6192
 20
107.559
 30
0.0
 11
16.6192
 21
108.558
 31
0.0
  0
LINE
  8
0
 62
     0
 10
16.6192
 20
108.558
 30
0.0
 11
17.4198
 21
108.558
 31
0.0
  0
LINE
  8
0
 62
     0
 10
17.4198
 20
108.558
 30
0.0
 11
17.4198
 21
111.658
 31
0.0
  0
LINE
  8
0
 62
     0
 10
17.4198
 20
111.658
 30
0.0
 11
16.6192
 21
111.658
 31
0.0
  0
LINE
  8
0
 62
     0
 10
16.6192
 20
111.658
 30
0.0
 11
16.6192
 21
117.458
 31
0.0
  0
LINE
  8
0
 62
     0
 10
16.6192
 20
117.458
 30
0.0
 11
17.4198
 21
117.458
 31
0.0
  0
LINE
  8
0
 62
     0
 10
17.4198
 20
117.458
 30
0.0
 11
17.4198
 21
120.558
 31
0.0
  0
LINE
  8
0
 62
     0
 10
17.4198
 20
120.558
 30
0.0
 11
16.6192
 21
120.558
 31
0.0
  0
LINE
  8
0
 62
     0
 10
16.6192
 20
120.558
 30
0.0
 11
16.6192
 21
121.558
 31
0.0
  0
LINE
  8
0
 62
     0
 10
16.6192
 20
121.558
 30
0.0
 11
2.61965
 21
121.558
 31
0.0
  0
ENDSEC
  0
EOF
