0
SECTION
2
HEADER
9
$INSUNITS
70
4
9
$ACADVER
1
AC1014
9
$HANDSEED
5
FFFF
0
ENDSEC
0
SECTION
2
TABLES
0
TABLE
2
VPORT
5
8
100
AcDbSymbolTable
0
ENDTAB
0
TABLE
2
LTYPE
5
5
100
AcDbSymbolTable
0
LTYPE
5
14
100
AcDbSymbolTableRecord
100
AcDbLinetypeTableRecord
2
BYBLOCK
70
0
0
LTYPE
5
15
100
AcDbSymbolTableRecord
100
AcDbLinetypeTableRecord
2
BYLAYER
70
0
0
ENDTAB
0
TABLE
2
LAYER
5
2
100
AcDbSymbolTable
70
2
0
LAYER
5
50
100
AcDbSymbolTableRecord
100
AcDbLayerTableRecord
2
0
70
0
6
CONTINUOUS
0
ENDTAB
0
TABLE
2
STYLE
5
3
100
AcDbSymbolTable
70
1
0
STYLE
5
11
100
AcDbSymbolTableRecord
100
AcDbTextStyleTableRecord
2
STANDARD
70
0
0
ENDTAB
0
TABLE
2
VIEW
5
6
100
AcDbSymbolTable
70
0
0
ENDTAB
0
TABLE
2
UCS
5
7
100
AcDbSymbolTable
70
0
0
ENDTAB
0
TABLE
2
APPID
5
9
100
AcDbSymbolTable
70
2
0
APPID
5
12
100
AcDbSymbolTableRecord
100
AcDbRegAppTableRecord
2
ACAD
70
0
0
ENDTAB
0
TABLE
2
DIMSTYLE
5
A
100
AcDbSymbolTable
70
1
0
ENDTAB
0
TABLE
2
BLOCK_RECORD
5
1
100
AcDbSymbolTable
70
1
0
BLOCK_RECORD
5
1F
100
AcDbSymbolTableRecord
100
AcDbBlockTableRecord
2
*MODEL_SPACE
0
BLOCK_RECORD
5
1B
100
AcDbSymbolTableRecord
100
AcDbBlockTableRecord
2
*PAPER_SPACE
0
ENDTAB
0
ENDSEC
0
SECTION
2
BLOCKS
0
BLOCK
5
20
100
AcDbEntity
100
AcDbBlockBegin
2
*MODEL_SPACE
0
ENDBLK
5
21
100
AcDbEntity
100
AcDbBlockEnd
0
BLOCK
5
1C
100
AcDbEntity
100
AcDbBlockBegin
2
*PAPER_SPACE
0
ENDBLK
5
1D
100
AcDbEntity
100
AcDbBlockEnd
0
ENDSEC
0
SECTION
2
ENTITIES
0
LWPOLYLINE
5
100
100
AcDbEntity
8
0
100
AcDbPolyline
90
4
70
1
43
0.0
10
344.570475386
20
238.84109815759999
10
324.96973255753068
20
238.84109815759999
10
324.96973255753068
20
276.89045817760012
10
344.570475386
20
276.89045817760012
0
LWPOLYLINE
5
101
100
AcDbEntity
8
0
100
AcDbPolyline
90
12
70
1
43
0.0
10
372.02091341370016
20
116.18516131530001
10
364.22091341370003
20
116.18516131530001
10
364.22091341370003
20
109.18516131530001
10
356.52091341370004
20
109.18516131530001
10
356.52091341370004
20
59.185161315300014
10
364.22091341370003
20
59.185161315300014
10
364.22091341370003
20
52.185161315300014
10
372.02091341370016
20
52.185161315300014
10
372.02091341370016
20
59.185161315300014
10
379.72091341370003
20
59.185157175299999
10
379.72091341370003
20
109.18516131530001
10
372.02091341370016
20
109.18516131530001
0
CIRCLE
5
102
100
AcDbEntity
8
0
100
AcDbCircle
10
388.39647358599996
20
243.5776291976
30
0
40
1.6000000000000236
210
0
220
0
230
1
0
CIRCLE
5
103
100
AcDbEntity
8
0
100
AcDbCircle
10
209.10245861370001
20
151.79783199530002
30
0
40
1.5999999999999945
210
0
220
0
230
1
0
CIRCLE
5
104
100
AcDbEntity
8
0
100
AcDbCircle
10
129.1024547737
20
151.79782937530001
30
0
40
1.6000000000000236
210
0
220
0
230
1
0
LWPOLYLINE
5
105
100
AcDbEntity
8
0
100
AcDbPolyline
90
8
70
1
43
0.0
10
391.6665714651578
20
156.79783201140341
10
26.571008693985053
20
156.79783201139992
42
0.41421356237309698
10
24.571007470100096
20
154.79783107528505
10
24.571007470099961
20
13.572520435284474
42
0.41421356237309404
10
26.571000786215535
20
11.572526831399957
10
391.63391302621733
20
11.572526831400028
42
0.41145006983481891
10
393.63382626559223
20
13.553638086952642
10
393.63382626552806
20
154.77894872695882
42
0.40950730483506492
0
LWPOLYLINE
5
106
100
AcDbEntity
8
0
100
AcDbPolyline
90
12
70
1
43
0.0
10
46.183998733700015
20
52.185161315300014
10
53.983998733699998
20
52.185161315300014
10
53.983998733699998
20
59.185161315300014
10
61.683998733700001
20
59.185161315300014
10
61.683998733700001
20
109.18516131530001
10
53.983998733699998
20
109.18516131530001
10
53.983998733699998
20
116.18516131530001
10
46.183998733700015
20
116.18516131530001
10
46.183998733700015
20
109.18516131530001
10
38.483998733699998
20
109.18516131530001
10
38.483998733699998
20
59.185157175299999
10
46.183998733700015
20
59.185161315300014
0
LWPOLYLINE
5
107
100
AcDbEntity
8
0
100
AcDbPolyline
90
4
70
1
43
0.0
10
244.60847566599998
20
305.46529815639997
10
244.60847566599998
20
286.46629882069999
10
320.50000477579999
20
286.46629882069999
10
320.4841430445
20
305.46529815639997
0
CIRCLE
5
108
100
AcDbEntity
8
0
100
AcDbCircle
10
65.335542723100005
20
384.08265282920001
30
0
40
1.5999993399999968
210
0
220
0
230
1
0
CIRCLE
5
109
100
AcDbEntity
8
0
100
AcDbCircle
10
388.39647358599996
20
175.96499073759998
30
0
40
1.6000000000000236
210
0
220
0
230
1
0
LWPOLYLINE
5
110
100
AcDbEntity
8
0
100
AcDbPolyline
90
4
70
1
43
0.0
10
149.307475006
20
286.46629881759998
10
73.158175946
20
286.46629881759998
10
73.158175946
20
305.46529815759999
10
149.307475006
20
305.46529815759999
0
CIRCLE
5
111
100
AcDbEntity
8
0
100
AcDbCircle
10
53.031988463100006
20
371.91511302919997
30
0
40
1.5999993399999044
210
0
220
0
230
1
0
LWPOLYLINE
5
112
100
AcDbEntity
8
0
100
AcDbPolyline
90
8
70
1
43
0.0
10
393.39621622480001
20
172.9649946703
10
393.39621622477091
20
314.2372727135907
42
0.40748256443564251
10
391.39599893482534
20
316.19027337017508
10
26.333086694829149
20
316.19027337020219
42
0.41758561193920507
10
24.333298812221248
20
314.16732206248139
10
24.333298812208458
20
172.96498883547264
42
0.41421314906220869
10
26.333302904762093
20
170.96499359030219
10
391.39621514480012
20
170.96499359029997
42
0.41421356237311063
0
CIRCLE
5
113
100
AcDbEntity
8
0
100
AcDbCircle
10
208.865014006
20
311.19030321759999
30
0
40
1.5999999999999945
210
0
220
0
230
1
0
CIRCLE
5
114
100
AcDbEntity
8
0
100
AcDbCircle
10
29.333559506
20
311.19026765759997
30
0
40
1.6000000000000048
210
0
220
0
230
1
0
CIRCLE
5
115
100
AcDbEntity
8
0
100
AcDbCircle
10
311.41353672310004
20
337.29667578919998
30
0
40
1.5999993399999546
210
0
220
0
230
1
0
CIRCLE
5
116
100
AcDbEntity
8
0
100
AcDbCircle
10
29.333559506
20
175.96499073759998
30
0
40
1.5999999999999981
210
0
220
0
230
1
0
CIRCLE
5
117
100
AcDbEntity
8
0
100
AcDbCircle
10
289.10245609369997
20
151.79783199530002
30
0
40
1.6000000000000236
210
0
220
0
230
1
0
CIRCLE
5
118
100
AcDbEntity
8
0
100
AcDbCircle
10
191.4135354231
20
392.79665876920006
30
0
40
1.5999993400000112
210
0
220
0
230
1
0
CIRCLE
5
119
100
AcDbEntity
8
0
100
AcDbCircle
10
329.10245991369999
20
96.297849015300017
30
0
40
1.5999999999999659
210
0
220
0
230
1
0
CIRCLE
5
120
100
AcDbEntity
8
0
100
AcDbCircle
10
71.413539203100001
20
337.29667578919998
30
0
40
1.5999993399999821
210
0
220
0
230
1
0
CIRCLE
5
121
100
AcDbEntity
8
0
100
AcDbCircle
10
129.1024560537
20
16.572519515299998
30
0
40
1.5999999999999945
210
0
220
0
230
1
0
CIRCLE
5
122
100
AcDbEntity
8
0
100
AcDbCircle
10
29.570999033700001
20
84.185157975300001
30
0
40
1.6000000000000048
210
0
220
0
230
1
0
CIRCLE
5
123
100
AcDbEntity
8
0
100
AcDbCircle
10
388.63391311370009
20
16.572519515299998
30
0
40
1.6000000000000236
210
0
220
0
230
1
0
CIRCLE
5
124
100
AcDbEntity
8
0
100
AcDbCircle
10
388.39647104600004
20
311.19030321759999
30
0
40
1.6000000000000236
210
0
220
0
230
1
0
CIRCLE
5
125
100
AcDbEntity
8
0
100
AcDbCircle
10
29.571001573700002
20
151.79783199530002
30
0
40
1.6000000000000014
210
0
220
0
230
1
0
CIRCLE
5
126
100
AcDbEntity
8
0
100
AcDbCircle
10
388.63391311370009
20
84.185157975300001
30
0
40
1.6000000000000236
210
0
220
0
230
1
0
CIRCLE
5
127
100
AcDbEntity
8
0
100
AcDbCircle
10
363.64547406599996
20
257.86569815759998
30
0
40
9.0000000000000568
210
0
220
0
230
1
0
CIRCLE
5
128
100
AcDbEntity
8
0
100
AcDbCircle
10
347.48400303370005
20
130.91628625530001
30
0
40
1.5999999999999659
210
0
220
0
230
1
0
CIRCLE
5
129
100
AcDbEntity
8
0
100
AcDbCircle
10
209.10245607370001
20
16.572519515299998
30
0
40
1.5999999999999945
210
0
220
0
230
1
0
CIRCLE
5
130
100
AcDbEntity
8
0
100
AcDbCircle
10
128.86501652600001
20
311.19030321759999
30
0
40
1.6000000000000236
210
0
220
0
230
1
0
CIRCLE
5
131
100
AcDbEntity
8
0
100
AcDbCircle
10
29.570999033700001
20
16.572519515299998
30
0
40
1.5999999999999914
210
0
220
0
230
1
0
CIRCLE
5
132
100
AcDbEntity
8
0
100
AcDbCircle
10
271.41353290310002
20
392.79665876920006
30
0
40
1.5999993400000112
210
0
220
0
230
1
0
CIRCLE
5
133
100
AcDbEntity
8
0
100
AcDbCircle
10
289.1024535537
20
16.572519515299998
30
0
40
1.6000000000000236
210
0
220
0
230
1
0
CIRCLE
5
134
100
AcDbEntity
8
0
100
AcDbCircle
10
369.80556080599996
20
295.96129887760009
30
0
40
9.5999999999999659
210
0
220
0
230
1
0
CIRCLE
5
135
100
AcDbEntity
8
0
100
AcDbCircle
10
111.4135354031
20
392.79665876920006
30
0
40
1.599999340000025
210
0
220
0
230
1
0
CIRCLE
5
136
100
AcDbEntity
8
0
100
AcDbCircle
10
288.86501402599998
20
311.19030321759999
30
0
40
1.5999999999999659
210
0
220
0
230
1
0
CIRCLE
5
137
100
AcDbEntity
8
0
100
AcDbCircle
10
29.333559506
20
243.5776291976
30
0
40
1.5999999999999981
210
0
220
0
230
1
0
CIRCLE
5
138
100
AcDbEntity
8
0
100
AcDbCircle
10
124.62953640309999
20
348.66465406919997
30
0
40
1.5999993399999968
210
0
220
0
230
1
0
CIRCLE
5
139
100
AcDbEntity
8
0
100
AcDbCircle
10
329.79507984310004
20
371.91511302919997
30
0
40
1.5999993400000112
210
0
220
0
230
1
0
CIRCLE
5
140
100
AcDbEntity
8
0
100
AcDbCircle
10
89.102462393700023
20
96.297849015300017
30
0
40
1.5999999999999945
210
0
220
0
230
1
0
CIRCLE
5
141
100
AcDbEntity
8
0
100
AcDbCircle
10
208.86501654599999
20
175.96499073759998
30
0
40
1.5999999999999945
210
0
220
0
230
1
0
LWPOLYLINE
5
142
100
AcDbEntity
8
0
100
AcDbPolyline
90
10
70
1
43
0.0
10
344.56997500600005
20
200.69039975760001
10
323.99758094609837
20
200.69039975760001
10
323.99758094609837
20
181.69093813759997
10
382.87047528599999
20
181.69093813759997
10
382.87047528599999
20
200.69090013760001
10
363.67047528600006
20
200.69090013760001
10
363.62047538600001
20
200.7409000376
10
363.62047538600001
20
219.74029815760002
10
344.62047528600004
20
219.74029815760002
10
344.62047528600004
20
200.7409000376
0
LWPOLYLINE
5
143
100
AcDbEntity
8
0
100
AcDbPolyline
90
4
70
1
43
0.0
10
35.058125146000016
20
286.46684999759998
10
35.058125146000016
20
305.46584933760005
10
54.057675666000009
20
305.46529815759999
10
54.057124486000006
20
286.46629881759998
0
LWPOLYLINE
5
144
100
AcDbEntity
8
0
100
AcDbPolyline
90
4
70
1
43
0.0
10
325.57047528600009
20
304.96579699759997
10
325.57047528600009
20
286.96579743759997
10
357.57047478599998
20
286.96579743759997
10
357.57047478599998
20
304.96579699759997
0
LWPOLYLINE
5
145
100
AcDbEntity
8
0
100
AcDbPolyline
90
4
70
1
43
0.0
10
35.05818356599999
20
181.69093813759997
10
35.05818356599999
20
276.89045817760012
10
320.50000477579999
20
276.89045817760012
10
320.50000477579999
20
181.69093813759997
0
LINE
5
146
100
AcDbEntity
8
0
100
AcDbLine
10
363.67047528600006
20
200.69039975760001
30
0
11
363.67047528600006
21
200.69090013760001
31
0
0
LWPOLYLINE
5
147
100
AcDbEntity
8
0
100
AcDbPolyline
90
4
70
1
43
0.0
10
73.720913273699992
20
99.297827775300007
10
73.720913273699978
20
146.29782775530001
10
344.48400141370001
20
146.29782775530001
10
344.48400141370001
20
99.298536435300022
0
LINE
5
148
100
AcDbEntity
8
0
100
AcDbLine
10
382.67047538599996
20
200.68989937759997
30
0
11
382.66997500599996
21
200.69039975760001
31
0
0
CIRCLE
5
149
100
AcDbEntity
8
0
100
AcDbCircle
10
288.86501656600001
20
175.96499073759998
30
0
40
1.6000000000000236
210
0
220
0
230
1
0
LWPOLYLINE
5
150
100
AcDbEntity
8
0
100
AcDbPolyline
90
4
70
1
43
0.0
10
235.032475006
20
286.46629881759998
10
158.88347566600001
20
286.46629881759998
10
158.88347566600001
20
305.46529815759999
10
235.032475006
20
305.46529815759999
0
LWPOLYLINE
5
151
100
AcDbEntity
8
0
100
AcDbPolyline
90
4
70
1
43
0.0
10
334.79507984310004
20
331.02821994919998
10
334.79507984310004
20
397.79662590919997
10
48.031988463100006
20
397.79662590919997
10
48.031988463099999
20
331.02821994919998
0
CIRCLE
5
152
100
AcDbEntity
8
0
100
AcDbCircle
10
70.7209116537
20
130.91628625530001
30
0
40
1.6000000000000092
210
0
220
0
230
1
0
CIRCLE
5
153
100
AcDbEntity
8
0
100
AcDbCircle
10
388.63391311370009
20
151.7977964353
30
0
40
1.6000000000000236
210
0
220
0
230
1
0
CIRCLE
5
154
100
AcDbEntity
8
0
100
AcDbCircle
10
128.865019066
20
175.96499073759998
30
0
40
1.6000000000000236
210
0
220
0
230
1
0
ENDSEC
0
SECTION
2
OBJECTS
0
DICTIONARY
5
C
100
AcDbDictionary
3
ACAD_GROUP
350
D
3
ACAD_MLINESTYLE
350
17
0
DICTIONARY
5
D
100
AcDbDictionary
0
DICTIONARY
5
1A
330
C
100
AcDbDictionary
0
DICTIONARY
5
17
100
AcDbDictionary
0
ENDSEC
0
EOF
