0
SECTION
2
HEADER
9
$INSUNITS
70
4
9
$ACADVER
1
AC1014
9
$HANDSEED
5
FFFF
0
ENDSEC
0
SECTION
2
TABLES
0
TABLE
2
VPORT
5
8
100
AcDbSymbolTable
0
ENDTAB
0
TABLE
2
LTYPE
5
5
100
AcDbSymbolTable
0
LTYPE
5
14
100
AcDbSymbolTableRecord
100
AcDbLinetypeTableRecord
2
BYBLOCK
70
0
0
LTYPE
5
15
100
AcDbSymbolTableRecord
100
AcDbLinetypeTableRecord
2
BYLAYER
70
0
0
ENDTAB
0
TABLE
2
LAYER
5
2
100
AcDbSymbolTable
70
2
0
LAYER
5
50
100
AcDbSymbolTableRecord
100
AcDbLayerTableRecord
2
0
70
0
6
CONTINUOUS
0
ENDTAB
0
TABLE
2
STYLE
5
3
100
AcDbSymbolTable
70
1
0
STYLE
5
11
100
AcDbSymbolTableRecord
100
AcDbTextStyleTableRecord
2
STANDARD
70
0
0
ENDTAB
0
TABLE
2
VIEW
5
6
100
AcDbSymbolTable
70
0
0
ENDTAB
0
TABLE
2
UCS
5
7
100
AcDbSymbolTable
70
0
0
ENDTAB
0
TABLE
2
APPID
5
9
100
AcDbSymbolTable
70
2
0
APPID
5
12
100
AcDbSymbolTableRecord
100
AcDbRegAppTableRecord
2
ACAD
70
0
0
ENDTAB
0
TABLE
2
DIMSTYLE
5
A
100
AcDbSymbolTable
70
1
0
ENDTAB
0
TABLE
2
BLOCK_RECORD
5
1
100
AcDbSymbolTable
70
1
0
BLOCK_RECORD
5
1F
100
AcDbSymbolTableRecord
100
AcDbBlockTableRecord
2
*MODEL_SPACE
0
BLOCK_RECORD
5
1B
100
AcDbSymbolTableRecord
100
AcDbBlockTableRecord
2
*PAPER_SPACE
0
ENDTAB
0
ENDSEC
0
SECTION
2
BLOCKS
0
BLOCK
5
20
100
AcDbEntity
100
AcDbBlockBegin
2
*MODEL_SPACE
0
ENDBLK
5
21
100
AcDbEntity
100
AcDbBlockEnd
0
BLOCK
5
1C
100
AcDbEntity
100
AcDbBlockBegin
2
*PAPER_SPACE
0
ENDBLK
5
1D
100
AcDbEntity
100
AcDbBlockEnd
0
ENDSEC
0
SECTION
2
ENTITIES
0
CIRCLE
5
100
100
AcDbEntity
8
0
100
AcDbCircle
10
55.118000000000009
20
73.611361540000004
30
0
40
1.5999993400000045
210
0
220
0
230
1
0
CIRCLE
5
101
100
AcDbEntity
8
0
100
AcDbCircle
10
57.166878009999998
20
267.76585089549997
30
0
40
2.9999999999999933
210
0
220
0
230
1
0
CIRCLE
5
102
100
AcDbEntity
8
0
100
AcDbCircle
10
414.18091408000004
20
73.611361540000004
30
0
40
1.5999999999999659
210
0
220
0
230
1
0
CIRCLE
5
103
100
AcDbEntity
8
0
100
AcDbCircle
10
414.18091408000004
20
5.9987230800000004
30
0
40
1.5999993399998969
210
0
220
0
230
1
0
CIRCLE
5
104
100
AcDbEntity
8
0
100
AcDbCircle
10
154.64945956000003
20
5.9987230800000004
30
0
40
1.5999993400000687
210
0
220
0
230
1
0
LWPOLYLINE
5
105
100
AcDbEntity
8
0
100
AcDbPolyline
90
16
70
1
43
0.0
10
296.0870282532
20
430.37600698320006
10
296.0870282532
20
419.87603560320002
10
98.469940633199997
20
419.87603560320002
10
98.469940633199997
20
372.87603562319998
10
292.12910014917156
20
372.87603562319998
10
292.12910014917156
20
365.87603562319998
10
346.12910014917156
20
365.87603562319998
10
346.12910014917156
20
372.87603562319998
10
369.23302877319998
20
372.87603562319998
10
369.23302877319998
20
419.87603560320002
10
309.0870282532
20
419.87603560320002
10
309.0870282532
20
430.37600698320006
10
377.23303039320001
20
430.37600698320006
10
377.23303039320001
20
358.44564030319998
10
90.469939013199991
20
358.44564030319998
10
90.469939013200005
20
430.37600698320006
0
CIRCLE
5
106
100
AcDbEntity
8
0
100
AcDbCircle
10
154.19833495
20
300.37850601549997
30
0
40
1.5999999999999945
210
0
220
0
230
1
0
LWPOLYLINE
5
107
100
AcDbEntity
8
0
100
AcDbPolyline
90
4
70
1
43
0.0
10
350.56921297078583
20
228.02930095549999
10
369.90379381000002
20
228.02930095549999
10
369.90379381000002
20
266.07866097550004
10
350.56921297078583
20
266.07866097550004
0
CIRCLE
5
108
100
AcDbEntity
8
0
100
AcDbCircle
10
54.884859111500006
20
388.07665814069998
30
0
40
1.5999993400000045
210
0
220
0
230
1
0
CIRCLE
5
109
100
AcDbEntity
8
0
100
AcDbCircle
10
372.46617128169999
20
90.029197502499997
30
0
40
1.6000000000000236
210
0
220
0
230
1
0
CIRCLE
5
110
100
AcDbEntity
8
0
100
AcDbCircle
10
54.666877929999998
20
165.15319353549998
30
0
40
1.5999999999999945
210
0
220
0
230
1
0
CIRCLE
5
111
100
AcDbEntity
8
0
100
AcDbCircle
10
314.19833498999998
20
165.15319353549998
30
0
40
1.6000000000000236
210
0
220
0
230
1
0
CIRCLE
5
112
100
AcDbEntity
8
0
100
AcDbCircle
10
234.08462432169998
20
110.91074324250002
30
0
40
1.6000000000000236
210
0
220
0
230
1
0
CIRCLE
5
113
100
AcDbEntity
8
0
100
AcDbCircle
10
114.19833875000002
20
297.87850339549999
30
0
40
3.0000000000000138
210
0
220
0
230
1
0
CIRCLE
5
114
100
AcDbEntity
8
0
100
AcDbCircle
10
414.18091154000001
20
141.22403556
30
0
40
1.6000000000000802
210
0
220
0
230
1
0
CIRCLE
5
115
100
AcDbEntity
8
0
100
AcDbCircle
10
234.19833242999999
20
300.37850601549997
30
0
40
1.5999999999999945
210
0
220
0
230
1
0
CIRCLE
5
116
100
AcDbEntity
8
0
100
AcDbCircle
10
413.72978947000007
20
300.37850601549997
30
0
40
1.6000000000000236
210
0
220
0
230
1
0
LWPOLYLINE
5
117
100
AcDbEntity
8
0
100
AcDbPolyline
90
18
70
1
43
0.0
10
51.88486003150004
20
315.46401952070005
10
416.94777227147085
20
315.46401952071
42
0.4142227005241918
10
418.94776573147118
20
317.46402060070966
10
418.94771786397837
20
458.6893312407168
42
0.41420587852526131
10
416.94777481147725
20
460.68913420071601
10
96.88485386993969
20
460.6891342006719
42
0.4142135623730846
10
95.884853869939832
20
459.6891342006719
10
95.884853869939832
20
450.18932792070012
10
408.44777149150002
20
450.18932792070012
10
408.4477740315001
20
325.96402138069999
10
60.384860811500012
20
325.96402138069999
10
60.384860811499976
20
450.18932792070012
10
78.884853869939832
20
450.18932792070012
10
78.884853869939832
20
457.689134200669
42
0.41421356237316009
10
75.884853869939406
20
460.68913420066895
10
51.884862571470343
20
460.68913420066559
42
0.41419780264300443
10
49.884853871469865
20
458.68933124066632
10
49.884858951500057
20
317.4640206007
42
0.41421356237310153
0
CIRCLE
5
118
100
AcDbEntity
8
0
100
AcDbCircle
10
234.64945704000002
20
5.9987230800000004
30
0
40
1.5999993399999821
210
0
220
0
230
1
0
CIRCLE
5
119
100
AcDbEntity
8
0
100
AcDbCircle
10
194.19833877000002
20
167.65319361549999
30
0
40
3.0000000000000293
210
0
220
0
230
1
0
CIRCLE
5
120
100
AcDbEntity
8
0
100
AcDbCircle
10
55.118000000000009
20
141.22399999999999
30
0
40
1.5999993400000045
210
0
220
0
230
1
0
CIRCLE
5
121
100
AcDbEntity
8
0
100
AcDbCircle
10
54.666877929999998
20
232.76583199550001
30
0
40
1.6000000000000092
210
0
220
0
230
1
0
CIRCLE
5
122
100
AcDbEntity
8
0
100
AcDbCircle
10
55.118000000000009
20
5.9987230800000004
30
0
40
1.5999993399999968
210
0
220
0
230
1
0
CIRCLE
5
123
100
AcDbEntity
8
0
100
AcDbCircle
10
234.64945450000002
20
141.22403556
30
0
40
1.5999999999999945
210
0
220
0
230
1
0
CIRCLE
5
124
100
AcDbEntity
8
0
100
AcDbCircle
10
54.666877929999998
20
300.37847045550001
30
0
40
1.6000000000000014
210
0
220
0
230
1
0
CIRCLE
5
125
100
AcDbEntity
8
0
100
AcDbCircle
10
234.19833496999999
20
165.15319353549998
30
0
40
1.5999999999999945
210
0
220
0
230
1
0
CIRCLE
5
126
100
AcDbEntity
8
0
100
AcDbCircle
10
413.72979200999998
20
232.76583199550001
30
0
40
1.5999999999999659
210
0
220
0
230
1
0
LWPOLYLINE
5
127
100
AcDbEntity
8
0
100
AcDbPolyline
90
18
70
1
43
0.0
10
72.202711792730057
20
305.37868943515838
10
51.666058939887741
20
305.37870429548082
42
0.41408727649143734
10
49.666872689987059
20
303.37850509548178
10
49.666877769999978
20
162.1531944555
42
0.4142135623730937
10
51.666878850000018
20
160.15319337549997
10
416.72944867609147
20
160.15292270700832
42
0.41433980116289199
10
418.72980958599271
20
162.15357045820937
10
418.72978963000003
20
303.37850509549997
42
0.41421222661416296
10
416.72979363000002
20
305.37844013547334
10
382.66130570530004
20
305.37846478739999
10
382.66129432999998
20
280.64100167549998
10
373.45379432999999
20
280.64100167549998
10
373.45379432999999
20
290.96623999220003
10
379.55718878750014
20
290.96623999220003
10
379.55718878750014
20
305.37846703349999
10
102.13105275077666
20
305.37866777903992
42
0.39480598475142525
10
95.146619539933667
20
298.84531912463655
42
-0.9354170815755225
10
79.187135548502837
20
298.84533067290369
42
0.39480598475086598
0
CIRCLE
5
128
100
AcDbEntity
8
0
100
AcDbCircle
10
274.19833625000001
20
297.87850339549999
30
0
40
3.0000000000000004
210
0
220
0
230
1
0
LWPOLYLINE
5
129
100
AcDbEntity
8
0
100
AcDbPolyline
90
6
70
1
43
0.0
10
269.94179408999997
20
275.65450161550012
10
346.09079343000013
20
275.65450161550012
10
346.090793429999
20
285.5106185555012
42
2.5224482382367288
10
346.090793429999
20
289.6217711154988
10
346.09079343000013
20
294.65350095549996
10
269.94179408999997
20
294.65350095549996
0
LWPOLYLINE
5
130
100
AcDbEntity
8
0
100
AcDbPolyline
90
8
70
1
43
0.0
10
50.11799475996996
20
144.22403463996619
10
50.11799984000001
20
2.9987239999999997
42
0.41421356237309209
10
52.118000919999972
20
0.99872292000000695
10
417.18091315997077
20
0.99872292000999119
42
0.41422270052282145
10
419.18090661997121
20
2.9987239999999993
10
419.18085875247846
20
144.2240346400167
42
0.41420587852532115
10
417.18091569997733
20
146.22383760001605
10
52.118003459970339
20
146.22383759996538
42
0.41419780264306555
0
CIRCLE
5
131
100
AcDbEntity
8
0
100
AcDbCircle
10
234.41631615150001
20
320.46401968070001
30
0
40
1.599999340000039
210
0
220
0
230
1
0
CIRCLE
5
132
100
AcDbEntity
8
0
100
AcDbCircle
10
413.9477731915
20
320.46401968070001
30
0
40
1.5999993400000112
210
0
220
0
230
1
0
CIRCLE
5
133
100
AcDbEntity
8
0
100
AcDbCircle
10
313.85102825320007
20
425.37600698320006
30
0
40
1.5999999999999659
210
0
220
0
230
1
0
CIRCLE
5
134
100
AcDbEntity
8
0
100
AcDbCircle
10
153.85148595319998
20
425.37603984320003
30
0
40
1.5999999999999659
210
0
220
0
230
1
0
CIRCLE
5
135
100
AcDbEntity
8
0
100
AcDbCircle
10
372.23303039320001
20
404.4944941032
30
0
40
1.5999999999999659
210
0
220
0
230
1
0
CIRCLE
5
136
100
AcDbEntity
8
0
100
AcDbCircle
10
314.4163161715
20
320.46401968070001
30
0
40
1.5999993400000112
210
0
220
0
230
1
0
CIRCLE
5
137
100
AcDbEntity
8
0
100
AcDbCircle
10
395.13887922999999
20
285.14950167550001
30
0
40
11
210
0
220
0
230
1
0
LWPOLYLINE
5
138
100
AcDbEntity
8
0
100
AcDbPolyline
90
6
70
1
43
0.0
10
60.391501990000016
20
266.07866097550004
10
60.391501990000016
20
170.8791409355
10
346.09079343000013
20
170.8791409355
10
346.09079343004686
20
194.19392388644826
42
2.522446889419375
10
346.09079343004686
20
198.30507946455174
10
346.09079343000013
20
266.07866097550004
0
CIRCLE
5
139
100
AcDbEntity
8
0
100
AcDbCircle
10
354.08462054169996
20
55.410760262499998
30
0
40
1.6000000000000802
210
0
220
0
230
1
0
LWPOLYLINE
5
140
100
AcDbEntity
8
0
100
AcDbPolyline
90
4
70
1
43
0.0
10
260.36579343
20
275.65450161550012
10
184.21679409000004
20
275.65450161550012
10
184.21679409000004
20
294.65350095549996
10
260.36579343
20
294.65350095549996
0
LWPOLYLINE
5
141
100
AcDbEntity
8
0
100
AcDbPolyline
90
11
70
1
43
0.0
10
388.95379380999998
20
208.92850095550003
10
388.95379380999998
20
189.9291028355
10
389.00379371000014
20
189.87910293549999
10
389.00379371000014
20
189.87860255550001
10
408.20379371000007
20
189.87860255551325
10
408.20379371000007
20
170.8791409355
10
349.60020872054764
20
170.8791409355
10
349.60020872054764
20
189.87860255550001
10
369.90329343000008
20
189.87860255550001
10
369.95379371000007
20
189.9291028355
10
369.95379371000007
20
208.92850095550003
0
CIRCLE
5
142
100
AcDbEntity
8
0
100
AcDbCircle
10
194.19833877000002
20
297.87850339549999
30
0
40
3.0000000000000293
210
0
220
0
230
1
0
CIRCLE
5
143
100
AcDbEntity
8
0
100
AcDbCircle
10
95.703079901700008
20
90.029197502499997
30
0
40
1.5999999999999945
210
0
220
0
230
1
0
CIRCLE
5
144
100
AcDbEntity
8
0
100
AcDbCircle
10
354.19833627000008
20
167.65319361549999
30
0
40
3.0000000000000004
210
0
220
0
230
1
0
CIRCLE
5
145
100
AcDbEntity
8
0
100
AcDbCircle
10
154.64945702
20
141.22403556
30
0
40
1.5999999999999945
210
0
220
0
230
1
0
LWPOLYLINE
5
146
100
AcDbEntity
8
0
100
AcDbPolyline
90
6
70
1
43
0.0
10
98.491494369990818
20
276.68165221552624
10
98.491494370000012
20
294.65350095549996
10
174.64079343000006
20
294.65350095549996
10
174.64079343000006
20
275.65450161550012
10
102.22908913000001
20
275.6545066955
10
102.02220866999011
20
275.44762877552705
42
-2.8586004645924477
0
CIRCLE
5
147
100
AcDbEntity
8
0
100
AcDbCircle
10
413.9477731915
20
388.07665814069998
30
0
40
1.6000000000000236
210
0
220
0
230
1
0
LINE
5
148
100
AcDbEntity
8
0
100
AcDbLine
10
408.00329342999999
20
189.87860255550001
30
0
11
408.00379380999999
21
189.87810217550003
31
0
0
CIRCLE
5
149
100
AcDbEntity
8
0
100
AcDbCircle
10
413.72979200999998
20
165.15319353549998
30
0
40
1.5999999999999659
210
0
220
0
230
1
0
CIRCLE
5
150
100
AcDbEntity
8
0
100
AcDbCircle
10
314.19833245000001
20
300.37850601549997
30
0
40
1.6000000000000236
210
0
220
0
230
1
0
LWPOLYLINE
5
151
100
AcDbEntity
8
0
100
AcDbPolyline
90
16
70
1
43
0.0
10
90.703079901700008
20
43.980343702500015
10
90.703079901700008
20
115.9107103825
10
296.32016914169998
20
115.9107103825
10
296.32016914169998
20
105.41073900249999
10
98.7030815217
20
105.41073900249999
10
98.7030815217
20
58.410761882499997
10
292.36262121712321
20
58.410745532202384
10
292.36262079498255
20
53.410740973087634
10
346.36262079498249
20
53.410740973087634
10
346.36262079498249
20
58.410740973087634
10
369.46616966170006
20
58.410739022500017
10
369.46616966170006
20
105.41073900249999
10
317.3201703217
20
105.41073900249999
10
317.3201703217
20
115.9107103825
10
377.46617128169999
20
115.9107103825
10
377.46617128169999
20
43.980343702500015
0
CIRCLE
5
152
100
AcDbEntity
8
0
100
AcDbCircle
10
114.08462302170001
20
55.410760262499998
30
0
40
1.5999999999999945
210
0
220
0
230
1
0
CIRCLE
5
153
100
AcDbEntity
8
0
100
AcDbCircle
10
274.19833625000001
20
167.65319361549999
30
0
40
3.0000000000000004
210
0
220
0
230
1
0
CIRCLE
5
154
100
AcDbEntity
8
0
100
AcDbCircle
10
154.41631867149999
20
320.46401968070001
30
0
40
1.5999993400000112
210
0
220
0
230
1
0
CIRCLE
5
155
100
AcDbEntity
8
0
100
AcDbCircle
10
411.22979447000006
20
267.76585089549997
30
0
40
3.0000000000000004
210
0
220
0
230
1
0
CIRCLE
5
156
100
AcDbEntity
8
0
100
AcDbCircle
10
179.23887923000001
20
278.42219483549997
30
0
40
3.0000000000000004
210
0
220
0
230
1
0
CIRCLE
5
157
100
AcDbEntity
8
0
100
AcDbCircle
10
314.64945452000001
20
141.22403556
30
0
40
1.5999999999999659
210
0
220
0
230
1
0
CIRCLE
5
158
100
AcDbEntity
8
0
100
AcDbCircle
10
95.469939013199991
20
404.4944941032
30
0
40
1.5999999999999945
210
0
220
0
230
1
0
CIRCLE
5
159
100
AcDbEntity
8
0
100
AcDbCircle
10
54.884859111500006
20
455.68929660070012
30
0
40
1.5999993400000045
210
0
220
0
230
1
0
CIRCLE
5
160
100
AcDbEntity
8
0
100
AcDbCircle
10
388.97879248999999
20
247.05390095550001
30
0
40
9
210
0
220
0
230
1
0
CIRCLE
5
161
100
AcDbEntity
8
0
100
AcDbCircle
10
234.41631361150002
20
455.68933216070008
30
0
40
1.599999999999937
210
0
220
0
230
1
0
LWPOLYLINE
5
162
100
AcDbEntity
8
0
100
AcDbPolyline
90
4
70
1
43
0.0
10
60.618001699999979
20
135.72403131999999
10
60.61800170000005
20
11.498724780000007
10
408.68091492000013
20
11.498724780000007
10
408.68091238000005
20
135.72403131999999
0
CIRCLE
5
163
100
AcDbEntity
8
0
100
AcDbCircle
10
353.8514796532001
20
369.87605686320001
30
0
40
1.5999999999999659
210
0
220
0
230
1
0
CIRCLE
5
164
100
AcDbEntity
8
0
100
AcDbCircle
10
154.41631613150003
20
455.68933216070008
30
0
40
1.5999999999999945
210
0
220
0
230
1
0
CIRCLE
5
165
100
AcDbEntity
8
0
100
AcDbCircle
10
113.85148213320001
20
369.87605686320001
30
0
40
1.6000000000000092
210
0
220
0
230
1
0
CIRCLE
5
166
100
AcDbEntity
8
0
100
AcDbCircle
10
413.94777065150009
20
455.68933216070008
30
0
40
1.5999999999999659
210
0
220
0
230
1
0
LWPOLYLINE
5
167
100
AcDbEntity
8
0
100
AcDbPolyline
90
4
70
1
43
0.0
10
60.391994750000002
20
294.65350095549996
10
79.390994090000007
20
294.65350095549996
10
79.390442910000004
20
275.65450161550012
10
60.391443570000014
20
275.65505279550001
0
CIRCLE
5
168
100
AcDbEntity
8
0
100
AcDbCircle
10
233.8514834332
20
425.37603984320003
30
0
40
1.6000000000000236
210
0
220
0
230
1
0
CIRCLE
5
169
100
AcDbEntity
8
0
100
AcDbCircle
10
354.19833627000008
20
297.87850339549999
30
0
40
3.0000000000000004
210
0
220
0
230
1
0
CIRCLE
5
170
100
AcDbEntity
8
0
100
AcDbCircle
10
154.08462684170001
20
110.91074324250002
30
0
40
1.5999999999999945
210
0
220
0
230
1
0
CIRCLE
5
171
100
AcDbEntity
8
0
100
AcDbCircle
10
57.166878009999998
20
202.76584881550002
30
0
40
2.9999999999999933
210
0
220
0
230
1
0
CIRCLE
5
172
100
AcDbEntity
8
0
100
AcDbCircle
10
114.19833875000002
20
167.65319361549999
30
0
40
3.0000000000000138
210
0
220
0
230
1
0
CIRCLE
5
173
100
AcDbEntity
8
0
100
AcDbCircle
10
314.64945705999997
20
5.9987230800000004
30
0
40
1.5999993400000112
210
0
220
0
230
1
0
CIRCLE
5
174
100
AcDbEntity
8
0
100
AcDbCircle
10
54.884859111500006
20
320.46401968070001
30
0
40
1.5999993399999968
210
0
220
0
230
1
0
CIRCLE
5
175
100
AcDbEntity
8
0
100
AcDbCircle
10
411.22979447000006
20
202.76584881550002
30
0
40
3.0000000000000004
210
0
220
0
230
1
0
CIRCLE
5
176
100
AcDbEntity
8
0
100
AcDbCircle
10
154.19833749
20
165.15319353549998
30
0
40
1.5999999999999945
210
0
220
0
230
1
0
CIRCLE
5
177
100
AcDbEntity
8
0
100
AcDbCircle
10
314.41631363150003
20
455.68933216070008
30
0
40
1.5999999999999659
210
0
220
0
230
1
0
ENDSEC
0
SECTION
2
OBJECTS
0
DICTIONARY
5
C
100
AcDbDictionary
3
ACAD_GROUP
350
D
3
ACAD_MLINESTYLE
350
17
0
DICTIONARY
5
D
100
AcDbDictionary
0
DICTIONARY
5
1A
330
C
100
AcDbDictionary
0
DICTIONARY
5
17
100
AcDbDictionary
0
ENDSEC
0
EOF
