0
SECTION
2
HEADER
9
$INSUNITS
70
4
9
$ACADVER
1
AC1014
9
$HANDSEED
5
FFFF
0
ENDSEC
0
SECTION
2
TABLES
0
TABLE
2
VPORT
5
8
100
AcDbSymbolTable
0
ENDTAB
0
TABLE
2
LTYPE
5
5
100
AcDbSymbolTable
0
LTYPE
5
14
100
AcDbSymbolTableRecord
100
AcDbLinetypeTableRecord
2
BYBLOCK
70
0
0
LTYPE
5
15
100
AcDbSymbolTableRecord
100
AcDbLinetypeTableRecord
2
BYLAYER
70
0
0
ENDTAB
0
TABLE
2
LAYER
5
2
100
AcDbSymbolTable
70
2
0
LAYER
5
50
100
AcDbSymbolTableRecord
100
AcDbLayerTableRecord
2
0
70
0
6
CONTINUOUS
0
ENDTAB
0
TABLE
2
STYLE
5
3
100
AcDbSymbolTable
70
1
0
STYLE
5
11
100
AcDbSymbolTableRecord
100
AcDbTextStyleTableRecord
2
STANDARD
70
0
0
ENDTAB
0
TABLE
2
VIEW
5
6
100
AcDbSymbolTable
70
0
0
ENDTAB
0
TABLE
2
UCS
5
7
100
AcDbSymbolTable
70
0
0
ENDTAB
0
TABLE
2
APPID
5
9
100
AcDbSymbolTable
70
2
0
APPID
5
12
100
AcDbSymbolTableRecord
100
AcDbRegAppTableRecord
2
ACAD
70
0
0
ENDTAB
0
TABLE
2
DIMSTYLE
5
A
100
AcDbSymbolTable
70
1
0
ENDTAB
0
TABLE
2
BLOCK_RECORD
5
1
100
AcDbSymbolTable
70
1
0
BLOCK_RECORD
5
1F
100
AcDbSymbolTableRecord
100
AcDbBlockTableRecord
2
*MODEL_SPACE
0
BLOCK_RECORD
5
1B
100
AcDbSymbolTableRecord
100
AcDbBlockTableRecord
2
*PAPER_SPACE
0
ENDTAB
0
ENDSEC
0
SECTION
2
BLOCKS
0
BLOCK
5
20
100
AcDbEntity
100
AcDbBlockBegin
2
*MODEL_SPACE
0
ENDBLK
5
21
100
AcDbEntity
100
AcDbBlockEnd
0
BLOCK
5
1C
100
AcDbEntity
100
AcDbBlockBegin
2
*PAPER_SPACE
0
ENDBLK
5
1D
100
AcDbEntity
100
AcDbBlockEnd
0
ENDSEC
0
SECTION
2
ENTITIES
0
ARC
5
100
100
AcDbEntity
8
0
100
AcDbCircle
10
7.4999490753000009
20
35.412603435299999
30
0
40
3.0000527851103955
210
0
220
-0
230
1
100
AcDbArc
50
0.00092864634147733283
51
89.999022843099993
0
ARC
5
101
100
AcDbEntity
8
0
100
AcDbCircle
10
361.56291670000002
20
100.41265922000001
30
0
40
3.0000016199999813
210
0
220
-0
230
1
100
AcDbArc
50
90
51
180
0
ARC
5
102
100
AcDbEntity
8
0
100
AcDbCircle
10
57.3314576
20
137.72531001999999
30
0
40
3.000001620000976
210
0
220
0
230
1
100
AcDbArc
50
-90
51
4.6348193673891477e-05
0
CIRCLE
5
103
100
AcDbEntity
8
0
100
AcDbCircle
10
264.53145721999999
20
5.0000001599999999
30
0
40
1.5999999999999659
210
0
220
0
230
1
0
LWPOLYLINE
5
104
100
AcDbEntity
8
0
100
AcDbPolyline
90
11
70
1
43
0.0
10
304.34811594307945
20
100.4523634666652
42
-0.23086819112556228
10
307.66402044144616
20
99.310605984846134
10
320.68999345157982
20
86.284632974679809
42
-0.66817863791929599
10
319.62933327979999
20
83.723972802900008
10
280.25103693939997
20
83.729551768600004
10
280.25065362340001
20
78.023972802900005
10
218.25065362340001
20
78.023972802900005
10
218.25065362340001
20
83.723972802900008
10
184.25065362340004
20
83.723972802900008
10
185.77996179734043
20
85.253280976859571
42
-0.16734260908141865
10
187.53567411068457
20
86.109599088223874
0
ARC
5
105
100
AcDbEntity
8
0
100
AcDbCircle
10
311.73145679999999
20
137.72531001999999
30
0
40
2.9999990800011034
210
0
220
0
230
1
100
AcDbArc
50
180
51
270.00004851040075
0
LWPOLYLINE
5
106
100
AcDbEntity
8
0
100
AcDbPolyline
90
11
70
1
43
0.0
10
306.07110115687942
20
75.181913665265142
42
-0.2308681911255617
10
309.38700565524607
20
74.040156183446101
10
322.41297866527987
20
61.014183173379841
42
-0.66817863791929433
10
321.35231849349998
20
58.453523001599962
10
281.97402215310001
20
58.459101967200013
10
281.9736388371
20
52.753523001600009
10
219.9736388371
20
52.753523001600009
10
219.9736388371
20
58.453523001600004
10
185.9736388371
20
58.453523001600004
10
187.50294701104042
20
59.982831175559582
42
-0.16734260908141807
10
189.25865932438455
20
60.83914928692387
0
CIRCLE
5
107
100
AcDbEntity
8
0
100
AcDbCircle
10
184.53145720000003
20
5.0000001599999999
30
0
40
1.5999999999999943
210
0
220
0
230
1
0
CIRCLE
5
108
100
AcDbEntity
8
0
100
AcDbCircle
10
137.75350907790002
20
115.77916552030003
30
0
40
1.5999999999999943
210
0
220
0
230
1
0
CIRCLE
5
109
100
AcDbEntity
8
0
100
AcDbCircle
10
184.53145466000001
20
140.22531264000003
30
0
40
1.5999999999999943
210
0
220
0
230
1
0
ARC
5
110
100
AcDbEntity
8
0
100
AcDbCircle
10
297.3315297657
20
137.72536996350001
30
0
40
3.0000615644748061
210
0
220
0
230
1
100
AcDbArc
50
-90.001425598699996
51
0.0046785064099536967
0
LWPOLYLINE
5
111
100
AcDbEntity
8
0
100
AcDbPolyline
90
15
70
1
43
0.0
10
19.782817251840402
20
112.3084736942596
42
-0.16734260908141946
10
21.538529565184561
20
113.16479180562391
10
138.35097139767942
20
127.50755618396519
42
-0.23086819112556331
10
141.66687589604612
20
126.36579870214612
10
154.69284890607983
20
113.33982569207987
42
-0.66817863791929888
10
153.6321887343
20
110.77916552030001
10
107.75350907790001
20
110.77916552030003
10
107.75350907790001
20
108.07916552030001
10
114.25350907790002
20
108.07916552030001
10
114.25350907790002
20
105.07916552030002
10
52.253509077900006
20
105.07916552030002
10
52.253509077900006
20
108.07916552030001
10
58.753509077900006
20
108.07916552030001
10
58.753509077900006
20
110.77916552030003
10
18.253509077899999
20
110.77916552030003
0
LWPOLYLINE
5
112
100
AcDbEntity
8
0
100
AcDbPolyline
90
15
70
1
43
0.0
10
159.28747614267985
20
62.79892608937984
42
-0.66817863791929744
10
158.22681597089999
20
60.238265917599996
10
112.34813631450002
20
60.238265917600003
10
112.34813631450002
20
57.5382659176
10
118.84813631450001
20
57.5382659176
10
118.84813631450001
20
54.5382659176
10
56.848136314499996
20
54.5382659176
10
56.848136314499996
20
57.5382659176
10
63.348136314500003
20
57.5382659176
10
63.348136314500003
20
60.238265917600003
10
22.8481363145
20
60.238265917600003
10
24.37744448844041
20
61.767574091559602
42
-0.16734260908141946
10
26.133156801784576
20
62.623892202923905
10
142.94559863427943
20
76.966656581265184
42
-0.23086819112090842
10
146.26150313260001
20
75.824899099500001
0
CIRCLE
5
113
100
AcDbEntity
8
0
100
AcDbCircle
10
147.23347161390001
20
33.453175076299999
30
0
40
1.5999999999999659
210
0
220
0
230
1
0
ARC
5
114
100
AcDbEntity
8
0
100
AcDbCircle
10
361.56203557250001
20
114.81036817709999
30
0
40
2.9991213688323723
210
0
220
0
230
1
100
AcDbArc
50
179.95619938620251
51
270.00134530930058
0
ARC
5
115
100
AcDbEntity
8
0
100
AcDbCircle
10
311.73146187999998
20
7.5000002400000012
30
0
40
3.000001620001477
210
0
220
-0
230
1
100
AcDbArc
50
90
51
179.99993953859794
0
LWPOLYLINE
5
116
100
AcDbEntity
8
0
100
AcDbPolyline
90
15
70
1
43
0.0
10
22.654459274740436
20
87.038023892859599
42
-0.16734260908141899
10
24.410171588084566
20
87.894342004223887
10
141.22261342047943
20
102.23710638266522
42
-0.2308681911255632
10
144.53851791884614
20
101.09534890084615
10
157.56449092897984
20
88.069375890679822
42
-0.66817863791929888
10
156.50383075720001
20
85.508715718899992
10
110.6251511008
20
85.508715718900007
10
110.6251511008
20
82.808715718900018
10
117.1251511008
20
82.808715718900018
10
117.1251511008
20
79.808715718900004
10
55.125151100799997
20
79.808715718900004
10
55.125151100799997
20
82.808715718900018
10
61.625151100800004
20
82.808715718900018
10
61.625151100800011
20
85.508715718900007
10
21.1251511008
20
85.508715718900007
0
LWPOLYLINE
5
117
100
AcDbEntity
8
0
100
AcDbPolyline
90
11
70
1
43
0.0
10
301.47647392017944
20
125.72281326796521
42
-0.23086819112556134
10
304.79237841854615
20
124.58105578614614
10
317.81835142867988
20
111.55508277607986
42
-0.66817863791929599
10
316.75769125689999
20
108.99442260429994
10
277.37939491650002
20
109.00000156990001
10
277.37901160050001
20
103.29442260430001
10
215.37901160049998
20
103.29442260430001
10
215.37901160049998
20
108.9944226043
10
181.37901160050001
20
108.9944226043
10
182.90831977444043
20
110.52373077825953
42
-0.16734260908141932
10
184.66403208778456
20
111.38004888962384
0
ARC
5
118
100
AcDbEntity
8
0
100
AcDbCircle
10
224.5014874636
20
137.7364994653
30
0
40
4.2299824960007975
210
0
220
0
230
1
100
AcDbArc
50
-0.15156297659812798
51
173.8782946426999
0
ARC
5
119
100
AcDbEntity
8
0
100
AcDbCircle
10
361.56292906900001
20
42.612444090499999
30
0
40
4.2002131095267501
210
0
220
0
230
1
100
AcDbArc
50
-89.988623397900341
51
90.000168728100874
0
CIRCLE
5
120
100
AcDbEntity
8
0
100
AcDbCircle
10
92.753509077900006
20
115.77916552030003
30
0
40
1.6000000000000092
210
0
220
0
230
1
0
CIRCLE
5
121
100
AcDbEntity
8
0
100
AcDbCircle
10
303.75065362340001
20
88.723972802900008
30
0
40
1.5999999999999659
210
0
220
0
230
1
0
CIRCLE
5
122
100
AcDbEntity
8
0
100
AcDbCircle
10
310.35897413639998
20
31.668432160300007
30
0
40
1.5999999999999659
210
0
220
0
230
1
0
CIRCLE
5
123
100
AcDbEntity
8
0
100
AcDbCircle
10
104.53145718000002
20
140.22531264000003
30
0
40
1.6000000000000092
210
0
220
0
230
1
0
ARC
5
124
100
AcDbEntity
8
0
100
AcDbCircle
10
57.330074122399999
20
7.5014021392999997
30
0
40
3.0013854250083587
210
0
220
0
230
1
100
AcDbArc
50
-0.026761947101440718
51
87.531245798299906
0
CIRCLE
5
125
100
AcDbEntity
8
0
100
AcDbCircle
10
255.87901160049998
20
113.9944226043
30
0
40
1.5999999999999659
210
0
220
0
230
1
0
CIRCLE
5
126
100
AcDbEntity
8
0
100
AcDbCircle
10
97.348136314500024
20
65.238265917600003
30
0
40
1.6000000000000092
210
0
220
0
230
1
0
ARC
5
127
100
AcDbEntity
8
0
100
AcDbCircle
10
64.53146098000002
20
137.72531001999999
30
0
40
4.2000017600007222
210
0
220
0
230
1
100
AcDbArc
50
0
51
179.99996688942954
0
CIRCLE
5
128
100
AcDbEntity
8
0
100
AcDbCircle
10
264.53145468000002
20
140.22531264000003
30
0
40
1.5999999999999659
210
0
220
0
230
1
0
ARC
5
129
100
AcDbEntity
8
0
100
AcDbCircle
10
7.5000002400000012
20
42.612655439999997
30
0
40
4.1999992200000236
210
0
220
-0
230
1
100
AcDbArc
50
90
51
270.00000000021652
0
CIRCLE
5
130
100
AcDbEntity
8
0
100
AcDbCircle
10
142.34813631450004
20
65.238265917600003
30
0
40
1.6000000000000234
210
0
220
0
230
1
0
CIRCLE
5
131
100
AcDbEntity
8
0
100
AcDbCircle
10
258.75065362340001
20
88.723972802900008
30
0
40
1.6000000000000234
210
0
220
0
230
1
0
ARC
5
132
100
AcDbEntity
8
0
100
AcDbCircle
10
26.000000400100003
20
142.22528749489999
30
0
40
2.9999999999999734
210
0
220
0
230
1
100
AcDbArc
50
-1.9090958875572868e-06
51
90.000000226899985
0
CIRCLE
5
133
100
AcDbEntity
8
0
100
AcDbCircle
10
305.4736388371
20
63.453523001600004
30
0
40
1.6000000000000234
210
0
220
0
230
1
0
CIRCLE
5
134
100
AcDbEntity
8
0
100
AcDbCircle
10
104.53145972000002
20
5.0000001599999999
30
0
40
1.5999999999999943
210
0
220
0
230
1
0
ARC
5
135
100
AcDbEntity
8
0
100
AcDbCircle
10
361.56291670000002
20
49.81265882000001
30
0
40
3.0000016200000346
210
0
220
0
230
1
100
AcDbArc
50
180
51
269.99999999917162
0
ARC
5
136
100
AcDbEntity
8
0
100
AcDbCircle
10
47.000000159999999
20
144.22527977999999
30
0
40
0.99999999999999645
210
0
220
-0
230
1
100
AcDbArc
50
90
51
180
0
ARC
5
137
100
AcDbEntity
8
0
100
AcDbCircle
10
224.53137311350002
20
7.5000030323000013
30
0
40
4.1999113135486299
210
0
220
0
230
1
100
AcDbArc
50
-179.99996191365622
51
0.0020806758042112915
0
CIRCLE
5
138
100
AcDbEntity
8
0
100
AcDbCircle
10
260.4736388371
20
63.453523001600004
30
0
40
1.6000000000000234
210
0
220
0
230
1
0
LWPOLYLINE
5
139
100
AcDbEntity
8
0
100
AcDbPolyline
90
15
70
1
43
0.0
10
147.83093393357942
20
45.181565740065196
42
-0.23086819112556331
10
151.14683843194615
20
44.039808258246126
10
164.17281144207988
20
31.013835248079836
42
-0.6681786379192981
10
163.11215127030005
20
28.453175076299985
10
117.23347161390001
20
28.453175076300003
10
117.23347161390001
20
25.753175076300003
10
123.73347161390001
20
25.753175076300003
10
123.73347161390001
20
22.7531750763
10
61.733471613900008
20
22.7531750763
10
61.733471613900008
20
25.753175076300003
10
68.233471613900008
20
25.753175076300003
10
68.233471613900008
20
28.453175076300003
10
27.733471613899997
20
28.453175076300003
10
29.262779787840433
20
29.982483250259577
42
-0.16734260908141957
10
31.018492101184574
20
30.838801361623869
0
ARC
5
140
100
AcDbEntity
8
0
100
AcDbCircle
10
7.5000002400000012
20
107.61265752
30
0
40
4.2000017600017969
210
0
220
0
230
1
100
AcDbArc
50
90.00000000270002
51
270.00005293670006
0
LINE
5
141
100
AcDbEntity
8
0
100
AcDbLine
10
71.731459279999996
20
134.72530840000002
30
0
11
137.33145762000001
21
134.72530840000002
31
0
0
ARC
5
142
100
AcDbEntity
8
0
100
AcDbCircle
10
217.33146017999999
20
7.5000002400000012
30
0
40
3.000001619999999
210
0
220
-0
230
1
100
AcDbArc
50
0
51
90
0
CIRCLE
5
143
100
AcDbEntity
8
0
100
AcDbCircle
10
5.0000001599999999
20
72.612638619999998
30
0
40
1.5999999999999992
210
0
220
0
230
1
0
LINE
5
144
100
AcDbEntity
8
0
100
AcDbLine
10
-5.0799999999999996e-06
20
143.22531172000001
30
0
11
0
21
2.0000010799999934
31
0
0
LINE
5
145
100
AcDbEntity
8
0
100
AcDbLine
10
151.73259652740001
20
10.500359019900001
30
0
11
217.33146017999999
21
10.500001859999998
31
0
0
ARC
5
146
100
AcDbEntity
8
0
100
AcDbCircle
10
64.53146098000002
20
7.5000002400000012
30
0
40
4.2000017599999939
210
0
220
0
230
1
100
AcDbArc
50
-180
51
0
0
CIRCLE
5
147
100
AcDbEntity
8
0
100
AcDbCircle
10
95.625151100799997
20
90.508715718899992
30
0
40
1.6000000000000092
210
0
220
0
230
1
0
LINE
5
148
100
AcDbEntity
8
0
100
AcDbLine
10
10.500001859999999
20
10.500001859999999
30
0
11
10.500001860016344
21
35.412652059962106
31
0
0
CIRCLE
5
149
100
AcDbEntity
8
0
100
AcDbCircle
10
265.35897413639998
20
31.668432160300007
30
0
40
1.5999999999999659
210
0
220
0
230
1
0
LINE
5
150
100
AcDbEntity
8
0
100
AcDbLine
10
2.0000010800000001
20
0
30
0
11
367.06291332000001
21
0
31
0
0
LINE
5
151
100
AcDbEntity
8
0
100
AcDbLine
10
26.000000388219547
20
145.22528749489996
30
0
11
2.0114962258000002
21
145.22528739990003
31
0
0
CIRCLE
5
152
100
AcDbEntity
8
0
100
AcDbCircle
10
140.6251511008
20
90.508715718899992
30
0
40
1.6000000000000234
210
0
220
0
230
1
0
LINE
5
153
100
AcDbEntity
8
0
100
AcDbLine
10
358.56291508002079
20
114.81266089996957
30
0
11
358.56291507999998
21
134.72531094000001
31
0
0
LINE
5
154
100
AcDbEntity
8
0
100
AcDbLine
10
46.000000159999999
20
144.22527977999999
30
0
11
46.000000159999992
21
141.72530839999945
31
0
0
LWPOLYLINE
5
155
100
AcDbEntity
8
0
100
AcDbPolyline
90
11
70
1
43
0.0
10
310.95643645617946
20
43.396822824065197
42
-0.23086819112556134
10
314.27234095454617
20
42.255065342246134
10
327.29831396467978
20
29.229092332079823
42
-0.6681786379193011
10
326.23765379290001
20
26.668432160300014
10
286.85935745249998
20
26.674011126000003
10
286.85897413639998
20
20.968432160300004
10
224.85897413640004
20
20.968432160300004
10
224.85897413640004
20
26.668432160300007
10
190.85897413640001
20
26.668432160300007
10
192.3882823104405
20
28.197740334259549
42
-0.16734260908141763
10
194.14399462378458
20
29.054058445623827
0
LINE
5
156
100
AcDbEntity
8
0
100
AcDbLine
10
311.73145933999785
20
134.72531093999999
30
0
11
358.56291507999998
21
134.72531094000001
31
0
0
LINE
5
157
100
AcDbEntity
8
0
100
AcDbLine
10
358.56291507999998
20
10.500001859999999
30
0
11
358.56291507999998
21
35.412657140000007
31
0
0
LINE
5
158
100
AcDbEntity
8
0
100
AcDbLine
10
311.73146187999998
20
10.500001860001477
30
0
11
358.56291507999998
21
10.500001859999999
31
0
0
LINE
5
159
100
AcDbEntity
8
0
100
AcDbLine
10
231.73146185860003
20
10.5000070171
30
0
11
297.33146019999998
21
10.500001859999999
31
0
0
LINE
5
160
100
AcDbEntity
8
0
100
AcDbLine
10
358.56291507999998
20
49.81265882000001
30
0
11
358.56291508000004
21
100.41265922000001
31
0
0
LINE
5
161
100
AcDbEntity
8
0
100
AcDbLine
10
53.000000159999338
20
134.72530839999945
30
0
11
57.3314576
21
134.72530839999902
31
0
0
LINE
5
162
100
AcDbEntity
8
0
100
AcDbLine
10
10.500001859999999
20
114.81265836
30
0
11
10.500001859999999
21
134.72530840000002
31
0
0
LINE
5
163
100
AcDbEntity
8
0
100
AcDbLine
10
29.000000400099974
20
142.22528739885104
30
0
11
29.0000003840929
21
141.72530817589166
31
0
0
LINE
5
164
100
AcDbEntity
8
0
100
AcDbLine
10
10.500001859999999
20
49.812656279999999
30
0
11
10.500001859999999
21
100.41265414000001
31
0
0
LINE
5
165
100
AcDbEntity
8
0
100
AcDbLine
10
151.73145930000001
20
134.72530840000002
30
0
11
217.3314551
21
134.72530840000002
31
0
0
LINE
5
166
100
AcDbEntity
8
0
100
AcDbLine
10
71.731464360000004
20
10.500001859999999
30
0
11
137.33146269999997
21
10.500001859999999
31
0
0
LINE
5
167
100
AcDbEntity
8
0
100
AcDbLine
10
10.500001859999999
20
10.500001859999999
30
0
11
57.459357472649437
21
10.500001859969776
31
0
0
LINE
5
168
100
AcDbEntity
8
0
100
AcDbLine
10
231.73145678
20
134.72530840000002
30
0
11
297.33145511999481
21
134.72530839995386
31
0
0
LINE
5
169
100
AcDbEntity
8
0
100
AcDbLine
10
369.06290677999999
20
2.0000031041000002
30
0
11
369.06276383220006
21
143.24829461440001
31
0
0
LINE
5
170
100
AcDbEntity
8
0
100
AcDbLine
10
10.500001859999999
20
134.72530840000002
30
0
11
22.00000038409291
21
134.72530840000007
31
0
0
LINE
5
171
100
AcDbEntity
8
0
100
AcDbLine
10
47.000000159999999
20
145.22527977999999
30
0
11
367.06291585999998
21
145.22527977999999
31
0
0
ARC
5
172
100
AcDbEntity
8
0
100
AcDbCircle
10
71.731464360000004
20
7.5000002400000012
30
0
40
3.0000016200000088
210
0
220
-0
230
1
100
AcDbArc
50
90
51
180
0
ARC
5
173
100
AcDbEntity
8
0
100
AcDbCircle
10
151.73150708209999
20
7.5001317157000003
30
0
40
3.0002275020622875
210
0
220
-0
230
1
100
AcDbArc
50
89.97919470472452
51
180.4710058733998
0
ARC
5
174
100
AcDbEntity
8
0
100
AcDbCircle
10
7.5000002400000012
20
114.81266090000003
30
0
40
3.000001619999999
210
0
220
0
230
1
100
AcDbArc
50
269.99999999621997
51
359.99995149243119
0
ARC
5
175
100
AcDbEntity
8
0
100
AcDbCircle
10
7.5000002400000012
20
100.41265414000001
30
0
40
3.000001620002509
210
0
220
0
230
1
100
AcDbArc
50
0
51
89.999925888628951
0
ARC
5
176
100
AcDbEntity
8
0
100
AcDbCircle
10
231.73140004570001
20
7.4998913848000015
30
0
40
3.000115632975489
210
0
220
-0
230
1
100
AcDbArc
50
89.998819506071143
51
179.99495499965215
0
ARC
5
177
100
AcDbEntity
8
0
100
AcDbCircle
10
144.53142263729998
20
7.4877342766999995
30
0
40
4.199976228610697
210
0
220
0
230
1
100
AcDbArc
50
179.83266835560019
51
359.83266835613603
0
ARC
5
178
100
AcDbEntity
8
0
100
AcDbCircle
10
2.0000036200000002
20
143.22531172000001
30
0
40
2.000008700000028
210
0
220
-0
230
1
100
AcDbArc
50
89.670760716298958
51
180
0
ARC
5
179
100
AcDbEntity
8
0
100
AcDbCircle
10
71.731464360000004
20
137.72531001999999
30
0
40
3.0000016200000079
210
0
220
0
230
1
100
AcDbArc
50
180
51
269.99990297919891
0
ARC
5
180
100
AcDbEntity
8
0
100
AcDbCircle
10
304.53152452009999
20
137.7254624773
30
0
40
4.1999332026784515
210
0
220
0
230
1
100
AcDbArc
50
-0.0020798330826386465
51
179.99792016761833
0
ARC
5
181
100
AcDbEntity
8
0
100
AcDbCircle
10
137.33146269999997
20
7.5000002400000012
30
0
40
3.0000016200000346
210
0
220
-0
230
1
100
AcDbArc
50
0
51
90
0
ARC
5
182
100
AcDbEntity
8
0
100
AcDbCircle
10
2.0000010800000001
20
2.0000010800000001
30
0
40
2.0000010800000001
210
0
220
0
230
1
100
AcDbArc
50
180
51
270
0
CIRCLE
5
183
100
AcDbEntity
8
0
100
AcDbCircle
10
5.0000001599999999
20
140.22527708000001
30
0
40
1.600000000000007
210
0
220
0
230
1
0
ARC
5
184
100
AcDbEntity
8
0
100
AcDbCircle
10
367.0627256419001
20
2.0001811372000002
30
0
40
2.0001811459994752
210
0
220
0
230
1
100
AcDbArc
50
270.00537609459462
51
359.99490018938792
0
ARC
5
185
100
AcDbEntity
8
0
100
AcDbCircle
10
7.5000002400000012
20
49.812656279999999
30
0
40
3.000001619999999
210
0
220
0
230
1
100
AcDbArc
50
-90
51
0
0
ARC
5
186
100
AcDbEntity
8
0
100
AcDbCircle
10
231.73145678
20
137.72531001999999
30
0
40
3.000001619999999
210
0
220
0
230
1
100
AcDbArc
50
180
51
270
0
ARC
5
187
100
AcDbEntity
8
0
100
AcDbCircle
10
361.56288472309996
20
35.412261523200002
30
0
40
2.9999696691776574
210
0
220
-0
230
1
100
AcDbArc
50
89.983224834865837
51
179.9924441992633
0
ARC
5
188
100
AcDbEntity
8
0
100
AcDbCircle
10
151.73146438000001
20
137.72531001999999
30
0
40
3.0000016200000168
210
0
220
0
230
1
100
AcDbArc
50
180
51
269.99990297919925
0
ARC
5
189
100
AcDbEntity
8
0
100
AcDbCircle
10
144.53146100000001
20
137.72531001999999
30
0
40
4.2000017600010153
210
0
220
-0
230
1
100
AcDbArc
50
0
51
179.99996074497696
0
CIRCLE
5
190
100
AcDbEntity
8
0
100
AcDbCircle
10
5.0000001599999999
20
5.0000001599999999
30
0
40
1.6000000000000012
210
0
220
0
230
1
0
ARC
5
191
100
AcDbEntity
8
0
100
AcDbCircle
10
361.56251134600006
20
107.61195382460001
30
0
40
4.1992930041256216
210
0
220
0
230
1
100
AcDbArc
50
-89.994469289611615
51
90.00553070902663
0
ARC
5
192
100
AcDbEntity
8
0
100
AcDbCircle
10
137.33145762000001
20
137.72531001999999
30
0
40
3.0000016200014024
210
0
220
0
230
1
100
AcDbArc
50
-90
51
5.4954114185536863e-05
0
ARC
5
193
100
AcDbEntity
8
0
100
AcDbCircle
10
297.33146019999998
20
7.5000002400000012
30
0
40
3.0000016199999635
210
0
220
0
230
1
100
AcDbArc
50
0
51
90
0
CIRCLE
5
194
100
AcDbEntity
8
0
100
AcDbCircle
10
300.87901160050001
20
113.9944226043
30
0
40
1.5999999999999659
210
0
220
0
230
1
0
CIRCLE
5
195
100
AcDbEntity
8
0
100
AcDbCircle
10
364.06291424000005
20
5.0000001599999999
30
0
40
1.5999999999999659
210
0
220
0
230
1
0
CIRCLE
5
196
100
AcDbEntity
8
0
100
AcDbCircle
10
364.06291170000003
20
140.22531264000003
30
0
40
1.6000000000000234
210
0
220
0
230
1
0
CIRCLE
5
197
100
AcDbEntity
8
0
100
AcDbCircle
10
102.23347161390001
20
33.453175076299999
30
0
40
1.6000000000000092
210
0
220
0
230
1
0
ARC
5
198
100
AcDbEntity
8
0
100
AcDbCircle
10
304.53146104000001
20
7.5000018228999998
30
0
40
4.1999992200003931
210
0
220
0
230
1
100
AcDbArc
50
-179.99997841792617
51
2.1582073847120589e-05
0
ARC
5
199
100
AcDbEntity
8
0
100
AcDbCircle
10
367.06293089900009
20
143.2253148225
30
0
40
1.9999649575816145
210
0
220
-0
230
1
100
AcDbArc
50
0.65834856645025597
51
90.000430843166342
0
ARC
5
200
100
AcDbEntity
8
0
100
AcDbCircle
10
217.3314551
20
137.72531001999999
30
0
40
3.0000016200000879
210
0
220
0
230
1
100
AcDbArc
50
-90
51
8.8641718210318903
0
CIRCLE
5
201
100
AcDbEntity
8
0
100
AcDbCircle
10
364.06291424000005
20
72.612638619999998
30
0
40
1.5999999999999659
210
0
220
0
230
1
0
ARC
5
202
100
AcDbEntity
8
0
100
AcDbCircle
10
53.000000159999985
20
141.72530839999945
30
0
40
6.9999999999999929
210
0
220
0
230
1
100
AcDbArc
50
180
51
269.99999999999471
0
ARC
5
203
100
AcDbEntity
8
0
100
AcDbCircle
10
22.000000384092921
20
141.72530840000005
30
0
40
6.9999999999999751
210
0
220
0
230
1
100
AcDbArc
50
269.99999999999989
51
359.99999829245274
0
ENDSEC
0
SECTION
2
OBJECTS
0
DICTIONARY
5
C
100
AcDbDictionary
3
ACAD_GROUP
350
D
3
ACAD_MLINESTYLE
350
17
0
DICTIONARY
5
D
100
AcDbDictionary
0
DICTIONARY
5
1A
330
C
100
AcDbDictionary
0
DICTIONARY
5
17
100
AcDbDictionary
0
ENDSEC
0
EOF
