<?xml version="1.0" encoding="utf-8"?>
<!-- Generator: Adobe Illustrator 25.0.0, SVG Export Plug-In . SVG Version: 6.00 Build 0)  -->
<svg version="1.1" id="图层_1" xmlns="http://www.w3.org/2000/svg" xmlns:xlink="http://www.w3.org/1999/xlink" x="0px" y="0px"
	 viewBox="0 0 522.83 122.8" style="enable-background:new 0 0 522.83 122.8;" xml:space="preserve">
<style type="text/css">
	.st0{fill:#E60012;}
	.st1{fill:#359BFF;}
</style>
<g id="图层_3">
</g>
<g id="图层_2">
	<g>
		<g>
			<path class="st0" d="M51.18,89.28c-0.47-0.83-1.1-1.83-1.9-2.99c-0.58-0.79-1.77-1.19-3.58-1.19c-0.8,0-1.47,0.04-2.01,0.11
				c-0.54,0.07-1,0.15-1.36,0.22c-10.93,1.3-19.43,1.95-25.51,1.95c-0.94,0-1.52-0.16-1.74-0.49c-0.22-0.33-0.33-0.99-0.33-2.01
				V28.54c0.14-0.87,0.22-1.45,0.22-1.74c0-1.16-0.27-2.04-0.81-2.66c-0.54-0.61-1.21-1.18-2.01-1.68c-1.16-0.72-2.03-1.3-2.61-1.74
				c-1.45-1.01-2.73-1.79-3.85-2.33c-1.12-0.54-2.33-0.81-3.64-0.81c-0.72,0-1.23,0.18-1.52,0.54c-0.29,0.36-0.33,0.72-0.11,1.09
				c1.09,2.24,1.79,4.87,2.12,7.87c0.33,3,0.49,6.53,0.49,10.58L2.71,82.71c0,1.09-0.13,2.14-0.38,3.15
				c-0.25,1.01-0.56,1.52-0.92,1.52c-0.94,0-1.41,0.43-1.41,1.3c0,0.8,0.29,1.67,0.87,2.61c0.94,1.45,2.21,3.11,3.8,4.99l1.52,1.74
				c0.58,0.72,1.16,1.08,1.74,1.08c0.36,0,1.18-0.27,2.44-0.81c1.27-0.54,2.66-0.89,4.18-1.03c5.79-0.72,12.59-1.08,20.41-1.08
				c5.72,0,10.24,0.25,13.57,0.76c0.43,0.07,1.05,0.11,1.85,0.11c2.03,0,3.04-0.69,3.04-2.06c0-0.58-0.15-1.16-0.43-1.74
				C52.25,91.43,51.65,90.11,51.18,89.28z"/>
			<path class="st0" d="M116.32,89.28c-0.47-0.83-1.1-1.83-1.9-2.99c-0.58-0.79-1.77-1.19-3.58-1.19c-0.8,0-1.47,0.04-2.01,0.11
				c-0.54,0.07-1,0.15-1.36,0.22c-10.93,1.3-19.43,1.95-25.51,1.95c-0.94,0-1.52-0.16-1.74-0.49c-0.22-0.33-0.33-0.99-0.33-2.01
				V28.54c0.14-0.87,0.22-1.45,0.22-1.74c0-1.16-0.27-2.04-0.81-2.66c-0.54-0.61-1.21-1.18-2.01-1.68c-1.16-0.72-2.03-1.3-2.61-1.74
				c-1.45-1.01-2.73-1.79-3.85-2.33c-1.12-0.54-2.33-0.81-3.64-0.81c-0.72,0-1.23,0.18-1.52,0.54c-0.29,0.36-0.33,0.72-0.11,1.09
				c1.09,2.24,1.79,4.87,2.12,7.87c0.33,3,0.49,6.53,0.49,10.58l-0.33,45.05c0,1.09-0.13,2.14-0.38,3.15
				c-0.25,1.01-0.56,1.52-0.92,1.52c-0.94,0-1.41,0.43-1.41,1.3c0,0.8,0.29,1.67,0.87,2.61c0.94,1.45,2.21,3.11,3.8,4.99l1.52,1.74
				c0.58,0.72,1.16,1.08,1.74,1.08c0.36,0,1.18-0.27,2.44-0.81c1.27-0.54,2.66-0.89,4.18-1.03c5.79-0.72,12.59-1.08,20.41-1.08
				c5.72,0,10.24,0.25,13.57,0.76c0.43,0.07,1.05,0.11,1.85,0.11c2.03,0,3.04-0.69,3.04-2.06c0-0.58-0.15-1.16-0.43-1.74
				C117.38,91.43,116.79,90.11,116.32,89.28z"/>
			<path class="st0" d="M179.76,25.01c-5.14-2.57-10.64-3.85-16.5-3.85c-5.86,0-11.36,1.29-16.5,3.85
				c-5.14,2.57-9.32,6.69-12.54,12.38c-3.22,5.68-4.83,12.94-4.83,21.76c0,8.83,1.61,16.09,4.83,21.77
				c3.22,5.68,7.4,9.81,12.54,12.38c5.14,2.57,10.64,3.85,16.5,3.85c4.65,0,9.07-0.82,13.27-2.44c1.78,2.95,3.04,5.5,3.77,7.65
				c1.09,3.26,2.42,4.88,4.02,4.88c1.3,0,2.68-1.16,4.12-3.47c1.01-1.59,1.75-2.9,2.23-3.91c0.47-1.01,0.71-1.99,0.71-2.93
				c0-2.24-1.59-4.74-4.78-7.49c-0.2-0.17-0.38-0.33-0.58-0.5c2.39-2.2,4.49-4.86,6.28-8.02c3.22-5.68,4.83-12.93,4.83-21.77
				c0-8.83-1.61-16.08-4.83-21.76C189.08,31.71,184.9,27.58,179.76,25.01z M182.86,76.36c-1.6,2.47-3.36,4.45-5.29,5.96
				c-1.91-1.29-4.17-2.67-6.82-4.17c-0.8-0.43-1.52-0.65-2.17-0.65c-0.58,0-1.03,0.13-1.36,0.38c-0.33,0.25-0.49,0.63-0.49,1.14
				c0,0.58,0.25,1.23,0.76,1.95c1.12,1.63,2.17,3.19,3.2,4.71c-2.53,0.76-5.01,1.15-7.43,1.15c-3.33,0-6.77-0.72-10.31-2.17
				c-3.55-1.45-6.64-4.21-9.28-8.3c-2.64-4.09-3.96-9.82-3.96-17.21c0-7.38,1.32-13.12,3.96-17.21c2.64-4.09,5.73-6.86,9.28-8.3
				c3.54-1.45,6.98-2.17,10.31-2.17c3.33,0,6.77,0.72,10.31,2.17c3.54,1.45,6.64,4.22,9.28,8.3c2.64,4.09,3.96,9.82,3.96,17.21
				C186.82,66.53,185.5,72.27,182.86,76.36z"/>
			<rect x="344.8" y="62.08" class="st0" width="45.38" height="6.51"/>
			<path class="st0" d="M444.44,55.49c0.7-0.54,1.36-1.12,1.96-1.76c3.83-4.12,5.75-9.19,5.75-15.2c0-5.86-1.85-10.78-5.54-14.76
				c-3.69-3.98-9.34-6.08-16.93-6.3h-0.76c-8.25,0-14.17,2.1-17.75,6.3c-3.58,4.2-5.37,9.23-5.37,15.09
				c0,5.72,1.79,10.66,5.37,14.82c0.69,0.8,1.49,1.5,2.35,2.14c-3.86,2.27-6.77,5.13-8.7,8.61c-2.03,3.66-3.04,7.4-3.04,11.24
				c0,3.98,1.01,7.69,3.04,11.13c2.03,3.44,5.1,6.21,9.23,8.3c4.12,2.1,9.19,3.15,15.2,3.15c6.01,0,11.07-1.05,15.2-3.15
				c4.12-2.1,7.2-4.87,9.23-8.3c2.03-3.44,3.04-7.15,3.04-11.13c0-3.83-1.01-7.58-3.04-11.24C451.66,60.78,448.58,57.8,444.44,55.49
				z M417.15,29.41c2.21-2.68,6.13-4.02,11.78-4.02h0.76c5.14,0.22,8.85,1.65,11.13,4.29c2.28,2.64,3.42,5.77,3.42,9.39
				c0,3.47-1.25,6.5-3.75,9.06c-2.5,2.57-6.35,3.85-11.56,3.85c-5.72,0-9.66-1.28-11.83-3.85c-2.17-2.57-3.26-5.66-3.26-9.28
				C413.84,35.23,414.94,32.09,417.15,29.41z M442.93,85.26c-3.04,2.57-7.6,3.85-13.68,3.85s-10.64-1.28-13.68-3.85
				c-3.04-2.57-4.56-5.77-4.56-9.61c0-2.46,0.65-4.79,1.95-7c1.3-2.21,3.31-4.02,6.03-5.43s6.13-2.12,10.26-2.12
				s7.54,0.71,10.26,2.12s4.72,3.22,6.02,5.43c1.3,2.21,1.95,4.54,1.95,7C447.49,79.49,445.97,82.69,442.93,85.26z"/>
			<path class="st0" d="M522.72,94.32c-0.29-1.66-0.58-2.89-0.87-3.69c-0.29-0.8-0.8-1.81-1.52-3.04c-0.43-0.72-1.25-1.25-2.44-1.57
				c-1.19-0.33-2.52-0.45-3.96-0.38l-5.1,0.33c-1.81,0.07-5.43,0.24-10.86,0.49c-5.43,0.25-10.31,0.38-14.66,0.38
				c-2.55,0-4.9-0.05-7.06-0.15c0.84-0.92,1.79-1.81,2.83-2.67c2.82-2.32,6.87-5.14,12.16-8.47l6.19-3.91
				c6.22-4.12,11.67-8.92,16.34-14.38c4.67-5.46,7-11.56,7-18.29c0-3.69-0.76-7.18-2.28-10.48c-1.52-3.29-3.98-6.01-7.38-8.14
				c-3.4-2.13-7.75-3.2-13.03-3.2c-12.67,0-22.69,4.38-30.07,13.14c-0.43,0.43-0.65,1.05-0.65,1.85c0,0.8,0.18,1.56,0.54,2.28
				c0.14,0.36,0.43,0.92,0.87,1.68c0.43,0.76,0.98,1.83,1.63,3.2c0.29,0.58,0.71,1.07,1.25,1.47c0.54,0.4,1.14,0.6,1.79,0.6
				c1.3,0,2.42-0.87,3.37-2.61c2.02-4.05,4.92-6.95,8.68-8.68c3.76-1.74,7.96-2.6,12.59-2.6c4.41,0,7.63,0.8,9.66,2.39
				c2.03,1.59,3.04,4.34,3.04,8.25c0,4.78-1.52,9.19-4.56,13.24c-3.04,4.05-7.35,7.89-12.92,11.51l-3.58,2.28
				c-7.09,4.56-12.39,8.3-15.9,11.24c-3.23,2.7-5.74,5.79-7.53,9.26c-0.95-0.11-1.43,0.39-1.43,1.55c0,0.8,0.18,1.38,0.54,1.74
				c0.72,0.72,1.74,1.95,3.04,3.69c0.87,1.3,1.66,2.32,2.39,3.04c0.58,0.58,1.03,0.98,1.36,1.19c0.33,0.22,0.71,0.33,1.14,0.33
				c0.36,0,1.05-0.13,2.06-0.38c1.01-0.25,1.95-0.45,2.82-0.6c4.49-0.72,10.53-1.09,18.13-1.09c5.72,0,10.38,0.22,14,0.65
				c2.82,0.29,5.35,0.87,7.6,1.74c0.94,0.36,1.74,0.54,2.39,0.54c1.66,0,2.5-0.87,2.5-2.61C522.83,94.97,522.79,94.61,522.72,94.32z
				"/>
		</g>
		<g>
			<g>
				<polygon class="st1" points="272.96,59.33 281.14,80.58 300.46,32.53 252.16,53.09 				"/>
				<path class="st1" d="M323.31,0H220.73c-5.58,0-10.11,4.53-10.11,10.11v102.58c0,5.58,4.53,10.11,10.11,10.11h102.58
					c5.58,0,10.11-4.53,10.11-10.11V10.11C333.42,4.53,328.89,0,323.31,0z M281.39,105.35l-14.72-38.39l-38.78-12.88l87.19-36.93
					L281.39,105.35z"/>
			</g>
		</g>
	</g>
</g>
</svg>
