0
SECTION
2
HEADER
9
$INSUNITS
70
4
9
$ACADVER
1
AC1014
9
$HANDSEED
5
FFFF
0
ENDSEC
0
SECTION
2
TABLES
0
TABLE
2
VPORT
5
8
100
AcDbSymbolTable
0
ENDTAB
0
TABLE
2
LTYPE
5
5
100
AcDbSymbolTable
0
LTYPE
5
14
100
AcDbSymbolTableRecord
100
AcDbLinetypeTableRecord
2
BYBLOCK
70
0
0
LTYPE
5
15
100
AcDbSymbolTableRecord
100
AcDbLinetypeTableRecord
2
BYLAYER
70
0
0
ENDTAB
0
TABLE
2
LAYER
5
2
100
AcDbSymbolTable
70
2
0
LAYER
5
50
100
AcDbSymbolTableRecord
100
AcDbLayerTableRecord
2
0
70
0
6
CONTINUOUS
0
ENDTAB
0
TABLE
2
STYLE
5
3
100
AcDbSymbolTable
70
1
0
STYLE
5
11
100
AcDbSymbolTableRecord
100
AcDbTextStyleTableRecord
2
STANDARD
70
0
0
ENDTAB
0
TABLE
2
VIEW
5
6
100
AcDbSymbolTable
70
0
0
ENDTAB
0
TABLE
2
UCS
5
7
100
AcDbSymbolTable
70
0
0
ENDTAB
0
TABLE
2
APPID
5
9
100
AcDbSymbolTable
70
2
0
APPID
5
12
100
AcDbSymbolTableRecord
100
AcDbRegAppTableRecord
2
ACAD
70
0
0
ENDTAB
0
TABLE
2
DIMSTYLE
5
A
100
AcDbSymbolTable
70
1
0
ENDTAB
0
TABLE
2
BLOCK_RECORD
5
1
100
AcDbSymbolTable
70
1
0
BLOCK_RECORD
5
1F
100
AcDbSymbolTableRecord
100
AcDbBlockTableRecord
2
*MODEL_SPACE
0
BLOCK_RECORD
5
1B
100
AcDbSymbolTableRecord
100
AcDbBlockTableRecord
2
*PAPER_SPACE
0
ENDTAB
0
ENDSEC
0
SECTION
2
BLOCKS
0
BLOCK
5
20
100
AcDbEntity
100
AcDbBlockBegin
2
*MODEL_SPACE
0
ENDBLK
5
21
100
AcDbEntity
100
AcDbBlockEnd
0
BLOCK
5
1C
100
AcDbEntity
100
AcDbBlockBegin
2
*PAPER_SPACE
0
ENDBLK
5
1D
100
AcDbEntity
100
AcDbBlockEnd
0
ENDSEC
0
SECTION
2
ENTITIES
0
LWPOLYLINE
5
100
100
AcDbEntity
8
0
100
AcDbPolyline
90
20
70
1
43
0.0
10
78.724615220000032
20
121.30030604
10
92.723914120000018
20
121.30030604
10
92.723914120000018
20
120.30030804
10
93.523315620000034
20
120.30030804
10
93.523315620000034
20
117.20030662000001
10
92.723914120000018
20
117.20030662000001
10
92.723914120000018
20
111.40030806
10
93.523315620000034
20
111.40030806
10
93.523315620000034
20
108.30030664
10
92.723914120000018
20
108.30030664
10
92.723914120000018
20
107.30130686000001
10
78.724615220000032
20
107.30130686000001
10
78.724615220000032
20
108.30030664
10
77.92381417999998
20
108.30030664
10
77.92381417999998
20
111.40030806
10
78.724615220000032
20
111.40030806
10
78.724615220000032
20
117.20030662000001
10
77.92381417999998
20
117.20030662000001
10
77.92381417999998
20
120.30030804
10
78.724615220000032
20
120.30030804
0
LWPOLYLINE
5
101
100
AcDbEntity
8
0
100
AcDbPolyline
90
20
70
1
43
0.0
10
264.17391411999995
20
111.40030806
10
264.97491581999998
20
111.40030806
10
264.97491581999998
20
108.30030664
10
264.17391411999995
20
108.30030664
10
264.17391411999995
20
107.30130686000001
10
250.17491494000001
20
107.30130686000001
10
250.17491494000001
20
108.30030664
10
249.37391578000003
20
108.30030664
10
249.37391578000003
20
111.40030806
10
250.17491494000001
20
111.40030806
10
250.17491494000001
20
117.20030662000001
10
249.37391578000003
20
117.20030662000001
10
249.37391578000003
20
120.30030804
10
250.17491494000001
20
120.30030804
10
250.17491494000001
20
121.30030604
10
264.17391411999995
20
121.30030604
10
264.17391411999995
20
120.30030804
10
264.97491581999998
20
120.30030804
10
264.97491581999998
20
117.20030662000001
10
264.17391411999995
20
117.20030662000001
0
LWPOLYLINE
5
102
100
AcDbEntity
8
0
100
AcDbPolyline
90
20
70
1
43
0.0
10
178.73691456
20
22.575006919999968
10
177.9359154
20
22.575006919999968
10
177.9359154
20
25.675607780000011
10
178.73691456
20
25.675607780000011
10
178.73691456
20
31.47580700000001
10
177.9359154
20
31.47580700000001
10
177.9359154
20
34.575005779999977
10
178.73691456
20
34.575005779999977
10
178.73691456
20
35.575306039999965
10
192.73691450000001
20
35.575306039999965
10
192.73691450000001
20
34.575005779999977
10
193.53591468000002
20
34.575005779999977
10
193.53591468000002
20
31.47580700000001
10
192.73691450000001
20
31.47580700000001
10
192.73691450000001
20
25.675607780000011
10
193.53591468000002
20
25.675607780000011
10
193.53591468000002
20
22.575006919999968
10
192.73691450000001
20
22.575006919999968
10
192.73691450000001
20
21.575908080000001
10
178.73691456
20
21.575908080000001
0
LWPOLYLINE
5
103
100
AcDbEntity
8
0
100
AcDbPolyline
90
20
70
1
43
0.0
10
88.249615220000024
20
73.675407640000003
10
102.24891411999998
20
73.675407640000003
10
102.24891411999998
20
72.674906719999981
10
103.04991582
20
72.674906719999981
10
103.04991582
20
69.575707939999972
10
102.24891411999998
20
69.575707939999972
10
102.24891411999998
20
63.775706839999998
10
103.04991582
20
63.775706839999998
10
103.04991582
20
60.675105979999991
10
102.24891411999998
20
60.675105979999991
10
102.24891411999998
20
59.676106200000021
10
88.249615220000024
20
59.676106200000021
10
88.249615220000024
20
60.675105979999991
10
87.448814179999985
20
60.675105979999991
10
87.448814179999985
20
63.775706839999998
10
88.249615220000024
20
63.775706839999998
10
88.249615220000024
20
69.575707939999972
10
87.448814179999985
20
69.575707939999972
10
87.448814179999985
20
72.674906719999981
10
88.249615220000024
20
72.674906719999981
0
ARC
5
104
100
AcDbEntity
8
0
100
AcDbCircle
10
286.62006425423647
20
126.98742709545321
30
0
40
3.2116140422843289
210
0
220
0
230
1
100
AcDbArc
50
-79.199087207957632
51
0.67582737154015171
0
ARC
5
105
100
AcDbEntity
8
0
100
AcDbCircle
10
301.03145787999995
20
127.02530855999998
30
0
40
3.2000012200031236
210
0
220
0
230
1
100
AcDbArc
50
179.99991855518499
51
270
0
LINE
5
106
100
AcDbEntity
8
0
100
AcDbLine
10
287.22191097402418
20
123.83270915521217
30
0
11
221.03145787226865
21
123.82820359136952
31
0
0
ARC
5
107
100
AcDbEntity
8
0
100
AcDbCircle
10
206.60625990481807
20
126.9406341851105
30
0
40
3.2234405743076349
210
0
220
0
230
1
100
AcDbArc
50
-73.695887144096872
51
1.5233188948445184
0
ARC
5
108
100
AcDbEntity
8
0
100
AcDbCircle
10
221.03145785999999
20
127.02530855999998
30
0
40
3.1971049686304811
210
0
220
0
230
1
100
AcDbArc
50
179.99991954570606
51
270.00000021986835
0
LINE
5
109
100
AcDbEntity
8
0
100
AcDbLine
10
207.51119444715184
20
123.84682381435667
30
0
11
141.03146067405413
21
123.8253077345976
31
0
0
ARC
5
110
100
AcDbEntity
8
0
100
AcDbCircle
10
141.03146038
20
127.02530855999998
30
0
40
3.2000008254024177
210
0
220
0
230
1
100
AcDbArc
50
179.95054835216854
51
270.00000526501759
0
ARC
5
111
100
AcDbEntity
8
0
100
AcDbCircle
10
-3.2000012199999999
20
89.712652680000033
30
0
40
3.200003760000004
210
0
220
0
230
1
100
AcDbArc
50
0
51
90.000000000000014
0
ARC
5
112
100
AcDbEntity
8
0
100
AcDbCircle
10
61.03146289999998
20
-3.2000012199999999
30
0
40
3.2000062999999912
210
0
220
-0
230
1
100
AcDbArc
50
89.999995563070584
51
180
0
LWPOLYLINE
5
113
100
AcDbEntity
8
0
100
AcDbPolyline
90
20
70
1
43
0.0
10
312.08691456000008
20
34.575005779999977
10
312.08691456000008
20
35.575306039999965
10
326.08691450000009
20
35.575306039999965
10
326.08691450000009
20
34.575005779999977
10
326.88591467999998
20
34.575005779999977
10
326.88591467999998
20
31.47580700000001
10
326.08691450000009
20
31.47580700000001
10
326.08691450000009
20
25.675607780000011
10
326.88591467999998
20
25.675607780000011
10
326.88591467999998
20
22.575006919999968
10
326.08691450000009
20
22.575006919999968
10
326.08691450000009
20
21.575908080000001
10
312.08691456000008
20
21.575908080000001
10
312.08691456000008
20
22.575006919999968
10
311.28591540000002
20
22.575006919999968
10
311.28591540000002
20
25.675607780000011
10
312.08691456000008
20
25.675607780000011
10
312.08691456000008
20
31.47580700000001
10
311.28591540000002
20
31.47580700000001
10
311.28591540000002
20
34.575005779999977
0
LINE
5
114
100
AcDbEntity
8
0
100
AcDbLine
10
0
20
24.712650599999989
30
0
11
0
21
0
31
0
0
ARC
5
115
100
AcDbEntity
8
0
100
AcDbCircle
10
213.83145702000002
20
127.02530855999998
30
0
40
4.0028958713751752
210
0
220
-0
230
1
100
AcDbArc
50
6.4254621177682979e-05
51
179.9854442502606
0
LINE
5
116
100
AcDbEntity
8
0
100
AcDbLine
10
141.03146292
20
5.080000000101669e-06
30
0
11
206.63145618000001
21
9.0594198809412774e-13
31
0
0
ARC
5
117
100
AcDbEntity
8
0
100
AcDbCircle
10
53.831459520000003
20
-3.2000012199999999
30
0
40
3.9999996200009793
210
0
220
0
230
1
100
AcDbArc
50
-179.99995989080816
51
0
0
ARC
5
118
100
AcDbEntity
8
0
100
AcDbCircle
10
293.83145704000009
20
127.02530855999998
30
0
40
3.9999996200025043
210
0
220
-0
230
1
100
AcDbArc
50
6.5150258046257469e-05
51
180
0
ARC
5
119
100
AcDbEntity
8
0
100
AcDbCircle
10
-3.2000012199999999
20
96.912656060000018
30
0
40
3.9999996199999899
210
0
220
0
230
1
100
AcDbArc
50
90.000000000000014
51
270
0
ARC
5
120
100
AcDbEntity
8
0
100
AcDbCircle
10
141.03146292
20
-3.2000012199999999
30
0
40
3.2000063000000001
210
0
220
-0
230
1
100
AcDbArc
50
90
51
180
0
ARC
5
121
100
AcDbEntity
8
0
100
AcDbCircle
10
221.03116569526989
20
-3.1996543222275702
30
0
40
3.1997116140744049
210
0
220
-0
230
1
100
AcDbArc
50
89.998153102572587
51
180.00621174544611
0
ARC
5
122
100
AcDbEntity
8
0
100
AcDbCircle
10
126.63145870000001
20
-3.2000012199999999
30
0
40
3.2000012199999972
210
0
220
0
230
1
100
AcDbArc
50
0
51
90
0
LINE
5
123
100
AcDbEntity
8
0
100
AcDbLine
10
2.5400000042141717e-06
20
89.712652696449993
30
0
11
-1.2699999984988608e-05
21
39.112654819992265
31
0
0
ARC
5
124
100
AcDbEntity
8
0
100
AcDbCircle
10
293.83145704000009
20
-3.2000012199999999
30
0
40
3.9999996200017698
210
0
220
0
230
1
100
AcDbArc
50
-179.99994759888173
51
0
0
LINE
5
125
100
AcDbEntity
8
0
100
AcDbLine
10
301.03146076860662
20
5.0799999617989764e-06
30
0
11
347.66291402000002
21
0
31
0
0
ARC
5
126
100
AcDbEntity
8
0
100
AcDbCircle
10
-3.2000012199999999
20
24.712650599999989
30
0
40
3.2000012199999999
210
0
220
0
230
1
100
AcDbArc
50
0
51
90.000000000000114
0
ARC
5
127
100
AcDbEntity
8
0
100
AcDbCircle
10
46.631458680000001
20
-3.2000012199999999
30
0
40
3.2000012200012318
210
0
220
0
230
1
100
AcDbArc
50
-5.0133309355952533e-05
51
89.999999999999872
0
LINE
5
128
100
AcDbEntity
8
0
100
AcDbLine
10
347.66290894000002
20
39.11265736
30
0
11
347.66291910000001
21
89.712655220000016
31
0
0
ARC
5
129
100
AcDbEntity
8
0
100
AcDbCircle
10
206.63145618000001
20
-3.2000012199999999
30
0
40
3.2000012200008991
210
0
220
0
230
1
100
AcDbArc
50
-4.3859375180178796e-05
51
90
0
LINE
5
130
100
AcDbEntity
8
0
100
AcDbLine
10
0
20
0
30
0
11
46.631458680000009
21
1.2323475573339238e-12
31
0
0
LINE
5
131
100
AcDbEntity
8
0
100
AcDbLine
10
61.031463147805354
20
5.0799999817829899e-06
30
0
11
126.63145870000001
21
-2.7755575615628914e-15
31
0
0
LWPOLYLINE
5
132
100
AcDbEntity
8
0
100
AcDbPolyline
90
20
70
1
43
0.0
10
135.87491494000002
20
92.72540764
10
149.87391411999999
20
92.72540764
10
149.87391411999999
20
91.724906720000007
10
150.67491582
20
91.724906720000007
10
150.67491582
20
88.625707939999984
10
149.87391411999999
20
88.625707939999984
10
149.87391411999999
20
82.825706839999981
10
150.67491582
20
82.825706839999981
10
150.67491582
20
79.725105979999981
10
149.87391411999999
20
79.725105979999981
10
149.87391411999999
20
78.726106199999975
10
135.87491494000002
20
78.726106199999975
10
135.87491494000002
20
79.725105979999981
10
135.07391577999999
20
79.725105979999981
10
135.07391577999999
20
82.825706839999981
10
135.87491494000002
20
82.825706839999981
10
135.87491494000002
20
88.625707939999984
10
135.07391577999999
20
88.625707939999984
10
135.07391577999999
20
91.724906720000007
10
135.87491494000002
20
91.724906720000007
0
LINE
5
133
100
AcDbEntity
8
0
100
AcDbLine
10
347.66291402000002
20
0
30
0
11
347.66291401999763
21
24.71265314
31
0
0
ARC
5
134
100
AcDbEntity
8
0
100
AcDbCircle
10
350.86291523999984
20
89.712655220000016
30
0
40
3.2000012199995838
210
0
220
-0
230
1
100
AcDbArc
50
89.946192454940331
51
180
0
ARC
5
135
100
AcDbEntity
8
0
100
AcDbCircle
10
46.631456140000004
20
127.02530855999998
30
0
40
3.2000012199999972
210
0
220
0
230
1
100
AcDbArc
50
270
51
359.99999914622634
0
ARC
5
136
100
AcDbEntity
8
0
100
AcDbCircle
10
350.86291523999984
20
24.71265314
30
0
40
3.2000012200021484
210
0
220
-0
230
1
100
AcDbArc
50
89.999933629819324
51
180
0
ARC
5
137
100
AcDbEntity
8
0
100
AcDbCircle
10
286.6314562
20
-3.2000012199999999
30
0
40
3.2000012200020884
210
0
220
0
230
1
100
AcDbArc
50
-6.5496181163425689e-05
51
90
0
ARC
5
138
100
AcDbEntity
8
0
100
AcDbCircle
10
-3.2001773679964685
20
39.112565309228522
30
0
40
3.2001646692483066
210
0
220
0
230
1
100
AcDbArc
50
-89.458955532003401
51
0.0016026015891487512
0
LINE
5
139
100
AcDbEntity
8
0
100
AcDbLine
10
0
20
123.82530733999999
30
0
11
0
21
104.1126569
31
0
0
ARC
5
140
100
AcDbEntity
8
0
100
AcDbCircle
10
213.83145702000002
20
-3.2000012199999999
30
0
40
3.9999996200007755
210
0
220
0
230
1
100
AcDbArc
50
-179.99996491208438
51
0
0
LINE
5
141
100
AcDbEntity
8
0
100
AcDbLine
10
221.03126883618529
20
5.7290184489744433e-05
30
0
11
286.6314562
21
2.088884620832232e-12
31
0
0
ARC
5
142
100
AcDbEntity
8
0
100
AcDbCircle
10
350.86291523999984
20
104.11265944
30
0
40
3.2000012200000327
210
0
220
0
230
1
100
AcDbArc
50
180
51
269.9999999999817
0
ARC
5
143
100
AcDbEntity
8
0
100
AcDbCircle
10
61.031460359999997
20
127.02530855999998
30
0
40
3.1999961399999952
210
0
220
0
230
1
100
AcDbArc
50
170.44469787494526
51
270.00000005889478
0
ARC
5
144
100
AcDbEntity
8
0
100
AcDbCircle
10
-3.2000012199999999
20
31.912653979999991
30
0
40
4.0000021600004043
210
0
220
-0
230
1
100
AcDbArc
50
89.569667905929236
51
269.99999999999989
0
ARC
5
145
100
AcDbEntity
8
0
100
AcDbCircle
10
-3.2000012199999999
20
104.1126569
30
0
40
3.2000012199999972
210
0
220
0
230
1
100
AcDbArc
50
-90.000000000000057
51
0
0
ARC
5
146
100
AcDbEntity
8
0
100
AcDbCircle
10
133.83145954000003
20
127.02530855999998
30
0
40
4.0000021600000215
210
0
220
-0
230
1
100
AcDbArc
50
0.039561305340318036
51
180
0
ARC
5
147
100
AcDbEntity
8
0
100
AcDbCircle
10
350.86291523999984
20
39.11265736
30
0
40
3.2000062999998136
210
0
220
0
230
1
100
AcDbArc
50
180
51
270.00000002063945
0
ARC
5
148
100
AcDbEntity
8
0
100
AcDbCircle
10
126.63145616000001
20
127.02530855999998
30
0
40
3.2000012199999794
210
0
220
0
230
1
100
AcDbArc
50
-90.00000019950312
51
0
0
ARC
5
149
100
AcDbEntity
8
0
100
AcDbCircle
10
350.86291523999984
20
31.912653979999991
30
0
40
3.9999996200017036
210
0
220
0
230
1
100
AcDbArc
50
-89.999946903830164
51
89.999999983488394
0
ARC
5
150
100
AcDbEntity
8
0
100
AcDbCircle
10
350.86291523999984
20
96.912656060000018
30
0
40
4.0000021600001299
210
0
220
0
230
1
100
AcDbArc
50
-89.956953973063676
51
90.000000000014651
0
LINE
5
151
100
AcDbEntity
8
0
100
AcDbLine
10
347.66291401999979
20
104.11265944
30
0
11
347.66291402000002
21
123.82530733999999
31
0
0
LINE
5
152
100
AcDbEntity
8
0
100
AcDbLine
10
126.63145614885765
20
123.82530734000001
30
0
11
61.031460363289298
21
123.82531241999999
31
0
0
ARC
5
153
100
AcDbEntity
8
0
100
AcDbCircle
10
301.03146041999997
20
-3.2000012199999999
30
0
40
3.2000062999999805
210
0
220
-0
230
1
100
AcDbArc
50
89.999993758234282
51
180
0
ARC
5
154
100
AcDbEntity
8
0
100
AcDbCircle
10
53.871655180176994
20
127.0183815377586
30
0
40
4.0402037583580706
210
0
220
-0
230
1
100
AcDbArc
50
7.6541128699996959
51
179.901765787747
0
ARC
5
155
100
AcDbEntity
8
0
100
AcDbCircle
10
133.83145826999998
20
-3.1999604507100603
30
0
40
3.9999983502077585
210
0
220
0
230
1
100
AcDbArc
50
180.00058397742941
51
359.99941602257059
0
LWPOLYLINE
5
156
100
AcDbEntity
8
0
100
AcDbPolyline
90
20
70
1
43
0.0
10
55.424715159999991
20
117.20030662000001
10
54.623914119999988
20
117.20030662000001
10
54.623914119999988
20
111.40030806
10
55.424715159999991
20
111.40030806
10
55.424715159999991
20
108.30030664
10
54.623914119999988
20
108.30030664
10
54.623914119999988
20
107.30130686000001
10
40.62461521999996
20
107.30130686000001
10
40.62461521999996
20
108.30030664
10
39.823814179999992
20
108.30030664
10
39.823814179999992
20
111.40030806
10
40.62461521999996
20
111.40030806
10
40.62461521999996
20
117.20030662000001
10
39.823814179999992
20
117.20030662000001
10
39.823814179999992
20
120.30030804
10
40.62461521999996
20
120.30030804
10
40.62461521999996
20
121.30030604
10
54.623914119999988
20
121.30030604
10
54.623914119999988
20
120.30030804
10
55.424715159999991
20
120.30030804
0
LWPOLYLINE
5
157
100
AcDbEntity
8
0
100
AcDbPolyline
90
20
70
1
43
0.0
10
42.717714919999992
20
16.525407640000012
10
42.717714919999992
20
15.525005780000001
10
43.517113879999982
20
15.525005780000001
10
43.517113879999982
20
12.427107479999986
10
42.717714919999992
20
12.427107479999986
10
42.717714919999992
20
6.6255976200000077
10
43.517113879999982
20
6.6255976200000077
10
43.517113879999982
20
3.5250373999999951
10
42.717714919999992
20
3.5250373999999951
10
42.717714919999992
20
2.5259461799999983
10
28.716914880000001
20
2.5259461799999983
10
28.716914880000001
20
3.5250373999999951
10
27.917714039999986
20
3.5250373999999951
10
27.917714039999986
20
6.6255976200000077
10
28.716914880000001
20
6.6255976200000077
10
28.716914880000001
20
12.427107479999986
10
27.917714039999986
20
12.427107479999986
10
27.917714039999986
20
15.525005780000001
10
28.716914880000001
20
15.525005780000001
10
28.716914880000001
20
16.525407640000012
0
LINE
5
158
100
AcDbEntity
8
0
100
AcDbLine
10
315.63091560000009
20
123.82530733999999
30
0
11
301.03145787999995
21
123.82530733999687
31
0
0
LWPOLYLINE
5
159
100
AcDbEntity
8
0
100
AcDbPolyline
90
20
70
1
43
0.0
10
45.899715159999992
20
69.575707939999972
10
45.098914119999982
20
69.575707939999972
10
45.098914119999982
20
63.775706839999998
10
45.899715159999992
20
63.775706839999998
10
45.899715159999992
20
60.675105979999991
10
45.098914119999982
20
60.675105979999991
10
45.098914119999982
20
59.676106200000021
10
31.09961521999999
20
59.676106200000021
10
31.09961521999999
20
60.675105979999991
10
30.29891577999997
20
60.675105979999991
10
30.29891577999997
20
63.775706839999998
10
31.09961521999999
20
63.775706839999998
10
31.09961521999999
20
69.575707939999972
10
30.29891577999997
20
69.575707939999972
10
30.29891577999997
20
72.674906719999981
10
31.09961521999999
20
72.674906719999981
10
31.09961521999999
20
73.675407640000003
10
45.098914119999982
20
73.675407640000003
10
45.098914119999982
20
72.674906719999981
10
45.899715159999992
20
72.674906719999981
0
LWPOLYLINE
5
160
100
AcDbEntity
8
0
100
AcDbPolyline
90
20
70
1
43
0.0
10
22.085815619999991
20
63.775706839999998
10
22.085815619999991
20
60.675105979999991
10
21.286614780000011
20
60.675105979999991
10
21.286614780000011
20
59.676106200000021
10
7.2870745799999881
20
59.676106200000021
10
7.2870745799999881
20
60.675105979999991
10
6.4864462599999939
20
60.675105979999991
10
6.4864462599999939
20
63.775706839999998
10
7.2870745799999881
20
63.775706839999998
10
7.2870745799999881
20
69.575707939999972
10
6.4864462599999939
20
69.575707939999972
10
6.4864462599999939
20
72.674906719999981
10
7.2870745799999881
20
72.674906719999981
10
7.2870745799999881
20
73.675407640000003
10
21.286614780000011
20
73.675407640000003
10
21.286614780000011
20
72.674906719999981
10
22.085815619999991
20
72.674906719999981
10
22.085815619999991
20
69.575707939999972
10
21.286614780000011
20
69.575707939999972
10
21.286614780000011
20
63.775706839999998
0
LWPOLYLINE
5
161
100
AcDbEntity
8
0
100
AcDbPolyline
90
20
70
1
43
0.0
10
169.72491582000001
20
79.725105979999981
10
168.92391412000001
20
79.725105979999981
10
168.92391412000001
20
78.726106199999975
10
154.92491494000001
20
78.726106199999975
10
154.92491494000001
20
79.725105979999981
10
154.12391578
20
79.725105979999981
10
154.12391578
20
82.825706839999981
10
154.92491494000001
20
82.825706839999981
10
154.92491494000001
20
88.625707939999984
10
154.12391578
20
88.625707939999984
10
154.12391578
20
91.724906720000007
10
154.92491494000001
20
91.724906720000007
10
154.92491494000001
20
92.72540764
10
168.92391412000001
20
92.72540764
10
168.92391412000001
20
91.724906720000007
10
169.72491582000001
20
91.724906720000007
10
169.72491582000001
20
88.625707939999984
10
168.92391412000001
20
88.625707939999984
10
168.92391412000001
20
82.825706839999981
10
169.72491582000001
20
82.825706839999981
0
LWPOLYLINE
5
162
100
AcDbEntity
8
0
100
AcDbPolyline
90
20
70
1
43
0.0
10
60.185815620000021
20
34.575005779999977
10
60.185815620000021
20
31.47580700000001
10
59.386414119999991
20
31.47580700000001
10
59.386414119999991
20
25.675607780000011
10
60.185815620000021
20
25.675607780000011
10
60.185815620000021
20
22.575006919999968
10
59.386414119999991
20
22.575006919999968
10
59.386414119999991
20
21.575908080000001
10
45.387115219999998
20
21.575908080000001
10
45.387115219999998
20
22.575006919999968
10
44.586314180000002
20
22.575006919999968
10
44.586314180000002
20
25.675607780000011
10
45.387115219999998
20
25.675607780000011
10
45.387115219999998
20
31.47580700000001
10
44.586314180000002
20
31.47580700000001
10
44.586314180000002
20
34.575005779999977
10
45.387115219999998
20
34.575005779999977
10
45.387115219999998
20
35.575306039999965
10
59.386414119999991
20
35.575306039999965
10
59.386414119999991
20
34.575005779999977
0
LWPOLYLINE
5
163
100
AcDbEntity
8
0
100
AcDbPolyline
90
20
70
1
43
0.0
10
131.62491582000001
20
91.724906720000007
10
131.62491582000001
20
88.625707939999984
10
130.82391411999998
20
88.625707939999984
10
130.82391411999998
20
82.825706839999981
10
131.62491582000001
20
82.825706839999981
10
131.62491582000001
20
79.725105979999981
10
130.82391411999998
20
79.725105979999981
10
130.82391411999998
20
78.726106199999975
10
116.82291596
20
78.726106199999975
10
116.82291596
20
79.725105979999981
10
116.02391577999998
20
79.725105979999981
10
116.02391577999998
20
82.825706839999981
10
116.82291596
20
82.825706839999981
10
116.82291596
20
88.625707939999984
10
116.02391577999998
20
88.625707939999984
10
116.02391577999998
20
91.724906720000007
10
116.82291596
20
91.724906720000007
10
116.82291596
20
92.72540764
10
130.82391411999998
20
92.72540764
10
130.82391411999998
20
91.724906720000007
0
LWPOLYLINE
5
164
100
AcDbEntity
8
0
100
AcDbPolyline
90
20
70
1
43
0.0
10
159.68691455999999
20
35.575306039999965
10
173.6869145
20
35.575306039999965
10
173.6869145
20
34.575005779999977
10
174.48591468000001
20
34.575005779999977
10
174.48591468000001
20
31.47580700000001
10
173.6869145
20
31.47580700000001
10
173.6869145
20
25.675607780000011
10
174.48591468000001
20
25.675607780000011
10
174.48591468000001
20
22.575006919999968
10
173.6869145
20
22.575006919999968
10
173.6869145
20
21.575908080000001
10
159.68691455999999
20
21.575908080000001
10
159.68691455999999
20
22.575006919999968
10
158.88591539999999
20
22.575006919999968
10
158.88591539999999
20
25.675607780000011
10
159.68691455999999
20
25.675607780000011
10
159.68691455999999
20
31.47580700000001
10
158.88591539999999
20
31.47580700000001
10
158.88591539999999
20
34.575005779999977
10
159.68691455999999
20
34.575005779999977
0
LWPOLYLINE
5
165
100
AcDbEntity
8
0
100
AcDbPolyline
90
20
70
1
43
0.0
10
231.63591468000007
20
25.675607780000011
10
231.63591468000007
20
22.575006919999968
10
230.83691450000003
20
22.575006919999968
10
230.83691450000003
20
21.575908080000001
10
216.83691456000005
20
21.575908080000001
10
216.83691456000005
20
22.575006919999968
10
216.03591539999999
20
22.575006919999968
10
216.03591539999999
20
25.675607780000011
10
216.83691456000005
20
25.675607780000011
10
216.83691456000005
20
31.47580700000001
10
216.03591539999999
20
31.47580700000001
10
216.03591539999999
20
34.575005779999977
10
216.83691456000005
20
34.575005779999977
10
216.83691456000005
20
35.575306039999965
10
230.83691450000003
20
35.575306039999965
10
230.83691450000003
20
34.575005779999977
10
231.63591468000007
20
34.575005779999977
10
231.63591468000007
20
31.47580700000001
10
230.83691450000003
20
31.47580700000001
10
230.83691450000003
20
25.675607780000011
0
LWPOLYLINE
5
166
100
AcDbEntity
8
0
100
AcDbPolyline
90
20
70
1
43
0.0
10
78.436414119999966
20
21.575908080000001
10
64.43711522000001
20
21.575908080000001
10
64.43711522000001
20
22.575006919999968
10
63.636314180000007
20
22.575006919999968
10
63.636314180000007
20
25.675607780000011
10
64.43711522000001
20
25.675607780000011
10
64.43711522000001
20
31.47580700000001
10
63.636314180000007
20
31.47580700000001
10
63.636314180000007
20
34.575005779999977
10
64.43711522000001
20
34.575005779999977
10
64.43711522000001
20
35.575306039999965
10
78.436414119999966
20
35.575306039999965
10
78.436414119999966
20
34.575005779999977
10
79.235815619999954
20
34.575005779999977
10
79.235815619999954
20
31.47580700000001
10
78.436414119999966
20
31.47580700000001
10
78.436414119999966
20
25.675607780000011
10
79.235815619999954
20
25.675607780000011
10
79.235815619999954
20
22.575006919999968
10
78.436414119999966
20
22.575006919999968
0
LWPOLYLINE
5
167
100
AcDbEntity
8
0
100
AcDbPolyline
90
20
70
1
43
0.0
10
107.81091468
20
50.525707940000004
10
107.01191450000003
20
50.525707940000004
10
107.01191450000003
20
44.725706840000008
10
107.81091468
20
44.725706840000008
10
107.81091468
20
41.625105979999965
10
107.01191450000003
20
41.625105979999965
10
107.01191450000003
20
40.626106200000009
10
93.012115220000013
20
40.626106200000009
10
93.012115220000013
20
41.625105979999965
10
92.211314180000002
20
41.625105979999965
10
92.211314180000002
20
44.725706840000008
10
93.012115220000013
20
44.725706840000008
10
93.012115220000013
20
50.525707940000004
10
92.211314180000002
20
50.525707940000004
10
92.211314180000002
20
53.624906719999998
10
93.012115220000013
20
53.624906719999998
10
93.012115220000013
20
54.625407639999999
10
107.01191450000003
20
54.625407639999999
10
107.01191450000003
20
53.624906719999998
10
107.81091468
20
53.624906719999998
0
LWPOLYLINE
5
168
100
AcDbEntity
8
0
100
AcDbPolyline
90
20
70
1
43
0.0
10
307.83591468000009
20
69.575707939999972
10
307.03691450000008
20
69.575707939999972
10
307.03691450000008
20
63.775706839999998
10
307.83591468000009
20
63.775706839999998
10
307.83591468000009
20
60.675105979999991
10
307.03691450000008
20
60.675105979999991
10
307.03691450000008
20
59.676106200000021
10
293.03691456000001
20
59.676106200000021
10
293.03691456000001
20
60.675105979999991
10
292.23591540000001
20
60.675105979999991
10
292.23591540000001
20
63.775706839999998
10
293.03691456000001
20
63.775706839999998
10
293.03691456000001
20
69.575707939999972
10
292.23591540000001
20
69.575707939999972
10
292.23591540000001
20
72.674906719999981
10
293.03691456000001
20
72.674906719999981
10
293.03691456000001
20
73.675407640000003
10
307.03691450000008
20
73.675407640000003
10
307.03691450000008
20
72.674906719999981
10
307.83591468000009
20
72.674906719999981
0
LWPOLYLINE
5
169
100
AcDbEntity
8
0
100
AcDbPolyline
90
20
70
1
43
0.0
10
35.573914119999976
20
92.72540764
10
35.573914119999976
20
91.724906720000007
10
36.374715160000015
20
91.724906720000007
10
36.374715160000015
20
88.625707939999984
10
35.573914119999976
20
88.625707939999984
10
35.573914119999976
20
82.825706839999981
10
36.374715160000015
20
82.825706839999981
10
36.374715160000015
20
79.725105979999981
10
35.573914119999976
20
79.725105979999981
10
35.573914119999976
20
78.726106199999975
10
21.574615219999984
20
78.726106199999975
10
21.574615219999984
20
79.725105979999981
10
20.773915779999967
20
79.725105979999981
10
20.773915779999967
20
82.825706839999981
10
21.574615219999984
20
82.825706839999981
10
21.574615219999984
20
88.625707939999984
10
20.773915779999967
20
88.625707939999984
10
20.773915779999967
20
91.724906720000007
10
21.574615219999984
20
91.724906720000007
10
21.574615219999984
20
92.72540764
0
LWPOLYLINE
5
170
100
AcDbEntity
8
0
100
AcDbPolyline
90
20
70
1
43
0.0
10
164.16191449999999
20
50.525707940000004
10
164.16191449999999
20
44.725706840000008
10
164.96091468
20
44.725706840000008
10
164.96091468
20
41.625105979999965
10
164.16191449999999
20
41.625105979999965
10
164.16191449999999
20
40.626106200000009
10
150.16191456000001
20
40.626106200000009
10
150.16191456000001
20
41.625105979999965
10
149.36091540000001
20
41.625105979999965
10
149.36091540000001
20
44.725706840000008
10
150.16191456000001
20
44.725706840000008
10
150.16191456000001
20
50.525707940000004
10
149.36091540000001
20
50.525707940000004
10
149.36091540000001
20
53.624906719999998
10
150.16191456000001
20
53.624906719999998
10
150.16191456000001
20
54.625407639999999
10
164.16191449999999
20
54.625407639999999
10
164.16191449999999
20
53.624906719999998
10
164.96091468
20
53.624906719999998
10
164.96091468
20
50.525707940000004
0
LWPOLYLINE
5
171
100
AcDbEntity
8
0
100
AcDbPolyline
90
20
70
1
43
0.0
10
73.673914119999978
20
79.725105979999981
10
73.673914119999978
20
78.726106199999975
10
59.674615220000007
20
78.726106199999975
10
59.674615220000007
20
79.725105979999981
10
58.873814180000004
20
79.725105979999981
10
58.873814180000004
20
82.825706839999981
10
59.674615220000007
20
82.825706839999981
10
59.674615220000007
20
88.625707939999984
10
58.873814180000004
20
88.625707939999984
10
58.873814180000004
20
91.724906720000007
10
59.674615220000007
20
91.724906720000007
10
59.674615220000007
20
92.72540764
10
73.673914119999978
20
92.72540764
10
73.673914119999978
20
91.724906720000007
10
74.474715160000002
20
91.724906720000007
10
74.474715160000002
20
88.625707939999984
10
73.673914119999978
20
88.625707939999984
10
73.673914119999978
20
82.825706839999981
10
74.474715160000002
20
82.825706839999981
10
74.474715160000002
20
79.725105979999981
0
LWPOLYLINE
5
172
100
AcDbEntity
8
0
100
AcDbPolyline
90
20
70
1
43
0.0
10
135.58691450000001
20
34.575005779999977
10
136.38591468000001
20
34.575005779999977
10
136.38591468000001
20
31.47580700000001
10
135.58691450000001
20
31.47580700000001
10
135.58691450000001
20
25.675607780000011
10
136.38591468000001
20
25.675607780000011
10
136.38591468000001
20
22.575006919999968
10
135.58691450000001
20
22.575006919999968
10
135.58691450000001
20
21.575908080000001
10
121.58691456
20
21.575908080000001
10
121.58691456
20
22.575006919999968
10
120.78591539999998
20
22.575006919999968
10
120.78591539999998
20
25.675607780000011
10
121.58691456
20
25.675607780000011
10
121.58691456
20
31.47580700000001
10
120.78591539999998
20
31.47580700000001
10
120.78591539999998
20
34.575005779999977
10
121.58691456
20
34.575005779999977
10
121.58691456
20
35.575306039999965
10
135.58691450000001
20
35.575306039999965
0
LWPOLYLINE
5
173
100
AcDbEntity
8
0
100
AcDbPolyline
90
20
70
1
43
0.0
10
59.674615220000007
20
107.30130686000001
10
59.674615220000007
20
108.30030664
10
58.873814180000004
20
108.30030664
10
58.873814180000004
20
111.40030806
10
59.674615220000007
20
111.40030806
10
59.674615220000007
20
117.20030662000001
10
58.873814180000004
20
117.20030662000001
10
58.873814180000004
20
120.30030804
10
59.674615220000007
20
120.30030804
10
59.674615220000007
20
121.30030604
10
73.673914119999978
20
121.30030604
10
73.673914119999978
20
120.30030804
10
74.474715160000002
20
120.30030804
10
74.474715160000002
20
117.20030662000001
10
73.673914119999978
20
117.20030662000001
10
73.673914119999978
20
111.40030806
10
74.474715160000002
20
111.40030806
10
74.474715160000002
20
108.30030664
10
73.673914119999978
20
108.30030664
10
73.673914119999978
20
107.30130686000001
0
LWPOLYLINE
5
174
100
AcDbEntity
8
0
100
AcDbPolyline
90
20
70
1
43
0.0
10
173.97491494000005
20
91.724906720000007
10
173.97491494000005
20
92.72540764
10
187.97391411999999
20
92.72540764
10
187.97391411999999
20
91.724906720000007
10
188.77491582000002
20
91.724906720000007
10
188.77491582000002
20
88.625707939999984
10
187.97391411999999
20
88.625707939999984
10
187.97391411999999
20
82.825706839999981
10
188.77491582000002
20
82.825706839999981
10
188.77491582000002
20
79.725105979999981
10
187.97391411999999
20
79.725105979999981
10
187.97391411999999
20
78.726106199999975
10
173.97491494000005
20
78.726106199999975
10
173.97491494000005
20
79.725105979999981
10
173.17391577999999
20
79.725105979999981
10
173.17391577999999
20
82.825706839999981
10
173.97491494000005
20
82.825706839999981
10
173.97491494000005
20
88.625707939999984
10
173.17391577999999
20
88.625707939999984
10
173.17391577999999
20
91.724906720000007
0
LWPOLYLINE
5
175
100
AcDbEntity
8
0
100
AcDbPolyline
90
44
70
1
43
0.0
10
244.28091606000007
20
34.105105780000002
10
246.00591388000001
20
34.105105780000002
10
246.00591388000001
20
35.025705919999993
10
249.30491414000002
20
35.025705919999993
10
249.30491414000002
20
34.105105780000002
10
251.75391610000005
20
34.105105780000002
10
251.75391610000005
20
34.575005779999977
10
252.55491526
20
34.575005779999977
10
252.55491526
20
35.575306039999965
10
266.55491520000004
20
35.575306039999965
10
266.55491520000004
20
34.575005779999977
10
267.35591435999999
20
34.575005779999977
10
267.35591435999999
20
34.105105780000002
10
269.80591454
20
34.105105780000002
10
269.80591454
20
35.025705919999993
10
273.10491480000002
20
35.025705919999993
10
273.10491480000002
20
34.105105780000002
10
274.82991515999998
20
34.105105780000002
10
274.82991515999998
20
30.874906499999994
10
275.65591554000014
20
30.874906499999994
10
275.65591554000014
20
28.076105899999995
10
274.82991515999998
20
28.076105899999995
10
274.82991515999998
20
21.806105739999989
10
273.10491480000002
20
21.806105739999989
10
273.10491480000002
20
20.824906279999983
10
269.80591454
20
20.824906279999983
10
269.80591454
20
21.806105739999989
10
268.08091418000009
20
21.806105739999989
10
268.08091418000009
20
22.575006919999968
10
266.55491520000004
20
22.575006919999968
10
266.55491520000004
20
21.575908080000001
10
252.55491526
20
21.575908080000001
10
252.55491526
20
22.575006919999968
10
251.03091526
20
22.575006919999968
10
251.03091526
20
21.806105739999989
10
249.30491414000002
20
21.806105739999989
10
249.30491414000002
20
20.824906279999983
10
246.00591388000001
20
20.824906279999983
10
246.00591388000001
20
21.806105739999989
10
244.28091606000007
20
21.806105739999989
10
244.28091606000007
20
28.076105899999995
10
243.45491568000011
20
28.076105899999995
10
243.45491568000011
20
30.874906499999994
10
244.28091606000007
20
30.874906499999994
0
LWPOLYLINE
5
176
100
AcDbEntity
8
0
100
AcDbPolyline
90
20
70
1
43
0.0
10
117.33591468
20
22.575006919999968
10
116.53691449999999
20
22.575006919999968
10
116.53691449999999
20
21.575908080000001
10
102.53691456
20
21.575908080000001
10
102.53691456
20
22.575006919999968
10
101.73591540000001
20
22.575006919999968
10
101.73591540000001
20
25.675607780000011
10
102.53691456
20
25.675607780000011
10
102.53691456
20
31.47580700000001
10
101.73591540000001
20
31.47580700000001
10
101.73591540000001
20
34.575005779999977
10
102.53691456
20
34.575005779999977
10
102.53691456
20
35.575306039999965
10
116.53691449999999
20
35.575306039999965
10
116.53691449999999
20
34.575005779999977
10
117.33591468
20
34.575005779999977
10
117.33591468
20
31.47580700000001
10
116.53691449999999
20
31.47580700000001
10
116.53691449999999
20
25.675607780000011
10
117.33591468
20
25.675607780000011
0
LWPOLYLINE
5
177
100
AcDbEntity
8
0
100
AcDbPolyline
90
20
70
1
43
0.0
10
245.92491582000002
20
91.724906720000007
10
245.92491582000002
20
88.625707939999984
10
245.12391411999999
20
88.625707939999984
10
245.12391411999999
20
82.825706839999981
10
245.92491582000002
20
82.825706839999981
10
245.92491582000002
20
79.725105979999981
10
245.12391411999999
20
79.725105979999981
10
245.12391411999999
20
78.726106199999975
10
231.12491494
20
78.726106199999975
10
231.12491494
20
79.725105979999981
10
230.32391578000002
20
79.725105979999981
10
230.32391578000002
20
82.825706839999981
10
231.12491494
20
82.825706839999981
10
231.12491494
20
88.625707939999984
10
230.32391578000002
20
88.625707939999984
10
230.32391578000002
20
91.724906720000007
10
231.12491494
20
91.724906720000007
10
231.12491494
20
92.72540764
10
245.12391411999999
20
92.72540764
10
245.12391411999999
20
91.724906720000007
0
LWPOLYLINE
5
178
100
AcDbEntity
8
0
100
AcDbPolyline
90
20
70
1
43
0.0
10
18.905313980000006
20
6.6255976200000077
10
19.705914359999994
20
6.6255976200000077
10
19.705914359999994
20
3.5250373999999951
10
18.905313980000006
20
3.5250373999999951
10
18.905313980000006
20
2.5259461799999983
10
4.9058245799999867
20
2.5259461799999983
10
4.9058245799999867
20
3.5250373999999951
10
4.1051962599999925
20
3.5250373999999951
10
4.1051962599999925
20
6.6255976200000077
10
4.9058245799999867
20
6.6255976200000077
10
4.9058245799999867
20
12.427107479999986
10
4.1051962599999925
20
12.427107479999986
10
4.1051962599999925
20
15.525005780000001
10
4.9058245799999867
20
15.525005780000001
10
4.9058245799999867
20
16.525407640000012
10
18.905313980000006
20
16.525407640000012
10
18.905313980000006
20
15.525005780000001
10
19.705914359999994
20
15.525005780000001
10
19.705914359999994
20
12.427107479999986
10
18.905313980000006
20
12.427107479999986
0
LWPOLYLINE
5
179
100
AcDbEntity
8
0
100
AcDbPolyline
90
20
70
1
43
0.0
10
144.59891578
20
69.575707939999972
10
144.59891578
20
72.674906719999981
10
145.39991494
20
72.674906719999981
10
145.39991494
20
73.675407640000003
10
159.39891412000003
20
73.675407640000003
10
159.39891412000003
20
72.674906719999981
10
160.19991582
20
72.674906719999981
10
160.19991582
20
69.575707939999972
10
159.39891412000003
20
69.575707939999972
10
159.39891412000003
20
63.775706839999998
10
160.19991582
20
63.775706839999998
10
160.19991582
20
60.675105979999991
10
159.39891412000003
20
60.675105979999991
10
159.39891412000003
20
59.676106200000021
10
145.39991494
20
59.676106200000021
10
145.39991494
20
60.675105979999991
10
144.59891578
20
60.675105979999991
10
144.59891578
20
63.775706839999998
10
145.39991494
20
63.775706839999998
10
145.39991494
20
69.575707939999972
0
LWPOLYLINE
5
180
100
AcDbEntity
8
0
100
AcDbPolyline
90
20
70
1
43
0.0
10
139.8359154
20
31.47580700000001
10
139.8359154
20
34.575005779999977
10
140.63691455999998
20
34.575005779999977
10
140.63691455999998
20
35.575306039999965
10
154.63691450000005
20
35.575306039999965
10
154.63691450000005
20
34.575005779999977
10
155.43591468
20
34.575005779999977
10
155.43591468
20
31.47580700000001
10
154.63691450000005
20
31.47580700000001
10
154.63691450000005
20
25.675607780000011
10
155.43591468
20
25.675607780000011
10
155.43591468
20
22.575006919999968
10
154.63691450000005
20
22.575006919999968
10
154.63691450000005
20
21.575908080000001
10
140.63691455999998
20
21.575908080000001
10
140.63691455999998
20
22.575006919999968
10
139.8359154
20
22.575006919999968
10
139.8359154
20
25.675607780000011
10
140.63691455999998
20
25.675607780000011
10
140.63691455999998
20
31.47580700000001
0
LWPOLYLINE
5
181
100
AcDbEntity
8
0
100
AcDbPolyline
90
20
70
1
43
0.0
10
83.198914120000055
20
59.676106200000021
10
69.199615220000013
20
59.676106200000021
10
69.199615220000013
20
60.675105979999991
10
68.398814179999974
20
60.675105979999991
10
68.398814179999974
20
63.775706839999998
10
69.199615220000013
20
63.775706839999998
10
69.199615220000013
20
69.575707939999972
10
68.398814179999974
20
69.575707939999972
10
68.398814179999974
20
72.674906719999981
10
69.199615220000013
20
72.674906719999981
10
69.199615220000013
20
73.675407640000003
10
83.198914120000055
20
73.675407640000003
10
83.198914120000055
20
72.674906719999981
10
83.999715159999994
20
72.674906719999981
10
83.999715159999994
20
69.575707939999972
10
83.198914120000055
20
69.575707939999972
10
83.198914120000055
20
63.775706839999998
10
83.999715159999994
20
63.775706839999998
10
83.999715159999994
20
60.675105979999991
10
83.198914120000055
20
60.675105979999991
0
LWPOLYLINE
5
182
100
AcDbEntity
8
0
100
AcDbPolyline
90
20
70
1
43
0.0
10
111.77391412
20
111.40030806
10
112.57291430000002
20
111.40030806
10
112.57291430000002
20
108.30030664
10
111.77391412
20
108.30030664
10
111.77391412
20
107.30130686000001
10
97.773215680000035
20
107.30130686000001
10
97.773215680000035
20
108.30030664
10
96.973814180000005
20
108.30030664
10
96.973814180000005
20
111.40030806
10
97.773215680000035
20
111.40030806
10
97.773215680000035
20
117.20030662000001
10
96.973814180000005
20
117.20030662000001
10
96.973814180000005
20
120.30030804
10
97.773215680000035
20
120.30030804
10
97.773215680000035
20
121.30030604
10
111.77391412
20
121.30030604
10
111.77391412
20
120.30030804
10
112.57291430000002
20
120.30030804
10
112.57291430000002
20
117.20030662000001
10
111.77391412
20
117.20030662000001
0
LWPOLYLINE
5
183
100
AcDbEntity
8
0
100
AcDbPolyline
90
20
70
1
43
0.0
10
196.98591540000001
20
22.575006919999968
10
196.98591540000001
20
25.675607780000011
10
197.78691456000004
20
25.675607780000011
10
197.78691456000004
20
31.47580700000001
10
196.98591540000001
20
31.47580700000001
10
196.98591540000001
20
34.575005779999977
10
197.78691456000004
20
34.575005779999977
10
197.78691456000004
20
35.575306039999965
10
211.78691450000002
20
35.575306039999965
10
211.78691450000002
20
34.575005779999977
10
212.58591468000006
20
34.575005779999977
10
212.58591468000006
20
31.47580700000001
10
211.78691450000002
20
31.47580700000001
10
211.78691450000002
20
25.675607780000011
10
212.58591468000006
20
25.675607780000011
10
212.58591468000006
20
22.575006919999968
10
211.78691450000002
20
22.575006919999968
10
211.78691450000002
20
21.575908080000001
10
197.78691456000004
20
21.575908080000001
10
197.78691456000004
20
22.575006919999968
0
LWPOLYLINE
5
184
100
AcDbEntity
8
0
100
AcDbPolyline
90
20
70
1
43
0.0
10
293.03691456000001
20
92.725466060000002
10
307.03691450000008
20
92.725466060000002
10
307.03691450000008
20
91.725165799999999
10
307.83591468000009
20
91.725165799999999
10
307.83591468000009
20
88.625967019999962
10
307.03691450000008
20
88.625967019999962
10
307.03691450000008
20
82.82576779999998
10
307.83591468000009
20
82.82576779999998
10
307.83591468000009
20
79.72516693999998
10
307.03691450000008
20
79.72516693999998
10
307.03691450000008
20
78.726068099999978
10
293.03691456000001
20
78.726068099999978
10
293.03691456000001
20
79.72516693999998
10
292.23591540000001
20
79.72516693999998
10
292.23591540000001
20
82.82576779999998
10
293.03691456000001
20
82.82576779999998
10
293.03691456000001
20
88.625967019999962
10
292.23591540000001
20
88.625967019999962
10
292.23591540000001
20
91.725165799999999
10
293.03691456000001
20
91.725165799999999
0
LWPOLYLINE
5
185
100
AcDbEntity
8
0
100
AcDbPolyline
90
20
70
1
43
0.0
10
122.09991582000001
20
60.675105979999991
10
121.29891412000001
20
60.675105979999991
10
121.29891412000001
20
59.676106200000021
10
107.29991494000001
20
59.676106200000021
10
107.29991494000001
20
60.675105979999991
10
106.49891578000002
20
60.675105979999991
10
106.49891578000002
20
63.775706839999998
10
107.29991494000001
20
63.775706839999998
10
107.29991494000001
20
69.575707939999972
10
106.49891578000002
20
69.575707939999972
10
106.49891578000002
20
72.674906719999981
10
107.29991494000001
20
72.674906719999981
10
107.29991494000001
20
73.675407640000003
10
121.29891412000001
20
73.675407640000003
10
121.29891412000001
20
72.674906719999981
10
122.09991582000001
20
72.674906719999981
10
122.09991582000001
20
69.575707939999972
10
121.29891412000001
20
69.575707939999972
10
121.29891412000001
20
63.775706839999998
10
122.09991582000001
20
63.775706839999998
0
LWPOLYLINE
5
186
100
AcDbEntity
8
0
100
AcDbPolyline
90
20
70
1
43
0.0
10
73.962115220000015
20
50.525707940000004
10
73.161314179999977
20
50.525707940000004
10
73.161314179999977
20
53.624906719999998
10
73.962115220000015
20
53.624906719999998
10
73.962115220000015
20
54.625407639999999
10
87.961414120000001
20
54.625407639999999
10
87.961414120000001
20
53.624906719999998
10
88.760815620000045
20
53.624906719999998
10
88.760815620000045
20
50.525707940000004
10
87.961414120000001
20
50.525707940000004
10
87.961414120000001
20
44.725706840000008
10
88.760815620000045
20
44.725706840000008
10
88.760815620000045
20
41.625105979999965
10
87.961414120000001
20
41.625105979999965
10
87.961414120000001
20
40.626106200000009
10
73.962115220000015
20
40.626106200000009
10
73.962115220000015
20
41.625105979999965
10
73.161314179999977
20
41.625105979999965
10
73.161314179999977
20
44.725706840000008
10
73.962115220000015
20
44.725706840000008
0
LWPOLYLINE
5
187
100
AcDbEntity
8
0
100
AcDbPolyline
90
20
70
1
43
0.0
10
279.26091468000004
20
72.674906719999981
10
279.26091468000004
20
69.575707939999972
10
278.46191449999998
20
69.575707939999972
10
278.46191449999998
20
63.775706839999998
10
279.26091468000004
20
63.775706839999998
10
279.26091468000004
20
60.675105979999991
10
278.46191449999998
20
60.675105979999991
10
278.46191449999998
20
59.676106200000021
10
264.46191456000003
20
59.676106200000021
10
264.46191456000003
20
60.675105979999991
10
263.66091540000002
20
60.675105979999991
10
263.66091540000002
20
63.775706839999998
10
264.46191456000003
20
63.775706839999998
10
264.46191456000003
20
69.575707939999972
10
263.66091540000002
20
69.575707939999972
10
263.66091540000002
20
72.674906719999981
10
264.46191456000003
20
72.674906719999981
10
264.46191456000003
20
73.675407640000003
10
278.46191449999998
20
73.675407640000003
10
278.46191449999998
20
72.674906719999981
0
LWPOLYLINE
5
188
100
AcDbEntity
8
0
100
AcDbPolyline
90
20
70
1
43
0.0
10
168.41091540000005
20
44.725706840000008
10
169.21191456
20
44.725706840000008
10
169.21191456
20
50.525707940000004
10
168.41091540000005
20
50.525707940000004
10
168.41091540000005
20
53.624906719999998
10
169.21191456
20
53.624906719999998
10
169.21191456
20
54.625407639999999
10
183.21191450000001
20
54.625407639999999
10
183.21191450000001
20
53.624906719999998
10
184.01091468000001
20
53.624906719999998
10
184.01091468000001
20
50.525707940000004
10
183.21191450000001
20
50.525707940000004
10
183.21191450000001
20
44.725706840000008
10
184.01091468000001
20
44.725706840000008
10
184.01091468000001
20
41.625105979999965
10
183.21191450000001
20
41.625105979999965
10
183.21191450000001
20
40.626106200000009
10
169.21191456
20
40.626106200000009
10
169.21191456
20
41.625105979999965
10
168.41091540000005
20
41.625105979999965
0
LWPOLYLINE
5
189
100
AcDbEntity
8
0
100
AcDbPolyline
90
20
70
1
43
0.0
10
126.34991494000005
20
107.30130686000001
10
126.34991494000005
20
108.30030664
10
125.54891578000004
20
108.30030664
10
125.54891578000004
20
111.40030806
10
126.34991494000005
20
111.40030806
10
126.34991494000005
20
117.20030662000001
10
125.54891578000004
20
117.20030662000001
10
125.54891578000004
20
120.30030804
10
126.34991494000005
20
120.30030804
10
126.34991494000005
20
121.30030604
10
140.34891412000002
20
121.30030604
10
140.34891412000002
20
120.30030804
10
141.14991581999999
20
120.30030804
10
141.14991581999999
20
117.20030662000001
10
140.34891412000002
20
117.20030662000001
10
140.34891412000002
20
111.40030806
10
141.14991581999999
20
111.40030806
10
141.14991581999999
20
108.30030664
10
140.34891412000002
20
108.30030664
10
140.34891412000002
20
107.30130686000001
0
LWPOLYLINE
5
190
100
AcDbEntity
8
0
100
AcDbPolyline
90
20
70
1
43
0.0
10
54.912115220000004
20
40.626106200000009
10
54.912115220000004
20
41.625105979999965
10
54.111314180000001
20
41.625105979999965
10
54.111314180000001
20
44.725706840000008
10
54.912115220000004
20
44.725706840000008
10
54.912115220000004
20
50.525707940000004
10
54.111314180000001
20
50.525707940000004
10
54.111314180000001
20
53.624906719999998
10
54.912115220000004
20
53.624906719999998
10
54.912115220000004
20
54.625407639999999
10
68.911414119999989
20
54.625407639999999
10
68.911414119999989
20
53.624906719999998
10
69.710815619999977
20
53.624906719999998
10
69.710815619999977
20
50.525707940000004
10
68.911414119999989
20
50.525707940000004
10
68.911414119999989
20
44.725706840000008
10
69.710815619999977
20
44.725706840000008
10
69.710815619999977
20
41.625105979999965
10
68.911414119999989
20
41.625105979999965
10
68.911414119999989
20
40.626106200000009
0
LWPOLYLINE
5
191
100
AcDbEntity
8
0
100
AcDbPolyline
90
44
70
1
43
0.0
10
272.84191558000009
20
40.856105739999947
10
272.84191558000009
20
41.625105979999965
10
271.31791558000009
20
41.625105979999965
10
271.31791558000009
20
40.626106200000009
10
257.31691488000001
20
40.626106200000009
10
257.31691488000001
20
41.625105979999965
10
255.79291488000001
20
41.625105979999965
10
255.79291488000001
20
40.856105739999947
10
254.06591554000002
20
40.856105739999947
10
254.06591554000002
20
39.875007879999998
10
250.76691528000001
20
39.875007879999998
10
250.76691528000001
20
40.856105739999947
10
249.04191492000001
20
40.856105739999947
10
249.04191492000001
20
47.126006839999981
10
248.21791606000002
20
47.126006839999981
10
248.21791606000002
20
49.92490649999997
10
249.04191492000001
20
49.92490649999997
10
249.04191492000001
20
53.155006719999989
10
250.76691528000001
20
53.155006719999989
10
250.76691528000001
20
54.07570591999999
10
254.06591554000002
20
54.07570591999999
10
254.06591554000002
20
53.155006719999989
10
256.51591571999995
20
53.155006719999989
10
256.51591571999995
20
53.624906719999998
10
257.31691488000001
20
53.624906719999998
10
257.31691488000001
20
54.625407639999999
10
271.31791558000009
20
54.625407639999999
10
271.31791558000009
20
53.624906719999998
10
272.11691575999998
20
53.624906719999998
10
272.11691575999998
20
53.155006719999989
10
274.56691594
20
53.155006719999989
10
274.56691594
20
54.07570591999999
10
277.86791518000001
20
54.07570591999999
10
277.86791518000001
20
53.155006719999989
10
279.59291553999998
20
53.155006719999989
10
279.59291553999998
20
49.92490649999997
10
280.4169144
20
49.92490649999997
10
280.4169144
20
47.126006839999981
10
279.59291553999998
20
47.126006839999981
10
279.59291553999998
20
40.856105739999947
10
277.86791518000001
20
40.856105739999947
10
277.86791518000001
20
39.875007879999998
10
274.56691594
20
39.875007879999998
10
274.56691594
20
40.856105739999947
0
LWPOLYLINE
5
192
100
AcDbEntity
8
0
100
AcDbPolyline
90
20
70
1
43
0.0
10
159.39891412000003
20
107.30130686000001
10
145.39991494
20
107.30130686000001
10
145.39991494
20
108.30030664
10
144.59891578
20
108.30030664
10
144.59891578
20
111.40030806
10
145.39991494
20
111.40030806
10
145.39991494
20
117.20030662000001
10
144.59891578
20
117.20030662000001
10
144.59891578
20
120.30030804
10
145.39991494
20
120.30030804
10
145.39991494
20
121.30030604
10
159.39891412000003
20
121.30030604
10
159.39891412000003
20
120.30030804
10
160.19991582
20
120.30030804
10
160.19991582
20
117.20030662000001
10
159.39891412000003
20
117.20030662000001
10
159.39891412000003
20
111.40030806
10
160.19991582
20
111.40030806
10
160.19991582
20
108.30030664
10
159.39891412000003
20
108.30030664
0
LWPOLYLINE
5
193
100
AcDbEntity
8
0
100
AcDbPolyline
90
20
70
1
43
0.0
10
77.92381417999998
20
82.825706839999981
10
78.724615220000032
20
82.825706839999981
10
78.724615220000032
20
88.625707939999984
10
77.92381417999998
20
88.625707939999984
10
77.92381417999998
20
91.724906720000007
10
78.724615220000032
20
91.724906720000007
10
78.724615220000032
20
92.72540764
10
92.723914120000018
20
92.72540764
10
92.723914120000018
20
91.724906720000007
10
93.523315620000034
20
91.724906720000007
10
93.523315620000034
20
88.625707939999984
10
92.723914120000018
20
88.625707939999984
10
92.723914120000018
20
82.825706839999981
10
93.523315620000034
20
82.825706839999981
10
93.523315620000034
20
79.725105979999981
10
92.723914120000018
20
79.725105979999981
10
92.723914120000018
20
78.726106199999975
10
78.724615220000032
20
78.726106199999975
10
78.724615220000032
20
79.725105979999981
10
77.92381417999998
20
79.725105979999981
0
LWPOLYLINE
5
194
100
AcDbEntity
8
0
100
AcDbPolyline
90
20
70
1
43
0.0
10
236.39991581999999
20
72.674906719999981
10
236.39991581999999
20
69.575707939999972
10
235.59891411999999
20
69.575707939999972
10
235.59891411999999
20
63.775706839999998
10
236.39991581999999
20
63.775706839999998
10
236.39991581999999
20
60.675105979999991
10
235.59891411999999
20
60.675105979999991
10
235.59891411999999
20
59.676106200000021
10
221.59991493999999
20
59.676106200000021
10
221.59991493999999
20
60.675105979999991
10
220.79891578000002
20
60.675105979999991
10
220.79891578000002
20
63.775706839999998
10
221.59991493999999
20
63.775706839999998
10
221.59991493999999
20
69.575707939999972
10
220.79891578000002
20
69.575707939999972
10
220.79891578000002
20
72.674906719999981
10
221.59991493999999
20
72.674906719999981
10
221.59991493999999
20
73.675407640000003
10
235.59891411999999
20
73.675407640000003
10
235.59891411999999
20
72.674906719999981
0
LWPOLYLINE
5
195
100
AcDbEntity
8
0
100
AcDbPolyline
90
20
70
1
43
0.0
10
222.11091468000006
20
41.625105979999965
10
221.31191450000003
20
41.625105979999965
10
221.31191450000003
20
40.626106200000009
10
207.31191456000002
20
40.626106200000009
10
207.31191456000002
20
41.625105979999965
10
206.51091539999999
20
41.625105979999965
10
206.51091539999999
20
44.725706840000008
10
207.31191456000002
20
44.725706840000008
10
207.31191456000002
20
50.525707940000004
10
206.51091539999999
20
50.525707940000004
10
206.51091539999999
20
53.624906719999998
10
207.31191456000002
20
53.624906719999998
10
207.31191456000002
20
54.625407639999999
10
221.31191450000003
20
54.625407639999999
10
221.31191450000003
20
53.624906719999998
10
222.11091468000006
20
53.624906719999998
10
222.11091468000006
20
50.525707940000004
10
221.31191450000003
20
50.525707940000004
10
221.31191450000003
20
44.725706840000008
10
222.11091468000006
20
44.725706840000008
0
LWPOLYLINE
5
196
100
AcDbEntity
8
0
100
AcDbPolyline
90
44
70
1
43
0.0
10
34.980115459999965
20
21.806105739999989
10
34.980115459999965
20
20.824906279999983
10
31.679715660000021
20
20.824906279999983
10
31.679715660000021
20
21.806105739999989
10
29.955815119999976
20
21.806105739999989
10
29.955815119999976
20
22.575006919999968
10
28.430313979999969
20
22.575006919999968
10
28.430313979999969
20
21.575908080000001
10
14.430814419999969
20
21.575908080000001
10
14.430814419999969
20
22.575006919999968
10
12.905315819999998
20
22.575006919999968
10
12.905315819999998
20
21.806105739999989
10
11.180015740000007
20
21.806105739999989
10
11.180015740000007
20
20.824906279999983
10
7.8810053200000141
20
20.824906279999983
10
7.8810053200000141
20
21.806105739999989
10
6.1557154000000125
20
21.806105739999989
10
6.1557154000000125
20
28.076105899999995
10
5.3302458799999997
20
28.076105899999995
10
5.3302458799999997
20
30.874906499999994
10
6.1557154000000125
20
30.874906499999994
10
6.1557154000000125
20
34.105105780000002
10
7.8810053200000141
20
34.105105780000002
10
7.8810053200000141
20
35.025705919999993
10
11.180015740000007
20
35.025705919999993
10
11.180015740000007
20
34.105105780000002
10
13.630214040000013
20
34.105105780000002
10
13.630214040000013
20
34.575005779999977
10
14.430814419999969
20
34.575005779999977
10
14.430814419999969
20
35.575306039999965
10
28.430313979999969
20
35.575306039999965
10
28.430313979999969
20
34.575005779999977
10
29.230914359999968
20
34.575005779999977
10
29.230914359999968
20
34.105105780000002
10
31.679715660000021
20
34.105105780000002
10
31.679715660000021
20
35.025705919999993
10
34.980115459999965
20
35.025705919999993
10
34.980115459999965
20
34.105105780000002
10
36.705313939999975
20
34.105105780000002
10
36.705313939999975
20
30.874906499999994
10
37.530813939999952
20
30.874906499999994
10
37.530813939999952
20
28.076105899999995
10
36.705313939999975
20
28.076105899999995
10
36.705313939999975
20
21.806105739999989
0
LWPOLYLINE
5
197
100
AcDbEntity
8
0
100
AcDbPolyline
90
20
70
1
43
0.0
10
97.773215680000035
20
92.72540764
10
111.77391412
20
92.72540764
10
111.77391412
20
91.724906720000007
10
112.57291430000002
20
91.724906720000007
10
112.57291430000002
20
88.625707939999984
10
111.77391412
20
88.625707939999984
10
111.77391412
20
82.825706839999981
10
112.57291430000002
20
82.825706839999981
10
112.57291430000002
20
79.725105979999981
10
111.77391412
20
79.725105979999981
10
111.77391412
20
78.726106199999975
10
97.773215680000035
20
78.726106199999975
10
97.773215680000035
20
79.725105979999981
10
96.973814180000005
20
79.725105979999981
10
96.973814180000005
20
82.825706839999981
10
97.773215680000035
20
82.825706839999981
10
97.773215680000035
20
88.625707939999984
10
96.973814180000005
20
88.625707939999984
10
96.973814180000005
20
91.724906720000007
10
97.773215680000035
20
91.724906720000007
0
LWPOLYLINE
5
198
100
AcDbEntity
8
0
100
AcDbPolyline
90
20
70
1
43
0.0
10
240.36191450000004
20
44.725706840000008
10
241.16091468000002
20
44.725706840000008
10
241.16091468000002
20
41.625105979999965
10
240.36191450000004
20
41.625105979999965
10
240.36191450000004
20
40.626106200000009
10
226.36191456000006
20
40.626106200000009
10
226.36191456000006
20
41.625105979999965
10
225.5609154
20
41.625105979999965
10
225.5609154
20
44.725706840000008
10
226.36191456000006
20
44.725706840000008
10
226.36191456000006
20
50.525707940000004
10
225.5609154
20
50.525707940000004
10
225.5609154
20
53.624906719999998
10
226.36191456000006
20
53.624906719999998
10
226.36191456000006
20
54.625407639999999
10
240.36191450000004
20
54.625407639999999
10
240.36191450000004
20
53.624906719999998
10
241.16091468000002
20
53.624906719999998
10
241.16091468000002
20
50.525707940000004
10
240.36191450000004
20
50.525707940000004
0
LWPOLYLINE
5
199
100
AcDbEntity
8
0
100
AcDbPolyline
90
20
70
1
43
0.0
10
130.3109154
20
53.624906719999998
10
131.11191456
20
53.624906719999998
10
131.11191456
20
54.625407639999999
10
145.11191450000001
20
54.625407639999999
10
145.11191450000001
20
53.624906719999998
10
145.91091467999999
20
53.624906719999998
10
145.91091467999999
20
50.525707940000004
10
145.11191450000001
20
50.525707940000004
10
145.11191450000001
20
44.725706840000008
10
145.91091467999999
20
44.725706840000008
10
145.91091467999999
20
41.625105979999965
10
145.11191450000001
20
41.625105979999965
10
145.11191450000001
20
40.626106200000009
10
131.11191456
20
40.626106200000009
10
131.11191456
20
41.625105979999965
10
130.3109154
20
41.625105979999965
10
130.3109154
20
44.725706840000008
10
131.11191456
20
44.725706840000008
10
131.11191456
20
50.525707940000004
10
130.3109154
20
50.525707940000004
0
LWPOLYLINE
5
200
100
AcDbEntity
8
0
100
AcDbPolyline
90
20
70
1
43
0.0
10
112.06191456000001
20
40.626106200000009
10
112.06191456000001
20
41.625105979999965
10
111.26091540000003
20
41.625105979999965
10
111.26091540000003
20
44.725706840000008
10
112.06191456000001
20
44.725706840000008
10
112.06191456000001
20
50.525707940000004
10
111.26091540000003
20
50.525707940000004
10
111.26091540000003
20
53.624906719999998
10
112.06191456000001
20
53.624906719999998
10
112.06191456000001
20
54.625407639999999
10
126.0619145
20
54.625407639999999
10
126.0619145
20
53.624906719999998
10
126.86091468000001
20
53.624906719999998
10
126.86091468000001
20
50.525707940000004
10
126.0619145
20
50.525707940000004
10
126.0619145
20
44.725706840000008
10
126.86091468000001
20
44.725706840000008
10
126.86091468000001
20
41.625105979999965
10
126.0619145
20
41.625105979999965
10
126.0619145
20
40.626106200000009
0
LWPOLYLINE
5
201
100
AcDbEntity
8
0
100
AcDbPolyline
90
20
70
1
43
0.0
10
293.03691456000001
20
16.525407640000012
10
307.03691450000008
20
16.525407640000012
10
307.03691450000008
20
15.525005780000001
10
307.83591468000009
20
15.525005780000001
10
307.83591468000009
20
12.427107479999986
10
307.03691450000008
20
12.427107479999986
10
307.03691450000008
20
6.6255976200000077
10
307.83591468000009
20
6.6255976200000077
10
307.83591468000009
20
3.5250373999999951
10
307.03691450000008
20
3.5250373999999951
10
307.03691450000008
20
2.5259461799999983
10
293.03691456000001
20
2.5259461799999983
10
293.03691456000001
20
3.5250373999999951
10
292.23591540000001
20
3.5250373999999951
10
292.23591540000001
20
6.6255976200000077
10
293.03691456000001
20
6.6255976200000077
10
293.03691456000001
20
12.427107479999986
10
292.23591540000001
20
12.427107479999986
10
292.23591540000001
20
15.525005780000001
10
293.03691456000001
20
15.525005780000001
0
LWPOLYLINE
5
202
100
AcDbEntity
8
0
100
AcDbPolyline
90
20
70
1
43
0.0
10
82.686314179999982
20
34.575005779999977
10
83.48711521999995
20
34.575005779999977
10
83.48711521999995
20
35.575306039999965
10
97.486414120000006
20
35.575306039999965
10
97.486414120000006
20
34.575005779999977
10
98.285815619999994
20
34.575005779999977
10
98.285815619999994
20
31.47580700000001
10
97.486414120000006
20
31.47580700000001
10
97.486414120000006
20
25.675607780000011
10
98.285815619999994
20
25.675607780000011
10
98.285815619999994
20
22.575006919999968
10
97.486414120000006
20
22.575006919999968
10
97.486414120000006
20
21.575908080000001
10
83.48711521999995
20
21.575908080000001
10
83.48711521999995
20
22.575006919999968
10
82.686314179999982
20
22.575006919999968
10
82.686314179999982
20
25.675607780000011
10
83.48711521999995
20
25.675607780000011
10
83.48711521999995
20
31.47580700000001
10
82.686314179999982
20
31.47580700000001
0
LWPOLYLINE
5
203
100
AcDbEntity
8
0
100
AcDbPolyline
90
20
70
1
43
0.0
10
195.40591602000006
20
2.5259461799999983
10
195.40591602000006
20
3.5250373999999951
10
194.60491432000001
20
3.5250373999999951
10
194.60491432000001
20
6.6255976200000077
10
195.40591602000006
20
6.6255976200000077
10
195.40591602000006
20
12.427107479999986
10
194.60491432000001
20
12.427107479999986
10
194.60491432000001
20
15.525005780000001
10
195.40591602000006
20
15.525005780000001
10
195.40591602000006
20
16.525407640000012
10
209.40491519999998
20
16.525407640000012
10
209.40491519999998
20
15.525005780000001
10
210.20591436000004
20
15.525005780000001
10
210.20591436000004
20
12.427107479999986
10
209.40491519999998
20
12.427107479999986
10
209.40491519999998
20
6.6255976200000077
10
210.20591436000004
20
6.6255976200000077
10
210.20591436000004
20
3.5250373999999951
10
209.40491519999998
20
3.5250373999999951
10
209.40491519999998
20
2.5259461799999983
0
LWPOLYLINE
5
204
100
AcDbEntity
8
0
100
AcDbPolyline
90
20
70
1
43
0.0
10
281.64191576000002
20
6.6255976200000077
10
281.64191576000002
20
3.5250373999999951
10
280.84291558000007
20
3.5250373999999951
10
280.84291558000007
20
2.5259461799999983
10
266.84191488000005
20
2.5259461799999983
10
266.84191488000005
20
3.5250373999999951
10
266.04291469999998
20
3.5250373999999951
10
266.04291469999998
20
6.6255976200000077
10
266.84191488000005
20
6.6255976200000077
10
266.84191488000005
20
12.427107479999986
10
266.04291469999998
20
12.427107479999986
10
266.04291469999998
20
15.525005780000001
10
266.84191488000005
20
15.525005780000001
10
266.84191488000005
20
16.525407640000012
10
280.84291558000007
20
16.525407640000012
10
280.84291558000007
20
15.525005780000001
10
281.64191576000002
20
15.525005780000001
10
281.64191576000002
20
12.427107479999986
10
280.84291558000007
20
12.427107479999986
10
280.84291558000007
20
6.6255976200000077
0
LWPOLYLINE
5
205
100
AcDbEntity
8
0
100
AcDbPolyline
90
20
70
1
43
0.0
10
311.28591540000002
20
15.525005780000001
10
312.08691456000008
20
15.525005780000001
10
312.08691456000008
20
16.525407640000012
10
326.08691450000009
20
16.525407640000012
10
326.08691450000009
20
15.525005780000001
10
326.88591467999998
20
15.525005780000001
10
326.88591467999998
20
12.427107479999986
10
326.08691450000009
20
12.427107479999986
10
326.08691450000009
20
6.6255976200000077
10
326.88591467999998
20
6.6255976200000077
10
326.88591467999998
20
3.5250373999999951
10
326.08691450000009
20
3.5250373999999951
10
326.08691450000009
20
2.5259461799999983
10
312.08691456000008
20
2.5259461799999983
10
312.08691456000008
20
3.5250373999999951
10
311.28591540000002
20
3.5250373999999951
10
311.28591540000002
20
6.6255976200000077
10
312.08691456000008
20
6.6255976200000077
10
312.08691456000008
20
12.427107479999986
10
311.28591540000002
20
12.427107479999986
0
LWPOLYLINE
5
206
100
AcDbEntity
8
0
100
AcDbPolyline
90
20
70
1
43
0.0
10
16.524114780000012
20
79.725105979999981
10
16.524114780000012
20
78.726106199999975
10
2.5245644199999973
20
78.726106199999975
10
2.5245644199999973
20
79.725105979999981
10
1.7239259400000151
20
79.725105979999981
10
1.7239259400000151
20
82.825706839999981
10
2.5245644199999973
20
82.825706839999981
10
2.5245644199999973
20
88.625707939999984
10
1.7239259400000151
20
88.625707939999984
10
1.7239259400000151
20
91.724906720000007
10
2.5245644199999973
20
91.724906720000007
10
2.5245644199999973
20
92.72540764
10
16.524114780000012
20
92.72540764
10
16.524114780000012
20
91.724906720000007
10
17.324715160000004
20
91.724906720000007
10
17.324715160000004
20
88.625707939999984
10
16.524114780000012
20
88.625707939999984
10
16.524114780000012
20
82.825706839999981
10
17.324715160000004
20
82.825706839999981
10
17.324715160000004
20
79.725105979999981
0
LWPOLYLINE
5
207
100
AcDbEntity
8
0
100
AcDbPolyline
90
20
70
1
43
0.0
10
345.93591468
20
12.427107479999986
10
345.13691450000016
20
12.427107479999986
10
345.13691450000016
20
6.6255976200000077
10
345.93591468
20
6.6255976200000077
10
345.93591468
20
3.5250373999999951
10
345.13691450000016
20
3.5250373999999951
10
345.13691450000016
20
2.5259461799999983
10
331.13691455999998
20
2.5259461799999983
10
331.13691455999998
20
3.5250373999999951
10
330.33591540000009
20
3.5250373999999951
10
330.33591540000009
20
6.6255976200000077
10
331.13691455999998
20
6.6255976200000077
10
331.13691455999998
20
12.427107479999986
10
330.33591540000009
20
12.427107479999986
10
330.33591540000009
20
15.525005780000001
10
331.13691455999998
20
15.525005780000001
10
331.13691455999998
20
16.525407640000012
10
345.13691450000016
20
16.525407640000012
10
345.13691450000016
20
15.525005780000001
10
345.93591468
20
15.525005780000001
0
LWPOLYLINE
5
208
100
AcDbEntity
8
0
100
AcDbPolyline
90
20
70
1
43
0.0
10
192.22391578
20
82.825706839999981
10
193.02491494000009
20
82.825706839999981
10
193.02491494000009
20
88.625707939999984
10
192.22391578
20
88.625707939999984
10
192.22391578
20
91.724906720000007
10
193.02491494000009
20
91.724906720000007
10
193.02491494000009
20
92.72540764
10
207.02391412
20
92.72540764
10
207.02391412
20
91.724906720000007
10
207.82491582000009
20
91.724906720000007
10
207.82491582000009
20
88.625707939999984
10
207.02391412
20
88.625707939999984
10
207.02391412
20
82.825706839999981
10
207.82491582000009
20
82.825706839999981
10
207.82491582000009
20
79.725105979999981
10
207.02391412
20
79.725105979999981
10
207.02391412
20
78.726106199999975
10
193.02491494000009
20
78.726106199999975
10
193.02491494000009
20
79.725105979999981
10
192.22391578
20
79.725105979999981
0
LWPOLYLINE
5
209
100
AcDbEntity
8
0
100
AcDbPolyline
90
20
70
1
43
0.0
10
226.87491582000007
20
91.724906720000007
10
226.87491582000007
20
88.625707939999984
10
226.07391412000001
20
88.625707939999984
10
226.07391412000001
20
82.825706839999981
10
226.87491582000007
20
82.825706839999981
10
226.87491582000007
20
79.725105979999981
10
226.07391412000001
20
79.725105979999981
10
226.07391412000001
20
78.726106199999975
10
212.07491494000007
20
78.726106199999975
10
212.07491494000007
20
79.725105979999981
10
211.27391578000001
20
79.725105979999981
10
211.27391578000001
20
82.825706839999981
10
212.07491494000007
20
82.825706839999981
10
212.07491494000007
20
88.625707939999984
10
211.27391578000001
20
88.625707939999984
10
211.27391578000001
20
91.724906720000007
10
212.07491494000007
20
91.724906720000007
10
212.07491494000007
20
92.72540764
10
226.07391412000001
20
92.72540764
10
226.07391412000001
20
91.724906720000007
0
LWPOLYLINE
5
210
100
AcDbEntity
8
0
100
AcDbPolyline
90
60
70
1
43
0.0
10
84.343013939999992
20
11.824906500000001
10
123.96691488000002
20
11.824906500000001
10
123.96691488000002
20
12.427107479999986
10
123.1679147
20
12.427107479999986
10
123.1679147
20
15.525005780000001
10
123.96691488000002
20
15.525005780000001
10
123.96691488000002
20
16.525407640000012
10
137.96791557999998
20
16.525407640000012
10
137.96791557999998
20
15.525005780000001
10
138.76691575999999
20
15.525005780000001
10
138.76691575999999
20
12.427107479999986
10
137.96791557999998
20
12.427107479999986
10
137.96791557999998
20
11.824906500000001
10
177.59191558000001
20
11.824906500000001
10
177.59191558000001
20
15.055105779999993
10
179.31691594
20
15.055105779999993
10
179.31691594
20
15.975606859999996
10
182.61791518000001
20
15.975606859999996
10
182.61791518000001
20
15.055105779999993
10
184.34291554000001
20
15.055105779999993
10
184.34291554000001
20
11.824906500000001
10
185.1669144
20
11.824906500000001
10
185.1669144
20
9.0261465400000063
10
184.34291554000001
20
9.0261465400000063
10
184.34291554000001
20
2.7560777999999964
10
182.61791518000001
20
2.7560777999999964
10
182.61791518000001
20
1.7749164399999984
10
179.31691594
20
1.7749164399999984
10
179.31691594
20
2.7560777999999964
10
177.59191558000001
20
2.7560777999999964
10
177.59191558000001
20
7.2250376200000055
10
137.96791557999998
20
7.2250376200000055
10
137.96791557999998
20
6.6255976200000077
10
138.76691575999999
20
6.6255976200000077
10
138.76691575999999
20
3.5250373999999951
10
137.96791557999998
20
3.5250373999999951
10
137.96791557999998
20
2.5259461799999983
10
123.96691488000002
20
2.5259461799999983
10
123.96691488000002
20
3.5250373999999951
10
123.1679147
20
3.5250373999999951
10
123.1679147
20
6.6255976200000077
10
123.96691488000002
20
6.6255976200000077
10
123.96691488000002
20
7.2250376200000055
10
84.343013939999992
20
7.2250376200000055
10
84.343013939999992
20
2.7560777999999964
10
82.617515740000016
20
2.7560777999999964
10
82.617515740000016
20
1.7749164399999984
10
79.316915280000032
20
1.7749164399999984
10
79.316915280000032
20
2.7560777999999964
10
77.591914919999979
20
2.7560777999999964
10
77.591914919999979
20
9.0261465400000063
10
76.767814459999954
20
9.0261465400000063
10
76.767814459999954
20
11.824906500000001
10
77.591914919999979
20
11.824906500000001
10
77.591914919999979
20
15.055105779999993
10
79.316915280000032
20
15.055105779999993
10
79.316915280000032
20
15.975606859999996
10
82.617515740000016
20
15.975606859999996
10
82.617515740000016
20
15.055105779999993
10
84.343013939999992
20
15.055105779999993
0
LINE
5
211
100
AcDbEntity
8
0
100
AcDbLine
10
313.08691509999994
20
119.34151740130503
30
0
11
313.08691509999994
21
108.87539888578148
31
0
0
LINE
5
212
100
AcDbEntity
8
0
100
AcDbLine
10
321.64776782235884
20
119.34151740130503
30
0
11
313.08691509999994
21
119.34151740130503
31
0
0
LWPOLYLINE
5
213
100
AcDbEntity
8
0
100
AcDbPolyline
90
20
70
1
43
0.0
10
182.69891577999999
20
72.674906719999981
10
183.49991494
20
72.674906719999981
10
183.49991494
20
73.675407640000003
10
197.49891411999999
20
73.675407640000003
10
197.49891411999999
20
72.674906719999981
10
198.29991582000002
20
72.674906719999981
10
198.29991582000002
20
69.575707939999972
10
197.49891411999999
20
69.575707939999972
10
197.49891411999999
20
63.775706839999998
10
198.29991582000002
20
63.775706839999998
10
198.29991582000002
20
60.675105979999991
10
197.49891411999999
20
60.675105979999991
10
197.49891411999999
20
59.676106200000021
10
183.49991494
20
59.676106200000021
10
183.49991494
20
60.675105979999991
10
182.69891577999999
20
60.675105979999991
10
182.69891577999999
20
63.775706839999998
10
183.49991494
20
63.775706839999998
10
183.49991494
20
69.575707939999972
10
182.69891577999999
20
69.575707939999972
0
LWPOLYLINE
5
214
100
AcDbEntity
8
0
100
AcDbPolyline
90
44
70
1
43
0.0
10
253.14791636000001
20
91.255006719999997
10
253.14791636000001
20
92.175705920000013
10
256.44891560000008
20
92.175705920000013
10
256.44891560000008
20
91.255006719999997
10
258.89891577999998
20
91.255006719999997
10
258.89891577999998
20
91.724906720000007
10
259.69991494000004
20
91.724906720000007
10
259.69991494000004
20
92.72540764
10
273.69891412000004
20
92.72540764
10
273.69891412000004
20
91.724906720000007
10
274.49991582000013
20
91.724906720000007
10
274.49991582000013
20
91.255006719999997
10
276.94991600000003
20
91.255006719999997
10
276.94991600000003
20
92.175705920000013
10
280.24891625999999
20
92.175705920000013
10
280.24891625999999
20
91.255006719999997
10
281.97391407999999
20
91.255006719999997
10
281.97391407999999
20
88.024906500000043
10
282.79991446000014
20
88.024906500000043
10
282.79991446000014
20
85.226006839999982
10
281.97391407999999
20
85.226006839999982
10
281.97391407999999
20
78.95610573999997
10
280.24891625999999
20
78.95610573999997
10
280.24891625999999
20
77.975007879999978
10
276.94991600000003
20
77.975007879999978
10
276.94991600000003
20
78.95610573999997
10
275.22491564000001
20
78.95610573999997
10
275.22491564000001
20
79.725105979999981
10
273.69891412000004
20
79.725105979999981
10
273.69891412000004
20
78.726106199999975
10
259.69991494000004
20
78.726106199999975
10
259.69991494000004
20
79.725105979999981
10
258.17391595999999
20
79.725105979999981
10
258.17391595999999
20
78.95610573999997
10
256.44891560000008
20
78.95610573999997
10
256.44891560000008
20
77.975007879999978
10
253.14791636000001
20
77.975007879999978
10
253.14791636000001
20
78.95610573999997
10
251.42491498000001
20
78.95610573999997
10
251.42491498000001
20
85.226006839999982
10
250.5989146
20
85.226006839999982
10
250.5989146
20
88.024906500000043
10
251.42491498000001
20
88.024906500000043
10
251.42491498000001
20
91.255006719999997
0
LINE
5
215
100
AcDbEntity
8
0
100
AcDbLine
10
313.08691509999994
20
108.87539888578148
30
0
11
324.33258879419958
21
108.87539888578148
31
0
0
LWPOLYLINE
5
216
100
AcDbEntity
8
0
100
AcDbPolyline
90
20
70
1
43
0.0
10
201.74891578
20
69.575707939999972
10
201.74891578
20
72.674906719999981
10
202.54991494000001
20
72.674906719999981
10
202.54991494000001
20
73.675407640000003
10
216.54891412000001
20
73.675407640000003
10
216.54891412000001
20
72.674906719999981
10
217.34991582000006
20
72.674906719999981
10
217.34991582000006
20
69.575707939999972
10
216.54891412000001
20
69.575707939999972
10
216.54891412000001
20
63.775706839999998
10
217.34991582000006
20
63.775706839999998
10
217.34991582000006
20
60.675105979999991
10
216.54891412000001
20
60.675105979999991
10
216.54891412000001
20
59.676106200000021
10
202.54991494000001
20
59.676106200000021
10
202.54991494000001
20
60.675105979999991
10
201.74891578
20
60.675105979999991
10
201.74891578
20
63.775706839999998
10
202.54991494000001
20
63.775706839999998
10
202.54991494000001
20
69.575707939999972
0
LWPOLYLINE
5
217
100
AcDbEntity
8
0
100
AcDbPolyline
90
20
70
1
43
0.0
10
254.64891412
20
69.575707939999972
10
254.64891412
20
63.775706839999998
10
255.44991582
20
63.775706839999998
10
255.44991582
20
60.675105979999991
10
254.64891412
20
60.675105979999991
10
254.64891412
20
59.676106200000021
10
240.64991494
20
59.676106200000021
10
240.64991494
20
60.675105979999991
10
239.84891578000003
20
60.675105979999991
10
239.84891578000003
20
63.775706839999998
10
240.64991494
20
63.775706839999998
10
240.64991494
20
69.575707939999972
10
239.84891578000003
20
69.575707939999972
10
239.84891578000003
20
72.674906719999981
10
240.64991494
20
72.674906719999981
10
240.64991494
20
73.675407640000003
10
254.64891412
20
73.675407640000003
10
254.64891412
20
72.674906719999981
10
255.44991582
20
72.674906719999981
10
255.44991582
20
69.575707939999972
0
LWPOLYLINE
5
218
100
AcDbEntity
8
0
100
AcDbPolyline
90
20
70
1
43
0.0
10
9.6669453599999837
20
53.624906719999998
10
9.6669453599999855
20
54.625407639999999
10
23.667813980000005
20
54.625407639999999
10
23.667813980000005
20
53.624906719999998
10
24.46711388000001
20
53.624906719999998
10
24.46711388000001
20
50.525707940000004
10
23.667813980000005
20
50.525707940000004
10
23.667813980000005
20
44.725706840000008
10
24.46711388000001
20
44.725706840000008
10
24.46711388000001
20
41.625105979999965
10
23.667813980000005
20
41.625105979999965
10
23.667813980000005
20
40.626106200000009
10
9.6669453599999837
20
40.626106200000009
10
9.6669453599999837
20
41.625105979999965
10
8.8676962599999953
20
41.625105979999965
10
8.8676962599999953
20
44.725706840000008
10
9.6669453599999837
20
44.725706840000008
10
9.6669453599999837
20
50.525707940000004
10
8.8676962599999953
20
50.525707940000004
10
8.8676962599999953
20
53.624906719999998
0
LWPOLYLINE
5
219
100
AcDbEntity
8
0
100
AcDbPolyline
90
20
70
1
43
0.0
10
141.14991581999999
20
72.674906719999981
10
141.14991581999999
20
69.575707939999972
10
140.34891412000002
20
69.575707939999972
10
140.34891412000002
20
63.775706839999998
10
141.14991581999999
20
63.775706839999998
10
141.14991581999999
20
60.675105979999991
10
140.34891412000002
20
60.675105979999991
10
140.34891412000002
20
59.676106200000021
10
126.34991494000005
20
59.676106200000021
10
126.34991494000005
20
60.675105979999991
10
125.54891578000004
20
60.675105979999991
10
125.54891578000004
20
63.775706839999998
10
126.34991494000005
20
63.775706839999998
10
126.34991494000005
20
69.575707939999972
10
125.54891578000004
20
69.575707939999972
10
125.54891578000004
20
72.674906719999981
10
126.34991494000005
20
72.674906719999981
10
126.34991494000005
20
73.675407640000003
10
140.34891412000002
20
73.675407640000003
10
140.34891412000002
20
72.674906719999981
0
LINE
5
220
100
AcDbEntity
8
0
100
AcDbLine
10
324.33258879419958
20
108.87539888578148
30
0
11
324.33258879419958
21
119.34151740130503
31
0
0
LWPOLYLINE
5
221
100
AcDbEntity
8
0
100
AcDbPolyline
90
20
70
1
43
0.0
10
234.01691576000002
20
3.5250373999999951
10
233.21791558000001
20
3.5250373999999951
10
233.21791558000001
20
2.5259461799999983
10
219.21691487999999
20
2.5259461799999983
10
219.21691487999999
20
3.5250373999999951
10
218.41791470000004
20
3.5250373999999951
10
218.41791470000004
20
6.6255976200000077
10
219.21691487999999
20
6.6255976200000077
10
219.21691487999999
20
12.427107479999986
10
218.41791470000004
20
12.427107479999986
10
218.41791470000004
20
15.525005780000001
10
219.21691487999999
20
15.525005780000001
10
219.21691487999999
20
16.525407640000012
10
233.21791558000001
20
16.525407640000012
10
233.21791558000001
20
15.525005780000001
10
234.01691576000002
20
15.525005780000001
10
234.01691576000002
20
12.427107479999986
10
233.21791558000001
20
12.427107479999986
10
233.21791558000001
20
6.6255976200000077
10
234.01691576000002
20
6.6255976200000077
0
LWPOLYLINE
5
222
100
AcDbEntity
8
0
100
AcDbPolyline
90
20
70
1
43
0.0
10
179.24991582000001
20
69.575707939999972
10
178.44891411999996
20
69.575707939999972
10
178.44891411999996
20
63.775706839999998
10
179.24991582000001
20
63.775706839999998
10
179.24991582000001
20
60.675105979999991
10
178.44891411999996
20
60.675105979999991
10
178.44891411999996
20
59.676106200000021
10
164.44991494000004
20
59.676106200000021
10
164.44991494000004
20
60.675105979999991
10
163.64891577999992
20
60.675105979999991
10
163.64891577999992
20
63.775706839999998
10
164.44991494000004
20
63.775706839999998
10
164.44991494000004
20
69.575707939999972
10
163.64891577999992
20
69.575707939999972
10
163.64891577999992
20
72.674906719999981
10
164.44991494000004
20
72.674906719999981
10
164.44991494000004
20
73.675407640000003
10
178.44891411999996
20
73.675407640000003
10
178.44891411999996
20
72.674906719999981
10
179.24991582000001
20
72.674906719999981
0
LWPOLYLINE
5
223
100
AcDbEntity
8
0
100
AcDbPolyline
90
20
70
1
43
0.0
10
179.24991582000001
20
111.40030806
10
179.24991582000001
20
108.30030664
10
178.44891411999996
20
108.30030664
10
178.44891411999996
20
107.30130686000001
10
164.44991494000004
20
107.30130686000001
10
164.44991494000004
20
108.30030664
10
163.64891577999992
20
108.30030664
10
163.64891577999992
20
111.40030806
10
164.44991494000004
20
111.40030806
10
164.44991494000004
20
117.20030662000001
10
163.64891577999992
20
117.20030662000001
10
163.64891577999992
20
120.30030804
10
164.44991494000004
20
120.30030804
10
164.44991494000004
20
121.30030604
10
178.44891411999996
20
121.30030604
10
178.44891411999996
20
120.30030804
10
179.24991582000001
20
120.30030804
10
179.24991582000001
20
117.20030662000001
10
178.44891411999996
20
117.20030662000001
10
178.44891411999996
20
111.40030806
0
LWPOLYLINE
5
224
100
AcDbEntity
8
0
100
AcDbPolyline
90
20
70
1
43
0.0
10
212.07491494000007
20
111.40030806
10
212.07491494000007
20
117.20030662000001
10
211.27391578000001
20
117.20030662000001
10
211.27391578000001
20
120.30030804
10
212.07491494000007
20
120.30030804
10
212.07491494000007
20
121.30030604
10
226.07391412000001
20
121.30030604
10
226.07391412000001
20
120.30030804
10
226.87491582000007
20
120.30030804
10
226.87491582000007
20
117.20030662000001
10
226.07391412000001
20
117.20030662000001
10
226.07391412000001
20
111.40030806
10
226.87491582000007
20
111.40030806
10
226.87491582000007
20
108.30030664
10
226.07391412000001
20
108.30030664
10
226.07391412000001
20
107.30130686000001
10
212.07491494000007
20
107.30130686000001
10
212.07491494000007
20
108.30030664
10
211.27391578000001
20
108.30030664
10
211.27391578000001
20
111.40030806
0
LWPOLYLINE
5
225
100
AcDbEntity
8
0
100
AcDbPolyline
90
20
70
1
43
0.0
10
49.86141412000002
20
50.525707940000004
10
49.86141412000002
20
44.725706840000008
10
50.660815620000008
20
44.725706840000008
10
50.660815620000008
20
41.625105979999965
10
49.86141412000002
20
41.625105979999965
10
49.86141412000002
20
40.626106200000009
10
35.862115219999964
20
40.626106200000009
10
35.862115219999964
20
41.625105979999965
10
35.061415779999976
20
41.625105979999965
10
35.061415779999976
20
44.725706840000008
10
35.862115219999964
20
44.725706840000008
10
35.862115219999964
20
50.525707940000004
10
35.061415779999976
20
50.525707940000004
10
35.061415779999976
20
53.624906719999998
10
35.862115219999964
20
53.624906719999998
10
35.862115219999964
20
54.625407639999999
10
49.86141412000002
20
54.625407639999999
10
49.86141412000002
20
53.624906719999998
10
50.660815620000008
20
53.624906719999998
10
50.660815620000008
20
50.525707940000004
0
LWPOLYLINE
5
226
100
AcDbEntity
8
0
100
AcDbPolyline
90
20
70
1
43
0.0
10
242.22991432000001
20
12.427107479999986
10
242.22991432000001
20
15.525005780000001
10
243.03091602000001
20
15.525005780000001
10
243.03091602000001
20
16.525407640000012
10
257.0299152
20
16.525407640000012
10
257.0299152
20
15.525005780000001
10
257.83091436000001
20
15.525005780000001
10
257.83091436000001
20
12.427107479999986
10
257.0299152
20
12.427107479999986
10
257.0299152
20
6.6255976200000077
10
257.83091436000001
20
6.6255976200000077
10
257.83091436000001
20
3.5250373999999951
10
257.0299152
20
3.5250373999999951
10
257.0299152
20
2.5259461799999983
10
243.03091602000001
20
2.5259461799999983
10
243.03091602000001
20
3.5250373999999951
10
242.22991432000001
20
3.5250373999999951
10
242.22991432000001
20
6.6255976200000077
10
243.03091602000001
20
6.6255976200000077
10
243.03091602000001
20
12.427107479999986
0
LWPOLYLINE
5
227
100
AcDbEntity
8
0
100
AcDbPolyline
90
20
70
1
43
0.0
10
245.12391411999999
20
121.30030604
10
245.12391411999999
20
120.30030804
10
245.92491582000002
20
120.30030804
10
245.92491582000002
20
117.20030662000001
10
245.12391411999999
20
117.20030662000001
10
245.12391411999999
20
111.40030806
10
245.92491582000002
20
111.40030806
10
245.92491582000002
20
108.30030664
10
245.12391411999999
20
108.30030664
10
245.12391411999999
20
107.30130686000001
10
231.12491494
20
107.30130686000001
10
231.12491494
20
108.30030664
10
230.32391578000002
20
108.30030664
10
230.32391578000002
20
111.40030806
10
231.12491494
20
111.40030806
10
231.12491494
20
117.20030662000001
10
230.32391578000002
20
117.20030662000001
10
230.32391578000002
20
120.30030804
10
231.12491494
20
120.30030804
10
231.12491494
20
121.30030604
0
LWPOLYLINE
5
228
100
AcDbEntity
8
0
100
AcDbPolyline
90
20
70
1
43
0.0
10
283.22391412000002
20
117.20030662000001
10
283.22391412000002
20
111.40030806
10
284.02491581999999
20
111.40030806
10
284.02491581999999
20
108.30030664
10
283.22391412000002
20
108.30030664
10
283.22391412000002
20
107.30130686000001
10
269.22491494000002
20
107.30130686000001
10
269.22491494000002
20
108.30030664
10
268.42391578000002
20
108.30030664
10
268.42391578000002
20
111.40030806
10
269.22491494000002
20
111.40030806
10
269.22491494000002
20
117.20030662000001
10
268.42391578000002
20
117.20030662000001
10
268.42391578000002
20
120.30030804
10
269.22491494000002
20
120.30030804
10
269.22491494000002
20
121.30030604
10
283.22391412000002
20
121.30030604
10
283.22391412000002
20
120.30030804
10
284.02491581999999
20
120.30030804
10
284.02491581999999
20
117.20030662000001
0
LWPOLYLINE
5
229
100
AcDbEntity
8
0
100
AcDbPolyline
90
20
70
1
43
0.0
10
55.424715159999991
20
88.625707939999984
10
54.623914119999988
20
88.625707939999984
10
54.623914119999988
20
82.825706839999981
10
55.424715159999991
20
82.825706839999981
10
55.424715159999991
20
79.725105979999981
10
54.623914119999988
20
79.725105979999981
10
54.623914119999988
20
78.726106199999975
10
40.62461521999996
20
78.726106199999975
10
40.62461521999996
20
79.725105979999981
10
39.823814179999992
20
79.725105979999981
10
39.823814179999992
20
82.825706839999981
10
40.62461521999996
20
82.825706839999981
10
40.62461521999996
20
88.625707939999984
10
39.823814179999992
20
88.625707939999984
10
39.823814179999992
20
91.724906720000007
10
40.62461521999996
20
91.724906720000007
10
40.62461521999996
20
92.72540764
10
54.623914119999988
20
92.72540764
10
54.623914119999988
20
91.724906720000007
10
55.424715159999991
20
91.724906720000007
0
LWPOLYLINE
5
230
100
AcDbEntity
8
0
100
AcDbPolyline
90
20
70
1
43
0.0
10
197.49891411999999
20
117.20030662000001
10
197.49891411999999
20
111.40030806
10
198.29991582000002
20
111.40030806
10
198.29991582000002
20
108.30030664
10
197.49891411999999
20
108.30030664
10
197.49891411999999
20
107.30130686000001
10
183.49991494
20
107.30130686000001
10
183.49991494
20
108.30030664
10
182.69891577999999
20
108.30030664
10
182.69891577999999
20
111.40030806
10
183.49991494
20
111.40030806
10
183.49991494
20
117.20030662000001
10
182.69891577999999
20
117.20030662000001
10
182.69891577999999
20
120.30030804
10
183.49991494
20
120.30030804
10
183.49991494
20
121.30030604
10
197.49891411999999
20
121.30030604
10
197.49891411999999
20
120.30030804
10
198.29991582000002
20
120.30030804
10
198.29991582000002
20
117.20030662000001
0
LWPOLYLINE
5
231
100
AcDbEntity
8
0
100
AcDbPolyline
90
20
70
1
43
0.0
10
64.949715159999954
20
63.775706839999998
10
64.949715159999954
20
60.675105979999991
10
64.148914120000001
20
60.675105979999991
10
64.148914120000001
20
59.676106200000021
10
50.149615220000001
20
59.676106200000021
10
50.149615220000001
20
60.675105979999991
10
49.348814179999998
20
60.675105979999991
10
49.348814179999998
20
63.775706839999998
10
50.149615220000001
20
63.775706839999998
10
50.149615220000001
20
69.575707939999972
10
49.348814179999998
20
69.575707939999972
10
49.348814179999998
20
72.674906719999981
10
50.149615220000001
20
72.674906719999981
10
50.149615220000001
20
73.675407640000003
10
64.148914120000001
20
73.675407640000003
10
64.148914120000001
20
72.674906719999981
10
64.949715159999954
20
72.674906719999981
10
64.949715159999954
20
69.575707939999972
10
64.148914120000001
20
69.575707939999972
10
64.148914120000001
20
63.775706839999998
0
LWPOLYLINE
5
232
100
AcDbEntity
8
0
100
AcDbPolyline
90
20
70
1
43
0.0
10
16.524114780000012
20
108.30030664
10
16.524114780000012
20
107.30130686000001
10
2.5245644199999973
20
107.30130686000001
10
2.5245644199999973
20
108.30030664
10
1.7239259400000151
20
108.30030664
10
1.7239259400000151
20
111.40030806
10
2.5245644199999973
20
111.40030806
10
2.5245644199999973
20
117.20030662000001
10
1.7239259400000151
20
117.20030662000001
10
1.7239259400000151
20
120.30030804
10
2.5245644199999973
20
120.30030804
10
2.5245644199999973
20
121.30030604
10
16.524114780000012
20
121.30030604
10
16.524114780000012
20
120.30030804
10
17.324715160000004
20
120.30030804
10
17.324715160000004
20
117.20030662000001
10
16.524114780000012
20
117.20030662000001
10
16.524114780000012
20
111.40030806
10
17.324715160000004
20
111.40030806
10
17.324715160000004
20
108.30030664
0
CIRCLE
5
233
100
AcDbEntity
8
0
100
AcDbCircle
10
213.83145702000002
20
-3.2000012199999999
30
0
40
2.1000008800000103
210
0
220
0
230
1
0
LWPOLYLINE
5
234
100
AcDbEntity
8
0
100
AcDbPolyline
90
20
70
1
43
0.0
10
188.26191456000001
20
44.725706840000008
10
188.26191456000001
20
50.525707940000004
10
187.46091540000006
20
50.525707940000004
10
187.46091540000006
20
53.624906719999998
10
188.26191456000001
20
53.624906719999998
10
188.26191456000001
20
54.625407639999999
10
202.26191450000002
20
54.625407639999999
10
202.26191450000002
20
53.624906719999998
10
203.06091468000002
20
53.624906719999998
10
203.06091468000002
20
50.525707940000004
10
202.26191450000002
20
50.525707940000004
10
202.26191450000002
20
44.725706840000008
10
203.06091468000002
20
44.725706840000008
10
203.06091468000002
20
41.625105979999965
10
202.26191450000002
20
41.625105979999965
10
202.26191450000002
20
40.626106200000009
10
188.26191456000001
20
40.626106200000009
10
188.26191456000001
20
41.625105979999965
10
187.46091540000006
20
41.625105979999965
10
187.46091540000006
20
44.725706840000008
0
CIRCLE
5
235
100
AcDbEntity
8
0
100
AcDbCircle
10
53.831459520000003
20
127.02530855999998
30
0
40
2.1000008800000014
210
0
220
0
230
1
0
LWPOLYLINE
5
236
100
AcDbEntity
8
0
100
AcDbPolyline
90
20
70
1
43
0.0
10
67.331015959999974
20
3.5250373999999951
10
66.530214920000006
20
3.5250373999999951
10
66.530214920000006
20
2.5259461799999983
10
52.530916019999978
20
2.5259461799999983
10
52.530916019999978
20
3.5250373999999951
10
51.73011498000001
20
3.5250373999999951
10
51.73011498000001
20
6.6255976200000077
10
52.530916019999978
20
6.6255976200000077
10
52.530916019999978
20
12.427107479999986
10
51.73011498000001
20
12.427107479999986
10
51.73011498000001
20
15.525005780000001
10
52.530916019999978
20
15.525005780000001
10
52.530916019999978
20
16.525407640000012
10
66.530214920000006
20
16.525407640000012
10
66.530214920000006
20
15.525005780000001
10
67.331015959999974
20
15.525005780000001
10
67.331015959999974
20
12.427107479999986
10
66.530214920000006
20
12.427107479999986
10
66.530214920000006
20
6.6255976200000077
10
67.331015959999974
20
6.6255976200000077
0
CIRCLE
5
237
100
AcDbEntity
8
0
100
AcDbCircle
10
-3.2000012199999999
20
31.912653979999991
30
0
40
2.1000008800000005
210
0
220
0
230
1
0
CIRCLE
5
238
100
AcDbEntity
8
0
100
AcDbCircle
10
118.872
20
107.56900000000002
30
0
40
1.5999968000000031
210
0
220
0
230
1
0
CIRCLE
5
239
100
AcDbEntity
8
0
100
AcDbCircle
10
287.90899999999999
20
25.396306840000005
30
0
40
1.5999967999999853
210
0
220
0
230
1
0
CIRCLE
5
240
100
AcDbEntity
8
0
100
AcDbCircle
10
-3.2000012199999999
20
96.912656060000018
30
0
40
2.1000008800000005
210
0
220
0
230
1
0
CIRCLE
5
241
100
AcDbEntity
8
0
100
AcDbCircle
10
213.83145702000002
20
127.02530855999998
30
0
40
2.1000008800000103
210
0
220
0
230
1
0
CIRCLE
5
242
100
AcDbEntity
8
0
100
AcDbCircle
10
328.61191325999994
20
76.20070611999995
30
0
40
8.9999997799999658
210
0
220
0
230
1
0
CIRCLE
5
243
100
AcDbEntity
8
0
100
AcDbCircle
10
133.83145954000003
20
-3.2000012199999999
30
0
40
2.1000008799999925
210
0
220
0
230
1
0
CIRCLE
5
244
100
AcDbEntity
8
0
100
AcDbCircle
10
293.83145704000009
20
127.02530855999998
30
0
40
2.1000008800000103
210
0
220
0
230
1
0
CIRCLE
5
245
100
AcDbEntity
8
0
100
AcDbCircle
10
53.831459520000003
20
-3.2000012199999999
30
0
40
2.1000008800000014
210
0
220
0
230
1
0
CIRCLE
5
246
100
AcDbEntity
8
0
100
AcDbCircle
10
287.90899999999999
20
116.71300000000001
30
0
40
1.5999967999999853
210
0
220
0
230
1
0
CIRCLE
5
247
100
AcDbEntity
8
0
100
AcDbCircle
10
133.83145954000003
20
127.02530855999998
30
0
40
2.1000008799999925
210
0
220
0
230
1
0
CIRCLE
5
248
100
AcDbEntity
8
0
100
AcDbCircle
10
350.86291523999984
20
31.912653979999991
30
0
40
2.1000008800000103
210
0
220
0
230
1
0
CIRCLE
5
249
100
AcDbEntity
8
0
100
AcDbCircle
10
350.86291523999984
20
96.912656060000018
30
0
40
2.1000008800000103
210
0
220
0
230
1
0
CIRCLE
5
250
100
AcDbEntity
8
0
100
AcDbCircle
10
39.115999999999993
20
102.99700000000001
30
0
40
1.5999967999999989
210
0
220
0
230
1
0
CIRCLE
5
251
100
AcDbEntity
8
0
100
AcDbCircle
10
293.83145704000009
20
-3.2000012199999999
30
0
40
2.1000008800000103
210
0
220
0
230
1
0
CIRCLE
5
252
100
AcDbEntity
8
0
100
AcDbCircle
10
39.115999999999993
20
20.954999999999991
30
0
40
1.5999967999999989
210
0
220
0
230
1
0
CIRCLE
5
253
100
AcDbEntity
8
0
100
AcDbCircle
10
144.65299999999999
20
3.6830000000000003
30
0
40
1.5999968000000031
210
0
220
0
230
1
0
CIRCLE
5
254
100
AcDbEntity
8
0
100
AcDbCircle
10
334.77200000000005
20
114.29630684000001
30
0
40
7.9999999999999716
210
0
220
0
230
1
0
LINE
5
255
100
AcDbEntity
8
0
100
AcDbLine
10
324.33258879419958
20
119.34151740130503
30
0
11
324.33258879419958
21
123.82530733999999
31
0
0
LINE
5
256
100
AcDbEntity
8
0
100
AcDbLine
10
321.64776782235884
20
119.34151740130503
30
0
11
321.64776782235884
21
123.82530733999999
31
0
0
LINE
5
257
100
AcDbEntity
8
0
100
AcDbLine
10
347.66291402000002
20
123.82530733999999
30
0
11
324.33258879419958
21
123.82530733999999
31
0
0
LINE
5
258
100
AcDbEntity
8
0
100
AcDbLine
10
321.64776782235884
20
123.82530733999999
30
0
11
315.63091560000009
21
123.82530733999999
31
0
0
ARC
5
259
100
AcDbEntity
8
0
100
AcDbCircle
10
26.872037217721974
20
128.52524247410147
30
0
40
8.9999999999999982
210
0
220
0
230
1
100
AcDbArc
50
211.48094793837492
51
328.51905206162508
0
LINE
5
260
100
AcDbEntity
8
0
100
AcDbLine
10
46.631456140000004
20
123.82530733999999
30
0
11
34.547361949304253
21
123.82530733999999
31
0
0
LINE
5
261
100
AcDbEntity
8
0
100
AcDbLine
10
19.196712486139695
20
123.82530733999999
30
0
11
0
21
123.82530733999999
31
0
0
ENDSEC
0
SECTION
2
OBJECTS
0
DICTIONARY
5
C
100
AcDbDictionary
3
ACAD_GROUP
350
D
3
ACAD_MLINESTYLE
350
17
0
DICTIONARY
5
D
100
AcDbDictionary
0
DICTIONARY
5
1A
330
C
100
AcDbDictionary
0
DICTIONARY
5
17
100
AcDbDictionary
0
ENDSEC
0
EOF
